<svg xmlns="http://www.w3.org/2000/svg" width="1200" height="900" viewBox="0 0 1200 900" role="img">
<title>Fault response and hazard divert scenario comparison</title>
<rect width="100%" height="100%" fill="#f8fafc"/>
<text x="52" y="42" font-family="Arial" font-size="24" font-weight="700" fill="#0f172a">Actuator, Fault, and Hazard-Divert Verification</text>
<text x="52" y="67" font-family="Arial" font-size="14" fill="#475569">Identical initial state, estimator, corridor guidance, and finite-rate command path; only the stated fault or target changes.</text>
<rect x="72" y="132" width="680" height="470" fill="#ffffff" stroke="#cbd5e1"/>
<line x1="72" y1="602.0" x2="752" y2="602.0" stroke="#e2e8f0"/>
<text x="62" y="606.0" text-anchor="end" font-family="Arial" font-size="11" fill="#64748b">0</text>
<line x1="72" y1="484.5" x2="752" y2="484.5" stroke="#e2e8f0"/>
<text x="62" y="488.5" text-anchor="end" font-family="Arial" font-size="11" fill="#64748b">180</text>
<line x1="72" y1="367.0" x2="752" y2="367.0" stroke="#e2e8f0"/>
<text x="62" y="371.0" text-anchor="end" font-family="Arial" font-size="11" fill="#64748b">360</text>
<line x1="72" y1="249.5" x2="752" y2="249.5" stroke="#e2e8f0"/>
<text x="62" y="253.5" text-anchor="end" font-family="Arial" font-size="11" fill="#64748b">540</text>
<line x1="72" y1="132.0" x2="752" y2="132.0" stroke="#e2e8f0"/>
<text x="62" y="136.0" text-anchor="end" font-family="Arial" font-size="11" fill="#64748b">720</text>
<line x1="72.0" y1="132" x2="72.0" y2="602" stroke="#f1f5f9"/>
<text x="72.0" y="619" text-anchor="middle" font-family="Arial" font-size="11" fill="#64748b">-10</text>
<line x1="169.1" y1="132" x2="169.1" y2="602" stroke="#f1f5f9"/>
<text x="169.1" y="619" text-anchor="middle" font-family="Arial" font-size="11" fill="#64748b">-5</text>
<line x1="266.3" y1="132" x2="266.3" y2="602" stroke="#f1f5f9"/>
<text x="266.3" y="619" text-anchor="middle" font-family="Arial" font-size="11" fill="#64748b">0</text>
<line x1="363.4" y1="132" x2="363.4" y2="602" stroke="#f1f5f9"/>
<text x="363.4" y="619" text-anchor="middle" font-family="Arial" font-size="11" fill="#64748b">5</text>
<line x1="460.6" y1="132" x2="460.6" y2="602" stroke="#f1f5f9"/>
<text x="460.6" y="619" text-anchor="middle" font-family="Arial" font-size="11" fill="#64748b">10</text>
<line x1="557.7" y1="132" x2="557.7" y2="602" stroke="#f1f5f9"/>
<text x="557.7" y="619" text-anchor="middle" font-family="Arial" font-size="11" fill="#64748b">15</text>
<line x1="654.9" y1="132" x2="654.9" y2="602" stroke="#f1f5f9"/>
<text x="654.9" y="619" text-anchor="middle" font-family="Arial" font-size="11" fill="#64748b">20</text>
<line x1="752.0" y1="132" x2="752.0" y2="602" stroke="#f1f5f9"/>
<text x="752.0" y="619" text-anchor="middle" font-family="Arial" font-size="11" fill="#64748b">25</text>
<rect x="188.6" y="585.0" width="155.4" height="17.0" fill="#fee2e2" stroke="#dc2626" opacity="0.86"/>
<rect x="257.3" y="597.0" width="18" height="5" fill="#2563eb"/>
<text x="266.3" y="636" text-anchor="middle" font-family="Arial" font-size="10.5" fill="#2563eb">nominal target</text>
<rect x="490.4" y="597.0" width="18" height="5" fill="#059669"/>
<text x="499.4" y="636" text-anchor="middle" font-family="Arial" font-size="10.5" fill="#059669">divert target</text>
<rect x="84" y="142" width="188" height="148" rx="3" fill="#ffffff" opacity="0.94" stroke="#e2e8f0"/>
<path d="M616.0,132.0 L613.6,133.9 L611.1,135.8 L608.7,137.7 L606.3,139.7 L603.9,141.6 L601.5,143.6 L599.1,145.5 L596.7,147.5 L594.4,149.4 L592.0,151.4 L589.7,153.3 L587.3,155.2 L585.0,157.1 L582.7,159.1 L580.5,160.9 L578.2,162.8 L576.0,164.7 L573.8,166.5 L571.6,168.4 L569.4,170.2 L567.3,172.0 L565.1,173.8 L563.0,175.6 L560.9,177.4 L558.8,179.2 L556.8,180.9 L554.8,182.7 L552.7,184.4 L550.7,186.1 L548.8,187.9 L546.8,189.6 L544.8,191.3 L542.9,193.0 L541.0,194.8 L539.0,196.5 L537.1,198.2 L535.2,200.0 L533.3,201.7 L531.4,203.5 L529.5,205.3 L527.6,207.1 L525.8,208.9 L523.9,210.7 L522.1,212.4 L520.3,214.2 L518.5,216.0 L516.7,217.8 L515.0,219.5 L513.2,221.3 L511.6,223.1 L509.9,224.8 L508.2,226.5 L506.6,228.2 L505.0,230.0 L503.4,231.6 L501.9,233.3 L500.4,235.0 L498.9,236.7 L497.4,238.3 L495.9,240.0 L494.5,241.6 L493.1,243.3 L491.7,244.9 L490.4,246.5 L489.0,248.1 L487.7,249.7 L486.4,251.3 L485.1,252.9 L483.9,254.5 L482.6,256.1 L481.3,257.7 L480.1,259.3 L478.9,261.0 L477.7,262.6 L476.5,264.3 L475.3,265.9 L474.1,267.5 L472.9,269.2 L471.8,270.8 L470.7,272.4 L469.6,274.1 L468.5,275.7 L467.5,277.3 L466.4,278.9 L465.4,280.5 L464.4,282.1 L463.5,283.7 L462.6,285.3 L461.6,286.8 L460.7,288.4 L459.9,289.9 L459.0,291.5 L458.2,293.0 L457.4,294.5 L456.6,296.0 L455.8,297.6 L455.1,299.1 L454.4,300.5 L453.6,302.0 L452.9,303.5 L452.3,305.0 L451.6,306.5 L450.9,307.9 L450.3,309.4 L449.7,310.9 L449.0,312.4 L448.4,313.9 L447.8,315.4 L447.2,317.0 L446.6,318.5 L446.0,320.0 L445.4,321.5 L444.9,323.0 L444.3,324.6 L443.8,326.1 L443.3,327.6 L442.8,329.1 L442.3,330.5 L441.9,332.0 L441.4,333.5 L441.0,334.9 L440.6,336.4 L440.2,337.8 L439.8,339.3 L439.5,340.7 L439.1,342.1 L438.8,343.5 L438.5,344.9 L438.2,346.3 L437.9,347.6 L437.6,349.0 L437.3,350.4 L437.1,351.7 L436.8,353.1 L436.6,354.4 L436.3,355.8 L436.1,357.1 L435.9,358.5 L435.7,359.8 L435.5,361.2 L435.3,362.6 L435.1,364.0 L434.9,365.4 L434.7,366.8 L434.5,368.1 L434.3,369.5 L434.2,370.9 L434.0,372.3 L433.9,373.7 L433.7,375.1 L433.6,376.4 L433.5,377.8 L433.3,379.1 L433.2,380.5 L433.1,381.8 L433.0,383.1 L432.9,384.4 L432.8,385.7 L432.7,387.0 L432.7,388.3 L432.6,389.6 L432.5,390.8 L432.5,392.1 L432.4,393.4 L432.4,394.6 L432.3,395.8 L432.3,397.1 L432.2,398.3 L432.2,399.5 L432.1,400.8 L432.1,402.0 L432.1,403.2 L432.0,404.5 L432.0,405.7 L432.0,407.0 L431.9,408.3 L431.9,409.6 L431.9,410.9 L431.9,412.1 L431.8,413.4 L431.8,414.7 L431.8,416.0 L431.8,417.2 L431.7,418.5 L431.7,419.7 L431.7,421.0 L431.6,422.2 L431.6,423.4 L431.6,424.6 L431.5,425.8 L431.5,427.0 L431.4,428.2 L431.4,429.4 L431.3,430.5 L431.2,431.7 L431.2,432.8 L431.1,433.9 L431.0,435.0 L431.0,436.2 L430.9,437.3 L430.8,438.4 L430.7,439.5 L430.6,440.6 L430.5,441.7 L430.4,442.8 L430.3,444.0 L430.2,445.1 L430.1,446.3 L430.0,447.4 L429.9,448.6 L429.8,449.7 L429.7,450.8 L429.5,452.0 L429.4,453.1 L429.3,454.2 L429.1,455.4 L429.0,456.5 L428.8,457.6 L428.6,458.7 L428.4,459.8 L428.2,460.8 L428.0,461.9 L427.8,463.0 L427.6,464.0 L427.3,465.0 L427.1,466.1 L426.8,467.1 L426.6,468.1 L426.3,469.1 L426.0,470.1 L425.8,471.1 L425.5,472.1 L425.2,473.1 L424.9,474.1 L424.6,475.1 L424.2,476.1 L423.9,477.1 L423.6,478.1 L423.3,479.2 L423.0,480.2 L422.6,481.2 L422.3,482.3 L422.0,483.3 L421.6,484.3 L421.2,485.3 L420.9,486.3 L420.5,487.3 L420.1,488.3 L419.7,489.3 L419.2,490.3 L418.8,491.3 L418.4,492.2 L417.9,493.2 L417.4,494.1 L417.0,495.0 L416.5,495.9 L416.0,496.9 L415.5,497.8 L415.0,498.7 L414.4,499.5 L413.9,500.4 L413.3,501.3 L412.8,502.2 L412.2,503.0 L411.7,503.9 L411.1,504.8 L410.5,505.6 L409.9,506.5 L409.3,507.4 L408.7,508.3 L408.2,509.2 L407.6,510.1 L407.0,511.0 L406.4,511.9 L405.7,512.9 L405.1,513.8 L404.5,514.7 L403.9,515.6 L403.2,516.5 L402.6,517.4 L401.9,518.3 L401.2,519.1 L400.5,520.0 L399.8,520.9 L399.1,521.7 L398.4,522.5 L397.7,523.4 L397.0,524.2 L396.2,525.0 L395.5,525.8 L394.7,526.5 L394.0,527.3 L393.2,528.1 L392.4,528.8 L391.6,529.6 L390.8,530.3 L390.0,531.0 L389.2,531.7 L388.4,532.4 L387.6,533.2 L386.7,533.9 L385.9,534.6 L385.1,535.3 L384.3,536.1 L383.4,536.8 L382.6,537.6 L381.8,538.3 L380.9,539.1 L380.1,539.9 L379.3,540.7 L378.4,541.4 L377.6,542.2 L376.7,543.0 L375.9,543.8 L375.0,544.5 L374.1,545.3 L373.3,546.0 L372.4,546.7 L371.5,547.4 L370.6,548.1 L369.7,548.7 L368.8,549.3 L367.8,549.9 L366.9,550.4 L365.9,550.9 L365.0,551.4 L364.0,551.8 L363.0,552.2 L362.0,552.6 L361.0,552.9 L360.0,553.2 L359.0,553.5 L357.9,553.7 L356.9,553.9 L355.8,554.1 L354.7,554.2 L353.6,554.3 L352.5,554.3 L351.5,554.4 L350.3,554.4 L349.2,554.3 L348.1,554.3 L347.0,554.2 L345.9,554.2 L344.8,554.1 L343.6,554.1 L342.5,554.0 L341.4,554.0 L340.2,553.9 L339.1,553.9 L338.0,553.9 L336.9,553.8 L335.7,553.8 L334.6,553.9 L333.5,553.9 L332.3,553.9 L331.2,554.0 L330.1,554.1 L329.0,554.1 L327.8,554.2 L326.7,554.4 L325.6,554.5 L324.4,554.6 L323.3,554.8 L322.2,555.0 L321.1,555.1 L320.0,555.3 L318.8,555.4 L317.7,555.6 L316.6,555.8 L315.5,555.9 L314.4,556.0 L313.3,556.2 L312.2,556.3 L311.1,556.4 L310.0,556.5 L309.0,556.6 L307.9,556.7 L306.8,556.7 L305.8,556.8 L304.7,556.8 L303.6,556.9 L302.6,556.9 L301.5,556.9 L300.5,557.0 L299.4,557.0 L298.4,557.0 L297.3,557.1 L296.3,557.2 L295.2,557.2 L294.2,557.3 L293.2,557.4 L292.1,557.5 L291.1,557.6 L290.0,557.8 L289.0,557.9 L288.0,558.1 L286.9,558.2 L285.9,558.4 L284.9,558.5 L283.9,558.7 L282.9,558.8 L281.9,559.0 L280.9,559.1 L279.9,559.2 L278.9,559.3 L277.9,559.4 L276.9,559.5 L275.9,559.6 L275.0,559.7 L274.0,559.8 L273.1,559.8 L272.1,559.9 L271.2,559.9 L270.3,560.0 L269.3,560.0 L268.4,560.1 L267.5,560.1 L266.6,560.2 L265.6,560.3 L264.7,560.4 L263.8,560.5 L262.9,560.6 L262.0,560.8 L261.0,560.9 L260.1,561.0 L259.2,561.2 L258.3,561.3 L257.4,561.4 L256.5,561.6 L255.7,561.7 L254.8,561.8 L253.9,561.9 L253.0,562.0 L252.2,562.1 L251.3,562.2 L250.5,562.3 L249.7,562.4 L248.8,562.4 L248.0,562.5 L247.2,562.5 L246.4,562.6 L245.6,562.6 L244.8,562.7 L244.0,562.7 L243.2,562.8 L242.4,562.9 L241.6,562.9 L240.8,563.0 L240.0,563.1 L239.2,563.3 L238.4,563.4 L237.6,563.6 L236.8,563.7 L236.0,563.9 L235.3,564.0 L234.5,564.2 L233.7,564.4 L232.9,564.5 L232.2,564.7 L231.4,564.8 L230.7,565.0 L229.9,565.1 L229.2,565.2 L228.5,565.3 L227.8,565.4 L227.1,565.5 L226.4,565.5 L225.7,565.6 L225.0,565.6 L224.3,565.7 L223.6,565.7 L222.9,565.7 L222.3,565.8 L221.6,565.8 L220.9,565.9 L220.2,566.0 L219.6,566.0 L218.9,566.1 L218.3,566.2 L217.6,566.3 L216.9,566.5 L216.3,566.6 L215.6,566.7 L215.0,566.9 L214.3,567.1 L213.7,567.2 L213.0,567.4 L212.4,567.5 L211.8,567.7 L211.2,567.8 L210.5,567.9 L209.9,568.1 L209.3,568.2 L208.8,568.3 L208.2,568.4 L207.6,568.4 L207.0,568.5 L206.5,568.6 L205.9,568.6 L205.4,568.7 L204.8,568.7 L204.3,568.8 L203.7,568.8 L203.2,568.9 L202.7,568.9 L202.2,569.0 L201.6,569.1 L201.1,569.2 L200.6,569.3 L200.1,569.4 L199.5,569.5 L199.0,569.7 L198.5,569.8 L198.0,570.0 L197.5,570.1 L197.0,570.3 L196.5,570.5 L196.0,570.6 L195.5,570.8 L195.0,570.9 L194.5,571.0 L194.0,571.2 L193.6,571.3 L193.1,571.4 L192.7,571.5 L192.2,571.6 L191.8,571.6 L191.3,571.7 L190.9,571.7 L190.5,571.8 L190.1,571.8 L189.7,571.9 L189.3,571.9 L188.9,572.0 L188.5,572.1 L188.1,572.1 L187.7,572.2 L187.3,572.3 L186.9,572.4 L186.5,572.5 L186.1,572.7 L185.7,572.8 L185.3,573.0 L184.9,573.1 L184.5,573.3 L184.1,573.4 L183.7,573.6 L183.4,573.8 L183.0,573.9 L182.7,574.1 L182.3,574.2 L182.0,574.3 L181.6,574.4 L181.3,574.5 L181.0,574.6 L180.6,574.7 L180.3,574.8 L180.0,574.8 L179.7,574.9 L179.4,574.9 L179.1,575.0 L178.8,575.0 L178.5,575.1 L178.3,575.1 L178.0,575.2 L177.7,575.2 L177.4,575.3 L177.1,575.4 L176.9,575.5 L176.6,575.6 L176.3,575.8 L176.0,575.9 L175.8,576.1 L175.5,576.2 L175.2,576.4 L175.0,576.6 L174.7,576.7 L174.5,576.9 L174.2,577.0 L174.0,577.2 L173.7,577.3 L173.5,577.4 L173.3,577.5 L173.1,577.6 L172.8,577.7 L172.6,577.8 L172.4,577.8 L172.2,577.9 L172.0,578.0 L171.9,578.0 L171.7,578.0 L171.5,578.1 L171.3,578.1 L171.1,578.2 L171.0,578.2 L170.8,578.3 L170.6,578.4 L170.5,578.5 L170.3,578.6 L170.1,578.7 L170.0,578.8 L169.8,578.9 L169.6,579.1 L169.5,579.2 L169.3,579.4 L169.2,579.6 L169.0,579.7 L168.9,579.9 L168.7,580.0 L168.6,580.1 L168.5,580.3 L168.4,580.4 L168.2,580.5 L168.1,580.6 L168.0,580.7 L167.9,580.8 L167.8,580.8 L167.7,580.9 L167.7,581.0 L167.6,581.0 L167.5,581.0 L167.4,581.1 L167.4,581.1 L167.3,581.2 L167.2,581.2 L167.2,581.3 L167.1,581.4 L167.1,581.5 L167.0,581.6 L166.9,581.7 L166.9,581.8 L166.8,582.0 L166.8,582.1 L166.7,582.3 L166.6,582.4 L166.6,582.6 L166.5,582.7 L166.5,582.9 L166.5,583.0 L166.4,583.2 L166.4,583.3 L166.4,583.4 L166.3,583.5 L166.3,583.6 L166.3,583.7 L166.3,583.8 L166.3,583.9 L166.3,583.9 L166.3,584.0 L166.3,584.0 L166.3,584.1 L166.3,584.1 L166.3,584.2 L166.3,584.2 L166.3,584.3 L166.3,584.4 L166.3,584.4 L166.4,584.5 L166.4,584.6 L166.4,584.7 L166.4,584.9 L166.4,585.0 L166.4,585.2 L166.4,585.3 L166.5,585.5 L166.5,585.7 L166.5,585.8 L166.5,586.0 L166.6,586.1 L166.6,586.2 L166.6,586.4 L166.7,586.5 L166.7,586.6 L166.8,586.7 L166.8,586.8 L166.9,586.8 L166.9,586.9 L167.0,587.0 L167.1,587.0 L167.1,587.0 L167.2,587.0 L167.3,587.1 L167.3,587.1 L167.4,587.1 L167.5,587.2 L167.6,587.2 L167.7,587.3 L167.7,587.3 L167.8,587.4 L167.9,587.5 L168.0,587.6 L168.1,587.7 L168.2,587.9 L168.3,588.0 L168.3,588.1 L168.4,588.3 L168.5,588.4 L168.6,588.5 L168.7,588.7 L168.8,588.8 L169.0,588.9 L169.1,589.0 L169.2,589.1 L169.3,589.2 L169.4,589.2 L169.6,589.3 L169.7,589.3 L169.8,589.4 L170.0,589.4 L170.1,589.4 L170.3,589.5 L170.4,589.5 L170.6,589.5 L170.7,589.5 L170.9,589.6 L171.0,589.6 L171.2,589.7 L171.3,589.8 L171.5,589.9 L171.6,589.9 L171.8,590.1 L172.0,590.2 L172.1,590.3 L172.3,590.5 L172.5,590.6 L172.6,590.7 L172.8,590.9 L173.0,591.0 L173.2,591.1 L173.3,591.3 L173.5,591.4 L173.7,591.5 L173.9,591.6 L174.1,591.6 L174.3,591.7 L174.5,591.8 L174.7,591.8 L174.9,591.9 L175.1,591.9 L175.4,591.9 L175.6,592.0 L175.8,592.0 L176.1,592.0 L176.3,592.0 L176.5,592.1 L176.7,592.1 L177.0,592.2 L177.2,592.3 L177.5,592.4 L177.7,592.5 L177.9,592.6 L178.2,592.7 L178.4,592.8 L178.6,593.0 L178.9,593.1 L179.1,593.2 L179.4,593.4 L179.6,593.5 L179.9,593.6 L180.1,593.8 L180.4,593.9 L180.7,594.0 L180.9,594.1 L181.2,594.1 L181.5,594.2 L181.8,594.3 L182.1,594.3 L182.3,594.4 L182.6,594.4 L182.9,594.4 L183.2,594.4 L183.5,594.5 L183.8,594.5 L184.1,594.5 L184.4,594.6 L184.7,594.6 L185.0,594.7 L185.3,594.7 L185.6,594.8 L185.9,594.9 L186.2,595.0 L186.6,595.2 L186.9,595.3 L187.2,595.4 L187.5,595.6 L187.8,595.7 L188.1,595.8 L188.4,596.0 L188.8,596.1 L189.1,596.2 L189.4,596.3 L189.7,596.4 L190.1,596.5 L190.4,596.6 L190.8,596.7 L191.1,596.8 L191.5,596.8 L191.8,596.8 L192.2,596.9 L192.5,596.9 L192.9,596.9 L193.3,597.0 L193.6,597.0 L194.0,597.0 L194.4,597.1 L194.7,597.1 L195.1,597.2 L195.5,597.2 L195.8,597.3 L196.2,597.4 L196.6,597.5 L196.9,597.7 L197.3,597.8 L197.7,597.9 L198.1,598.1 L198.4,598.2 L198.8,598.4 L199.2,598.5 L199.6,598.6 L199.9,598.7 L200.3,598.9 L200.7,599.0 L201.1,599.0 L201.4,599.1 L201.8,599.2 L202.2,599.3 L202.6,599.3 L203.0,599.4 L203.4,599.4 L203.7,599.4 L204.1,599.4 L204.5,599.5 L204.9,599.5 L205.3,599.5 L205.7,599.6 L206.1,599.6 L206.4,599.7 L206.8,599.8 L207.2,599.8 L207.6,599.9 L208.0,600.1 L208.4,600.2 L208.8,600.3 L209.1,600.5 L209.5,600.6 L209.9,600.7 L210.3,600.9 L210.7,601.0 L211.1,601.1 L211.5,601.3 L211.9,601.4 L212.3,601.5 L212.6,601.6 L213.0,601.7 L213.4,601.7 L213.8,601.8 L214.2,601.8 L214.6,601.9 L215.0,601.9 L215.4,601.9 L215.8,601.9 L216.1,602.0 L216.5,602.0 L216.9,601.9 L217.3,601.9 L217.7,601.9 L218.1,601.9 L218.5,601.9 L218.9,601.9 L219.2,601.9 L219.6,601.9 L220.0,601.8 L220.4,601.8 L220.8,601.8 L221.2,601.8 L221.6,601.8 L221.9,601.8 L222.3,601.8 L222.7,601.8 L223.1,601.9 L223.5,601.9 L223.9,601.9 L224.3,601.9 L224.6,601.9 L225.0,602.0 L225.4,602.0 L225.8,602.0" fill="none" stroke="#2563eb" stroke-width="2.5"/>
<circle cx="225.8" cy="602.0" r="4" fill="#2563eb" stroke="#ffffff" stroke-width="1"/>
<line x1="96" y1="161" x2="120" y2="161" stroke="#2563eb" stroke-width="3"/>
<text x="127" y="165" font-family="Arial" font-size="11.5" fill="#334155">full-stack nominal</text>
<path d="M616.0,132.0 L613.6,133.9 L611.1,135.8 L608.7,137.7 L606.3,139.7 L603.9,141.6 L601.5,143.6 L599.1,145.5 L596.7,147.5 L594.4,149.4 L592.0,151.4 L589.7,153.3 L587.3,155.2 L585.0,157.1 L582.7,159.1 L580.5,160.9 L578.2,162.8 L576.0,164.7 L573.8,166.5 L571.6,168.4 L569.4,170.2 L567.3,172.0 L565.1,173.8 L563.0,175.6 L560.9,177.4 L558.8,179.2 L556.8,180.9 L554.8,182.7 L552.7,184.4 L550.7,186.1 L548.8,187.9 L546.8,189.6 L544.8,191.3 L542.9,193.0 L541.0,194.8 L539.0,196.5 L537.1,198.2 L535.2,200.0 L533.3,201.7 L531.4,203.5 L529.5,205.3 L527.6,207.1 L525.8,208.9 L523.9,210.7 L522.1,212.4 L520.3,214.2 L518.5,216.0 L516.7,217.8 L515.0,219.5 L513.2,221.3 L511.6,223.1 L509.9,224.8 L508.2,226.5 L506.6,228.2 L505.0,230.0 L503.4,231.6 L501.9,233.3 L500.4,235.0 L498.9,236.7 L497.4,238.3 L495.9,240.0 L494.5,241.6 L493.1,243.3 L491.7,244.9 L490.4,246.5 L489.0,248.1 L487.7,249.7 L486.4,251.3 L485.1,252.9 L483.9,254.5 L482.6,256.1 L481.3,257.7 L480.1,259.3 L478.9,261.0 L477.7,262.6 L476.5,264.3 L475.3,265.9 L474.1,267.5 L472.9,269.2 L471.8,270.8 L470.7,272.4 L469.6,274.1 L468.5,275.7 L467.5,277.3 L466.4,278.9 L465.4,280.5 L464.4,282.1 L463.5,283.7 L462.6,285.3 L461.6,286.8 L460.7,288.4 L459.9,289.9 L459.0,291.5 L458.2,293.0 L457.4,294.5 L456.6,296.0 L455.8,297.6 L455.1,299.1 L454.4,300.5 L453.6,302.0 L452.9,303.5 L452.3,305.0 L451.6,306.5 L450.9,308.0 L450.3,309.4 L449.6,310.9 L449.0,312.4 L448.4,314.0 L447.7,315.5 L447.1,317.0 L446.5,318.5 L445.9,320.1 L445.4,321.6 L444.8,323.1 L444.3,324.6 L443.7,326.2 L443.2,327.7 L442.7,329.2 L442.2,330.7 L441.7,332.2 L441.3,333.7 L440.8,335.2 L440.4,336.7 L440.0,338.2 L439.6,339.7 L439.2,341.1 L438.8,342.6 L438.4,344.0 L438.1,345.5 L437.7,346.9 L437.4,348.4 L437.1,349.8 L436.8,351.2 L436.5,352.6 L436.2,354.0 L436.0,355.4 L435.7,356.8 L435.5,358.2 L435.2,359.6 L435.0,361.0 L434.8,362.4 L434.6,363.7 L434.4,365.1 L434.2,366.4 L434.0,367.8 L433.8,369.2 L433.7,370.5 L433.5,371.8 L433.4,373.2 L433.2,374.5 L433.1,375.9 L432.9,377.2 L432.8,378.5 L432.7,379.8 L432.6,381.2 L432.5,382.5 L432.4,383.8 L432.3,385.1 L432.2,386.4 L432.1,387.7 L432.0,389.0 L431.9,390.3 L431.8,391.6 L431.7,392.9 L431.7,394.2 L431.6,395.5 L431.5,396.8 L431.5,398.1 L431.4,399.3 L431.3,400.6 L431.3,401.9 L431.2,403.1 L431.2,404.4 L431.1,405.7 L431.1,406.9 L431.0,408.2 L431.0,409.4 L430.9,410.7 L430.9,411.9 L430.8,413.1 L430.8,414.4 L430.8,415.6 L430.7,416.8 L430.7,418.0 L430.6,419.3 L430.6,420.5 L430.5,421.7 L430.5,422.9 L430.4,424.1 L430.3,425.3 L430.3,426.5 L430.2,427.7 L430.2,428.9 L430.1,430.0 L430.0,431.2 L429.9,432.4 L429.9,433.6 L429.8,434.7 L429.7,435.9 L429.6,437.1 L429.5,438.2 L429.4,439.4 L429.3,440.5 L429.2,441.7 L429.1,442.8 L429.0,443.9 L428.8,445.1 L428.7,446.2 L428.6,447.3 L428.4,448.5 L428.3,449.6 L428.1,450.7 L428.0,451.8 L427.8,452.9 L427.7,454.0 L427.5,455.1 L427.3,456.2 L427.1,457.3 L426.9,458.4 L426.7,459.5 L426.5,460.6 L426.3,461.6 L426.1,462.7 L425.8,463.8 L425.6,464.8 L425.3,465.9 L425.1,467.0 L424.8,468.0 L424.5,469.1 L424.3,470.1 L424.0,471.1 L423.7,472.2 L423.4,473.2 L423.1,474.2 L422.8,475.3 L422.4,476.3 L422.1,477.3 L421.8,478.3 L421.4,479.3 L421.1,480.3 L420.7,481.3 L420.3,482.3 L420.0,483.3 L419.6,484.3 L419.2,485.3 L418.8,486.3 L418.4,487.3 L417.9,488.2 L417.5,489.2 L417.1,490.2 L416.6,491.1 L416.2,492.1 L415.7,493.1 L415.3,494.0 L414.8,495.0 L414.3,495.9 L413.8,496.8 L413.3,497.8 L412.8,498.7 L412.3,499.6 L411.8,500.6 L411.2,501.5 L410.7,502.4 L410.2,503.3 L409.6,504.2 L409.0,505.1 L408.5,506.0 L407.9,506.9 L407.3,507.8 L406.7,508.7 L406.1,509.6 L405.5,510.5 L404.9,511.4 L404.3,512.3 L403.6,513.1 L403.0,514.0 L402.4,514.9 L401.7,515.7 L401.0,516.6 L400.4,517.4 L399.7,518.3 L399.0,519.1 L398.3,520.0 L397.7,520.8 L397.0,521.6 L396.3,522.5 L395.5,523.3 L394.8,524.1 L394.1,524.9 L393.4,525.8 L392.7,526.6 L391.9,527.4 L391.2,528.2 L390.4,529.0 L389.7,529.8 L388.9,530.5 L388.1,531.3 L387.4,532.1 L386.6,532.9 L385.8,533.6 L385.0,534.4 L384.2,535.2 L383.4,535.9 L382.6,536.7 L381.8,537.4 L381.0,538.1 L380.2,538.9 L379.4,539.6 L378.6,540.3 L377.8,541.1 L376.9,541.8 L376.1,542.5 L375.3,543.2 L374.4,543.9 L373.6,544.6 L372.7,545.3 L371.9,546.0 L371.0,546.7 L370.2,547.3 L369.3,547.9 L368.4,548.6 L367.6,549.2 L366.7,549.7 L365.8,550.3 L364.9,550.8 L363.9,551.3 L363.0,551.8 L362.1,552.2 L361.2,552.7 L360.2,553.1 L359.3,553.4 L358.3,553.8 L357.3,554.1 L356.4,554.4 L355.4,554.6 L354.4,554.9 L353.4,555.1 L352.4,555.3 L351.4,555.4 L350.4,555.6 L349.3,555.7 L348.3,555.7 L347.3,555.8 L346.2,555.9 L345.2,555.9 L344.2,555.9 L343.1,555.9 L342.0,556.0 L341.0,556.0 L339.9,556.0 L338.9,556.0 L337.8,556.0 L336.8,556.0 L335.7,556.0 L334.7,556.1 L333.6,556.1 L332.5,556.2 L331.5,556.3 L330.4,556.3 L329.4,556.5 L328.3,556.6 L327.2,556.7 L326.2,556.8 L325.1,557.0 L324.1,557.1 L323.0,557.3 L322.0,557.5 L320.9,557.6 L319.9,557.8 L318.8,557.9 L317.8,558.1 L316.7,558.2 L315.7,558.4 L314.6,558.5 L313.6,558.7 L312.5,558.8 L311.5,558.9 L310.4,559.0 L309.4,559.1 L308.4,559.2 L307.3,559.3 L306.3,559.4 L305.3,559.5 L304.2,559.6 L303.2,559.6 L302.2,559.7 L301.2,559.8 L300.1,559.8 L299.1,559.9 L298.1,560.0 L297.1,560.0 L296.1,560.1 L295.1,560.2 L294.0,560.3 L293.0,560.4 L292.0,560.6 L291.0,560.7 L290.0,560.8 L289.0,561.0 L288.0,561.1 L287.0,561.3 L286.0,561.4 L285.0,561.6 L284.0,561.7 L283.0,561.9 L282.0,562.0 L281.0,562.2 L280.0,562.3 L279.1,562.4 L278.1,562.5 L277.1,562.7 L276.2,562.8 L275.2,562.9 L274.2,563.0 L273.3,563.1 L272.3,563.1 L271.4,563.2 L270.4,563.3 L269.5,563.4 L268.6,563.4 L267.6,563.5 L266.7,563.6 L265.8,563.7 L264.9,563.8 L263.9,563.8 L263.0,564.0 L262.1,564.1 L261.2,564.2 L260.3,564.4 L259.3,564.5 L258.4,564.6 L257.5,564.8 L256.6,565.0 L255.7,565.1 L254.8,565.3 L253.9,565.4 L253.0,565.6 L252.1,565.7 L251.2,565.8 L250.3,566.0 L249.5,566.1 L248.6,566.2 L247.7,566.3 L246.9,566.4 L246.0,566.5 L245.1,566.6 L244.3,566.7 L243.4,566.8 L242.6,566.8 L241.8,566.9 L240.9,567.0 L240.1,567.0 L239.3,567.1 L238.5,567.2 L237.6,567.3 L236.8,567.4 L236.0,567.4 L235.2,567.6 L234.4,567.7 L233.5,567.8 L232.7,567.9 L231.9,568.1 L231.1,568.2 L230.3,568.4 L229.5,568.5 L228.7,568.7 L227.9,568.8 L227.1,569.0 L226.3,569.1 L225.5,569.3 L224.8,569.4 L224.0,569.5 L223.2,569.6 L222.4,569.8 L221.7,569.9 L220.9,570.0 L220.2,570.1 L219.4,570.2 L218.7,570.3 L217.9,570.3 L217.2,570.4 L216.5,570.5 L215.7,570.6 L215.0,570.6 L214.3,570.7 L213.6,570.8 L212.8,570.8 L212.1,570.9 L211.4,571.0 L210.7,571.1 L210.0,571.3 L209.3,571.4 L208.6,571.5 L207.9,571.7 L207.2,571.8 L206.5,572.0 L205.8,572.1 L205.1,572.3 L204.4,572.4 L203.7,572.6 L203.0,572.7 L202.4,572.9 L201.7,573.0 L201.0,573.1 L200.4,573.2 L199.7,573.4 L199.0,573.5 L198.4,573.6 L197.8,573.7 L197.1,573.8 L196.5,573.9 L195.9,573.9 L195.2,574.0 L194.6,574.1 L194.0,574.2 L193.4,574.2 L192.8,574.3 L192.2,574.4 L191.6,574.5 L191.0,574.5 L190.4,574.6 L189.8,574.8 L189.2,574.9 L188.6,575.0 L188.0,575.1 L187.4,575.3 L186.8,575.4 L186.2,575.6 L185.6,575.8 L185.1,575.9 L184.5,576.1 L183.9,576.2 L183.3,576.4 L182.8,576.5 L182.2,576.6 L181.7,576.8 L181.1,576.9 L180.6,577.0 L180.0,577.1 L179.5,577.2 L179.0,577.3 L178.4,577.4 L177.9,577.5 L177.4,577.6 L176.9,577.7 L176.4,577.8 L175.9,577.8 L175.4,577.9 L174.9,578.0 L174.4,578.0 L173.9,578.1 L173.4,578.2 L172.9,578.3 L172.4,578.4 L172.0,578.5 L171.5,578.7 L171.0,578.8 L170.5,578.9 L170.0,579.1 L169.6,579.3 L169.1,579.4 L168.6,579.6 L168.2,579.7 L167.7,579.9 L167.3,580.0 L166.8,580.1 L166.4,580.3 L165.9,580.4 L165.5,580.5 L165.1,580.7 L164.6,580.8 L164.2,580.9 L163.8,581.0 L163.4,581.1 L163.0,581.2 L162.6,581.3 L162.2,581.3 L161.8,581.4 L161.4,581.5 L161.0,581.5 L160.7,581.6 L160.3,581.7 L159.9,581.8 L159.5,581.9 L159.2,582.0 L158.8,582.1 L158.4,582.2 L158.1,582.3 L157.7,582.4 L157.4,582.6 L157.0,582.7 L156.6,582.9 L156.3,583.0 L155.9,583.2 L155.6,583.3 L155.3,583.5 L154.9,583.6 L154.6,583.8 L154.3,583.9 L154.0,584.1 L153.7,584.2 L153.4,584.3 L153.1,584.4 L152.8,584.5 L152.5,584.6 L152.2,584.7 L152.0,584.8 L151.7,584.9 L151.4,585.0 L151.2,585.0 L150.9,585.1 L150.7,585.2 L150.4,585.2 L150.2,585.3 L150.0,585.4 L149.7,585.4 L149.5,585.5 L149.3,585.6 L149.1,585.7 L148.8,585.8 L148.6,585.9 L148.4,586.0 L148.2,586.1 L148.0,586.2 L147.8,586.4 L147.6,586.5 L147.4,586.6 L147.2,586.7 L147.0,586.8 L146.8,586.9 L146.7,587.0 L146.5,587.1 L146.3,587.2 L146.2,587.3 L146.0,587.4 L145.9,587.5 L145.7,587.6 L145.6,587.6 L145.5,587.7 L145.3,587.8 L145.2,587.8 L145.1,587.9 L145.0,587.9 L144.9,588.0 L144.8,588.1 L144.7,588.1 L144.6,588.2 L144.5,588.3 L144.4,588.4 L144.3,588.5 L144.2,588.7 L144.1,588.8 L144.0,588.9 L143.9,589.1 L143.8,589.2 L143.7,589.3 L143.7,589.5 L143.6,589.6 L143.5,589.7 L143.5,589.8 L143.4,590.0 L143.4,590.1 L143.3,590.2 L143.3,590.3 L143.2,590.4 L143.2,590.5 L143.2,590.5 L143.2,590.6 L143.2,590.7 L143.1,590.7 L143.1,590.8 L143.1,590.9 L143.2,590.9 L143.2,590.9 L143.2,591.0 L143.2,591.0 L143.2,591.1 L143.2,591.2 L143.3,591.3 L143.3,591.3 L143.3,591.4 L143.4,591.5 L143.4,591.7 L143.4,591.8 L143.5,591.9 L143.5,592.1 L143.6,592.2 L143.6,592.3 L143.7,592.4 L143.7,592.6 L143.8,592.7 L143.9,592.8 L144.0,592.9 L144.0,593.0 L144.1,593.2 L144.2,593.3 L144.3,593.3 L144.4,593.4 L144.6,593.5 L144.7,593.6 L144.8,593.7 L144.9,593.7 L145.1,593.8 L145.2,593.8 L145.4,593.9 L145.5,593.9 L145.7,594.0 L145.8,594.0 L146.0,594.1 L146.1,594.2 L146.3,594.2 L146.5,594.3 L146.6,594.4 L146.8,594.5 L147.0,594.7 L147.2,594.8 L147.3,594.9 L147.5,595.0 L147.7,595.2 L147.9,595.3 L148.1,595.4 L148.3,595.6 L148.5,595.7 L148.7,595.8 L148.9,595.9 L149.1,596.0 L149.3,596.1 L149.6,596.2 L149.8,596.3 L150.0,596.4 L150.3,596.5 L150.5,596.6 L150.8,596.6 L151.0,596.7 L151.3,596.8 L151.6,596.8 L151.8,596.9 L152.1,596.9 L152.4,597.0 L152.7,597.1 L152.9,597.2 L153.2,597.3 L153.5,597.4 L153.8,597.5 L154.1,597.6 L154.3,597.7 L154.6,597.9 L154.9,598.0 L155.2,598.1 L155.5,598.3 L155.8,598.4 L156.1,598.5 L156.5,598.7 L156.8,598.8 L157.1,598.9 L157.4,599.0 L157.8,599.1 L158.1,599.2 L158.4,599.3 L158.8,599.4 L159.1,599.5 L159.5,599.5 L159.8,599.6 L160.2,599.7 L160.6,599.7 L160.9,599.8 L161.3,599.8 L161.7,599.9 L162.1,599.9 L162.5,600.0 L162.8,600.1 L163.2,600.1 L163.6,600.2 L164.0,600.3 L164.4,600.4 L164.8,600.5 L165.2,600.6 L165.6,600.7 L166.0,600.8 L166.4,600.9 L166.8,601.0 L167.2,601.1 L167.6,601.2 L168.0,601.3 L168.4,601.4 L168.8,601.5 L169.3,601.6 L169.7,601.7 L170.1,601.8 L170.6,601.9 L171.0,601.9 L171.4,602.0 L171.9,602.0" fill="none" stroke="#dc2626" stroke-width="2.5"/>
<circle cx="171.9" cy="602.0" r="4" fill="#dc2626" stroke="#ffffff" stroke-width="1"/>
<line x1="96" y1="183" x2="120" y2="183" stroke="#dc2626" stroke-width="3"/>
<text x="127" y="187" font-family="Arial" font-size="11.5" fill="#334155">18% thrust loss</text>
<path d="M616.0,132.0 L613.6,133.9 L611.1,135.8 L608.7,137.7 L606.3,139.7 L603.9,141.6 L601.5,143.6 L599.1,145.5 L596.7,147.5 L594.4,149.4 L592.0,151.4 L589.7,153.3 L587.3,155.2 L585.0,157.1 L582.7,159.1 L580.5,160.9 L578.2,162.8 L576.0,164.7 L573.8,166.5 L571.6,168.4 L569.4,170.2 L567.3,172.0 L565.1,173.8 L563.0,175.6 L560.9,177.4 L558.8,179.2 L556.8,180.9 L554.8,182.7 L552.7,184.4 L550.7,186.1 L548.8,187.9 L546.8,189.6 L544.8,191.3 L542.9,193.0 L541.0,194.8 L539.0,196.5 L537.1,198.2 L535.2,200.0 L533.3,201.7 L531.4,203.5 L529.5,205.3 L527.6,207.1 L525.8,208.9 L523.9,210.7 L522.1,212.4 L520.3,214.2 L518.5,216.0 L516.7,217.8 L515.0,219.5 L513.2,221.3 L511.6,223.1 L509.9,224.8 L508.2,226.5 L506.6,228.2 L505.0,230.0 L503.4,231.6 L501.9,233.3 L500.4,235.0 L498.9,236.7 L497.4,238.3 L495.9,240.0 L494.5,241.6 L493.1,243.3 L491.7,244.9 L490.4,246.5 L489.0,248.1 L487.7,249.7 L486.4,251.3 L485.1,252.9 L483.9,254.5 L482.6,256.1 L481.3,257.7 L480.1,259.3 L478.9,261.0 L477.7,262.6 L476.5,264.3 L475.3,265.9 L474.1,267.5 L472.9,269.2 L471.8,270.8 L470.7,272.4 L469.6,274.1 L468.5,275.7 L467.5,277.3 L466.4,278.9 L465.4,280.5 L464.4,282.1 L463.5,283.7 L462.6,285.3 L461.6,286.8 L460.7,288.4 L459.9,289.9 L459.0,291.5 L458.2,293.0 L457.4,294.5 L456.6,296.0 L455.8,297.6 L455.1,299.1 L454.4,300.5 L453.6,302.0 L452.9,303.5 L452.3,305.0 L451.6,306.5 L450.9,307.9 L450.3,309.4 L449.6,310.9 L449.0,312.4 L448.4,313.9 L447.8,315.5 L447.2,317.0 L446.6,318.5 L446.0,320.0 L445.4,321.5 L444.9,323.0 L444.3,324.5 L443.8,326.1 L443.3,327.6 L442.8,329.0 L442.3,330.5 L441.9,332.0 L441.4,333.5 L441.0,335.0 L440.6,336.4 L440.2,337.9 L439.8,339.3 L439.4,340.8 L439.1,342.2 L438.7,343.6 L438.4,345.0 L438.1,346.4 L437.8,347.8 L437.5,349.2 L437.2,350.6 L436.9,352.0 L436.7,353.4 L436.4,354.7 L436.2,356.1 L435.9,357.5 L435.7,358.8 L435.5,360.2 L435.3,361.5 L435.1,362.8 L434.9,364.2 L434.8,365.5 L434.6,366.8 L434.4,368.2 L434.3,369.5 L434.1,370.8 L434.0,372.1 L433.8,373.5 L433.7,374.8 L433.6,376.1 L433.5,377.4 L433.4,378.7 L433.2,380.1 L433.1,381.4 L433.0,382.7 L432.9,384.0 L432.8,385.3 L432.7,386.6 L432.6,387.9 L432.6,389.2 L432.5,390.5 L432.4,391.7 L432.3,393.0 L432.3,394.3 L432.2,395.6 L432.1,396.8 L432.0,398.1 L432.0,399.4 L431.9,400.6 L431.9,401.9 L431.8,403.1 L431.8,404.3 L431.7,405.6 L431.6,406.8 L431.6,408.0 L431.5,409.3 L431.5,410.5 L431.4,411.7 L431.4,412.9 L431.3,414.1 L431.3,415.3 L431.2,416.5 L431.1,417.7 L431.1,418.9 L431.0,420.1 L430.9,421.2 L430.9,422.4 L430.8,423.6 L430.7,424.8 L430.6,425.9 L430.6,427.1 L430.5,428.3 L430.4,429.4 L430.3,430.6 L430.2,431.7 L430.1,432.9 L430.0,434.0 L429.8,435.2 L429.7,436.3 L429.6,437.4 L429.5,438.5 L429.3,439.7 L429.2,440.8 L429.0,441.9 L428.9,443.0 L428.7,444.1 L428.6,445.2 L428.4,446.4 L428.2,447.5 L428.0,448.6 L427.8,449.6 L427.6,450.7 L427.4,451.8 L427.2,452.9 L427.0,454.0 L426.8,455.1 L426.5,456.1 L426.3,457.2 L426.0,458.3 L425.8,459.3 L425.5,460.4 L425.2,461.4 L424.9,462.5 L424.6,463.5 L424.3,464.6 L424.0,465.6 L423.7,466.6 L423.4,467.7 L423.0,468.7 L422.7,469.7 L422.3,470.7 L422.0,471.7 L421.6,472.7 L421.2,473.7 L420.8,474.7 L420.5,475.7 L420.0,476.7 L419.6,477.7 L419.2,478.7 L418.8,479.7 L418.4,480.7 L417.9,481.6 L417.5,482.6 L417.0,483.6 L416.5,484.5 L416.1,485.5 L415.6,486.5 L415.1,487.4 L414.6,488.4 L414.1,489.3 L413.5,490.2 L413.0,491.2 L412.5,492.1 L411.9,493.1 L411.4,494.0 L410.8,494.9 L410.2,495.8 L409.7,496.7 L409.1,497.6 L408.5,498.6 L407.9,499.5 L407.3,500.4 L406.7,501.3 L406.1,502.2 L405.4,503.1 L404.8,503.9 L404.1,504.8 L403.5,505.7 L402.8,506.6 L402.2,507.5 L401.5,508.3 L400.8,509.2 L400.1,510.0 L399.4,510.9 L398.7,511.8 L398.0,512.6 L397.3,513.4 L396.6,514.3 L395.8,515.1 L395.1,516.0 L394.4,516.8 L393.6,517.6 L392.9,518.4 L392.1,519.3 L391.3,520.1 L390.6,520.9 L389.8,521.7 L389.0,522.5 L388.2,523.3 L387.4,524.1 L386.6,524.9 L385.8,525.7 L385.0,526.4 L384.2,527.2 L383.4,528.0 L382.6,528.8 L381.8,529.5 L381.0,530.3 L380.1,531.1 L379.3,531.8 L378.5,532.6 L377.6,533.3 L376.8,534.0 L375.9,534.8 L375.1,535.5 L374.2,536.2 L373.4,537.0 L372.5,537.7 L371.7,538.4 L370.8,539.1 L369.9,539.8 L369.1,540.5 L368.2,541.2 L367.3,541.9 L366.4,542.6 L365.6,543.3 L364.7,544.0 L363.8,544.6 L362.9,545.3 L362.0,546.0 L361.1,546.6 L360.2,547.3 L359.3,547.9 L358.4,548.4 L357.5,549.0 L356.6,549.5 L355.6,550.1 L354.7,550.5 L353.8,551.0 L352.8,551.4 L351.9,551.8 L350.9,552.1 L350.0,552.5 L349.0,552.8 L348.0,553.0 L347.1,553.3 L346.1,553.5 L345.1,553.6 L344.1,553.8 L343.1,553.9 L342.1,553.9 L341.1,554.0 L340.0,554.0 L339.0,554.0 L338.0,554.0 L337.0,554.0 L336.0,554.0 L334.9,553.9 L333.9,553.9 L332.9,553.9 L331.9,553.8 L330.8,553.8 L329.8,553.8 L328.8,553.8 L327.7,553.8 L326.7,553.8 L325.7,553.9 L324.7,553.9 L323.6,554.0 L322.6,554.0 L321.6,554.1 L320.6,554.2 L319.6,554.4 L318.5,554.5 L317.5,554.6 L316.5,554.8 L315.5,554.9 L314.5,555.1 L313.4,555.3 L312.4,555.4 L311.4,555.6 L310.4,555.7 L309.4,555.9 L308.4,556.0 L307.4,556.1 L306.4,556.3 L305.4,556.4 L304.5,556.5 L303.5,556.6 L302.5,556.7 L301.5,556.7 L300.6,556.8 L299.6,556.9 L298.6,556.9 L297.7,557.0 L296.7,557.0 L295.8,557.1 L294.8,557.1 L293.9,557.2 L292.9,557.3 L292.0,557.3 L291.1,557.4 L290.1,557.5 L289.2,557.6 L288.2,557.7 L287.3,557.9 L286.4,558.0 L285.4,558.1 L284.5,558.3 L283.6,558.4 L282.6,558.6 L281.7,558.7 L280.8,558.9 L279.9,559.0 L279.0,559.2 L278.1,559.3 L277.2,559.4 L276.3,559.5 L275.4,559.6 L274.5,559.7 L273.6,559.8 L272.7,559.9 L271.9,560.0 L271.0,560.1 L270.1,560.1 L269.3,560.2 L268.4,560.2 L267.6,560.3 L266.7,560.4 L265.9,560.4 L265.0,560.5 L264.2,560.6 L263.4,560.7 L262.5,560.8 L261.7,560.9 L260.8,561.1 L260.0,561.2 L259.2,561.4 L258.3,561.5 L257.5,561.7 L256.7,561.8 L255.9,562.0 L255.1,562.1 L254.2,562.3 L253.4,562.4 L252.6,562.5 L251.8,562.7 L251.0,562.8 L250.3,562.9 L249.5,563.0 L248.7,563.1 L247.9,563.1 L247.2,563.2 L246.4,563.3 L245.7,563.3 L244.9,563.4 L244.2,563.4 L243.4,563.5 L242.7,563.5 L242.0,563.6 L241.2,563.7 L240.5,563.8 L239.8,563.9 L239.0,564.0 L238.3,564.1 L237.6,564.2 L236.8,564.4 L236.1,564.5 L235.4,564.7 L234.7,564.8 L234.0,565.0 L233.3,565.1 L232.5,565.3 L231.8,565.4 L231.1,565.5 L230.5,565.7 L229.8,565.8 L229.1,565.9 L228.4,566.0 L227.7,566.1 L227.1,566.2 L226.4,566.3 L225.7,566.3 L225.1,566.4 L224.4,566.5 L223.8,566.5 L223.1,566.6 L222.5,566.6 L221.9,566.7 L221.2,566.7 L220.6,566.8 L220.0,566.9 L219.3,567.0 L218.7,567.1 L218.1,567.2 L217.5,567.4 L216.8,567.5 L216.2,567.7 L215.6,567.8 L215.0,568.0 L214.4,568.1 L213.8,568.3 L213.2,568.4 L212.6,568.6 L212.0,568.7 L211.4,568.8 L210.8,569.0 L210.2,569.1 L209.7,569.2 L209.1,569.3 L208.6,569.4 L208.0,569.4 L207.5,569.5 L206.9,569.6 L206.4,569.6 L205.9,569.7 L205.3,569.7 L204.8,569.8 L204.3,569.9 L203.8,569.9 L203.3,570.0 L202.8,570.1 L202.2,570.2 L201.7,570.3 L201.2,570.4 L200.7,570.6 L200.2,570.7 L199.7,570.8 L199.2,571.0 L198.7,571.2 L198.2,571.3 L197.7,571.5 L197.2,571.6 L196.8,571.8 L196.3,571.9 L195.8,572.0 L195.3,572.1 L194.9,572.3 L194.4,572.4 L194.0,572.5 L193.5,572.6 L193.1,572.6 L192.6,572.7 L192.2,572.8 L191.8,572.9 L191.4,572.9 L190.9,573.0 L190.5,573.0 L190.1,573.1 L189.7,573.2 L189.3,573.2 L188.9,573.3 L188.5,573.4 L188.1,573.5 L187.7,573.7 L187.3,573.8 L186.9,574.0 L186.5,574.1 L186.1,574.3 L185.7,574.4 L185.3,574.6 L184.9,574.7 L184.5,574.9 L184.1,575.0 L183.8,575.2 L183.4,575.3 L183.0,575.4 L182.7,575.5 L182.3,575.6 L182.0,575.7 L181.7,575.8 L181.3,575.9 L181.0,576.0 L180.7,576.1 L180.3,576.1 L180.0,576.2 L179.7,576.2 L179.4,576.3 L179.1,576.3 L178.8,576.4 L178.5,576.5 L178.2,576.6 L177.9,576.7 L177.6,576.8 L177.3,576.9 L177.0,577.0 L176.7,577.2 L176.4,577.3 L176.1,577.5 L175.8,577.6 L175.5,577.8 L175.2,578.0 L174.9,578.1 L174.7,578.2 L174.4,578.4 L174.1,578.5 L173.9,578.6 L173.6,578.7 L173.4,578.8 L173.1,578.9 L172.9,579.0 L172.6,579.1 L172.4,579.2 L172.2,579.2 L171.9,579.3 L171.7,579.3 L171.5,579.4 L171.3,579.5 L171.1,579.5 L170.9,579.6 L170.7,579.7 L170.5,579.7 L170.3,579.8 L170.1,580.0 L169.8,580.1 L169.6,580.2 L169.4,580.4 L169.2,580.5 L169.1,580.7 L168.9,580.8 L168.7,581.0 L168.5,581.1 L168.3,581.3 L168.1,581.4 L168.0,581.5 L167.8,581.7 L167.6,581.8 L167.5,581.9 L167.3,582.0 L167.2,582.1 L167.1,582.2 L166.9,582.3 L166.8,582.3 L166.7,582.4 L166.5,582.4 L166.4,582.5 L166.3,582.6 L166.2,582.6 L166.1,582.7 L166.0,582.7 L165.9,582.8 L165.8,582.9 L165.7,583.0 L165.5,583.1 L165.4,583.2 L165.3,583.3 L165.2,583.5 L165.1,583.6 L165.0,583.8 L165.0,583.9 L164.9,584.1 L164.8,584.2 L164.7,584.4 L164.6,584.5 L164.5,584.7 L164.5,584.8 L164.4,584.9 L164.3,585.0 L164.3,585.1 L164.2,585.2 L164.2,585.3 L164.1,585.4 L164.1,585.5 L164.0,585.5 L164.0,585.6 L164.0,585.6 L163.9,585.7 L163.9,585.7 L163.9,585.8 L163.9,585.8 L163.8,585.9 L163.8,585.9 L163.8,586.0 L163.8,586.1 L163.8,586.1 L163.7,586.2 L163.7,586.4 L163.7,586.5 L163.7,586.6 L163.7,586.7 L163.7,586.9 L163.7,587.0 L163.7,587.2 L163.7,587.3 L163.7,587.4 L163.7,587.6 L163.7,587.7 L163.7,587.8 L163.8,587.9 L163.8,588.0 L163.8,588.1 L163.9,588.2 L163.9,588.2 L164.0,588.3 L164.0,588.3 L164.1,588.4 L164.1,588.4 L164.2,588.5 L164.3,588.5 L164.3,588.5 L164.4,588.6 L164.5,588.6 L164.6,588.7 L164.7,588.7 L164.7,588.8 L164.8,588.9 L164.9,589.0 L165.0,589.1 L165.1,589.2 L165.2,589.3 L165.2,589.5 L165.3,589.6 L165.4,589.7 L165.5,589.9 L165.6,590.0 L165.7,590.1 L165.8,590.2 L166.0,590.3 L166.1,590.4 L166.2,590.5 L166.3,590.6 L166.5,590.7 L166.6,590.8 L166.7,590.8 L166.9,590.9 L167.0,590.9 L167.2,591.0 L167.3,591.0 L167.5,591.0 L167.7,591.1 L167.8,591.1 L168.0,591.1 L168.2,591.2 L168.3,591.3 L168.5,591.3 L168.7,591.4 L168.8,591.5 L169.0,591.6 L169.2,591.8 L169.3,591.9 L169.5,592.1 L169.7,592.2 L169.9,592.4 L170.1,592.5 L170.2,592.7 L170.4,592.8 L170.6,593.0 L170.8,593.1 L171.0,593.3 L171.2,593.4 L171.4,593.5 L171.6,593.6 L171.9,593.7 L172.1,593.8 L172.3,593.8 L172.5,593.9 L172.8,594.0 L173.0,594.0 L173.2,594.0 L173.5,594.1 L173.7,594.1 L174.0,594.1 L174.2,594.2 L174.5,594.2 L174.7,594.2 L175.0,594.3 L175.2,594.4 L175.5,594.4 L175.7,594.5 L176.0,594.6 L176.2,594.8 L176.5,594.9 L176.8,595.0 L177.0,595.2 L177.3,595.3 L177.5,595.5 L177.8,595.6 L178.1,595.8 L178.4,595.9 L178.6,596.0 L178.9,596.2 L179.2,596.3 L179.5,596.4 L179.8,596.5 L180.1,596.6 L180.3,596.7 L180.6,596.7 L180.9,596.8 L181.3,596.9 L181.6,596.9 L181.9,596.9 L182.2,597.0 L182.5,597.0 L182.8,597.0 L183.1,597.1 L183.4,597.1 L183.8,597.2 L184.1,597.2 L184.4,597.3 L184.7,597.4 L185.1,597.5 L185.4,597.6 L185.7,597.7 L186.0,597.8 L186.4,598.0 L186.7,598.1 L187.0,598.3 L187.3,598.4 L187.7,598.6 L188.0,598.7 L188.4,598.9 L188.7,599.0 L189.0,599.1 L189.4,599.3 L189.7,599.4 L190.1,599.5 L190.5,599.6 L190.8,599.6 L191.2,599.7 L191.6,599.8 L191.9,599.8 L192.3,599.9 L192.7,599.9 L193.0,599.9 L193.4,600.0 L193.8,600.0 L194.2,600.0 L194.6,600.0 L194.9,600.0 L195.3,600.0 L195.7,600.0 L196.1,600.0 L196.5,600.0 L196.9,600.0 L197.3,600.0 L197.7,600.0 L198.1,600.0 L198.5,600.1 L198.9,600.1 L199.2,600.1 L199.6,600.1 L200.0,600.1 L200.4,600.2 L200.8,600.2 L201.2,600.2 L201.6,600.2 L202.0,600.3 L202.4,600.3 L202.8,600.4 L203.3,600.4 L203.7,600.4 L204.1,600.5 L204.5,600.5 L204.9,600.6 L205.3,600.6 L205.7,600.7 L206.1,600.7 L206.5,600.8 L206.9,600.8 L207.3,600.8 L207.8,600.9 L208.2,600.9 L208.6,601.0 L209.0,601.0 L209.4,601.0 L209.8,601.1 L210.2,601.1 L210.7,601.2 L211.1,601.2 L211.5,601.2 L211.9,601.3 L212.3,601.3 L212.7,601.3 L213.2,601.4 L213.6,601.4 L214.0,601.4 L214.4,601.5 L214.8,601.5 L215.3,601.5 L215.7,601.6 L216.1,601.6 L216.5,601.6 L216.9,601.7 L217.4,601.7 L217.8,601.7 L218.2,601.7 L218.6,601.8 L219.0,601.8 L219.5,601.8 L219.9,601.9 L220.3,601.9 L220.7,601.9 L221.2,602.0 L221.6,602.0" fill="none" stroke="#ea580c" stroke-width="2.5"/>
<circle cx="221.6" cy="602.0" r="4" fill="#ea580c" stroke="#ffffff" stroke-width="1"/>
<line x1="96" y1="205" x2="120" y2="205" stroke="#ea580c" stroke-width="3"/>
<text x="127" y="209" font-family="Arial" font-size="11.5" fill="#334155">8% thrust loss</text>
<path d="M616.0,132.0 L613.6,133.9 L611.1,135.8 L608.7,137.7 L606.3,139.7 L603.9,141.6 L601.5,143.6 L599.1,145.5 L596.7,147.5 L594.4,149.4 L592.0,151.4 L589.7,153.3 L587.3,155.2 L585.0,157.1 L582.7,159.1 L580.5,160.9 L578.2,162.8 L576.0,164.7 L573.8,166.5 L571.6,168.4 L569.4,170.2 L567.3,172.0 L565.1,173.8 L563.0,175.6 L560.9,177.4 L558.8,179.2 L556.8,180.9 L554.8,182.7 L552.7,184.4 L550.7,186.1 L548.8,187.9 L546.8,189.6 L544.8,191.3 L542.9,193.0 L541.0,194.8 L539.0,196.5 L537.1,198.2 L535.2,200.0 L533.3,201.7 L531.4,203.5 L529.5,205.3 L527.6,207.1 L525.8,208.9 L523.9,210.7 L522.1,212.4 L520.3,214.2 L518.5,216.0 L516.7,217.8 L515.0,219.5 L513.2,221.3 L511.6,223.1 L509.9,224.8 L508.2,226.5 L506.6,228.2 L505.0,230.0 L503.4,231.6 L501.9,233.3 L500.4,235.0 L498.9,236.7 L497.4,238.3 L495.9,240.0 L494.5,241.6 L493.1,243.3 L491.7,244.9 L490.4,246.5 L489.0,248.1 L487.7,249.7 L486.4,251.3 L485.1,252.9 L483.9,254.5 L482.6,256.1 L481.3,257.7 L480.1,259.3 L478.9,261.0 L477.7,262.6 L476.5,264.3 L475.3,265.9 L474.1,267.5 L472.9,269.2 L471.8,270.8 L470.7,272.4 L469.6,274.1 L468.5,275.7 L467.5,277.3 L466.4,278.9 L465.4,280.5 L464.4,282.1 L463.5,283.7 L462.6,285.3 L461.6,286.8 L460.7,288.4 L459.9,289.9 L459.0,291.5 L458.2,293.0 L457.4,294.5 L456.6,296.0 L455.8,297.6 L455.1,299.1 L454.4,300.5 L453.6,302.0 L452.9,303.5 L452.3,305.0 L451.6,306.5 L450.9,307.9 L450.3,309.4 L449.7,310.9 L449.0,312.4 L448.4,313.9 L447.8,315.4 L447.2,317.0 L446.6,318.5 L446.0,320.0 L445.4,321.5 L444.9,323.0 L444.3,324.6 L443.8,326.1 L443.3,327.6 L442.8,329.1 L442.3,330.5 L441.9,332.0 L441.4,333.5 L441.0,334.9 L440.6,336.4 L440.2,337.8 L439.8,339.3 L439.5,340.7 L439.1,342.1 L438.8,343.5 L438.5,344.9 L438.2,346.3 L437.9,347.6 L437.6,349.0 L437.3,350.4 L437.1,351.7 L436.8,353.1 L436.6,354.4 L436.3,355.8 L436.1,357.1 L435.9,358.5 L435.7,359.8 L435.5,361.2 L435.3,362.6 L435.1,364.0 L434.9,365.4 L434.7,366.8 L434.5,368.1 L434.3,369.5 L434.2,370.9 L434.0,372.3 L433.9,373.7 L433.7,375.1 L433.6,376.4 L433.5,377.8 L433.3,379.1 L433.2,380.5 L433.1,381.8 L433.0,383.1 L432.9,384.4 L432.8,385.7 L432.7,387.0 L432.7,388.3 L432.6,389.6 L432.5,390.9 L432.5,392.1 L432.4,393.4 L432.3,394.6 L432.3,395.8 L432.3,397.1 L432.2,398.3 L432.2,399.5 L432.1,400.7 L432.1,402.0 L432.1,403.2 L432.0,404.4 L432.0,405.7 L432.0,406.9 L432.0,408.2 L431.9,409.4 L431.9,410.7 L431.9,412.0 L431.9,413.2 L431.8,414.5 L431.8,415.7 L431.8,417.0 L431.8,418.2 L431.7,419.5 L431.7,420.7 L431.7,421.9 L431.6,423.1 L431.6,424.3 L431.5,425.5 L431.5,426.7 L431.4,427.9 L431.4,429.1 L431.3,430.2 L431.2,431.4 L431.2,432.5 L431.1,433.6 L431.0,434.8 L430.9,435.9 L430.9,437.0 L430.8,438.1 L430.7,439.2 L430.6,440.3 L430.5,441.4 L430.3,442.5 L430.2,443.6 L430.1,444.7 L430.0,445.8 L429.9,446.9 L429.8,448.1 L429.7,449.2 L429.5,450.3 L429.4,451.5 L429.3,452.6 L429.1,453.8 L429.0,454.9 L428.8,456.1 L428.7,457.2 L428.5,458.3 L428.3,459.4 L428.1,460.6 L427.9,461.7 L427.7,462.7 L427.5,463.8 L427.2,464.9 L427.0,465.9 L426.7,467.0 L426.5,468.0 L426.2,469.0 L425.9,470.0 L425.6,471.1 L425.3,472.0 L425.0,473.0 L424.6,474.0 L424.3,475.0 L424.0,475.9 L423.6,476.9 L423.2,477.9 L422.9,478.8 L422.5,479.8 L422.1,480.8 L421.7,481.7 L421.4,482.7 L421.0,483.7 L420.6,484.7 L420.2,485.7 L419.8,486.8 L419.4,487.8 L419.0,488.8 L418.6,489.8 L418.1,490.8 L417.7,491.8 L417.2,492.8 L416.8,493.8 L416.3,494.7 L415.8,495.7 L415.3,496.7 L414.8,497.6 L414.3,498.5 L413.7,499.5 L413.2,500.4 L412.6,501.3 L412.1,502.2 L411.5,503.1 L410.9,503.9 L410.3,504.8 L409.7,505.7 L409.0,506.5 L408.4,507.3 L407.7,508.2 L407.1,509.0 L406.4,509.8 L405.8,510.7 L405.1,511.5 L404.4,512.3 L403.7,513.2 L403.0,514.0 L402.3,514.9 L401.7,515.7 L401.0,516.6 L400.3,517.5 L399.6,518.4 L398.9,519.2 L398.1,520.1 L397.4,521.0 L396.7,521.9 L396.0,522.7 L395.2,523.6 L394.5,524.4 L393.7,525.3 L392.9,526.1 L392.2,526.9 L391.4,527.7 L390.6,528.5 L389.8,529.3 L388.9,530.1 L388.1,530.8 L387.3,531.6 L386.5,532.3 L385.6,533.0 L384.8,533.7 L383.9,534.4 L383.0,535.1 L382.2,535.8 L381.3,536.5 L380.4,537.2 L379.5,537.9 L378.7,538.6 L377.8,539.2 L376.9,539.9 L376.0,540.7 L375.1,541.4 L374.2,542.1 L373.3,542.9 L372.4,543.6 L371.5,544.3 L370.6,545.1 L369.7,545.8 L368.8,546.5 L367.9,547.2 L367.0,547.9 L366.1,548.6 L365.1,549.2 L364.2,549.8 L363.2,550.4 L362.3,550.9 L361.3,551.4 L360.3,551.9 L359.3,552.3 L358.3,552.7 L357.3,553.1 L356.2,553.4 L355.2,553.7 L354.2,554.0 L353.1,554.2 L352.0,554.4 L351.0,554.5 L349.9,554.6 L348.8,554.7 L347.7,554.8 L346.6,554.8 L345.5,554.8 L344.3,554.8 L343.2,554.7 L342.1,554.7 L341.0,554.6 L339.9,554.5 L338.7,554.5 L337.6,554.4 L336.5,554.4 L335.3,554.3 L334.2,554.3 L333.1,554.3 L331.9,554.2 L330.8,554.2 L329.7,554.2 L328.6,554.3 L327.4,554.3 L326.3,554.4 L325.2,554.4 L324.0,554.5 L322.9,554.6 L321.8,554.7 L320.6,554.9 L319.5,555.0 L318.4,555.1 L317.3,555.3 L316.1,555.5 L315.0,555.6 L313.9,555.8 L312.8,556.0 L311.7,556.1 L310.6,556.3 L309.5,556.4 L308.4,556.5 L307.3,556.6 L306.2,556.8 L305.1,556.8 L304.0,556.9 L302.9,557.0 L301.9,557.1 L300.8,557.1 L299.7,557.2 L298.7,557.2 L297.6,557.3 L296.5,557.3 L295.5,557.3 L294.4,557.4 L293.4,557.4 L292.3,557.5 L291.3,557.5 L290.2,557.6 L289.2,557.7 L288.1,557.8 L287.1,557.9 L286.0,558.0 L285.0,558.2 L284.0,558.3 L282.9,558.5 L281.9,558.6 L280.8,558.8 L279.8,558.9 L278.8,559.1 L277.8,559.2 L276.7,559.4 L275.7,559.5 L274.7,559.6 L273.7,559.7 L272.7,559.8 L271.7,559.9 L270.8,560.0 L269.8,560.1 L268.8,560.1 L267.8,560.2 L266.9,560.2 L265.9,560.3 L265.0,560.3 L264.0,560.3 L263.1,560.4 L262.1,560.4 L261.2,560.5 L260.3,560.5 L259.3,560.6 L258.4,560.7 L257.5,560.7 L256.5,560.8 L255.6,560.9 L254.7,561.1 L253.7,561.2 L252.8,561.4 L251.9,561.5 L251.0,561.7 L250.1,561.8 L249.1,562.0 L248.2,562.1 L247.3,562.3 L246.4,562.4 L245.5,562.5 L244.7,562.7 L243.8,562.8 L242.9,562.9 L242.0,563.0 L241.2,563.0 L240.3,563.1 L239.5,563.2 L238.6,563.2 L237.8,563.3 L237.0,563.3 L236.1,563.4 L235.3,563.4 L234.5,563.5 L233.7,563.5 L232.9,563.6 L232.0,563.7 L231.2,563.8 L230.4,563.9 L229.6,564.0 L228.8,564.1 L228.0,564.3 L227.2,564.4 L226.4,564.6 L225.5,564.7 L224.7,564.9 L224.0,565.1 L223.2,565.2 L222.4,565.4 L221.6,565.5 L220.8,565.6 L220.0,565.8 L219.3,565.9 L218.5,566.0 L217.8,566.1 L217.0,566.1 L216.3,566.2 L215.5,566.3 L214.8,566.3 L214.1,566.4 L213.4,566.4 L212.6,566.4 L211.9,566.5 L211.2,566.5 L210.5,566.6 L209.8,566.7 L209.1,566.7 L208.4,566.8 L207.7,566.9 L207.0,567.0 L206.3,567.2 L205.6,567.3 L204.9,567.5 L204.2,567.6 L203.5,567.8 L202.8,567.9 L202.1,568.1 L201.5,568.2 L200.8,568.4 L200.1,568.5 L199.5,568.7 L198.8,568.8 L198.2,568.9 L197.5,569.0 L196.9,569.1 L196.3,569.2 L195.7,569.2 L195.1,569.3 L194.5,569.4 L193.9,569.4 L193.3,569.4 L192.7,569.5 L192.1,569.5 L191.5,569.6 L191.0,569.7 L190.4,569.7 L189.8,569.8 L189.2,569.9 L188.7,570.0 L188.1,570.1 L187.5,570.3 L187.0,570.4 L186.4,570.6 L185.8,570.7 L185.3,570.9 L184.7,571.0 L184.1,571.2 L183.6,571.4 L183.1,571.5 L182.5,571.6 L182.0,571.8 L181.5,571.9 L180.9,572.0 L180.4,572.1 L179.9,572.2 L179.4,572.3 L178.9,572.4 L178.5,572.4 L178.0,572.5 L177.5,572.5 L177.0,572.6 L176.6,572.6 L176.1,572.7 L175.6,572.7 L175.2,572.8 L174.7,572.9 L174.3,573.0 L173.8,573.1 L173.4,573.2 L172.9,573.3 L172.5,573.4 L172.0,573.6 L171.6,573.7 L171.1,573.9 L170.7,574.0 L170.2,574.2 L169.8,574.4 L169.4,574.5 L169.0,574.7 L168.6,574.8 L168.1,575.0 L167.7,575.1 L167.3,575.2 L167.0,575.3 L166.6,575.4 L166.2,575.5 L165.8,575.5 L165.5,575.6 L165.1,575.7 L164.8,575.7 L164.4,575.7 L164.1,575.8 L163.7,575.8 L163.4,575.9 L163.1,575.9 L162.7,576.0 L162.4,576.1 L162.1,576.2 L161.7,576.3 L161.4,576.4 L161.1,576.5 L160.7,576.7 L160.4,576.8 L160.1,577.0 L159.8,577.2 L159.5,577.3 L159.1,577.5 L158.8,577.6 L158.5,577.8 L158.2,577.9 L158.0,578.0 L157.7,578.2 L157.4,578.3 L157.1,578.4 L156.9,578.5 L156.6,578.5 L156.3,578.6 L156.1,578.7 L155.9,578.7 L155.6,578.8 L155.4,578.8 L155.2,578.9 L154.9,578.9 L154.7,579.0 L154.5,579.0 L154.3,579.1 L154.1,579.2 L153.9,579.3 L153.6,579.4 L153.4,579.5 L153.2,579.6 L153.0,579.8 L152.8,579.9 L152.6,580.1 L152.4,580.2 L152.2,580.4 L152.0,580.6 L151.8,580.7 L151.6,580.9 L151.5,581.0 L151.3,581.1 L151.1,581.2 L151.0,581.4 L150.8,581.5 L150.7,581.5 L150.5,581.6 L150.4,581.7 L150.3,581.8 L150.2,581.8 L150.1,581.8 L150.0,581.9 L149.8,581.9 L149.7,582.0 L149.6,582.0 L149.5,582.1 L149.4,582.2 L149.3,582.2 L149.3,582.3 L149.2,582.4 L149.1,582.5 L149.0,582.7 L148.9,582.8 L148.8,583.0 L148.7,583.1 L148.6,583.3 L148.5,583.4 L148.5,583.6 L148.4,583.7 L148.3,583.9 L148.3,584.0 L148.2,584.1 L148.2,584.3 L148.1,584.4 L148.1,584.4 L148.1,584.5 L148.1,584.6 L148.0,584.6 L148.0,584.7 L148.0,584.7 L148.0,584.7 L148.0,584.7 L148.0,584.8 L148.0,584.8 L148.0,584.8 L148.0,584.9 L148.0,584.9 L148.0,585.0 L148.0,585.0 L148.1,585.1 L148.1,585.2 L148.1,585.3 L148.1,585.4 L148.1,585.5 L148.1,585.7 L148.2,585.8 L148.2,585.9 L148.2,586.1 L148.2,586.2 L148.3,586.3 L148.3,586.4 L148.4,586.5 L148.4,586.6 L148.5,586.7 L148.6,586.8 L148.6,586.9 L148.7,587.0 L148.8,587.0 L148.9,587.1 L149.0,587.1 L149.1,587.1 L149.2,587.1 L149.3,587.2 L149.4,587.2 L149.5,587.2 L149.6,587.3 L149.7,587.3 L149.8,587.4 L150.0,587.5 L150.1,587.6 L150.2,587.7 L150.3,587.8 L150.4,587.9 L150.6,588.0 L150.7,588.2 L150.8,588.3 L150.9,588.5 L151.1,588.6 L151.2,588.7 L151.4,588.9 L151.5,589.0 L151.7,589.1 L151.8,589.2 L152.0,589.3 L152.1,589.4 L152.3,589.4 L152.5,589.5 L152.7,589.5 L152.9,589.6 L153.1,589.6 L153.3,589.6 L153.5,589.7 L153.7,589.7 L153.9,589.7 L154.1,589.7 L154.3,589.8 L154.5,589.8 L154.8,589.9 L155.0,589.9 L155.2,590.0 L155.4,590.1 L155.6,590.2 L155.9,590.3 L156.1,590.5 L156.3,590.6 L156.5,590.7 L156.8,590.9 L157.0,591.0 L157.2,591.1 L157.5,591.3 L157.7,591.4 L158.0,591.5 L158.2,591.6 L158.5,591.7 L158.7,591.8 L159.0,591.9 L159.3,591.9 L159.6,592.0 L159.9,592.0 L160.1,592.0 L160.4,592.1 L160.7,592.1 L161.0,592.1 L161.3,592.1 L161.6,592.2 L162.0,592.2 L162.3,592.3 L162.6,592.3 L162.9,592.4 L163.2,592.5 L163.5,592.6 L163.8,592.7 L164.1,592.8 L164.4,593.0 L164.8,593.1 L165.1,593.2 L165.4,593.4 L165.7,593.5 L166.0,593.7 L166.4,593.8 L166.7,593.9 L167.0,594.0 L167.4,594.1 L167.7,594.2 L168.1,594.3 L168.4,594.4 L168.8,594.4 L169.2,594.5 L169.5,594.5 L169.9,594.5 L170.3,594.6 L170.6,594.6 L171.0,594.6 L171.4,594.6 L171.8,594.7 L172.2,594.7 L172.5,594.8 L172.9,594.8 L173.3,594.9 L173.7,595.0 L174.1,595.1 L174.5,595.2 L174.9,595.3 L175.3,595.4 L175.6,595.6 L176.0,595.8 L176.4,595.9 L176.8,596.1 L177.2,596.2 L177.6,596.4 L178.0,596.6 L178.4,596.7 L178.8,596.8 L179.3,597.0 L179.7,597.1 L180.1,597.2 L180.5,597.3 L180.9,597.4 L181.4,597.4 L181.8,597.5 L182.2,597.5 L182.7,597.5 L183.1,597.6 L183.6,597.6 L184.0,597.6 L184.4,597.6 L184.9,597.6 L185.3,597.5 L185.8,597.5 L186.2,597.5 L186.7,597.5 L187.1,597.5 L187.6,597.5 L188.1,597.4 L188.5,597.4 L189.0,597.4 L189.4,597.4 L189.9,597.4 L190.4,597.4 L190.8,597.4 L191.3,597.4 L191.7,597.4 L192.2,597.4 L192.7,597.4 L193.1,597.4 L193.6,597.5 L194.1,597.5 L194.6,597.5 L195.0,597.6 L195.5,597.6 L196.0,597.6 L196.5,597.7 L196.9,597.7 L197.4,597.8 L197.9,597.8 L198.4,597.8 L198.8,597.9 L199.3,597.9 L199.8,597.9 L200.3,598.0 L200.8,598.0 L201.3,598.1 L201.7,598.1 L202.2,598.1 L202.7,598.1 L203.2,598.2 L203.7,598.2 L204.2,598.2 L204.7,598.2 L205.2,598.3 L205.6,598.3 L206.1,598.3 L206.6,598.3 L207.1,598.3 L207.6,598.4 L208.1,598.4 L208.6,598.4 L209.1,598.4 L209.6,598.4 L210.1,598.5 L210.6,598.5 L211.1,598.5 L211.6,598.5 L212.0,598.5 L212.5,598.6 L213.0,598.6 L213.5,598.6 L214.0,598.6 L214.5,598.6 L215.0,598.7 L215.5,598.7 L216.0,598.7 L216.5,598.7 L217.0,598.7 L217.5,598.8 L218.0,598.8 L218.5,598.8 L219.0,598.8 L219.5,598.9 L220.0,598.9 L220.5,598.9 L221.0,598.9 L221.4,599.0 L221.9,599.0 L222.4,599.0 L222.9,599.1 L223.4,599.1 L223.9,599.1 L224.4,599.1 L224.9,599.2 L225.4,599.2 L225.9,599.2 L226.4,599.2 L226.9,599.3 L227.4,599.3 L227.9,599.3 L228.4,599.4 L228.9,599.4 L229.3,599.4 L229.8,599.4 L230.3,599.5 L230.8,599.5 L231.3,599.5 L231.8,599.5 L232.3,599.6 L232.8,599.6 L233.3,599.6 L233.7,599.6 L234.2,599.7 L234.7,599.7 L235.2,599.7 L235.7,599.7 L236.2,599.8 L236.6,599.8 L237.1,599.8 L237.6,599.8 L238.1,599.9 L238.6,599.9 L239.0,599.9 L239.5,599.9 L240.0,600.0 L240.4,600.0 L240.9,600.0 L241.4,600.0 L241.8,600.0 L242.3,600.1 L242.8,600.1 L243.2,600.1 L243.7,600.1 L244.1,600.2 L244.6,600.2 L245.0,600.2 L245.5,600.2 L245.9,600.3 L246.4,600.3 L246.8,600.3 L247.3,600.3 L247.7,600.4 L248.2,600.4 L248.6,600.4 L249.0,600.4 L249.5,600.5 L249.9,600.5 L250.3,600.5 L250.8,600.5 L251.2,600.6 L251.6,600.6 L252.0,600.6 L252.4,600.6 L252.9,600.7 L253.3,600.7 L253.7,600.7 L254.1,600.7 L254.5,600.8 L254.9,600.8 L255.3,600.8 L255.7,600.8 L256.1,600.8 L256.5,600.9 L256.9,600.9 L257.3,600.9 L257.7,600.9 L258.1,601.0 L258.4,601.0 L258.8,601.0 L259.2,601.0 L259.6,601.0 L259.9,601.1 L260.3,601.1 L260.7,601.1 L261.0,601.1 L261.4,601.2 L261.8,601.2 L262.1,601.2 L262.5,601.2 L262.8,601.3 L263.2,601.3 L263.5,601.3 L263.8,601.3 L264.2,601.4 L264.5,601.4 L264.9,601.4 L265.2,601.4 L265.5,601.5 L265.8,601.5 L266.2,601.5 L266.5,601.6 L266.8,601.6 L267.1,601.6 L267.4,601.6 L267.7,601.7 L268.0,601.7 L268.3,601.7 L268.6,601.7 L268.9,601.8 L269.2,601.8 L269.5,601.8 L269.8,601.8 L270.1,601.9 L270.4,601.9 L270.7,601.9 L271.0,601.9 L271.2,602.0 L271.5,602.0 L271.8,602.0" fill="none" stroke="#7c3aed" stroke-width="2.5"/>
<circle cx="271.8" cy="602.0" r="4" fill="#7c3aed" stroke="#ffffff" stroke-width="1"/>
<line x1="96" y1="227" x2="120" y2="227" stroke="#7c3aed" stroke-width="3"/>
<text x="127" y="231" font-family="Arial" font-size="11.5" fill="#334155">altitude bias fault</text>
<path d="M616.0,132.0 L613.6,133.9 L611.1,135.8 L608.7,137.7 L606.3,139.7 L603.9,141.6 L601.5,143.6 L599.1,145.5 L596.7,147.5 L594.4,149.4 L592.0,151.4 L589.7,153.3 L587.3,155.2 L585.0,157.1 L582.8,159.1 L580.5,160.9 L578.3,162.8 L576.1,164.7 L573.9,166.5 L571.7,168.4 L569.6,170.2 L567.5,172.0 L565.4,173.8 L563.4,175.6 L561.3,177.4 L559.3,179.2 L557.4,180.9 L555.4,182.7 L553.5,184.4 L551.6,186.1 L549.7,187.9 L547.9,189.6 L546.0,191.3 L544.2,193.0 L542.4,194.8 L540.6,196.5 L538.8,198.2 L537.0,200.0 L535.3,201.7 L533.5,203.5 L531.8,205.3 L530.0,207.1 L528.3,208.9 L526.6,210.7 L524.9,212.4 L523.3,214.2 L521.7,216.0 L520.1,217.8 L518.5,219.6 L517.0,221.3 L515.5,223.1 L514.1,224.8 L512.7,226.5 L511.3,228.2 L510.0,230.0 L508.7,231.7 L507.4,233.3 L506.1,235.0 L504.9,236.7 L503.8,238.3 L502.6,240.0 L501.5,241.6 L500.5,243.3 L499.4,244.9 L498.4,246.5 L497.4,248.1 L496.5,249.7 L495.6,251.3 L494.7,252.9 L493.8,254.5 L492.9,256.1 L492.1,257.7 L491.2,259.3 L490.4,261.0 L489.6,262.6 L488.8,264.3 L488.0,265.9 L487.3,267.5 L486.5,269.2 L485.8,270.8 L485.2,272.5 L484.5,274.1 L483.9,275.7 L483.4,277.3 L482.8,278.9 L482.3,280.5 L481.8,282.1 L481.4,283.7 L481.0,285.3 L480.6,286.8 L480.2,288.4 L479.9,289.9 L479.6,291.5 L479.3,293.0 L479.1,294.5 L478.9,296.0 L478.7,297.6 L478.6,299.1 L478.4,300.5 L478.3,302.0 L478.3,303.5 L478.2,305.0 L478.2,306.5 L478.1,307.9 L478.1,309.4 L478.1,310.9 L478.1,312.4 L478.1,313.9 L478.2,315.4 L478.2,317.0 L478.3,318.5 L478.3,320.0 L478.4,321.5 L478.5,323.0 L478.7,324.6 L478.8,326.1 L479.0,327.6 L479.2,329.1 L479.4,330.5 L479.7,332.0 L479.9,333.5 L480.2,334.9 L480.5,336.4 L480.8,337.8 L481.2,339.3 L481.6,340.7 L481.9,342.1 L482.3,343.5 L482.8,344.9 L483.2,346.3 L483.7,347.6 L484.1,349.0 L484.6,350.4 L485.1,351.7 L485.6,353.1 L486.2,354.4 L486.7,355.8 L487.3,357.1 L487.8,358.5 L488.4,359.8 L489.0,361.2 L489.5,362.5 L490.1,363.9 L490.7,365.3 L491.3,366.7 L491.9,368.1 L492.5,369.5 L493.1,370.9 L493.7,372.3 L494.4,373.7 L495.0,375.1 L495.6,376.5 L496.3,377.8 L496.9,379.2 L497.6,380.6 L498.3,381.9 L499.0,383.2 L499.6,384.6 L500.3,385.9 L501.0,387.2 L501.8,388.5 L502.5,389.8 L503.2,391.1 L503.9,392.3 L504.6,393.6 L505.4,394.8 L506.1,396.1 L506.9,397.3 L507.6,398.5 L508.4,399.7 L509.1,401.0 L509.9,402.2 L510.6,403.4 L511.4,404.6 L512.1,405.9 L512.9,407.1 L513.7,408.3 L514.4,409.6 L515.2,410.9 L516.0,412.1 L516.7,413.4 L517.5,414.7 L518.2,415.9 L519.0,417.2 L519.7,418.5 L520.5,419.7 L521.2,421.0 L522.0,422.2 L522.7,423.4 L523.4,424.7 L524.2,425.9 L524.9,427.1 L525.6,428.3 L526.3,429.4 L527.0,430.6 L527.7,431.8 L528.4,432.9 L529.1,434.1 L529.7,435.2 L530.4,436.3 L531.1,437.4 L531.7,438.5 L532.4,439.6 L533.0,440.7 L533.6,441.8 L534.3,442.9 L534.9,444.0 L535.5,445.1 L536.1,446.2 L536.8,447.4 L537.4,448.5 L538.0,449.6 L538.6,450.8 L539.2,451.9 L539.8,453.1 L540.4,454.3 L541.0,455.4 L541.6,456.6 L542.2,457.7 L542.7,458.9 L543.3,460.0 L543.8,461.1 L544.3,462.2 L544.8,463.3 L545.3,464.4 L545.8,465.5 L546.3,466.6 L546.7,467.6 L547.2,468.6 L547.6,469.7 L548.0,470.7 L548.4,471.7 L548.8,472.7 L549.2,473.7 L549.5,474.7 L549.9,475.6 L550.3,476.6 L550.6,477.5 L550.9,478.5 L551.2,479.5 L551.6,480.4 L551.9,481.4 L552.2,482.4 L552.5,483.4 L552.8,484.4 L553.1,485.4 L553.4,486.4 L553.7,487.4 L554.0,488.4 L554.2,489.5 L554.5,490.5 L554.8,491.5 L555.0,492.5 L555.2,493.5 L555.4,494.5 L555.6,495.5 L555.8,496.5 L556.0,497.4 L556.2,498.4 L556.3,499.3 L556.4,500.3 L556.5,501.2 L556.6,502.1 L556.7,503.0 L556.8,503.9 L556.9,504.8 L556.9,505.6 L557.0,506.5 L557.0,507.4 L557.0,508.2 L557.0,509.0 L557.0,509.9 L557.0,510.7 L556.9,511.5 L556.9,512.3 L556.9,513.1 L556.8,514.0 L556.8,514.8 L556.7,515.6 L556.7,516.5 L556.6,517.4 L556.6,518.2 L556.5,519.1 L556.4,520.0 L556.4,520.9 L556.3,521.8 L556.2,522.6 L556.1,523.5 L556.0,524.4 L555.9,525.3 L555.8,526.1 L555.6,527.0 L555.5,527.8 L555.3,528.6 L555.2,529.4 L555.0,530.2 L554.8,531.0 L554.6,531.8 L554.4,532.6 L554.2,533.3 L554.0,534.0 L553.7,534.8 L553.5,535.5 L553.2,536.2 L553.0,536.9 L552.7,537.6 L552.4,538.2 L552.2,538.9 L551.9,539.6 L551.6,540.3 L551.3,541.0 L551.0,541.7 L550.7,542.4 L550.4,543.1 L550.2,543.8 L549.9,544.5 L549.6,545.3 L549.3,546.0 L549.0,546.8 L548.7,547.5 L548.3,548.2 L548.0,548.9 L547.7,549.6 L547.3,550.3 L547.0,550.9 L546.6,551.5 L546.3,552.1 L545.9,552.6 L545.5,553.2 L545.0,553.6 L544.6,554.1 L544.2,554.5 L543.7,554.9 L543.3,555.2 L542.8,555.5 L542.3,555.8 L541.8,556.0 L541.3,556.2 L540.8,556.3 L540.2,556.4 L539.7,556.5 L539.1,556.6 L538.5,556.6 L538.0,556.6 L537.4,556.6 L536.8,556.6 L536.2,556.5 L535.6,556.4 L535.0,556.4 L534.4,556.3 L533.8,556.2 L533.2,556.2 L532.6,556.1 L532.0,556.1 L531.4,556.1 L530.8,556.0 L530.2,556.0 L529.5,556.0 L528.9,556.0 L528.3,556.1 L527.7,556.1 L527.1,556.2 L526.5,556.3 L525.9,556.3 L525.3,556.4 L524.7,556.6 L524.1,556.7 L523.5,556.9 L522.9,557.0 L522.2,557.2 L521.6,557.3 L521.0,557.5 L520.4,557.7 L519.8,557.8 L519.2,558.0 L518.6,558.2 L518.1,558.3 L517.5,558.4 L516.9,558.6 L516.3,558.7 L515.7,558.8 L515.1,558.9 L514.6,558.9 L514.0,559.0 L513.4,559.1 L512.9,559.1 L512.3,559.1 L511.7,559.2 L511.2,559.2 L510.6,559.2 L510.0,559.3 L509.5,559.3 L508.9,559.4 L508.4,559.4 L507.8,559.5 L507.2,559.6 L506.7,559.7 L506.1,559.8 L505.6,559.9 L505.0,560.0 L504.4,560.2 L503.9,560.3 L503.3,560.5 L502.8,560.7 L502.2,560.9 L501.7,561.0 L501.1,561.2 L500.6,561.4 L500.0,561.5 L499.5,561.7 L498.9,561.8 L498.4,562.0 L497.9,562.1 L497.3,562.2 L496.8,562.3 L496.3,562.4 L495.8,562.4 L495.2,562.5 L494.7,562.6 L494.2,562.6 L493.7,562.6 L493.2,562.7 L492.7,562.7 L492.1,562.8 L491.6,562.8 L491.1,562.9 L490.6,563.0 L490.1,563.0 L489.6,563.1 L489.1,563.3 L488.6,563.4 L488.1,563.5 L487.6,563.7 L487.1,563.8 L486.6,564.0 L486.1,564.1 L485.6,564.3 L485.0,564.4 L484.6,564.6 L484.1,564.7 L483.6,564.8 L483.1,565.0 L482.6,565.1 L482.1,565.2 L481.6,565.3 L481.1,565.3 L480.6,565.4 L480.2,565.5 L479.7,565.5 L479.2,565.6 L478.7,565.6 L478.3,565.6 L477.8,565.7 L477.3,565.7 L476.8,565.8 L476.4,565.9 L475.9,566.0 L475.4,566.1 L475.0,566.2 L474.5,566.3 L474.0,566.4 L473.6,566.6 L473.1,566.7 L472.7,566.9 L472.2,567.0 L471.7,567.2 L471.3,567.4 L470.8,567.5 L470.4,567.7 L469.9,567.8 L469.4,567.9 L469.0,568.0 L468.5,568.2 L468.1,568.3 L467.7,568.3 L467.2,568.4 L466.8,568.5 L466.3,568.6 L465.9,568.6 L465.5,568.6 L465.0,568.7 L464.6,568.7 L464.2,568.8 L463.7,568.8 L463.3,568.9 L462.9,569.0 L462.5,569.0 L462.0,569.1 L461.6,569.2 L461.2,569.3 L460.8,569.5 L460.4,569.6 L459.9,569.8 L459.5,569.9 L459.1,570.1 L458.7,570.2 L458.3,570.4 L457.9,570.5 L457.5,570.7 L457.0,570.8 L456.6,571.0 L456.2,571.1 L455.8,571.2 L455.5,571.3 L455.1,571.4 L454.7,571.5 L454.3,571.5 L453.9,571.6 L453.5,571.6 L453.1,571.7 L452.8,571.7 L452.4,571.8 L452.0,571.8 L451.7,571.9 L451.3,571.9 L450.9,572.0 L450.5,572.1 L450.2,572.2 L449.8,572.3 L449.4,572.4 L449.1,572.5 L448.7,572.7 L448.3,572.8 L448.0,573.0 L447.6,573.2 L447.3,573.3 L446.9,573.5 L446.5,573.6 L446.2,573.8 L445.8,573.9 L445.5,574.1 L445.1,574.2 L444.8,574.3 L444.4,574.4 L444.1,574.5 L443.8,574.6 L443.4,574.7 L443.1,574.7 L442.8,574.8 L442.4,574.8 L442.1,574.9 L441.8,574.9 L441.5,575.0 L441.1,575.0 L440.8,575.1 L440.5,575.1 L440.2,575.2 L439.9,575.3 L439.5,575.4 L439.2,575.6 L438.9,575.7 L438.6,575.8 L438.3,576.0 L438.0,576.1 L437.6,576.3 L437.3,576.5 L437.0,576.6 L436.7,576.8 L436.4,576.9 L436.1,577.1 L435.8,577.2 L435.5,577.3 L435.2,577.4 L434.9,577.5 L434.6,577.6 L434.4,577.7 L434.1,577.8 L433.8,577.9 L433.5,577.9 L433.2,578.0 L433.0,578.0 L432.7,578.0 L432.4,578.1 L432.1,578.1 L431.9,578.2 L431.6,578.3 L431.3,578.4 L431.1,578.5 L430.8,578.6 L430.5,578.7 L430.3,578.8 L430.0,579.0 L429.7,579.1 L429.5,579.3 L429.2,579.4 L429.0,579.6 L428.7,579.8 L428.4,579.9 L428.2,580.1 L427.9,580.2 L427.7,580.3 L427.5,580.5 L427.2,580.6 L427.0,580.7 L426.7,580.8 L426.5,580.8 L426.3,580.9 L426.1,581.0 L425.8,581.0 L425.6,581.1 L425.4,581.1 L425.2,581.1 L425.0,581.2 L424.8,581.2 L424.5,581.3 L424.3,581.4 L424.1,581.5 L423.9,581.6 L423.7,581.7 L423.5,581.8 L423.3,581.9 L423.1,582.1 L422.9,582.2 L422.7,582.4 L422.5,582.5 L422.3,582.7 L422.1,582.8 L421.9,583.0 L421.7,583.1 L421.5,583.3 L421.3,583.4 L421.2,583.5 L421.0,583.6 L420.8,583.7 L420.6,583.8 L420.5,583.9 L420.3,584.0 L420.1,584.0 L420.0,584.1 L419.8,584.1 L419.7,584.2 L419.5,584.2 L419.4,584.3 L419.2,584.3 L419.1,584.4 L419.0,584.4 L418.8,584.5 L418.7,584.6 L418.5,584.7 L418.4,584.8 L418.2,585.0 L418.1,585.1 L418.0,585.3 L417.8,585.4 L417.7,585.6 L417.6,585.7 L417.4,585.9 L417.3,586.0 L417.2,586.2 L417.0,586.3 L416.9,586.4 L416.8,586.6 L416.7,586.7 L416.6,586.8 L416.5,586.8 L416.4,586.9 L416.3,587.0 L416.2,587.0 L416.1,587.0 L416.0,587.1 L415.9,587.1 L415.8,587.1 L415.7,587.1 L415.6,587.2 L415.5,587.2 L415.4,587.2 L415.3,587.3 L415.3,587.4 L415.2,587.4 L415.1,587.5 L415.0,587.6 L414.9,587.8 L414.8,587.9 L414.8,588.0 L414.7,588.2 L414.6,588.3 L414.5,588.4 L414.5,588.6 L414.4,588.7 L414.3,588.8 L414.3,588.9 L414.2,589.0 L414.2,589.1 L414.1,589.2 L414.1,589.3 L414.0,589.3 L414.0,589.4 L414.0,589.4 L414.0,589.5 L413.9,589.5 L413.9,589.5 L413.9,589.5 L413.9,589.6 L413.9,589.6 L413.9,589.6 L413.8,589.7 L413.8,589.7 L413.8,589.8 L413.8,589.9 L413.8,590.0 L413.8,590.1 L413.8,590.2 L413.8,590.4 L413.8,590.5 L413.8,590.7 L413.8,590.8 L413.8,590.9 L413.8,591.1 L413.8,591.2 L413.8,591.3 L413.8,591.4 L413.9,591.5 L413.9,591.6 L413.9,591.7 L414.0,591.8 L414.0,591.8 L414.0,591.9 L414.1,591.9 L414.1,592.0 L414.2,592.0 L414.2,592.0 L414.3,592.0 L414.4,592.0 L414.4,592.1 L414.5,592.1 L414.5,592.2 L414.6,592.2 L414.7,592.3 L414.7,592.4 L414.8,592.5 L414.9,592.6 L414.9,592.7 L415.0,592.8 L415.1,593.0 L415.1,593.1 L415.2,593.2 L415.3,593.4 L415.4,593.5 L415.5,593.6 L415.5,593.7 L415.6,593.9 L415.7,594.0 L415.8,594.1 L415.9,594.1 L416.0,594.2 L416.1,594.3 L416.3,594.3 L416.4,594.4 L416.5,594.4 L416.6,594.4 L416.7,594.4 L416.9,594.5 L417.0,594.5 L417.1,594.5 L417.3,594.6 L417.4,594.6 L417.5,594.7 L417.7,594.7 L417.8,594.8 L417.9,594.9 L418.1,595.0 L418.2,595.2 L418.4,595.3 L418.5,595.4 L418.6,595.6 L418.8,595.7 L418.9,595.8 L419.1,596.0 L419.2,596.1 L419.4,596.2 L419.6,596.3 L419.7,596.4 L419.9,596.5 L420.1,596.6 L420.2,596.7 L420.4,596.7 L420.6,596.8 L420.8,596.8 L420.9,596.9 L421.1,596.9 L421.3,596.9 L421.5,596.9 L421.7,597.0 L421.9,597.0 L422.1,597.0 L422.3,597.1 L422.5,597.1 L422.7,597.2 L422.9,597.3 L423.1,597.4 L423.3,597.5 L423.5,597.6 L423.7,597.8 L423.9,597.9 L424.1,598.1 L424.3,598.2 L424.5,598.4 L424.7,598.6 L424.9,598.7 L425.2,598.9 L425.4,599.0 L425.6,599.2 L425.8,599.3 L426.1,599.4 L426.3,599.5 L426.5,599.6 L426.8,599.7 L427.0,599.7 L427.2,599.8 L427.5,599.8 L427.7,599.8 L428.0,599.9 L428.2,599.9 L428.5,599.9 L428.7,599.9 L429.0,599.9 L429.2,599.8 L429.5,599.8 L429.8,599.8 L430.0,599.8 L430.3,599.8 L430.6,599.8 L430.8,599.7 L431.1,599.7 L431.4,599.7 L431.6,599.7 L431.9,599.7 L432.2,599.7 L432.4,599.7 L432.7,599.7 L433.0,599.8 L433.3,599.8 L433.5,599.8 L433.8,599.9 L434.1,600.0 L434.4,600.1 L434.6,600.2 L434.9,600.3 L435.2,600.4 L435.5,600.5 L435.7,600.6 L436.0,600.7 L436.3,600.8 L436.6,600.9 L436.9,601.0 L437.2,601.1 L437.5,601.2 L437.8,601.2 L438.1,601.3 L438.3,601.4 L438.6,601.4 L438.9,601.5 L439.2,601.5 L439.5,601.5 L439.8,601.6 L440.2,601.6 L440.5,601.6 L440.8,601.6 L441.1,601.6 L441.4,601.6 L441.7,601.6 L442.0,601.6 L442.3,601.6 L442.6,601.6 L442.9,601.6 L443.2,601.6 L443.5,601.6 L443.9,601.6 L444.2,601.6 L444.5,601.6 L444.8,601.6 L445.1,601.6 L445.4,601.6 L445.8,601.6 L446.1,601.7 L446.4,601.7 L446.7,601.7 L447.0,601.7 L447.4,601.7 L447.7,601.8 L448.0,601.8 L448.3,601.8 L448.6,601.8 L449.0,601.9 L449.3,601.9 L449.6,601.9 L449.9,602.0 L450.3,602.0" fill="none" stroke="#059669" stroke-width="2.5"/>
<circle cx="450.3" cy="602.0" r="4" fill="#059669" stroke="#ffffff" stroke-width="1"/>
<line x1="96" y1="249" x2="120" y2="249" stroke="#059669" stroke-width="3"/>
<text x="127" y="253" font-family="Arial" font-size="11.5" fill="#334155">hazard divert</text>
<rect x="96" y="264" width="24" height="10" fill="#fee2e2" stroke="#dc2626"/>
<text x="127" y="274" font-family="Arial" font-size="11.5" fill="#334155">debris interval [-4, 4] m</text>
<text x="412.0" y="659" text-anchor="middle" font-family="Arial" font-size="14" fill="#334155">downrange x (m)</text>
<text x="22" y="391.0" font-family="Arial" font-size="14" fill="#334155" transform="rotate(-90 22,391.0)">altitude z (m)</text>
<text x="790" y="126" font-family="Arial" font-size="18" font-weight="700" fill="#0f172a">Terminal constraint audit</text>
<rect x="790" y="140" width="358" height="48" rx="4" fill="#ffffff" stroke="#cbd5e1"/>
<text x="802" y="160" font-family="Arial" font-size="11" font-weight="700" fill="#0f172a">PASS requires every condition</text>
<text x="802" y="178" font-family="Arial" font-size="10.5" fill="#475569">|e_x| &lt; 3 m; |v_x| &lt; 1 m/s; |v_z| &lt; 2.5 m/s; |theta|max &lt; 12 deg; propellant &gt; 0</text>
<text x="790" y="214" font-family="Arial" font-size="14" font-weight="700" fill="#0f172a">full-stack nominal</text>
<text x="1106" y="214" font-family="Arial" font-size="13" font-weight="700" fill="#2563eb">PASS</text>
<text x="790" y="232" font-family="Arial" font-size="11.5" fill="#475569">e_x -2.08 m | v_x 0.40 m/s | v_z -1.03 m/s</text>
<text x="790" y="249" font-family="Arial" font-size="11.5" fill="#475569">prop 2938 kg | t_f 44.4 s | nav rejects 0</text>
<text x="790" y="280" font-family="Arial" font-size="14" font-weight="700" fill="#0f172a">18% thrust loss</text>
<text x="1106" y="280" font-family="Arial" font-size="13" font-weight="700" fill="#dc2626">FAIL</text>
<text x="790" y="298" font-family="Arial" font-size="11.5" fill="#475569">e_x -4.86 m | v_x 0.46 m/s | v_z -1.90 m/s</text>
<text x="790" y="315" font-family="Arial" font-size="11.5" fill="#475569">prop 3304 kg | t_f 39.6 s | nav rejects 0</text>
<text x="790" y="346" font-family="Arial" font-size="14" font-weight="700" fill="#0f172a">8% thrust loss</text>
<text x="1106" y="346" font-family="Arial" font-size="13" font-weight="700" fill="#ea580c">PASS</text>
<text x="790" y="364" font-family="Arial" font-size="11.5" fill="#475569">e_x -2.30 m | v_x 0.43 m/s | v_z -1.08 m/s</text>
<text x="790" y="381" font-family="Arial" font-size="11.5" fill="#475569">prop 2950 kg | t_f 44.2 s | nav rejects 0</text>
<text x="790" y="412" font-family="Arial" font-size="14" font-weight="700" fill="#0f172a">altitude bias fault</text>
<text x="1106" y="412" font-family="Arial" font-size="13" font-weight="700" fill="#7c3aed">PASS</text>
<text x="790" y="430" font-family="Arial" font-size="11.5" fill="#475569">e_x 0.28 m | v_x 0.28 m/s | v_z -0.75 m/s</text>
<text x="790" y="447" font-family="Arial" font-size="11.5" fill="#475569">prop 2484 kg | t_f 50.5 s | nav rejects 435</text>
<text x="790" y="478" font-family="Arial" font-size="14" font-weight="700" fill="#0f172a">hazard divert</text>
<text x="1106" y="478" font-family="Arial" font-size="13" font-weight="700" fill="#059669">PASS</text>
<text x="790" y="496" font-family="Arial" font-size="11.5" fill="#475569">e_x -2.53 m | v_x 0.34 m/s | v_z -1.04 m/s</text>
<text x="790" y="513" font-family="Arial" font-size="11.5" fill="#475569">prop 2942 kg | t_f 44.3 s | nav rejects 0</text>
<rect x="52" y="690" width="350" height="150" rx="4" fill="#ffffff" stroke="#cbd5e1"/>
<text x="68" y="715" font-family="Arial" font-size="14" font-weight="700" fill="#0f172a">Trajectory geometry</text>
<text x="68" y="742" font-family="Arial" font-size="11.5" fill="#334155">The green S-curve is a lateral impulse-and-brake sequence:</text>
<text x="68" y="763" font-family="Arial" font-size="11.5" fill="#334155">early tilt accelerates toward the safe site; opposite tilt later</text>
<text x="68" y="784" font-family="Arial" font-size="11.5" fill="#334155">removes crossrange velocity. Touchdown is 5.47 m clear.</text>
<rect x="425" y="690" width="350" height="150" rx="4" fill="#ffffff" stroke="#cbd5e1"/>
<text x="441" y="715" font-family="Arial" font-size="14" font-weight="700" fill="#0f172a">Thrust-authority boundary</text>
<text x="441" y="742" font-family="Arial" font-size="11.5" fill="#334155">An 8% loss remains inside the available impulse/time-to-go</text>
<text x="441" y="763" font-family="Arial" font-size="11.5" fill="#334155">margin. At 18% loss, flight ends 4.8 s earlier and e_x</text>
<text x="441" y="784" font-family="Arial" font-size="11.5" fill="#334155">is -4.86 m despite 3304 kg remaining.</text>
<rect x="798" y="690" width="350" height="150" rx="4" fill="#ffffff" stroke="#cbd5e1"/>
<text x="814" y="715" font-family="Arial" font-size="14" font-weight="700" fill="#0f172a">Navigation-fault response</text>
<text x="814" y="742" font-family="Arial" font-size="11.5" fill="#334155">The +12 m altitude step produces 435 gated innovations.</text>
<text x="814" y="763" font-family="Arial" font-size="11.5" fill="#334155">Estimator consistency is retained, but flight extends to 50.5 s,</text>
<text x="814" y="784" font-family="Arial" font-size="11.5" fill="#334155">adding gravity loss and using 454 kg vs nominal.</text>
<text x="52" y="872" font-family="Arial" font-size="11.5" fill="#475569">Interpretation: positive propellant is an inventory margin, not a guarantee of finite-time reachable acceleration after thrust loss or late retargeting.</text>
</svg>
