<svg xmlns="http://www.w3.org/2000/svg" width="1040" height="720" viewBox="0 0 1040 720" role="img">
<title>Fault response and hazard divert scenario comparison</title>
<rect width="100%" height="100%" fill="#f8fafc"/>
<text x="52" y="42" font-family="Arial" font-size="24" font-weight="700" fill="#0f172a">Actuator, Fault, and Hazard-Divert Verification</text>
<text x="52" y="67" font-family="Arial" font-size="14" fill="#475569">Corridor guidance uses estimated state and flight-like command-path dynamics in every case.</text>
<rect x="82" y="108" width="580" height="390" fill="#ffffff" stroke="#cbd5e1"/>
<rect x="184.1" y="482.8" width="152.9" height="15.2" fill="#fee2e2" stroke="#dc2626" opacity="0.80"/>
<text x="188.1" y="475.8" font-family="Arial" font-size="12" fill="#991b1b">debris hazard</text>
<path d="M604.6,108.0 L602.3,109.6 L599.9,111.2 L597.5,112.8 L595.1,114.4 L592.7,116.0 L590.4,117.6 L588.0,119.2 L585.7,120.9 L583.3,122.5 L581.0,124.1 L578.7,125.7 L576.4,127.3 L574.2,128.9 L571.9,130.4 L569.7,132.0 L567.5,133.6 L565.3,135.1 L563.1,136.7 L560.9,138.2 L558.8,139.7 L556.7,141.2 L554.6,142.7 L552.5,144.2 L550.4,145.7 L548.4,147.1 L546.4,148.6 L544.4,150.0 L542.4,151.5 L540.4,152.9 L538.5,154.3 L536.5,155.8 L534.6,157.2 L532.7,158.6 L530.8,160.1 L528.9,161.5 L527.0,163.0 L525.1,164.4 L523.3,165.9 L521.4,167.3 L519.5,168.8 L517.7,170.3 L515.9,171.8 L514.0,173.3 L512.2,174.8 L510.5,176.2 L508.7,177.7 L507.0,179.2 L505.2,180.6 L503.5,182.1 L501.9,183.6 L500.2,185.0 L498.6,186.4 L497.0,187.9 L495.4,189.3 L493.9,190.7 L492.4,192.1 L490.9,193.5 L489.4,194.9 L487.9,196.2 L486.5,197.6 L485.1,199.0 L483.7,200.3 L482.4,201.7 L481.0,203.0 L479.7,204.3 L478.4,205.7 L477.1,207.0 L475.9,208.3 L474.6,209.7 L473.4,211.0 L472.1,212.3 L470.9,213.7 L469.7,215.0 L468.5,216.4 L467.3,217.7 L466.2,219.1 L465.0,220.5 L463.9,221.8 L462.7,223.2 L461.6,224.5 L460.6,225.9 L459.5,227.2 L458.5,228.6 L457.5,229.9 L456.5,231.2 L455.5,232.6 L454.6,233.9 L453.7,235.2 L452.8,236.5 L451.9,237.8 L451.0,239.1 L450.2,240.3 L449.4,241.6 L448.6,242.9 L447.8,244.1 L447.0,245.4 L446.3,246.6 L445.6,247.9 L444.9,249.1 L444.2,250.3 L443.5,251.5 L442.9,252.8 L442.2,254.0 L441.6,255.2 L441.0,256.5 L440.3,257.7 L439.7,259.0 L439.1,260.2 L438.5,261.5 L437.9,262.7 L437.4,264.0 L436.8,265.3 L436.2,266.5 L435.7,267.8 L435.2,269.0 L434.7,270.3 L434.2,271.5 L433.8,272.7 L433.3,274.0 L432.9,275.2 L432.5,276.4 L432.1,277.6 L431.7,278.8 L431.3,280.0 L430.9,281.2 L430.6,282.3 L430.3,283.5 L430.0,284.7 L429.7,285.8 L429.4,286.9 L429.1,288.1 L428.8,289.2 L428.6,290.3 L428.3,291.5 L428.1,292.6 L427.9,293.7 L427.6,294.8 L427.4,295.9 L427.2,297.1 L427.0,298.2 L426.8,299.3 L426.6,300.5 L426.4,301.6 L426.2,302.8 L426.1,303.9 L425.9,305.1 L425.7,306.3 L425.6,307.4 L425.4,308.5 L425.3,309.7 L425.2,310.8 L425.0,311.9 L424.9,313.1 L424.8,314.2 L424.7,315.3 L424.6,316.4 L424.5,317.5 L424.4,318.5 L424.3,319.6 L424.2,320.7 L424.2,321.7 L424.1,322.8 L424.0,323.8 L424.0,324.9 L423.9,325.9 L423.9,326.9 L423.8,328.0 L423.8,329.0 L423.8,330.0 L423.7,331.0 L423.7,332.0 L423.7,333.1 L423.6,334.1 L423.6,335.2 L423.6,336.2 L423.5,337.3 L423.5,338.3 L423.5,339.4 L423.5,340.5 L423.4,341.5 L423.4,342.6 L423.4,343.6 L423.4,344.7 L423.3,345.7 L423.3,346.8 L423.3,347.8 L423.2,348.8 L423.2,349.8 L423.2,350.8 L423.1,351.8 L423.1,352.8 L423.0,353.8 L423.0,354.7 L422.9,355.7 L422.8,356.7 L422.8,357.6 L422.7,358.5 L422.6,359.5 L422.6,360.4 L422.5,361.3 L422.4,362.2 L422.3,363.1 L422.2,364.1 L422.1,365.0 L422.0,365.9 L421.9,366.9 L421.8,367.8 L421.7,368.8 L421.6,369.7 L421.5,370.7 L421.4,371.6 L421.3,372.6 L421.2,373.5 L421.0,374.5 L420.9,375.4 L420.8,376.3 L420.6,377.2 L420.4,378.2 L420.3,379.1 L420.1,380.0 L419.9,380.9 L419.7,381.7 L419.5,382.6 L419.2,383.5 L419.0,384.4 L418.8,385.2 L418.5,386.1 L418.3,386.9 L418.0,387.7 L417.7,388.6 L417.4,389.4 L417.2,390.2 L416.9,391.0 L416.6,391.9 L416.3,392.7 L416.0,393.5 L415.7,394.4 L415.3,395.2 L415.0,396.1 L414.7,396.9 L414.4,397.8 L414.1,398.6 L413.7,399.5 L413.4,400.3 L413.0,401.2 L412.6,402.0 L412.2,402.8 L411.9,403.7 L411.4,404.5 L411.0,405.3 L410.6,406.1 L410.2,406.9 L409.7,407.7 L409.3,408.5 L408.8,409.2 L408.3,410.0 L407.8,410.8 L407.3,411.5 L406.8,412.2 L406.3,413.0 L405.8,413.7 L405.2,414.4 L404.7,415.2 L404.1,415.9 L403.6,416.6 L403.0,417.3 L402.4,418.0 L401.9,418.8 L401.3,419.5 L400.7,420.2 L400.1,421.0 L399.5,421.8 L398.9,422.5 L398.4,423.3 L397.8,424.0 L397.1,424.8 L396.5,425.6 L395.9,426.3 L395.3,427.0 L394.6,427.8 L394.0,428.5 L393.3,429.2 L392.6,430.0 L391.9,430.7 L391.3,431.4 L390.6,432.1 L389.8,432.7 L389.1,433.4 L388.4,434.1 L387.7,434.7 L386.9,435.4 L386.2,436.0 L385.4,436.7 L384.6,437.3 L383.9,437.9 L383.1,438.5 L382.3,439.1 L381.5,439.7 L380.7,440.3 L379.9,440.9 L379.1,441.5 L378.2,442.1 L377.4,442.7 L376.6,443.3 L375.8,443.9 L375.0,444.5 L374.2,445.2 L373.3,445.8 L372.5,446.5 L371.7,447.1 L370.9,447.7 L370.0,448.4 L369.2,449.0 L368.4,449.7 L367.5,450.3 L366.6,450.9 L365.8,451.5 L364.9,452.1 L364.0,452.7 L363.2,453.2 L362.3,453.8 L361.4,454.3 L360.4,454.7 L359.5,455.2 L358.6,455.6 L357.6,456.0 L356.7,456.4 L355.7,456.7 L354.7,457.0 L353.7,457.3 L352.7,457.5 L351.7,457.8 L350.7,457.9 L349.7,458.1 L348.6,458.2 L347.5,458.3 L346.5,458.4 L345.4,458.4 L344.3,458.5 L343.2,458.5 L342.1,458.4 L341.1,458.4 L340.0,458.4 L338.8,458.3 L337.7,458.3 L336.6,458.2 L335.5,458.2 L334.4,458.1 L333.3,458.1 L332.2,458.1 L331.1,458.1 L330.0,458.0 L328.9,458.0 L327.7,458.1 L326.6,458.1 L325.5,458.1 L324.4,458.2 L323.3,458.2 L322.2,458.3 L321.1,458.4 L320.0,458.5 L318.9,458.6 L317.8,458.7 L316.6,458.8 L315.5,459.0 L314.4,459.1 L313.3,459.2 L312.2,459.4 L311.1,459.5 L310.0,459.6 L309.0,459.8 L307.9,459.9 L306.8,460.0 L305.7,460.1 L304.7,460.2 L303.6,460.2 L302.5,460.3 L301.5,460.4 L300.4,460.4 L299.4,460.5 L298.3,460.5 L297.3,460.6 L296.2,460.6 L295.2,460.6 L294.2,460.6 L293.1,460.7 L292.1,460.7 L291.1,460.7 L290.0,460.8 L289.0,460.9 L288.0,460.9 L287.0,461.0 L285.9,461.1 L284.9,461.2 L283.9,461.3 L282.9,461.4 L281.9,461.6 L280.8,461.7 L279.8,461.8 L278.8,461.9 L277.8,462.1 L276.8,462.2 L275.8,462.3 L274.9,462.4 L273.9,462.5 L272.9,462.6 L271.9,462.7 L271.0,462.8 L270.0,462.8 L269.1,462.9 L268.1,463.0 L267.2,463.0 L266.3,463.0 L265.4,463.1 L264.4,463.1 L263.5,463.2 L262.6,463.2 L261.7,463.3 L260.8,463.3 L259.9,463.4 L259.0,463.5 L258.1,463.6 L257.2,463.7 L256.3,463.8 L255.4,463.9 L254.5,464.0 L253.6,464.1 L252.7,464.2 L251.8,464.3 L250.9,464.5 L250.1,464.6 L249.2,464.7 L248.3,464.7 L247.5,464.8 L246.7,464.9 L245.8,465.0 L245.0,465.0 L244.2,465.1 L243.3,465.2 L242.5,465.2 L241.7,465.2 L240.9,465.3 L240.1,465.3 L239.3,465.4 L238.6,465.4 L237.8,465.5 L237.0,465.5 L236.2,465.6 L235.4,465.7 L234.6,465.8 L233.9,465.9 L233.1,466.0 L232.3,466.1 L231.5,466.2 L230.8,466.4 L230.0,466.5 L229.2,466.6 L228.5,466.8 L227.7,466.9 L227.0,467.0 L226.2,467.1 L225.5,467.3 L224.8,467.4 L224.1,467.5 L223.3,467.5 L222.6,467.6 L221.9,467.7 L221.2,467.7 L220.6,467.8 L219.9,467.8 L219.2,467.9 L218.5,467.9 L217.9,467.9 L217.2,468.0 L216.5,468.0 L215.9,468.0 L215.2,468.1 L214.6,468.2 L213.9,468.2 L213.3,468.3 L212.6,468.4 L212.0,468.5 L211.3,468.6 L210.7,468.7 L210.0,468.9 L209.4,469.0 L208.8,469.1 L208.1,469.3 L207.5,469.4 L206.9,469.5 L206.3,469.6 L205.7,469.7 L205.1,469.8 L204.5,469.9 L203.9,470.0 L203.3,470.1 L202.8,470.1 L202.2,470.2 L201.7,470.3 L201.1,470.3 L200.6,470.3 L200.0,470.4 L199.5,470.4 L199.0,470.5 L198.5,470.5 L197.9,470.5 L197.4,470.6 L196.9,470.7 L196.4,470.8 L195.9,470.8 L195.4,470.9 L194.8,471.0 L194.3,471.2 L193.8,471.3 L193.3,471.4 L192.8,471.6 L192.3,471.7 L191.8,471.8 L191.3,472.0 L190.8,472.1 L190.4,472.2 L189.9,472.3 L189.4,472.4 L189.0,472.5 L188.5,472.6 L188.1,472.7 L187.6,472.7 L187.2,472.8 L186.8,472.9 L186.4,472.9 L186.0,472.9 L185.5,473.0 L185.1,473.0 L184.7,473.1 L184.3,473.1 L183.9,473.1 L183.5,473.2 L183.2,473.3 L182.8,473.4 L182.4,473.4 L182.0,473.5 L181.6,473.7 L181.2,473.8 L180.8,473.9 L180.4,474.0 L180.1,474.2 L179.7,474.3 L179.3,474.4 L178.9,474.6 L178.6,474.7 L178.2,474.8 L177.9,474.9 L177.5,475.0 L177.2,475.1 L176.9,475.2 L176.6,475.3 L176.2,475.3 L175.9,475.4 L175.6,475.5 L175.3,475.5 L175.0,475.5 L174.8,475.6 L174.5,475.6 L174.2,475.6 L173.9,475.7 L173.6,475.7 L173.4,475.8 L173.1,475.9 L172.8,475.9 L172.5,476.0 L172.3,476.1 L172.0,476.2 L171.7,476.4 L171.5,476.5 L171.2,476.6 L170.9,476.8 L170.7,476.9 L170.4,477.0 L170.2,477.1 L169.9,477.3 L169.7,477.4 L169.5,477.5 L169.2,477.6 L169.0,477.7 L168.8,477.8 L168.6,477.8 L168.4,477.9 L168.2,478.0 L168.0,478.0 L167.8,478.0 L167.6,478.1 L167.4,478.1 L167.3,478.1 L167.1,478.2 L166.9,478.2 L166.7,478.3 L166.6,478.3 L166.4,478.4 L166.2,478.5 L166.1,478.5 L165.9,478.6 L165.7,478.7 L165.6,478.9 L165.4,479.0 L165.3,479.1 L165.1,479.2 L165.0,479.4 L164.8,479.5 L164.7,479.6 L164.5,479.8 L164.4,479.9 L164.3,480.0 L164.2,480.1 L164.0,480.2 L163.9,480.2 L163.8,480.3 L163.7,480.4 L163.6,480.4 L163.6,480.5 L163.5,480.5 L163.4,480.6 L163.3,480.6 L163.3,480.6 L163.2,480.7 L163.1,480.7 L163.1,480.8 L163.0,480.8 L162.9,480.9 L162.9,481.0 L162.8,481.1 L162.8,481.1 L162.7,481.3 L162.6,481.4 L162.6,481.5 L162.5,481.6 L162.5,481.8 L162.4,481.9 L162.4,482.0 L162.3,482.1 L162.3,482.3 L162.3,482.4 L162.2,482.5 L162.2,482.6 L162.2,482.7 L162.2,482.8 L162.1,482.8 L162.1,482.9 L162.1,483.0 L162.1,483.0 L162.1,483.1 L162.1,483.1 L162.1,483.1 L162.1,483.2 L162.1,483.2 L162.1,483.3 L162.2,483.3 L162.2,483.4 L162.2,483.4 L162.2,483.5 L162.2,483.6 L162.2,483.7 L162.2,483.8 L162.3,483.9 L162.3,484.0 L162.3,484.2 L162.3,484.3 L162.3,484.4 L162.4,484.6 L162.4,484.7 L162.4,484.8 L162.4,484.9 L162.5,485.0 L162.5,485.1 L162.6,485.2 L162.6,485.3 L162.6,485.4 L162.7,485.4 L162.8,485.5 L162.8,485.5 L162.9,485.5 L162.9,485.6 L163.0,485.6 L163.1,485.6 L163.2,485.6 L163.2,485.7 L163.3,485.7 L163.4,485.7 L163.5,485.8 L163.6,485.8 L163.6,485.9 L163.7,486.0 L163.8,486.1 L163.9,486.2 L164.0,486.3 L164.1,486.4 L164.2,486.5 L164.2,486.6 L164.3,486.7 L164.4,486.8 L164.5,486.9 L164.6,487.0 L164.7,487.1 L164.9,487.2 L165.0,487.3 L165.1,487.3 L165.2,487.4 L165.3,487.5 L165.5,487.5 L165.6,487.5 L165.7,487.6 L165.9,487.6 L166.0,487.6 L166.2,487.6 L166.3,487.6 L166.5,487.7 L166.6,487.7 L166.8,487.7 L166.9,487.8 L167.1,487.8 L167.2,487.9 L167.4,488.0 L167.6,488.1 L167.7,488.2 L167.9,488.3 L168.0,488.4 L168.2,488.5 L168.4,488.7 L168.5,488.8 L168.7,488.9 L168.9,489.0 L169.1,489.1 L169.2,489.2 L169.4,489.3 L169.6,489.3 L169.8,489.4 L170.0,489.5 L170.2,489.5 L170.4,489.6 L170.6,489.6 L170.8,489.6 L171.1,489.6 L171.3,489.7 L171.5,489.7 L171.7,489.7 L172.0,489.7 L172.2,489.8 L172.4,489.8 L172.7,489.9 L172.9,489.9 L173.1,490.0 L173.3,490.1 L173.6,490.2 L173.8,490.3 L174.1,490.4 L174.3,490.5 L174.5,490.6 L174.8,490.7 L175.0,490.8 L175.3,491.0 L175.5,491.1 L175.8,491.2 L176.0,491.3 L176.3,491.3 L176.6,491.4 L176.8,491.5 L177.1,491.5 L177.4,491.6 L177.6,491.6 L177.9,491.7 L178.2,491.7 L178.5,491.7 L178.8,491.7 L179.1,491.8 L179.4,491.8 L179.7,491.8 L180.0,491.8 L180.3,491.9 L180.6,491.9 L180.9,492.0 L181.2,492.1 L181.5,492.1 L181.8,492.2 L182.1,492.3 L182.4,492.4 L182.7,492.6 L183.0,492.7 L183.3,492.8 L183.6,492.9 L183.9,493.0 L184.2,493.1 L184.6,493.2 L184.9,493.3 L185.2,493.4 L185.5,493.5 L185.9,493.5 L186.2,493.6 L186.6,493.6 L186.9,493.7 L187.2,493.7 L187.6,493.8 L188.0,493.8 L188.3,493.8 L188.7,493.8 L189.0,493.8 L189.4,493.9 L189.7,493.9 L190.1,493.9 L190.5,494.0 L190.8,494.1 L191.2,494.1 L191.6,494.2 L191.9,494.3 L192.3,494.4 L192.7,494.5 L193.0,494.6 L193.4,494.7 L193.8,494.9 L194.1,495.0 L194.5,495.1 L194.9,495.2 L195.2,495.3 L195.6,495.4 L196.0,495.5 L196.4,495.5 L196.7,495.6 L197.1,495.7 L197.5,495.7 L197.9,495.8 L198.2,495.8 L198.6,495.8 L199.0,495.9 L199.4,495.9 L199.7,495.9 L200.1,495.9 L200.5,495.9 L200.9,496.0 L201.3,496.0 L201.6,496.1 L202.0,496.1 L202.4,496.2 L202.8,496.3 L203.2,496.4 L203.5,496.5 L203.9,496.6 L204.3,496.7 L204.7,496.8 L205.1,497.0 L205.4,497.1 L205.8,497.2 L206.2,497.3 L206.6,497.4 L207.0,497.5 L207.4,497.6 L207.7,497.6 L208.1,497.7 L208.5,497.8 L208.9,497.8 L209.3,497.9 L209.7,497.9 L210.0,497.9 L210.4,497.9 L210.8,498.0 L211.2,498.0 L211.6,498.0 L212.0,498.0 L212.3,497.9 L212.7,497.9 L213.1,497.9 L213.5,497.9 L213.9,497.9 L214.2,497.9 L214.6,497.9 L215.0,497.9 L215.4,497.9 L215.8,497.9 L216.1,497.9 L216.5,497.9 L216.9,497.9 L217.3,497.9 L217.7,497.9 L218.0,497.9 L218.4,497.9 L218.8,497.9 L219.2,497.9 L219.6,497.9 L219.9,498.0 L220.3,498.0 L220.7,498.0" fill="none" stroke="#2563eb" stroke-width="2.5"/>
<line x1="96" y1="128" x2="120" y2="128" stroke="#2563eb" stroke-width="3"/>
<text x="127" y="132" font-family="Arial" font-size="12" fill="#334155">full-stack nominal</text>
<path d="M604.6,108.0 L602.3,109.6 L599.9,111.2 L597.5,112.8 L595.1,114.4 L592.7,116.0 L590.4,117.6 L588.0,119.2 L585.7,120.9 L583.3,122.5 L581.0,124.1 L578.7,125.7 L576.4,127.3 L574.2,128.9 L571.9,130.4 L569.7,132.0 L567.5,133.6 L565.3,135.1 L563.1,136.7 L560.9,138.2 L558.8,139.7 L556.7,141.2 L554.6,142.7 L552.5,144.2 L550.4,145.7 L548.4,147.1 L546.4,148.6 L544.4,150.0 L542.4,151.5 L540.4,152.9 L538.5,154.3 L536.5,155.8 L534.6,157.2 L532.7,158.6 L530.8,160.1 L528.9,161.5 L527.0,163.0 L525.1,164.4 L523.3,165.9 L521.4,167.3 L519.5,168.8 L517.7,170.3 L515.9,171.8 L514.0,173.3 L512.2,174.8 L510.5,176.2 L508.7,177.7 L507.0,179.2 L505.2,180.6 L503.5,182.1 L501.9,183.6 L500.2,185.0 L498.6,186.4 L497.0,187.9 L495.4,189.3 L493.9,190.7 L492.4,192.1 L490.9,193.5 L489.4,194.9 L487.9,196.2 L486.5,197.6 L485.1,199.0 L483.7,200.3 L482.4,201.7 L481.0,203.0 L479.7,204.3 L478.4,205.7 L477.1,207.0 L475.9,208.3 L474.6,209.7 L473.4,211.0 L472.1,212.3 L470.9,213.7 L469.7,215.0 L468.5,216.4 L467.3,217.7 L466.2,219.1 L465.0,220.5 L463.9,221.8 L462.7,223.2 L461.6,224.5 L460.6,225.9 L459.5,227.2 L458.5,228.6 L457.5,229.9 L456.5,231.2 L455.5,232.6 L454.6,233.9 L453.7,235.2 L452.8,236.5 L451.9,237.8 L451.0,239.1 L450.2,240.3 L449.4,241.6 L448.6,242.9 L447.8,244.1 L447.0,245.4 L446.3,246.6 L445.6,247.9 L444.9,249.1 L444.2,250.3 L443.5,251.5 L442.9,252.8 L442.2,254.0 L441.6,255.2 L440.9,256.5 L440.3,257.7 L439.7,259.0 L439.1,260.3 L438.5,261.5 L437.9,262.8 L437.3,264.1 L436.7,265.3 L436.2,266.6 L435.7,267.9 L435.1,269.1 L434.6,270.4 L434.1,271.6 L433.6,272.9 L433.2,274.1 L432.7,275.4 L432.3,276.6 L431.8,277.9 L431.4,279.1 L431.0,280.3 L430.7,281.5 L430.3,282.7 L429.9,284.0 L429.6,285.2 L429.2,286.3 L428.9,287.5 L428.6,288.7 L428.3,289.9 L428.0,291.1 L427.8,292.2 L427.5,293.4 L427.2,294.6 L427.0,295.7 L426.8,296.9 L426.5,298.0 L426.3,299.1 L426.1,300.3 L425.9,301.4 L425.7,302.5 L425.6,303.7 L425.4,304.8 L425.2,305.9 L425.1,307.0 L424.9,308.1 L424.8,309.2 L424.7,310.4 L424.5,311.5 L424.4,312.6 L424.3,313.7 L424.2,314.8 L424.1,315.9 L423.9,316.9 L423.8,318.0 L423.7,319.1 L423.7,320.2 L423.6,321.3 L423.5,322.4 L423.4,323.4 L423.3,324.5 L423.3,325.6 L423.2,326.6 L423.1,327.7 L423.0,328.8 L423.0,329.8 L422.9,330.9 L422.9,331.9 L422.8,333.0 L422.8,334.0 L422.7,335.1 L422.7,336.1 L422.6,337.2 L422.6,338.2 L422.5,339.2 L422.5,340.3 L422.5,341.3 L422.4,342.3 L422.4,343.3 L422.3,344.3 L422.3,345.4 L422.2,346.4 L422.2,347.4 L422.1,348.4 L422.1,349.4 L422.0,350.4 L422.0,351.4 L421.9,352.4 L421.8,353.3 L421.8,354.3 L421.7,355.3 L421.6,356.3 L421.6,357.3 L421.5,358.2 L421.4,359.2 L421.3,360.2 L421.2,361.1 L421.1,362.1 L421.0,363.1 L420.9,364.0 L420.8,365.0 L420.7,365.9 L420.6,366.8 L420.5,367.8 L420.4,368.7 L420.2,369.7 L420.1,370.6 L419.9,371.5 L419.8,372.4 L419.6,373.4 L419.5,374.3 L419.3,375.2 L419.1,376.1 L419.0,377.0 L418.8,377.9 L418.6,378.8 L418.4,379.7 L418.2,380.6 L418.0,381.5 L417.7,382.4 L417.5,383.3 L417.3,384.2 L417.0,385.1 L416.8,385.9 L416.5,386.8 L416.3,387.7 L416.0,388.5 L415.7,389.4 L415.4,390.3 L415.1,391.1 L414.8,392.0 L414.5,392.8 L414.2,393.7 L413.9,394.5 L413.5,395.4 L413.2,396.2 L412.8,397.0 L412.5,397.9 L412.1,398.7 L411.7,399.5 L411.4,400.3 L411.0,401.2 L410.6,402.0 L410.2,402.8 L409.8,403.6 L409.3,404.4 L408.9,405.2 L408.5,406.0 L408.0,406.8 L407.6,407.6 L407.1,408.4 L406.6,409.2 L406.2,410.0 L405.7,410.7 L405.2,411.5 L404.7,412.3 L404.2,413.1 L403.7,413.8 L403.2,414.6 L402.6,415.4 L402.1,416.1 L401.5,416.9 L401.0,417.6 L400.4,418.4 L399.9,419.1 L399.3,419.9 L398.7,420.6 L398.1,421.3 L397.5,422.1 L396.9,422.8 L396.3,423.5 L395.7,424.3 L395.1,425.0 L394.4,425.7 L393.8,426.4 L393.1,427.1 L392.5,427.8 L391.8,428.5 L391.2,429.2 L390.5,429.9 L389.8,430.6 L389.1,431.3 L388.4,432.0 L387.7,432.7 L387.0,433.4 L386.3,434.1 L385.6,434.7 L384.9,435.4 L384.1,436.1 L383.4,436.7 L382.7,437.4 L381.9,438.1 L381.2,438.7 L380.4,439.4 L379.7,440.0 L378.9,440.6 L378.1,441.3 L377.4,441.9 L376.6,442.5 L375.8,443.2 L375.0,443.8 L374.2,444.4 L373.4,445.0 L372.6,445.6 L371.8,446.2 L371.0,446.8 L370.2,447.4 L369.4,448.0 L368.6,448.6 L367.8,449.2 L366.9,449.8 L366.1,450.4 L365.3,450.9 L364.4,451.5 L363.6,452.1 L362.8,452.6 L361.9,453.1 L361.0,453.7 L360.2,454.2 L359.3,454.6 L358.4,455.1 L357.5,455.5 L356.6,455.9 L355.7,456.3 L354.8,456.7 L353.9,457.1 L353.0,457.4 L352.0,457.7 L351.1,458.0 L350.1,458.2 L349.2,458.5 L348.2,458.7 L347.2,458.9 L346.2,459.1 L345.3,459.2 L344.3,459.4 L343.3,459.5 L342.3,459.5 L341.2,459.6 L340.2,459.7 L339.2,459.7 L338.2,459.8 L337.1,459.8 L336.1,459.8 L335.1,459.8 L334.0,459.8 L333.0,459.8 L332.0,459.8 L330.9,459.8 L329.9,459.8 L328.8,459.9 L327.8,459.9 L326.8,459.9 L325.7,460.0 L324.7,460.0 L323.6,460.1 L322.6,460.2 L321.5,460.3 L320.5,460.4 L319.5,460.5 L318.4,460.6 L317.4,460.8 L316.4,460.9 L315.3,461.0 L314.3,461.2 L313.2,461.3 L312.2,461.4 L311.2,461.6 L310.1,461.7 L309.1,461.8 L308.1,461.9 L307.0,462.0 L306.0,462.1 L305.0,462.2 L304.0,462.3 L302.9,462.4 L301.9,462.5 L300.9,462.6 L299.9,462.7 L298.9,462.7 L297.9,462.8 L296.9,462.8 L295.9,462.9 L294.8,463.0 L293.8,463.0 L292.8,463.1 L291.8,463.1 L290.8,463.2 L289.8,463.3 L288.8,463.3 L287.8,463.4 L286.8,463.5 L285.8,463.6 L284.9,463.7 L283.9,463.8 L282.9,464.0 L281.9,464.1 L280.9,464.2 L279.9,464.3 L278.9,464.5 L277.9,464.6 L277.0,464.7 L276.0,464.8 L275.0,464.9 L274.1,465.1 L273.1,465.2 L272.1,465.3 L271.2,465.4 L270.2,465.4 L269.3,465.5 L268.4,465.6 L267.4,465.7 L266.5,465.8 L265.5,465.8 L264.6,465.9 L263.7,465.9 L262.8,466.0 L261.9,466.1 L260.9,466.1 L260.0,466.2 L259.1,466.3 L258.2,466.3 L257.3,466.4 L256.4,466.5 L255.5,466.6 L254.6,466.8 L253.7,466.9 L252.8,467.0 L251.9,467.1 L251.0,467.3 L250.1,467.4 L249.2,467.5 L248.3,467.6 L247.4,467.8 L246.6,467.9 L245.7,468.0 L244.8,468.1 L244.0,468.2 L243.1,468.3 L242.3,468.4 L241.4,468.5 L240.6,468.5 L239.7,468.6 L238.9,468.7 L238.1,468.8 L237.2,468.8 L236.4,468.9 L235.6,468.9 L234.8,469.0 L234.0,469.1 L233.1,469.1 L232.3,469.2 L231.5,469.2 L230.7,469.3 L229.9,469.4 L229.1,469.5 L228.3,469.6 L227.5,469.7 L226.7,469.9 L225.9,470.0 L225.1,470.1 L224.3,470.2 L223.6,470.4 L222.8,470.5 L222.0,470.6 L221.2,470.7 L220.4,470.8 L219.7,470.9 L218.9,471.1 L218.1,471.2 L217.4,471.3 L216.6,471.3 L215.9,471.4 L215.1,471.5 L214.4,471.6 L213.7,471.7 L212.9,471.7 L212.2,471.8 L211.5,471.8 L210.8,471.9 L210.1,472.0 L209.4,472.0 L208.6,472.1 L207.9,472.1 L207.2,472.2 L206.5,472.3 L205.8,472.4 L205.1,472.5 L204.4,472.6 L203.7,472.7 L203.1,472.8 L202.4,473.0 L201.7,473.1 L201.0,473.2 L200.3,473.3 L199.6,473.5 L199.0,473.6 L198.3,473.7 L197.6,473.8 L197.0,473.9 L196.3,474.0 L195.7,474.1 L195.0,474.2 L194.4,474.3 L193.7,474.4 L193.1,474.5 L192.5,474.6 L191.8,474.6 L191.2,474.7 L190.6,474.8 L190.0,474.8 L189.4,474.9 L188.8,475.0 L188.2,475.0 L187.6,475.1 L187.0,475.1 L186.4,475.2 L185.8,475.3 L185.2,475.4 L184.7,475.5 L184.1,475.6 L183.5,475.7 L182.9,475.8 L182.3,476.0 L181.7,476.1 L181.2,476.2 L180.6,476.3 L180.0,476.5 L179.5,476.6 L178.9,476.7 L178.4,476.8 L177.8,477.0 L177.3,477.1 L176.7,477.2 L176.2,477.3 L175.6,477.4 L175.1,477.4 L174.6,477.5 L174.1,477.6 L173.6,477.7 L173.1,477.8 L172.6,477.8 L172.1,477.9 L171.6,477.9 L171.1,478.0 L170.6,478.1 L170.1,478.1 L169.6,478.2 L169.1,478.3 L168.7,478.3 L168.2,478.4 L167.7,478.5 L167.2,478.6 L166.8,478.8 L166.3,478.9 L165.8,479.0 L165.3,479.1 L164.9,479.3 L164.4,479.4 L164.0,479.5 L163.5,479.6 L163.1,479.8 L162.6,479.9 L162.2,480.0 L161.8,480.1 L161.3,480.2 L160.9,480.3 L160.5,480.4 L160.1,480.5 L159.7,480.6 L159.3,480.6 L158.9,480.7 L158.5,480.8 L158.1,480.9 L157.7,480.9 L157.3,481.0 L157.0,481.0 L156.6,481.1 L156.2,481.1 L155.9,481.2 L155.5,481.3 L155.1,481.4 L154.8,481.5 L154.4,481.6 L154.0,481.7 L153.7,481.8 L153.3,481.9 L153.0,482.0 L152.6,482.1 L152.3,482.3 L152.0,482.4 L151.6,482.5 L151.3,482.6 L151.0,482.8 L150.6,482.9 L150.3,483.0 L150.0,483.1 L149.7,483.2 L149.4,483.3 L149.1,483.4 L148.8,483.5 L148.6,483.6 L148.3,483.7 L148.0,483.7 L147.8,483.8 L147.5,483.9 L147.2,483.9 L147.0,484.0 L146.8,484.0 L146.5,484.1 L146.3,484.1 L146.1,484.2 L145.8,484.3 L145.6,484.3 L145.4,484.4 L145.2,484.5 L144.9,484.5 L144.7,484.6 L144.5,484.7 L144.3,484.8 L144.1,484.9 L143.9,485.0 L143.7,485.1 L143.5,485.2 L143.3,485.3 L143.2,485.4 L143.0,485.5 L142.8,485.6 L142.6,485.7 L142.5,485.8 L142.3,485.8 L142.2,485.9 L142.0,486.0 L141.9,486.0 L141.8,486.1 L141.6,486.1 L141.5,486.2 L141.4,486.2 L141.3,486.3 L141.2,486.3 L141.1,486.4 L141.0,486.4 L140.9,486.5 L140.8,486.6 L140.7,486.6 L140.6,486.7 L140.5,486.8 L140.4,486.9 L140.3,487.0 L140.2,487.1 L140.1,487.3 L140.0,487.4 L139.9,487.5 L139.9,487.6 L139.8,487.7 L139.7,487.8 L139.7,487.9 L139.6,488.0 L139.6,488.1 L139.5,488.2 L139.5,488.3 L139.4,488.4 L139.4,488.4 L139.4,488.5 L139.4,488.5 L139.4,488.6 L139.4,488.7 L139.4,488.7 L139.4,488.7 L139.4,488.8 L139.4,488.8 L139.4,488.9 L139.4,488.9 L139.4,489.0 L139.5,489.0 L139.5,489.1 L139.5,489.2 L139.5,489.2 L139.6,489.3 L139.6,489.4 L139.6,489.5 L139.7,489.6 L139.7,489.7 L139.8,489.9 L139.8,490.0 L139.9,490.1 L139.9,490.2 L140.0,490.3 L140.1,490.4 L140.2,490.5 L140.2,490.6 L140.3,490.7 L140.4,490.7 L140.5,490.8 L140.6,490.9 L140.7,491.0 L140.9,491.0 L141.0,491.1 L141.1,491.1 L141.2,491.2 L141.4,491.2 L141.5,491.3 L141.7,491.3 L141.8,491.3 L142.0,491.4 L142.1,491.4 L142.3,491.5 L142.5,491.6 L142.6,491.6 L142.8,491.7 L143.0,491.8 L143.1,491.9 L143.3,492.0 L143.5,492.1 L143.7,492.2 L143.8,492.3 L144.0,492.5 L144.2,492.6 L144.4,492.7 L144.6,492.8 L144.8,492.9 L145.0,493.0 L145.2,493.1 L145.4,493.1 L145.7,493.2 L145.9,493.3 L146.1,493.4 L146.4,493.4 L146.6,493.5 L146.9,493.6 L147.1,493.6 L147.4,493.7 L147.6,493.7 L147.9,493.7 L148.2,493.8 L148.4,493.9 L148.7,493.9 L149.0,494.0 L149.3,494.1 L149.5,494.1 L149.8,494.2 L150.1,494.3 L150.4,494.5 L150.7,494.6 L150.9,494.7 L151.2,494.8 L151.5,494.9 L151.8,495.0 L152.1,495.1 L152.4,495.2 L152.8,495.3 L153.1,495.4 L153.4,495.5 L153.7,495.6 L154.1,495.7 L154.4,495.8 L154.7,495.8 L155.1,495.9 L155.4,495.9 L155.8,496.0 L156.1,496.1 L156.5,496.1 L156.9,496.1 L157.2,496.2 L157.6,496.2 L158.0,496.3 L158.4,496.3 L158.7,496.4 L159.1,496.4 L159.5,496.5 L159.9,496.6 L160.3,496.7 L160.6,496.8 L161.0,496.8 L161.4,496.9 L161.8,497.0 L162.2,497.1 L162.6,497.2 L163.0,497.3 L163.4,497.4 L163.8,497.5 L164.2,497.5 L164.6,497.6 L165.1,497.7 L165.5,497.8 L165.9,497.8 L166.3,497.9 L166.8,497.9 L167.2,498.0 L167.6,498.0" fill="none" stroke="#dc2626" stroke-width="2.5"/>
<line x1="96" y1="151" x2="120" y2="151" stroke="#dc2626" stroke-width="3"/>
<text x="127" y="155" font-family="Arial" font-size="12" fill="#334155">18% thrust loss</text>
<path d="M604.6,108.0 L602.3,109.6 L599.9,111.2 L597.5,112.8 L595.1,114.4 L592.7,116.0 L590.4,117.6 L588.0,119.2 L585.7,120.9 L583.3,122.5 L581.0,124.1 L578.7,125.7 L576.4,127.3 L574.2,128.9 L571.9,130.4 L569.7,132.0 L567.5,133.6 L565.3,135.1 L563.1,136.7 L560.9,138.2 L558.8,139.7 L556.7,141.2 L554.6,142.7 L552.5,144.2 L550.4,145.7 L548.4,147.1 L546.4,148.6 L544.4,150.0 L542.4,151.5 L540.4,152.9 L538.5,154.3 L536.5,155.8 L534.6,157.2 L532.7,158.6 L530.8,160.1 L528.9,161.5 L527.0,163.0 L525.1,164.4 L523.3,165.9 L521.4,167.3 L519.5,168.8 L517.7,170.3 L515.9,171.8 L514.0,173.3 L512.2,174.8 L510.5,176.2 L508.7,177.7 L507.0,179.2 L505.2,180.6 L503.5,182.1 L501.9,183.6 L500.2,185.0 L498.6,186.4 L497.0,187.9 L495.4,189.3 L493.9,190.7 L492.4,192.1 L490.9,193.5 L489.4,194.9 L487.9,196.2 L486.5,197.6 L485.1,199.0 L483.7,200.3 L482.4,201.7 L481.0,203.0 L479.7,204.3 L478.4,205.7 L477.1,207.0 L475.9,208.3 L474.6,209.7 L473.4,211.0 L472.1,212.3 L470.9,213.7 L469.7,215.0 L468.5,216.4 L467.3,217.7 L466.2,219.1 L465.0,220.5 L463.9,221.8 L462.7,223.2 L461.6,224.5 L460.6,225.9 L459.5,227.2 L458.5,228.6 L457.5,229.9 L456.5,231.2 L455.5,232.6 L454.6,233.9 L453.7,235.2 L452.8,236.5 L451.9,237.8 L451.0,239.1 L450.2,240.3 L449.4,241.6 L448.6,242.9 L447.8,244.1 L447.0,245.4 L446.3,246.6 L445.6,247.9 L444.9,249.1 L444.2,250.3 L443.5,251.5 L442.9,252.8 L442.2,254.0 L441.6,255.2 L441.0,256.5 L440.3,257.7 L439.7,259.0 L439.1,260.2 L438.5,261.5 L437.9,262.7 L437.4,264.0 L436.8,265.3 L436.3,266.5 L435.7,267.8 L435.2,269.0 L434.7,270.3 L434.2,271.5 L433.8,272.7 L433.3,274.0 L432.9,275.2 L432.4,276.4 L432.0,277.6 L431.6,278.8 L431.3,280.0 L430.9,281.2 L430.5,282.4 L430.2,283.6 L429.9,284.8 L429.6,285.9 L429.3,287.1 L429.0,288.2 L428.7,289.4 L428.4,290.5 L428.2,291.7 L427.9,292.8 L427.7,294.0 L427.5,295.1 L427.2,296.2 L427.0,297.3 L426.8,298.4 L426.6,299.6 L426.5,300.7 L426.3,301.8 L426.1,302.9 L426.0,304.0 L425.8,305.1 L425.7,306.2 L425.5,307.3 L425.4,308.4 L425.3,309.5 L425.2,310.6 L425.0,311.6 L424.9,312.7 L424.8,313.8 L424.7,314.9 L424.6,316.0 L424.5,317.1 L424.4,318.2 L424.3,319.3 L424.2,320.3 L424.1,321.4 L424.1,322.5 L424.0,323.5 L423.9,324.6 L423.8,325.7 L423.8,326.7 L423.7,327.8 L423.6,328.8 L423.6,329.8 L423.5,330.9 L423.5,331.9 L423.4,333.0 L423.3,334.0 L423.3,335.0 L423.2,336.0 L423.2,337.0 L423.1,338.1 L423.1,339.1 L423.0,340.1 L423.0,341.1 L422.9,342.1 L422.9,343.1 L422.8,344.1 L422.7,345.1 L422.7,346.0 L422.6,347.0 L422.6,348.0 L422.5,349.0 L422.4,350.0 L422.3,350.9 L422.3,351.9 L422.2,352.9 L422.1,353.8 L422.0,354.8 L421.9,355.8 L421.8,356.7 L421.7,357.7 L421.6,358.6 L421.5,359.6 L421.4,360.5 L421.2,361.4 L421.1,362.4 L421.0,363.3 L420.8,364.2 L420.7,365.2 L420.5,366.1 L420.4,367.0 L420.2,367.9 L420.0,368.8 L419.9,369.8 L419.7,370.7 L419.5,371.6 L419.3,372.5 L419.1,373.4 L418.9,374.3 L418.7,375.2 L418.4,376.1 L418.2,377.0 L418.0,377.8 L417.7,378.7 L417.4,379.6 L417.2,380.5 L416.9,381.4 L416.6,382.2 L416.3,383.1 L416.0,384.0 L415.7,384.8 L415.4,385.7 L415.1,386.5 L414.8,387.4 L414.4,388.2 L414.1,389.1 L413.7,389.9 L413.4,390.7 L413.0,391.6 L412.6,392.4 L412.2,393.2 L411.8,394.1 L411.4,394.9 L411.0,395.7 L410.6,396.5 L410.2,397.3 L409.7,398.1 L409.3,398.9 L408.8,399.7 L408.4,400.5 L407.9,401.3 L407.4,402.1 L406.9,402.9 L406.4,403.7 L405.9,404.5 L405.4,405.3 L404.9,406.0 L404.4,406.8 L403.8,407.6 L403.3,408.4 L402.7,409.1 L402.2,409.9 L401.6,410.7 L401.0,411.4 L400.5,412.2 L399.9,412.9 L399.3,413.7 L398.7,414.4 L398.1,415.2 L397.4,415.9 L396.8,416.6 L396.2,417.4 L395.5,418.1 L394.9,418.8 L394.2,419.5 L393.6,420.3 L392.9,421.0 L392.2,421.7 L391.5,422.4 L390.8,423.1 L390.1,423.8 L389.4,424.5 L388.7,425.2 L388.0,425.9 L387.3,426.6 L386.5,427.3 L385.8,428.0 L385.1,428.7 L384.3,429.3 L383.6,430.0 L382.8,430.7 L382.1,431.4 L381.3,432.0 L380.5,432.7 L379.7,433.3 L379.0,434.0 L378.2,434.7 L377.4,435.3 L376.6,436.0 L375.8,436.6 L375.0,437.2 L374.2,437.9 L373.4,438.5 L372.5,439.1 L371.7,439.8 L370.9,440.4 L370.1,441.0 L369.3,441.6 L368.4,442.2 L367.6,442.8 L366.7,443.4 L365.9,444.0 L365.1,444.6 L364.2,445.2 L363.4,445.8 L362.5,446.4 L361.7,447.0 L360.8,447.6 L359.9,448.1 L359.1,448.7 L358.2,449.3 L357.3,449.8 L356.5,450.4 L355.6,451.0 L354.7,451.5 L353.8,452.0 L353.0,452.6 L352.1,453.1 L351.2,453.6 L350.3,454.0 L349.4,454.5 L348.5,454.9 L347.5,455.3 L346.6,455.7 L345.7,456.0 L344.8,456.3 L343.8,456.6 L342.9,456.9 L341.9,457.1 L341.0,457.4 L340.0,457.6 L339.0,457.7 L338.1,457.9 L337.1,458.0 L336.1,458.1 L335.1,458.1 L334.1,458.2 L333.1,458.2 L332.1,458.2 L331.1,458.2 L330.1,458.2 L329.1,458.1 L328.1,458.1 L327.1,458.1 L326.1,458.1 L325.0,458.0 L324.0,458.0 L323.0,458.0 L322.0,458.0 L321.0,458.0 L320.0,458.0 L319.0,458.1 L318.0,458.1 L317.0,458.1 L316.0,458.2 L315.0,458.3 L313.9,458.4 L312.9,458.5 L311.9,458.6 L310.9,458.7 L309.9,458.8 L308.9,459.0 L307.9,459.1 L306.9,459.2 L305.9,459.3 L304.9,459.5 L303.9,459.6 L303.0,459.7 L302.0,459.8 L301.0,459.9 L300.0,460.0 L299.1,460.1 L298.1,460.2 L297.1,460.3 L296.2,460.4 L295.2,460.4 L294.3,460.5 L293.3,460.6 L292.4,460.6 L291.4,460.7 L290.5,460.7 L289.5,460.7 L288.6,460.8 L287.7,460.8 L286.8,460.9 L285.8,460.9 L284.9,461.0 L284.0,461.1 L283.1,461.2 L282.1,461.3 L281.2,461.4 L280.3,461.5 L279.4,461.6 L278.4,461.7 L277.5,461.9 L276.6,462.0 L275.7,462.1 L274.8,462.2 L273.9,462.3 L273.0,462.5 L272.1,462.6 L271.2,462.7 L270.3,462.8 L269.5,462.8 L268.6,462.9 L267.7,463.0 L266.9,463.1 L266.0,463.1 L265.2,463.2 L264.3,463.2 L263.5,463.3 L262.6,463.3 L261.8,463.4 L261.0,463.4 L260.1,463.5 L259.3,463.6 L258.5,463.6 L257.6,463.7 L256.8,463.8 L256.0,463.9 L255.2,464.0 L254.3,464.2 L253.5,464.3 L252.7,464.4 L251.9,464.5 L251.1,464.7 L250.3,464.8 L249.5,464.9 L248.7,465.0 L247.9,465.1 L247.1,465.3 L246.3,465.4 L245.5,465.4 L244.8,465.5 L244.0,465.6 L243.2,465.7 L242.5,465.8 L241.7,465.8 L241.0,465.9 L240.2,465.9 L239.5,466.0 L238.8,466.0 L238.0,466.0 L237.3,466.1 L236.6,466.1 L235.9,466.2 L235.1,466.3 L234.4,466.4 L233.7,466.4 L233.0,466.5 L232.3,466.7 L231.6,466.8 L230.8,466.9 L230.1,467.0 L229.4,467.1 L228.7,467.3 L228.0,467.4 L227.3,467.5 L226.6,467.6 L225.9,467.7 L225.3,467.9 L224.6,468.0 L223.9,468.0 L223.2,468.1 L222.6,468.2 L221.9,468.3 L221.3,468.3 L220.6,468.4 L220.0,468.5 L219.3,468.5 L218.7,468.6 L218.1,468.6 L217.4,468.6 L216.8,468.7 L216.2,468.7 L215.6,468.8 L214.9,468.9 L214.3,469.0 L213.7,469.1 L213.1,469.2 L212.5,469.3 L211.9,469.4 L211.3,469.5 L210.6,469.6 L210.0,469.8 L209.4,469.9 L208.8,470.0 L208.3,470.1 L207.7,470.3 L207.1,470.4 L206.5,470.5 L205.9,470.6 L205.4,470.7 L204.8,470.8 L204.3,470.8 L203.7,470.9 L203.2,471.0 L202.6,471.0 L202.1,471.1 L201.6,471.1 L201.1,471.2 L200.6,471.2 L200.0,471.3 L199.5,471.3 L199.0,471.4 L198.5,471.5 L198.0,471.5 L197.5,471.6 L197.0,471.7 L196.5,471.8 L196.0,471.9 L195.5,472.0 L195.0,472.2 L194.5,472.3 L194.0,472.4 L193.5,472.5 L193.1,472.7 L192.6,472.8 L192.1,472.9 L191.6,473.0 L191.2,473.1 L190.7,473.2 L190.3,473.3 L189.8,473.4 L189.4,473.5 L188.9,473.6 L188.5,473.6 L188.1,473.7 L187.6,473.8 L187.2,473.8 L186.8,473.9 L186.4,473.9 L186.0,474.0 L185.6,474.0 L185.2,474.1 L184.8,474.1 L184.4,474.2 L184.0,474.3 L183.6,474.4 L183.2,474.5 L182.8,474.6 L182.4,474.7 L182.0,474.9 L181.6,475.0 L181.2,475.1 L180.8,475.2 L180.4,475.4 L180.1,475.5 L179.7,475.6 L179.3,475.7 L179.0,475.8 L178.6,475.9 L178.3,476.0 L177.9,476.1 L177.6,476.2 L177.3,476.3 L176.9,476.4 L176.6,476.4 L176.3,476.5 L176.0,476.5 L175.6,476.6 L175.3,476.6 L175.0,476.7 L174.7,476.7 L174.4,476.8 L174.1,476.8 L173.8,476.9 L173.5,477.0 L173.2,477.1 L172.9,477.2 L172.6,477.3 L172.3,477.4 L172.1,477.5 L171.8,477.7 L171.5,477.8 L171.2,477.9 L170.9,478.0 L170.6,478.2 L170.4,478.3 L170.1,478.4 L169.8,478.5 L169.6,478.6 L169.3,478.7 L169.1,478.8 L168.8,478.9 L168.6,478.9 L168.4,479.0 L168.1,479.1 L167.9,479.1 L167.7,479.2 L167.5,479.2 L167.3,479.2 L167.1,479.3 L166.8,479.3 L166.6,479.4 L166.4,479.5 L166.2,479.5 L166.0,479.6 L165.8,479.7 L165.6,479.8 L165.4,479.9 L165.2,480.0 L165.0,480.2 L164.8,480.3 L164.7,480.4 L164.5,480.5 L164.3,480.7 L164.1,480.8 L163.9,480.9 L163.8,481.0 L163.6,481.1 L163.5,481.2 L163.3,481.3 L163.2,481.4 L163.0,481.5 L162.9,481.6 L162.7,481.6 L162.6,481.7 L162.5,481.7 L162.4,481.8 L162.3,481.8 L162.1,481.9 L162.0,481.9 L161.9,482.0 L161.8,482.0 L161.7,482.1 L161.6,482.1 L161.5,482.2 L161.4,482.3 L161.3,482.4 L161.2,482.5 L161.1,482.6 L161.0,482.8 L160.9,482.9 L160.8,483.0 L160.7,483.1 L160.6,483.3 L160.6,483.4 L160.5,483.5 L160.4,483.6 L160.3,483.7 L160.3,483.8 L160.2,483.9 L160.1,484.0 L160.1,484.1 L160.0,484.2 L160.0,484.2 L160.0,484.3 L159.9,484.3 L159.9,484.4 L159.8,484.4 L159.8,484.5 L159.8,484.5 L159.8,484.5 L159.7,484.6 L159.7,484.6 L159.7,484.7 L159.7,484.7 L159.7,484.8 L159.6,484.8 L159.6,484.9 L159.6,485.0 L159.6,485.1 L159.6,485.2 L159.6,485.3 L159.6,485.5 L159.6,485.6 L159.6,485.7 L159.6,485.8 L159.6,485.9 L159.6,486.0 L159.6,486.1 L159.6,486.2 L159.6,486.3 L159.7,486.4 L159.7,486.4 L159.7,486.5 L159.8,486.6 L159.8,486.6 L159.9,486.7 L159.9,486.7 L160.0,486.7 L160.1,486.8 L160.1,486.8 L160.2,486.8 L160.3,486.8 L160.4,486.9 L160.4,486.9 L160.5,487.0 L160.6,487.0 L160.7,487.1 L160.8,487.2 L160.8,487.3 L160.9,487.4 L161.0,487.5 L161.1,487.6 L161.2,487.7 L161.3,487.8 L161.4,487.9 L161.5,488.0 L161.6,488.1 L161.7,488.2 L161.8,488.3 L161.9,488.4 L162.0,488.5 L162.2,488.6 L162.3,488.6 L162.4,488.7 L162.6,488.7 L162.7,488.8 L162.9,488.8 L163.0,488.8 L163.2,488.9 L163.3,488.9 L163.5,488.9 L163.6,489.0 L163.8,489.0 L164.0,489.0 L164.1,489.1 L164.3,489.2 L164.5,489.2 L164.6,489.3 L164.8,489.4 L165.0,489.5 L165.1,489.6 L165.3,489.8 L165.5,489.9 L165.7,490.0 L165.8,490.1 L166.0,490.3 L166.2,490.4 L166.4,490.5 L166.6,490.6 L166.8,490.8 L167.0,490.9 L167.2,490.9 L167.4,491.0 L167.6,491.1 L167.8,491.2 L168.0,491.2 L168.3,491.3 L168.5,491.3 L168.7,491.4 L169.0,491.4 L169.2,491.4 L169.4,491.4 L169.7,491.5 L169.9,491.5 L170.2,491.5 L170.4,491.6 L170.7,491.6 L170.9,491.7 L171.2,491.7 L171.4,491.8 L171.7,491.9 L171.9,492.0 L172.2,492.1 L172.4,492.2 L172.7,492.3 L172.9,492.5 L173.2,492.6 L173.5,492.7 L173.7,492.8 L174.0,492.9 L174.3,493.1 L174.5,493.2 L174.8,493.3 L175.1,493.4 L175.4,493.4 L175.7,493.5 L176.0,493.6 L176.3,493.6 L176.6,493.7 L176.9,493.7 L177.2,493.8 L177.5,493.8 L177.8,493.8 L178.1,493.8 L178.4,493.9 L178.7,493.9 L179.0,493.9 L179.3,494.0 L179.6,494.0 L180.0,494.1 L180.3,494.2 L180.6,494.2 L180.9,494.3 L181.2,494.4 L181.6,494.5 L181.9,494.7 L182.2,494.8 L182.5,494.9 L182.8,495.0 L183.2,495.2 L183.5,495.3 L183.8,495.4 L184.2,495.5 L184.5,495.6 L184.9,495.7 L185.2,495.8 L185.6,495.9 L185.9,496.0 L186.3,496.0 L186.6,496.1 L187.0,496.2 L187.4,496.2 L187.7,496.2 L188.1,496.3 L188.5,496.3 L188.8,496.3 L189.2,496.3 L189.6,496.3 L190.0,496.3 L190.3,496.4 L190.7,496.4 L191.1,496.4 L191.5,496.4 L191.9,496.4 L192.2,496.4 L192.6,496.4 L193.0,496.4 L193.4,496.4 L193.8,496.4 L194.2,496.4 L194.6,496.4 L194.9,496.4 L195.3,496.4 L195.7,496.5 L196.1,496.5 L196.5,496.5 L196.9,496.5 L197.3,496.6 L197.7,496.6 L198.1,496.6 L198.5,496.7 L198.9,496.7 L199.3,496.7 L199.7,496.8 L200.1,496.8 L200.5,496.9 L200.9,496.9 L201.3,496.9 L201.7,497.0 L202.1,497.0 L202.5,497.0 L202.9,497.1 L203.3,497.1 L203.7,497.1 L204.2,497.2 L204.6,497.2 L205.0,497.2 L205.4,497.3 L205.8,497.3 L206.2,497.3 L206.6,497.4 L207.0,497.4 L207.4,497.4 L207.8,497.4 L208.3,497.5 L208.7,497.5 L209.1,497.5 L209.5,497.6 L209.9,497.6 L210.3,497.6 L210.7,497.6 L211.1,497.7 L211.6,497.7 L212.0,497.7 L212.4,497.7 L212.8,497.8 L213.2,497.8 L213.6,497.8 L214.0,497.8 L214.5,497.9 L214.9,497.9 L215.3,497.9 L215.7,498.0 L216.1,498.0 L216.5,498.0" fill="none" stroke="#ea580c" stroke-width="2.5"/>
<line x1="96" y1="174" x2="120" y2="174" stroke="#ea580c" stroke-width="3"/>
<text x="127" y="178" font-family="Arial" font-size="12" fill="#334155">8% thrust loss</text>
<path d="M604.6,108.0 L602.3,109.6 L599.9,111.2 L597.5,112.8 L595.1,114.4 L592.7,116.0 L590.4,117.6 L588.0,119.2 L585.7,120.9 L583.3,122.5 L581.0,124.1 L578.7,125.7 L576.4,127.3 L574.2,128.9 L571.9,130.4 L569.7,132.0 L567.5,133.6 L565.3,135.1 L563.1,136.7 L560.9,138.2 L558.8,139.7 L556.7,141.2 L554.6,142.7 L552.5,144.2 L550.4,145.7 L548.4,147.1 L546.4,148.6 L544.4,150.0 L542.4,151.5 L540.4,152.9 L538.5,154.3 L536.5,155.8 L534.6,157.2 L532.7,158.6 L530.8,160.1 L528.9,161.5 L527.0,163.0 L525.1,164.4 L523.3,165.9 L521.4,167.3 L519.5,168.8 L517.7,170.3 L515.9,171.8 L514.0,173.3 L512.2,174.8 L510.5,176.2 L508.7,177.7 L507.0,179.2 L505.2,180.6 L503.5,182.1 L501.9,183.6 L500.2,185.0 L498.6,186.4 L497.0,187.9 L495.4,189.3 L493.9,190.7 L492.4,192.1 L490.9,193.5 L489.4,194.9 L487.9,196.2 L486.5,197.6 L485.1,199.0 L483.7,200.3 L482.4,201.7 L481.0,203.0 L479.7,204.3 L478.4,205.7 L477.1,207.0 L475.9,208.3 L474.6,209.7 L473.4,211.0 L472.1,212.3 L470.9,213.7 L469.7,215.0 L468.5,216.4 L467.3,217.7 L466.2,219.1 L465.0,220.5 L463.9,221.8 L462.7,223.2 L461.6,224.5 L460.6,225.9 L459.5,227.2 L458.5,228.6 L457.5,229.9 L456.5,231.2 L455.5,232.6 L454.6,233.9 L453.7,235.2 L452.8,236.5 L451.9,237.8 L451.0,239.1 L450.2,240.3 L449.4,241.6 L448.6,242.9 L447.8,244.1 L447.0,245.4 L446.3,246.6 L445.6,247.9 L444.9,249.1 L444.2,250.3 L443.5,251.5 L442.9,252.8 L442.2,254.0 L441.6,255.2 L441.0,256.5 L440.3,257.7 L439.7,259.0 L439.1,260.2 L438.5,261.5 L437.9,262.7 L437.4,264.0 L436.8,265.3 L436.2,266.5 L435.7,267.8 L435.2,269.0 L434.7,270.3 L434.2,271.5 L433.8,272.7 L433.3,274.0 L432.9,275.2 L432.5,276.4 L432.1,277.6 L431.7,278.8 L431.3,280.0 L430.9,281.2 L430.6,282.3 L430.3,283.5 L430.0,284.7 L429.7,285.8 L429.4,286.9 L429.1,288.1 L428.8,289.2 L428.6,290.3 L428.3,291.5 L428.1,292.6 L427.9,293.7 L427.6,294.8 L427.4,295.9 L427.2,297.1 L427.0,298.2 L426.8,299.3 L426.6,300.5 L426.4,301.6 L426.2,302.8 L426.1,303.9 L425.9,305.1 L425.7,306.3 L425.6,307.4 L425.4,308.5 L425.3,309.7 L425.2,310.8 L425.0,311.9 L424.9,313.1 L424.8,314.2 L424.7,315.3 L424.6,316.4 L424.5,317.5 L424.4,318.5 L424.3,319.6 L424.2,320.7 L424.2,321.7 L424.1,322.8 L424.0,323.8 L424.0,324.9 L423.9,325.9 L423.9,326.9 L423.8,328.0 L423.8,329.0 L423.8,330.0 L423.7,331.0 L423.7,332.0 L423.7,333.0 L423.6,334.0 L423.6,335.1 L423.6,336.1 L423.5,337.2 L423.5,338.2 L423.5,339.3 L423.5,340.3 L423.5,341.4 L423.4,342.4 L423.4,343.4 L423.4,344.5 L423.3,345.5 L423.3,346.5 L423.3,347.6 L423.3,348.6 L423.2,349.6 L423.2,350.6 L423.1,351.6 L423.1,352.6 L423.0,353.5 L423.0,354.5 L422.9,355.5 L422.8,356.4 L422.8,357.4 L422.7,358.3 L422.6,359.2 L422.5,360.2 L422.5,361.1 L422.4,362.0 L422.3,362.9 L422.2,363.8 L422.1,364.7 L422.0,365.6 L421.9,366.5 L421.7,367.5 L421.6,368.4 L421.5,369.3 L421.4,370.3 L421.3,371.2 L421.2,372.2 L421.0,373.1 L420.9,374.1 L420.8,375.0 L420.6,376.0 L420.5,376.9 L420.3,377.9 L420.1,378.8 L420.0,379.7 L419.8,380.6 L419.6,381.5 L419.4,382.4 L419.1,383.3 L418.9,384.2 L418.7,385.1 L418.4,386.0 L418.1,386.8 L417.9,387.7 L417.6,388.5 L417.3,389.3 L417.0,390.2 L416.7,391.0 L416.3,391.8 L416.0,392.6 L415.7,393.4 L415.3,394.2 L415.0,395.0 L414.6,395.8 L414.2,396.6 L413.9,397.4 L413.5,398.2 L413.1,399.0 L412.8,399.9 L412.4,400.7 L412.0,401.5 L411.6,402.4 L411.2,403.2 L410.8,404.0 L410.4,404.9 L410.0,405.7 L409.5,406.5 L409.1,407.4 L408.6,408.2 L408.1,409.0 L407.7,409.8 L407.2,410.6 L406.7,411.4 L406.1,412.1 L405.6,412.9 L405.1,413.7 L404.5,414.4 L404.0,415.2 L403.4,415.9 L402.8,416.6 L402.2,417.3 L401.6,418.1 L401.0,418.8 L400.4,419.5 L399.7,420.1 L399.1,420.8 L398.4,421.5 L397.8,422.2 L397.1,422.9 L396.4,423.6 L395.8,424.3 L395.1,425.0 L394.4,425.7 L393.7,426.4 L393.1,427.1 L392.4,427.9 L391.7,428.6 L391.0,429.3 L390.3,430.1 L389.6,430.8 L388.8,431.5 L388.1,432.2 L387.4,432.9 L386.7,433.6 L385.9,434.3 L385.1,435.0 L384.4,435.7 L383.6,436.4 L382.8,437.0 L382.0,437.7 L381.2,438.3 L380.4,438.9 L379.6,439.6 L378.8,440.2 L377.9,440.8 L377.1,441.4 L376.3,441.9 L375.4,442.5 L374.6,443.1 L373.7,443.7 L372.8,444.2 L372.0,444.8 L371.1,445.4 L370.2,445.9 L369.4,446.5 L368.5,447.1 L367.6,447.7 L366.7,448.3 L365.9,448.9 L365.0,449.5 L364.1,450.2 L363.2,450.8 L362.3,451.4 L361.4,452.0 L360.5,452.6 L359.6,453.1 L358.7,453.7 L357.8,454.2 L356.9,454.7 L355.9,455.2 L355.0,455.6 L354.0,456.0 L353.0,456.4 L352.1,456.8 L351.1,457.1 L350.1,457.4 L349.0,457.7 L348.0,457.9 L347.0,458.1 L346.0,458.3 L344.9,458.5 L343.8,458.6 L342.8,458.7 L341.7,458.8 L340.6,458.8 L339.5,458.8 L338.4,458.8 L337.3,458.8 L336.2,458.8 L335.1,458.7 L334.0,458.7 L332.9,458.6 L331.8,458.6 L330.7,458.5 L329.6,458.5 L328.5,458.4 L327.4,458.4 L326.2,458.4 L325.1,458.4 L324.0,458.4 L322.9,458.4 L321.8,458.4 L320.7,458.4 L319.6,458.5 L318.5,458.5 L317.4,458.6 L316.2,458.7 L315.1,458.8 L314.0,458.9 L312.9,459.0 L311.8,459.1 L310.7,459.3 L309.6,459.4 L308.5,459.5 L307.4,459.7 L306.3,459.8 L305.2,459.9 L304.1,460.0 L303.0,460.2 L301.9,460.3 L300.9,460.4 L299.8,460.5 L298.7,460.5 L297.6,460.6 L296.6,460.7 L295.5,460.7 L294.5,460.8 L293.4,460.8 L292.4,460.8 L291.3,460.9 L290.3,460.9 L289.2,460.9 L288.2,461.0 L287.2,461.0 L286.1,461.0 L285.1,461.1 L284.1,461.2 L283.0,461.2 L282.0,461.3 L281.0,461.4 L280.0,461.5 L278.9,461.6 L277.9,461.7 L276.9,461.9 L275.9,462.0 L274.8,462.1 L273.8,462.3 L272.8,462.4 L271.8,462.5 L270.8,462.6 L269.8,462.7 L268.8,462.8 L267.8,462.9 L266.9,463.0 L265.9,463.1 L264.9,463.2 L264.0,463.2 L263.0,463.3 L262.1,463.3 L261.1,463.4 L260.2,463.4 L259.2,463.4 L258.3,463.4 L257.4,463.5 L256.4,463.5 L255.5,463.5 L254.6,463.6 L253.7,463.6 L252.8,463.7 L251.8,463.8 L250.9,463.8 L250.0,463.9 L249.1,464.0 L248.2,464.2 L247.3,464.3 L246.4,464.4 L245.5,464.5 L244.6,464.7 L243.7,464.8 L242.8,464.9 L241.9,465.0 L241.0,465.1 L240.1,465.2 L239.2,465.4 L238.4,465.4 L237.5,465.5 L236.7,465.6 L235.8,465.7 L235.0,465.7 L234.1,465.8 L233.3,465.8 L232.5,465.9 L231.7,465.9 L230.9,465.9 L230.1,466.0 L229.2,466.0 L228.4,466.1 L227.6,466.1 L226.8,466.2 L226.0,466.3 L225.2,466.4 L224.4,466.5 L223.6,466.6 L222.8,466.7 L222.0,466.8 L221.2,467.0 L220.4,467.1 L219.7,467.2 L218.9,467.4 L218.1,467.5 L217.3,467.6 L216.5,467.7 L215.8,467.8 L215.0,467.9 L214.3,468.0 L213.5,468.1 L212.8,468.2 L212.0,468.2 L211.3,468.3 L210.6,468.3 L209.9,468.4 L209.2,468.4 L208.4,468.5 L207.7,468.5 L207.0,468.5 L206.3,468.6 L205.6,468.6 L205.0,468.7 L204.3,468.7 L203.6,468.8 L202.9,468.9 L202.2,469.0 L201.5,469.1 L200.8,469.2 L200.1,469.3 L199.4,469.5 L198.8,469.6 L198.1,469.7 L197.4,469.9 L196.7,470.0 L196.1,470.1 L195.4,470.2 L194.8,470.3 L194.1,470.4 L193.5,470.5 L192.9,470.6 L192.3,470.7 L191.7,470.8 L191.1,470.8 L190.5,470.9 L189.9,470.9 L189.3,470.9 L188.7,471.0 L188.1,471.0 L187.5,471.1 L187.0,471.1 L186.4,471.2 L185.8,471.2 L185.3,471.3 L184.7,471.4 L184.1,471.5 L183.6,471.5 L183.0,471.7 L182.5,471.8 L181.9,471.9 L181.3,472.0 L180.8,472.2 L180.2,472.3 L179.7,472.4 L179.2,472.6 L178.6,472.7 L178.1,472.8 L177.6,472.9 L177.1,473.0 L176.6,473.1 L176.0,473.2 L175.6,473.3 L175.1,473.4 L174.6,473.4 L174.1,473.5 L173.6,473.5 L173.2,473.6 L172.7,473.6 L172.2,473.6 L171.8,473.7 L171.3,473.7 L170.9,473.8 L170.4,473.8 L170.0,473.9 L169.5,474.0 L169.1,474.1 L168.6,474.2 L168.2,474.3 L167.8,474.4 L167.3,474.5 L166.9,474.7 L166.5,474.8 L166.0,474.9 L165.6,475.1 L165.2,475.2 L164.8,475.3 L164.4,475.4 L164.0,475.6 L163.6,475.7 L163.2,475.8 L162.8,475.8 L162.4,475.9 L162.0,476.0 L161.7,476.0 L161.3,476.1 L161.0,476.1 L160.6,476.2 L160.3,476.2 L159.9,476.2 L159.6,476.3 L159.3,476.3 L158.9,476.4 L158.6,476.4 L158.3,476.5 L158.0,476.6 L157.6,476.7 L157.3,476.8 L157.0,476.9 L156.7,477.0 L156.4,477.1 L156.0,477.3 L155.7,477.4 L155.4,477.5 L155.1,477.7 L154.8,477.8 L154.5,477.9 L154.2,478.0 L153.9,478.1 L153.6,478.2 L153.4,478.3 L153.1,478.4 L152.8,478.5 L152.6,478.5 L152.3,478.6 L152.1,478.6 L151.9,478.7 L151.6,478.7 L151.4,478.8 L151.2,478.8 L151.0,478.8 L150.7,478.9 L150.5,478.9 L150.3,479.0 L150.1,479.1 L149.9,479.1 L149.7,479.2 L149.5,479.3 L149.3,479.4 L149.1,479.5 L148.9,479.7 L148.7,479.8 L148.5,479.9 L148.3,480.1 L148.1,480.2 L147.9,480.3 L147.7,480.5 L147.5,480.6 L147.4,480.7 L147.2,480.8 L147.1,480.9 L146.9,481.0 L146.8,481.0 L146.6,481.1 L146.5,481.2 L146.4,481.2 L146.3,481.2 L146.2,481.3 L146.1,481.3 L145.9,481.3 L145.8,481.4 L145.7,481.4 L145.6,481.5 L145.6,481.5 L145.5,481.6 L145.4,481.7 L145.3,481.8 L145.2,481.9 L145.1,482.0 L145.0,482.1 L144.9,482.2 L144.8,482.3 L144.7,482.5 L144.7,482.6 L144.6,482.7 L144.5,482.8 L144.5,483.0 L144.4,483.1 L144.4,483.2 L144.3,483.3 L144.3,483.4 L144.2,483.4 L144.2,483.5 L144.2,483.5 L144.2,483.6 L144.1,483.6 L144.1,483.6 L144.1,483.7 L144.1,483.7 L144.1,483.7 L144.1,483.7 L144.1,483.7 L144.2,483.8 L144.2,483.8 L144.2,483.9 L144.2,483.9 L144.2,484.0 L144.2,484.0 L144.2,484.1 L144.2,484.2 L144.2,484.3 L144.3,484.4 L144.3,484.6 L144.3,484.7 L144.3,484.8 L144.4,484.9 L144.4,485.0 L144.5,485.1 L144.5,485.2 L144.6,485.3 L144.6,485.3 L144.7,485.4 L144.7,485.5 L144.8,485.5 L144.9,485.6 L145.0,485.6 L145.1,485.6 L145.2,485.6 L145.3,485.7 L145.4,485.7 L145.5,485.7 L145.6,485.7 L145.7,485.8 L145.8,485.8 L145.9,485.9 L146.1,485.9 L146.2,486.0 L146.3,486.1 L146.4,486.2 L146.5,486.3 L146.6,486.4 L146.8,486.5 L146.9,486.6 L147.0,486.8 L147.2,486.9 L147.3,487.0 L147.4,487.1 L147.6,487.2 L147.7,487.3 L147.9,487.4 L148.0,487.4 L148.2,487.5 L148.4,487.6 L148.6,487.6 L148.7,487.7 L148.9,487.7 L149.1,487.7 L149.3,487.7 L149.5,487.8 L149.7,487.8 L149.9,487.8 L150.1,487.8 L150.4,487.8 L150.6,487.9 L150.8,487.9 L151.0,488.0 L151.2,488.1 L151.4,488.1 L151.6,488.2 L151.9,488.3 L152.1,488.4 L152.3,488.5 L152.5,488.7 L152.7,488.8 L153.0,488.9 L153.2,489.0 L153.4,489.1 L153.7,489.2 L153.9,489.3 L154.2,489.4 L154.4,489.5 L154.7,489.5 L155.0,489.6 L155.2,489.6 L155.5,489.7 L155.8,489.7 L156.1,489.7 L156.4,489.8 L156.7,489.8 L157.0,489.8 L157.3,489.8 L157.6,489.8 L157.9,489.9 L158.2,489.9 L158.5,490.0 L158.8,490.0 L159.1,490.1 L159.4,490.2 L159.7,490.3 L160.0,490.4 L160.3,490.5 L160.6,490.6 L160.9,490.7 L161.2,490.8 L161.6,491.0 L161.9,491.1 L162.2,491.2 L162.5,491.3 L162.9,491.4 L163.2,491.5 L163.5,491.5 L163.9,491.6 L164.2,491.7 L164.6,491.7 L164.9,491.8 L165.3,491.8 L165.7,491.8 L166.0,491.8 L166.4,491.8 L166.8,491.9 L167.2,491.9 L167.5,491.9 L167.9,491.9 L168.3,492.0 L168.7,492.0 L169.0,492.1 L169.4,492.2 L169.8,492.2 L170.2,492.3 L170.6,492.4 L171.0,492.6 L171.3,492.7 L171.7,492.8 L172.1,493.0 L172.5,493.1 L172.9,493.2 L173.3,493.4 L173.7,493.5 L174.1,493.6 L174.5,493.7 L174.9,493.8 L175.3,493.9 L175.7,494.0 L176.1,494.1 L176.5,494.1 L177.0,494.2 L177.4,494.2 L177.8,494.3 L178.3,494.3 L178.7,494.3 L179.1,494.3 L179.6,494.3 L180.0,494.3 L180.4,494.3 L180.9,494.3 L181.3,494.3 L181.8,494.3 L182.2,494.3 L182.7,494.2 L183.1,494.2 L183.5,494.2 L184.0,494.2 L184.5,494.2 L184.9,494.2 L185.4,494.2 L185.8,494.2 L186.3,494.2 L186.7,494.2 L187.2,494.2 L187.6,494.2 L188.1,494.2 L188.6,494.2 L189.0,494.2 L189.5,494.3 L189.9,494.3 L190.4,494.3 L190.9,494.3 L191.3,494.4 L191.8,494.4 L192.3,494.4 L192.7,494.5 L193.2,494.5 L193.7,494.5 L194.2,494.6 L194.6,494.6 L195.1,494.6 L195.6,494.7 L196.1,494.7 L196.5,494.7 L197.0,494.7 L197.5,494.8 L198.0,494.8 L198.4,494.8 L198.9,494.8 L199.4,494.9 L199.9,494.9 L200.4,494.9 L200.9,494.9 L201.3,494.9 L201.8,495.0 L202.3,495.0 L202.8,495.0 L203.3,495.0 L203.8,495.0 L204.2,495.0 L204.7,495.0 L205.2,495.1 L205.7,495.1 L206.2,495.1 L206.7,495.1 L207.2,495.1 L207.6,495.1 L208.1,495.2 L208.6,495.2 L209.1,495.2 L209.6,495.2 L210.1,495.2 L210.6,495.2 L211.0,495.3 L211.5,495.3 L212.0,495.3 L212.5,495.3 L213.0,495.3 L213.5,495.4 L214.0,495.4 L214.5,495.4 L214.9,495.4 L215.4,495.4 L215.9,495.5 L216.4,495.5 L216.9,495.5 L217.4,495.5 L217.9,495.6 L218.4,495.6 L218.8,495.6 L219.3,495.6 L219.8,495.6 L220.3,495.7 L220.8,495.7 L221.3,495.7 L221.8,495.7 L222.2,495.8 L222.7,495.8 L223.2,495.8 L223.7,495.8 L224.2,495.9 L224.7,495.9 L225.1,495.9 L225.6,495.9 L226.1,495.9 L226.6,496.0 L227.1,496.0 L227.5,496.0 L228.0,496.0 L228.5,496.0 L229.0,496.1 L229.5,496.1 L229.9,496.1 L230.4,496.1 L230.9,496.2 L231.4,496.2 L231.8,496.2 L232.3,496.2 L232.8,496.2 L233.2,496.2 L233.7,496.3 L234.2,496.3 L234.6,496.3 L235.1,496.3 L235.5,496.3 L236.0,496.4 L236.5,496.4 L236.9,496.4 L237.4,496.4 L237.8,496.4 L238.3,496.5 L238.7,496.5 L239.2,496.5 L239.6,496.5 L240.1,496.5 L240.5,496.6 L240.9,496.6 L241.4,496.6 L241.8,496.6 L242.3,496.6 L242.7,496.7 L243.1,496.7 L243.5,496.7 L244.0,496.7 L244.4,496.7 L244.8,496.8 L245.2,496.8 L245.7,496.8 L246.1,496.8 L246.5,496.9 L246.9,496.9 L247.3,496.9 L247.7,496.9 L248.1,496.9 L248.5,496.9 L248.9,497.0 L249.3,497.0 L249.7,497.0 L250.1,497.0 L250.5,497.0 L250.9,497.1 L251.3,497.1 L251.7,497.1 L252.0,497.1 L252.4,497.1 L252.8,497.2 L253.2,497.2 L253.5,497.2 L253.9,497.2 L254.3,497.2 L254.6,497.2 L255.0,497.3 L255.4,497.3 L255.7,497.3 L256.1,497.3 L256.4,497.3 L256.8,497.4 L257.1,497.4 L257.5,497.4 L257.8,497.4 L258.1,497.4 L258.5,497.5 L258.8,497.5 L259.1,497.5 L259.4,497.5 L259.8,497.6 L260.1,497.6 L260.4,497.6 L260.7,497.6 L261.0,497.7 L261.3,497.7 L261.6,497.7 L261.9,497.7 L262.2,497.7 L262.5,497.8 L262.8,497.8 L263.1,497.8 L263.4,497.8 L263.7,497.9 L264.0,497.9 L264.3,497.9 L264.6,497.9 L264.9,497.9 L265.1,498.0 L265.4,498.0 L265.7,498.0 L265.9,498.0" fill="none" stroke="#7c3aed" stroke-width="2.5"/>
<line x1="96" y1="197" x2="120" y2="197" stroke="#7c3aed" stroke-width="3"/>
<text x="127" y="201" font-family="Arial" font-size="12" fill="#334155">altitude bias fault</text>
<path d="M604.6,108.0 L602.3,109.6 L599.9,111.2 L597.5,112.8 L595.1,114.4 L592.7,116.0 L590.4,117.6 L588.0,119.2 L585.7,120.9 L583.3,122.5 L581.0,124.1 L578.7,125.7 L576.4,127.3 L574.2,128.9 L571.9,130.4 L569.7,132.0 L567.5,133.6 L565.3,135.1 L563.2,136.7 L561.1,138.2 L559.0,139.7 L556.9,141.2 L554.9,142.7 L552.8,144.2 L550.9,145.7 L548.9,147.1 L546.9,148.6 L545.0,150.0 L543.1,151.5 L541.3,152.9 L539.4,154.4 L537.6,155.8 L535.8,157.2 L534.0,158.6 L532.2,160.1 L530.5,161.5 L528.7,163.0 L527.0,164.4 L525.2,165.9 L523.5,167.3 L521.8,168.8 L520.0,170.3 L518.4,171.8 L516.7,173.3 L515.0,174.8 L513.4,176.2 L511.8,177.7 L510.3,179.2 L508.7,180.6 L507.3,182.1 L505.8,183.6 L504.4,185.0 L503.0,186.4 L501.6,187.9 L500.3,189.3 L499.0,190.7 L497.8,192.1 L496.6,193.5 L495.4,194.9 L494.2,196.2 L493.1,197.6 L492.0,199.0 L491.0,200.3 L489.9,201.7 L489.0,203.0 L488.0,204.3 L487.1,205.7 L486.1,207.0 L485.3,208.3 L484.4,209.7 L483.5,211.0 L482.7,212.3 L481.9,213.7 L481.1,215.0 L480.3,216.4 L479.5,217.7 L478.7,219.1 L478.0,220.5 L477.3,221.8 L476.6,223.2 L475.9,224.5 L475.3,225.9 L474.7,227.2 L474.1,228.6 L473.6,229.9 L473.1,231.2 L472.6,232.6 L472.2,233.9 L471.8,235.2 L471.4,236.5 L471.0,237.8 L470.7,239.1 L470.4,240.3 L470.2,241.6 L469.9,242.9 L469.7,244.1 L469.6,245.4 L469.4,246.6 L469.3,247.9 L469.2,249.1 L469.1,250.3 L469.0,251.5 L469.0,252.8 L469.0,254.0 L469.0,255.2 L469.0,256.5 L469.0,257.7 L469.0,259.0 L469.0,260.2 L469.1,261.5 L469.1,262.7 L469.2,264.0 L469.3,265.3 L469.4,266.5 L469.5,267.8 L469.7,269.0 L469.8,270.3 L470.0,271.5 L470.2,272.8 L470.5,274.0 L470.7,275.2 L471.0,276.4 L471.3,277.6 L471.6,278.8 L472.0,280.0 L472.4,281.2 L472.7,282.3 L473.1,283.5 L473.5,284.7 L474.0,285.8 L474.4,286.9 L474.9,288.1 L475.4,289.2 L475.9,290.3 L476.4,291.5 L476.9,292.6 L477.4,293.7 L478.0,294.8 L478.5,295.9 L479.1,297.0 L479.6,298.2 L480.2,299.3 L480.8,300.4 L481.4,301.6 L481.9,302.8 L482.5,303.9 L483.1,305.1 L483.7,306.2 L484.3,307.4 L485.0,308.5 L485.6,309.7 L486.2,310.8 L486.8,312.0 L487.5,313.1 L488.1,314.2 L488.8,315.4 L489.5,316.5 L490.2,317.6 L490.8,318.7 L491.5,319.8 L492.2,320.8 L492.9,321.9 L493.6,323.0 L494.3,324.0 L495.1,325.1 L495.8,326.1 L496.5,327.1 L497.3,328.1 L498.0,329.2 L498.7,330.2 L499.5,331.2 L500.2,332.2 L501.0,333.2 L501.7,334.2 L502.5,335.2 L503.2,336.3 L504.0,337.3 L504.7,338.3 L505.5,339.4 L506.2,340.4 L507.0,341.5 L507.7,342.6 L508.5,343.6 L509.2,344.7 L509.9,345.7 L510.7,346.7 L511.4,347.8 L512.1,348.8 L512.9,349.8 L513.6,350.8 L514.3,351.8 L515.0,352.8 L515.7,353.8 L516.4,354.8 L517.1,355.8 L517.8,356.7 L518.4,357.7 L519.1,358.6 L519.8,359.6 L520.4,360.5 L521.1,361.4 L521.7,362.3 L522.3,363.3 L523.0,364.2 L523.6,365.1 L524.2,366.0 L524.8,366.9 L525.4,367.8 L526.1,368.7 L526.7,369.7 L527.3,370.6 L527.9,371.6 L528.5,372.5 L529.1,373.5 L529.7,374.5 L530.3,375.4 L530.9,376.4 L531.4,377.3 L532.0,378.3 L532.5,379.2 L533.1,380.2 L533.6,381.1 L534.1,382.0 L534.6,382.9 L535.1,383.8 L535.6,384.7 L536.0,385.6 L536.5,386.5 L536.9,387.3 L537.3,388.2 L537.7,389.0 L538.1,389.9 L538.5,390.7 L538.9,391.5 L539.3,392.3 L539.6,393.1 L539.9,393.9 L540.3,394.7 L540.6,395.5 L540.9,396.3 L541.2,397.1 L541.5,397.9 L541.8,398.7 L542.1,399.6 L542.4,400.4 L542.7,401.2 L543.0,402.1 L543.3,402.9 L543.6,403.8 L543.9,404.6 L544.1,405.5 L544.4,406.3 L544.6,407.1 L544.8,408.0 L545.1,408.8 L545.2,409.6 L545.4,410.4 L545.6,411.2 L545.8,412.0 L545.9,412.8 L546.0,413.6 L546.1,414.4 L546.2,415.1 L546.3,415.9 L546.4,416.6 L546.5,417.3 L546.5,418.0 L546.5,418.8 L546.6,419.5 L546.6,420.2 L546.6,420.9 L546.6,421.6 L546.6,422.2 L546.5,422.9 L546.5,423.6 L546.5,424.3 L546.4,425.0 L546.4,425.6 L546.3,426.3 L546.3,427.0 L546.2,427.8 L546.2,428.5 L546.1,429.2 L546.0,429.9 L546.0,430.7 L545.9,431.4 L545.8,432.1 L545.7,432.9 L545.6,433.6 L545.5,434.3 L545.4,435.0 L545.2,435.7 L545.1,436.4 L544.9,437.1 L544.8,437.8 L544.6,438.5 L544.4,439.1 L544.2,439.7 L544.0,440.4 L543.8,441.0 L543.6,441.6 L543.4,442.2 L543.1,442.8 L542.9,443.4 L542.6,444.0 L542.4,444.5 L542.1,445.1 L541.8,445.7 L541.6,446.2 L541.3,446.8 L541.0,447.4 L540.7,447.9 L540.4,448.5 L540.1,449.1 L539.9,449.7 L539.6,450.3 L539.3,450.9 L539.0,451.6 L538.7,452.2 L538.4,452.8 L538.1,453.4 L537.8,454.0 L537.4,454.5 L537.1,455.1 L536.7,455.6 L536.4,456.1 L536.0,456.6 L535.6,457.0 L535.2,457.5 L534.8,457.9 L534.4,458.2 L534.0,458.6 L533.5,458.9 L533.1,459.2 L532.6,459.4 L532.1,459.6 L531.6,459.8 L531.1,460.0 L530.6,460.1 L530.1,460.2 L529.5,460.3 L529.0,460.3 L528.4,460.3 L527.9,460.3 L527.3,460.3 L526.7,460.3 L526.1,460.2 L525.5,460.2 L525.0,460.1 L524.4,460.1 L523.8,460.0 L523.2,460.0 L522.6,459.9 L522.0,459.9 L521.4,459.9 L520.8,459.9 L520.2,459.9 L519.6,459.9 L519.0,459.9 L518.4,459.9 L517.8,459.9 L517.2,460.0 L516.6,460.0 L516.0,460.1 L515.4,460.2 L514.8,460.3 L514.2,460.4 L513.6,460.5 L513.0,460.7 L512.4,460.8 L511.8,460.9 L511.2,461.1 L510.6,461.2 L510.0,461.4 L509.4,461.5 L508.9,461.6 L508.3,461.7 L507.7,461.8 L507.1,461.9 L506.5,462.0 L506.0,462.1 L505.4,462.2 L504.8,462.3 L504.3,462.3 L503.7,462.4 L503.2,462.4 L502.6,462.4 L502.0,462.5 L501.5,462.5 L500.9,462.5 L500.4,462.5 L499.8,462.6 L499.3,462.6 L498.7,462.7 L498.2,462.7 L497.6,462.8 L497.1,462.9 L496.5,463.0 L496.0,463.1 L495.4,463.2 L494.9,463.3 L494.3,463.4 L493.8,463.6 L493.2,463.7 L492.7,463.9 L492.2,464.0 L491.6,464.2 L491.1,464.3 L490.5,464.4 L490.0,464.6 L489.5,464.7 L488.9,464.8 L488.4,464.9 L487.9,465.0 L487.4,465.1 L486.8,465.1 L486.3,465.2 L485.8,465.2 L485.3,465.3 L484.8,465.3 L484.3,465.3 L483.8,465.4 L483.3,465.4 L482.8,465.4 L482.3,465.5 L481.8,465.5 L481.3,465.6 L480.8,465.7 L480.3,465.8 L479.8,465.9 L479.3,466.0 L478.8,466.1 L478.3,466.2 L477.8,466.3 L477.3,466.4 L476.8,466.6 L476.3,466.7 L475.8,466.8 L475.3,466.9 L474.8,467.1 L474.3,467.2 L473.8,467.3 L473.4,467.3 L472.9,467.4 L472.4,467.5 L471.9,467.6 L471.4,467.6 L471.0,467.7 L470.5,467.7 L470.0,467.8 L469.6,467.8 L469.1,467.8 L468.6,467.9 L468.2,467.9 L467.7,468.0 L467.3,468.0 L466.8,468.1 L466.3,468.2 L465.9,468.3 L465.4,468.4 L465.0,468.5 L464.5,468.6 L464.0,468.7 L463.6,468.9 L463.1,469.0 L462.7,469.1 L462.2,469.3 L461.8,469.4 L461.3,469.5 L460.9,469.6 L460.4,469.7 L460.0,469.8 L459.6,469.9 L459.1,470.0 L458.7,470.1 L458.2,470.1 L457.8,470.2 L457.4,470.2 L456.9,470.3 L456.5,470.3 L456.1,470.4 L455.7,470.4 L455.2,470.4 L454.8,470.5 L454.4,470.5 L454.0,470.6 L453.6,470.6 L453.2,470.7 L452.7,470.8 L452.3,470.9 L451.9,471.0 L451.5,471.1 L451.1,471.3 L450.7,471.4 L450.3,471.5 L449.8,471.6 L449.4,471.8 L449.0,471.9 L448.6,472.0 L448.2,472.1 L447.8,472.2 L447.4,472.3 L447.1,472.4 L446.7,472.5 L446.3,472.6 L445.9,472.7 L445.5,472.7 L445.1,472.8 L444.8,472.8 L444.4,472.9 L444.0,472.9 L443.7,472.9 L443.3,473.0 L442.9,473.0 L442.6,473.1 L442.2,473.1 L441.8,473.2 L441.5,473.3 L441.1,473.3 L440.8,473.4 L440.4,473.6 L440.0,473.7 L439.7,473.8 L439.3,473.9 L439.0,474.1 L438.6,474.2 L438.3,474.3 L437.9,474.5 L437.6,474.6 L437.2,474.7 L436.9,474.8 L436.5,474.9 L436.2,475.0 L435.8,475.1 L435.5,475.2 L435.2,475.2 L434.8,475.3 L434.5,475.4 L434.2,475.4 L433.9,475.4 L433.5,475.5 L433.2,475.5 L432.9,475.6 L432.6,475.6 L432.3,475.7 L432.0,475.7 L431.6,475.8 L431.3,475.9 L431.0,476.0 L430.7,476.1 L430.4,476.2 L430.1,476.3 L429.8,476.4 L429.5,476.5 L429.1,476.7 L428.8,476.8 L428.5,476.9 L428.2,477.1 L427.9,477.2 L427.6,477.3 L427.3,477.4 L427.0,477.5 L426.8,477.6 L426.5,477.7 L426.2,477.8 L425.9,477.9 L425.6,477.9 L425.4,478.0 L425.1,478.0 L424.8,478.0 L424.5,478.1 L424.3,478.1 L424.0,478.2 L423.7,478.2 L423.5,478.3 L423.2,478.3 L422.9,478.4 L422.7,478.5 L422.4,478.6 L422.2,478.7 L421.9,478.8 L421.6,478.9 L421.4,479.0 L421.1,479.1 L420.9,479.3 L420.6,479.4 L420.3,479.5 L420.1,479.7 L419.8,479.8 L419.6,479.9 L419.4,480.0 L419.1,480.1 L418.9,480.2 L418.6,480.3 L418.4,480.4 L418.2,480.4 L418.0,480.5 L417.7,480.5 L417.5,480.6 L417.3,480.6 L417.1,480.7 L416.9,480.7 L416.7,480.7 L416.5,480.8 L416.2,480.8 L416.0,480.9 L415.8,481.0 L415.6,481.0 L415.4,481.1 L415.2,481.2 L415.0,481.3 L414.8,481.5 L414.6,481.6 L414.4,481.7 L414.2,481.8 L414.0,482.0 L413.8,482.1 L413.6,482.2 L413.5,482.4 L413.3,482.5 L413.1,482.6 L412.9,482.7 L412.7,482.8 L412.6,482.9 L412.4,482.9 L412.2,483.0 L412.1,483.1 L411.9,483.1 L411.8,483.1 L411.6,483.2 L411.5,483.2 L411.3,483.2 L411.2,483.3 L411.0,483.3 L410.9,483.4 L410.8,483.4 L410.6,483.5 L410.5,483.6 L410.3,483.7 L410.2,483.8 L410.0,483.9 L409.9,484.0 L409.8,484.1 L409.6,484.2 L409.5,484.4 L409.4,484.5 L409.2,484.6 L409.1,484.8 L409.0,484.9 L408.9,485.0 L408.8,485.1 L408.6,485.2 L408.5,485.3 L408.4,485.4 L408.3,485.4 L408.2,485.5 L408.1,485.5 L408.0,485.6 L407.9,485.6 L407.8,485.6 L407.7,485.6 L407.6,485.6 L407.5,485.7 L407.5,485.7 L407.4,485.7 L407.3,485.8 L407.2,485.8 L407.1,485.9 L407.0,485.9 L406.9,486.0 L406.9,486.1 L406.8,486.2 L406.7,486.3 L406.6,486.4 L406.5,486.5 L406.5,486.6 L406.4,486.7 L406.3,486.9 L406.3,487.0 L406.2,487.1 L406.1,487.1 L406.1,487.2 L406.0,487.3 L406.0,487.4 L406.0,487.4 L405.9,487.5 L405.9,487.5 L405.9,487.6 L405.8,487.6 L405.8,487.6 L405.8,487.6 L405.8,487.6 L405.8,487.7 L405.8,487.7 L405.7,487.7 L405.7,487.8 L405.7,487.8 L405.7,487.9 L405.7,488.0 L405.7,488.0 L405.7,488.1 L405.7,488.2 L405.7,488.4 L405.7,488.5 L405.7,488.6 L405.7,488.7 L405.7,488.8 L405.7,488.9 L405.7,489.0 L405.7,489.1 L405.7,489.2 L405.7,489.3 L405.8,489.4 L405.8,489.5 L405.8,489.5 L405.9,489.6 L405.9,489.6 L406.0,489.6 L406.0,489.7 L406.1,489.7 L406.1,489.7 L406.2,489.7 L406.2,489.7 L406.3,489.8 L406.3,489.8 L406.4,489.8 L406.5,489.9 L406.5,489.9 L406.6,490.0 L406.7,490.1 L406.7,490.2 L406.8,490.3 L406.9,490.4 L406.9,490.5 L407.0,490.6 L407.1,490.7 L407.2,490.8 L407.2,490.9 L407.3,491.1 L407.4,491.2 L407.5,491.2 L407.6,491.3 L407.7,491.4 L407.8,491.5 L407.9,491.5 L408.0,491.6 L408.1,491.6 L408.2,491.7 L408.3,491.7 L408.5,491.7 L408.6,491.7 L408.7,491.7 L408.8,491.8 L409.0,491.8 L409.1,491.8 L409.2,491.9 L409.4,491.9 L409.5,492.0 L409.6,492.0 L409.8,492.1 L409.9,492.2 L410.0,492.3 L410.2,492.4 L410.3,492.5 L410.4,492.7 L410.6,492.8 L410.7,492.9 L410.9,493.0 L411.0,493.1 L411.2,493.2 L411.3,493.3 L411.5,493.4 L411.7,493.5 L411.8,493.5 L412.0,493.6 L412.2,493.6 L412.4,493.7 L412.5,493.7 L412.7,493.7 L412.9,493.8 L413.1,493.8 L413.3,493.8 L413.5,493.8 L413.7,493.8 L413.9,493.9 L414.0,493.9 L414.2,494.0 L414.4,494.0 L414.6,494.1 L414.8,494.2 L415.0,494.3 L415.2,494.4 L415.4,494.5 L415.6,494.6 L415.8,494.7 L416.0,494.9 L416.2,495.0 L416.4,495.2 L416.6,495.3 L416.9,495.4 L417.1,495.5 L417.3,495.6 L417.5,495.8 L417.7,495.8 L418.0,495.9 L418.2,496.0 L418.4,496.1 L418.7,496.1 L418.9,496.2 L419.1,496.2 L419.4,496.2 L419.6,496.2 L419.9,496.2 L420.1,496.2 L420.4,496.2 L420.6,496.2 L420.9,496.2 L421.1,496.2 L421.4,496.2 L421.6,496.2 L421.9,496.2 L422.2,496.1 L422.4,496.1 L422.7,496.1 L423.0,496.1 L423.2,496.1 L423.5,496.1 L423.7,496.1 L424.0,496.1 L424.3,496.1 L424.6,496.1 L424.8,496.2 L425.1,496.2 L425.4,496.3 L425.6,496.3 L425.9,496.4 L426.2,496.5 L426.4,496.6 L426.7,496.6 L427.0,496.7 L427.3,496.8 L427.6,496.9 L427.8,497.0 L428.1,497.1 L428.4,497.2 L428.7,497.2 L429.0,497.3 L429.3,497.4 L429.5,497.4 L429.8,497.5 L430.1,497.5 L430.4,497.6 L430.7,497.6 L431.0,497.6 L431.3,497.6 L431.6,497.7 L431.9,497.7 L432.2,497.7 L432.5,497.7 L432.8,497.7 L433.1,497.7 L433.4,497.7 L433.7,497.7 L434.0,497.7 L434.3,497.7 L434.6,497.7 L435.0,497.7 L435.3,497.7 L435.6,497.7 L435.9,497.7 L436.2,497.7 L436.5,497.7 L436.8,497.7 L437.1,497.7 L437.4,497.7 L437.8,497.7 L438.1,497.7 L438.4,497.8 L438.7,497.8 L439.0,497.8 L439.3,497.8 L439.6,497.8 L440.0,497.9 L440.3,497.9 L440.6,497.9 L440.9,498.0 L441.3,498.0 L441.6,498.0" fill="none" stroke="#059669" stroke-width="2.5"/>
<line x1="96" y1="220" x2="120" y2="220" stroke="#059669" stroke-width="3"/>
<text x="127" y="224" font-family="Arial" font-size="12" fill="#334155">hazard divert</text>
<text x="330.0" y="536" font-family="Arial" font-size="14" fill="#334155">downrange x (m)</text>
<text x="22" y="327.0" font-family="Arial" font-size="14" fill="#334155" transform="rotate(-90 22,327.0)">altitude z (m)</text>
<text x="710" y="110" font-family="Arial" font-size="18" font-weight="700" fill="#0f172a">Terminal constraints</text>
<text x="710" y="142" font-family="Arial" font-size="14" font-weight="700" fill="#0f172a">full-stack nominal</text>
<text x="942" y="142" font-family="Arial" font-size="13" font-weight="700" fill="#2563eb">PASS</text>
<text x="710" y="162" font-family="Arial" font-size="12" fill="#475569">target error -2.08 m | speed 1.10 m/s</text>
<text x="710" y="180" font-family="Arial" font-size="12" fill="#475569">propellant 2938 kg | nav rejects 0</text>
<text x="710" y="208" font-family="Arial" font-size="14" font-weight="700" fill="#0f172a">18% thrust loss</text>
<text x="942" y="208" font-family="Arial" font-size="13" font-weight="700" fill="#dc2626">FAIL</text>
<text x="710" y="228" font-family="Arial" font-size="12" fill="#475569">target error -4.86 m | speed 1.96 m/s</text>
<text x="710" y="246" font-family="Arial" font-size="12" fill="#475569">propellant 3304 kg | nav rejects 0</text>
<text x="710" y="274" font-family="Arial" font-size="14" font-weight="700" fill="#0f172a">8% thrust loss</text>
<text x="942" y="274" font-family="Arial" font-size="13" font-weight="700" fill="#ea580c">PASS</text>
<text x="710" y="294" font-family="Arial" font-size="12" fill="#475569">target error -2.30 m | speed 1.16 m/s</text>
<text x="710" y="312" font-family="Arial" font-size="12" fill="#475569">propellant 2950 kg | nav rejects 0</text>
<text x="710" y="340" font-family="Arial" font-size="14" font-weight="700" fill="#0f172a">altitude bias fault</text>
<text x="942" y="340" font-family="Arial" font-size="13" font-weight="700" fill="#7c3aed">PASS</text>
<text x="710" y="360" font-family="Arial" font-size="12" fill="#475569">target error 0.28 m | speed 0.80 m/s</text>
<text x="710" y="378" font-family="Arial" font-size="12" fill="#475569">propellant 2484 kg | nav rejects 435</text>
<text x="710" y="406" font-family="Arial" font-size="14" font-weight="700" fill="#0f172a">hazard divert</text>
<text x="942" y="406" font-family="Arial" font-size="13" font-weight="700" fill="#059669">PASS</text>
<text x="710" y="426" font-family="Arial" font-size="12" fill="#475569">target error -2.53 m | speed 1.09 m/s</text>
<text x="710" y="444" font-family="Arial" font-size="12" fill="#475569">propellant 2942 kg | nav rejects 0</text>
<text x="52" y="648" font-family="Arial" font-size="14" font-weight="700" fill="#0f172a">Physical result</text>
<text x="52" y="672" font-family="Arial" font-size="13" fill="#475569">The hazard divert lands 5.47 m clear of the debris zone and changes remaining propellant by +4 kg.</text>
<text x="52" y="693" font-family="Arial" font-size="13" fill="#475569">The 18% thrust-loss case crosses the terminal footprint boundary: error -4.86 m, exposing loss of divert authority before propellant depletion.</text>
</svg>
