<svg xmlns="http://www.w3.org/2000/svg" width="1500" height="900" viewBox="0 0 1500 900" role="img">
<title>ESKF covariance growth during GPS dropout and NIS rejection of radar bias</title>
<rect width="100%" height="100%" fill="#f8fafc"/>
<text x="62" y="52" font-family="Arial" font-size="31" font-weight="700" fill="#0f172a">Aiding-Sensor Fault Response in the Navigation Filter</text>
<text x="62" y="82" font-family="Arial" font-size="16" fill="#64748b">Time-domain evidence separates inertial uncertainty growth from covariance-normalized measurement rejection.</text>
<text x="100" y="129" font-family="Arial" font-size="19" font-weight="700" fill="#0f172a">Horizontal error and uncertainty during GPS outage</text>
<rect x="100" y="145" width="875" height="245" fill="#ffffff" stroke="#cbd5e1"/>
<rect x="253.8" y="145" width="384.6" height="245" fill="#ede9fe" opacity="0.82"/>
<line x1="100" y1="267.5" x2="975" y2="267.5" stroke="#94a3b8"/>
<path d="M100.0,237.8 L101.0,237.8 L101.9,237.8 L102.9,237.8 L103.8,254.2 L104.8,254.2 L105.8,254.2 L106.7,254.2 L107.7,257.6 L108.7,257.6 L109.6,257.6 L110.6,257.6 L111.5,259.3 L112.5,259.3 L113.5,259.2 L114.4,259.2 L115.4,260.3 L116.3,260.3 L117.3,260.3 L118.3,260.3 L119.2,261.0 L120.2,261.0 L121.2,261.0 L122.1,261.0 L123.1,261.5 L124.0,261.5 L125.0,261.5 L126.0,261.5 L126.9,262.0 L127.9,261.9 L128.8,261.9 L129.8,261.9 L130.8,262.3 L131.7,262.3 L132.7,262.3 L133.7,262.3 L134.6,262.6 L135.6,262.6 L136.5,262.5 L137.5,262.5 L138.5,262.8 L139.4,262.8 L140.4,262.8 L141.3,262.8 L142.3,263.0 L143.3,263.0 L144.2,263.0 L145.2,263.0 L146.2,263.2 L147.1,263.2 L148.1,263.1 L149.0,263.1 L150.0,263.3 L151.0,263.3 L151.9,263.3 L152.9,263.3 L153.8,263.5 L154.8,263.4 L155.8,263.4 L156.7,263.4 L157.7,263.6 L158.7,263.6 L159.6,263.6 L160.6,263.5 L161.5,263.7 L162.5,263.7 L163.5,263.7 L164.4,263.6 L165.4,263.8 L166.3,263.8 L167.3,263.7 L168.3,263.7 L169.2,263.9 L170.2,263.8 L171.2,263.8 L172.1,263.8 L173.1,263.9 L174.0,263.9 L175.0,263.9 L176.0,263.9 L176.9,264.0 L177.9,264.0 L178.8,264.0 L179.8,264.0 L180.8,264.1 L181.7,264.1 L182.7,264.0 L183.7,264.0 L184.6,264.1 L185.6,264.1 L186.5,264.1 L187.5,264.1 L188.5,264.2 L189.4,264.2 L190.4,264.2 L191.3,264.1 L192.3,264.2 L193.3,264.2 L194.2,264.2 L195.2,264.2 L196.2,264.3 L197.1,264.3 L198.1,264.2 L199.0,264.2 L200.0,264.3 L201.0,264.3 L201.9,264.3 L202.9,264.3 L203.8,264.4 L204.8,264.3 L205.8,264.3 L206.7,264.3 L207.7,264.4 L208.7,264.4 L209.6,264.4 L210.6,264.3 L211.5,264.4 L212.5,264.4 L213.5,264.4 L214.4,264.4 L215.4,264.5 L216.3,264.4 L217.3,264.4 L218.3,264.4 L219.2,264.5 L220.2,264.5 L221.2,264.5 L222.1,264.4 L223.1,264.5 L224.0,264.5 L225.0,264.5 L226.0,264.5 L226.9,264.5 L227.9,264.5 L228.8,264.5 L229.8,264.5 L230.8,264.6 L231.7,264.5 L232.7,264.5 L233.7,264.5 L234.6,264.6 L235.6,264.6 L236.5,264.5 L237.5,264.5 L238.5,264.6 L239.4,264.6 L240.4,264.6 L241.3,264.5 L242.3,264.6 L243.3,264.6 L244.2,264.6 L245.2,264.6 L246.2,264.6 L247.1,264.6 L248.1,264.6 L249.0,264.6 L250.0,264.7 L251.0,264.6 L251.9,264.6 L252.9,264.6 L253.8,264.7 L254.8,264.6 L255.8,264.6 L256.7,264.6 L257.7,264.6 L258.7,264.6 L259.6,264.5 L260.6,264.5 L261.5,264.5 L262.5,264.5 L263.5,264.4 L264.4,264.4 L265.4,264.4 L266.3,264.4 L267.3,264.3 L268.3,264.3 L269.2,264.2 L270.2,264.2 L271.2,264.2 L272.1,264.1 L273.1,264.1 L274.0,264.0 L275.0,264.0 L276.0,263.9 L276.9,263.9 L277.9,263.8 L278.8,263.8 L279.8,263.7 L280.8,263.7 L281.7,263.6 L282.7,263.6 L283.7,263.5 L284.6,263.4 L285.6,263.4 L286.5,263.3 L287.5,263.2 L288.5,263.2 L289.4,263.1 L290.4,263.0 L291.3,263.0 L292.3,262.9 L293.3,262.8 L294.2,262.7 L295.2,262.6 L296.2,262.6 L297.1,262.5 L298.1,262.4 L299.0,262.3 L300.0,262.2 L301.0,262.1 L301.9,262.0 L302.9,261.9 L303.8,261.9 L304.8,261.8 L305.8,261.7 L306.7,261.6 L307.7,261.5 L308.7,261.4 L309.6,261.3 L310.6,261.2 L311.5,261.1 L312.5,260.9 L313.5,260.8 L314.4,260.7 L315.4,260.6 L316.3,260.5 L317.3,260.4 L318.3,260.3 L319.2,260.2 L320.2,260.0 L321.2,259.9 L322.1,259.8 L323.1,259.7 L324.0,259.6 L325.0,259.4 L326.0,259.3 L326.9,259.2 L327.9,259.1 L328.8,258.9 L329.8,258.8 L330.8,258.7 L331.7,258.5 L332.7,258.4 L333.7,258.3 L334.6,258.1 L335.6,258.0 L336.5,257.8 L337.5,257.7 L338.5,257.6 L339.4,257.4 L340.4,257.3 L341.3,257.1 L342.3,257.0 L343.3,256.8 L344.2,256.7 L345.2,256.5 L346.2,256.4 L347.1,256.2 L348.1,256.1 L349.0,255.9 L350.0,255.8 L351.0,255.6 L351.9,255.4 L352.9,255.3 L353.8,255.1 L354.8,255.0 L355.8,254.8 L356.7,254.6 L357.7,254.5 L358.7,254.3 L359.6,254.1 L360.6,254.0 L361.5,253.8 L362.5,253.6 L363.5,253.5 L364.4,253.3 L365.4,253.1 L366.3,252.9 L367.3,252.7 L368.3,252.6 L369.2,252.4 L370.2,252.2 L371.2,252.0 L372.1,251.8 L373.1,251.7 L374.0,251.5 L375.0,251.3 L376.0,251.1 L376.9,250.9 L377.9,250.7 L378.8,250.5 L379.8,250.3 L380.8,250.1 L381.7,249.9 L382.7,249.8 L383.7,249.6 L384.6,249.4 L385.6,249.2 L386.5,249.0 L387.5,248.8 L388.5,248.6 L389.4,248.4 L390.4,248.1 L391.3,247.9 L392.3,247.7 L393.3,247.5 L394.2,247.3 L395.2,247.1 L396.2,246.9 L397.1,246.7 L398.1,246.5 L399.0,246.3 L400.0,246.0 L401.0,245.8 L401.9,245.6 L402.9,245.4 L403.8,245.2 L404.8,244.9 L405.8,244.7 L406.7,244.5 L407.7,244.3 L408.7,244.0 L409.6,243.8 L410.6,243.6 L411.5,243.4 L412.5,243.1 L413.5,242.9 L414.4,242.7 L415.4,242.4 L416.3,242.2 L417.3,242.0 L418.3,241.7 L419.2,241.5 L420.2,241.2 L421.2,241.0 L422.1,240.8 L423.1,240.5 L424.0,240.3 L425.0,240.0 L426.0,239.8 L426.9,239.5 L427.9,239.3 L428.8,239.0 L429.8,238.8 L430.8,238.5 L431.7,238.3 L432.7,238.0 L433.7,237.8 L434.6,237.5 L435.6,237.2 L436.5,237.0 L437.5,236.7 L438.5,236.5 L439.4,236.2 L440.4,235.9 L441.3,235.7 L442.3,235.4 L443.3,235.1 L444.2,234.9 L445.2,234.6 L446.2,234.3 L447.1,234.1 L448.1,233.8 L449.0,233.5 L450.0,233.2 L451.0,233.0 L451.9,232.7 L452.9,232.4 L453.8,232.1 L454.8,231.9 L455.8,231.6 L456.7,231.3 L457.7,231.0 L458.7,230.7 L459.6,230.4 L460.6,230.2 L461.5,229.9 L462.5,229.6 L463.5,229.3 L464.4,229.0 L465.4,228.7 L466.3,228.4 L467.3,228.1 L468.3,227.8 L469.2,227.5 L470.2,227.2 L471.2,226.9 L472.1,226.6 L473.1,226.3 L474.0,226.0 L475.0,225.7 L476.0,225.4 L476.9,225.1 L477.9,224.8 L478.8,224.5 L479.8,224.2 L480.8,223.9 L481.7,223.6 L482.7,223.2 L483.7,222.9 L484.6,222.6 L485.6,222.3 L486.5,222.0 L487.5,221.7 L488.5,221.3 L489.4,221.0 L490.4,220.7 L491.3,220.4 L492.3,220.1 L493.3,219.7 L494.2,219.4 L495.2,219.1 L496.2,218.7 L497.1,218.4 L498.1,218.1 L499.0,217.8 L500.0,217.4 L501.0,217.1 L501.9,216.8 L502.9,216.4 L503.8,216.1 L504.8,215.7 L505.8,215.4 L506.7,215.1 L507.7,214.7 L508.7,214.4 L509.6,214.0 L510.6,213.7 L511.5,213.3 L512.5,213.0 L513.5,212.6 L514.4,212.3 L515.4,211.9 L516.3,211.6 L517.3,211.2 L518.3,210.9 L519.2,210.5 L520.2,210.2 L521.2,209.8 L522.1,209.5 L523.1,209.1 L524.0,208.7 L525.0,208.4 L526.0,208.0 L526.9,207.6 L527.9,207.3 L528.8,206.9 L529.8,206.5 L530.8,206.2 L531.7,205.8 L532.7,205.4 L533.7,205.1 L534.6,204.7 L535.6,204.3 L536.5,203.9 L537.5,203.6 L538.5,203.2 L539.4,202.8 L540.4,202.4 L541.3,202.0 L542.3,201.7 L543.3,201.3 L544.2,200.9 L545.2,200.5 L546.2,200.1 L547.1,199.7 L548.1,199.3 L549.0,198.9 L550.0,198.6 L551.0,198.2 L551.9,197.8 L552.9,197.4 L553.8,197.0 L554.8,196.6 L555.8,196.2 L556.7,195.8 L557.7,195.4 L558.7,195.0 L559.6,194.6 L560.6,194.2 L561.5,193.8 L562.5,193.4 L563.5,193.0 L564.4,192.5 L565.4,192.1 L566.3,191.7 L567.3,191.3 L568.3,190.9 L569.2,190.5 L570.2,190.1 L571.2,189.7 L572.1,189.2 L573.1,188.8 L574.0,188.4 L575.0,188.0 L576.0,187.6 L576.9,187.1 L577.9,186.7 L578.8,186.3 L579.8,185.9 L580.8,185.4 L581.7,185.0 L582.7,184.6 L583.7,184.1 L584.6,183.7 L585.6,183.3 L586.5,182.8 L587.5,182.4 L588.5,182.0 L589.4,181.5 L590.4,181.1 L591.3,180.6 L592.3,180.2 L593.3,179.8 L594.2,179.3 L595.2,178.9 L596.2,178.4 L597.1,178.0 L598.1,177.5 L599.0,177.1 L600.0,176.6 L601.0,176.2 L601.9,175.7 L602.9,175.3 L603.8,174.8 L604.8,174.3 L605.8,173.9 L606.7,173.4 L607.7,173.0 L608.7,172.5 L609.6,172.0 L610.6,171.6 L611.5,171.1 L612.5,170.6 L613.5,170.2 L614.4,169.7 L615.4,169.2 L616.3,168.8 L617.3,168.3 L618.3,167.8 L619.2,167.4 L620.2,166.9 L621.2,166.4 L622.1,165.9 L623.1,165.4 L624.0,165.0 L625.0,164.5 L626.0,164.0 L626.9,163.5 L627.9,163.0 L628.8,162.5 L629.8,162.1 L630.8,161.6 L631.7,161.1 L632.7,160.6 L633.7,160.1 L634.6,159.6 L635.6,159.1 L636.5,158.6 L637.5,158.1 L638.5,253.7 L639.4,253.6 L640.4,253.6 L641.3,253.6 L642.3,257.4 L643.3,257.4 L644.2,257.4 L645.2,257.4 L646.2,259.2 L647.1,259.2 L648.1,259.1 L649.0,259.1 L650.0,260.2 L651.0,260.2 L651.9,260.2 L652.9,260.2 L653.8,261.0 L654.8,260.9 L655.8,260.9 L656.7,260.9 L657.7,261.5 L658.7,261.5 L659.6,261.5 L660.6,261.5 L661.5,261.9 L662.5,261.9 L663.5,261.9 L664.4,261.9 L665.4,262.3 L666.3,262.3 L667.3,262.2 L668.3,262.2 L669.2,262.5 L670.2,262.5 L671.2,262.5 L672.1,262.5 L673.1,262.8 L674.0,262.8 L675.0,262.8 L676.0,262.8 L676.9,263.0 L677.9,263.0 L678.8,263.0 L679.8,263.0 L680.8,263.2 L681.7,263.2 L682.7,263.1 L683.7,263.1 L684.6,263.3 L685.6,263.3 L686.5,263.3 L687.5,263.3 L688.5,263.5 L689.4,263.4 L690.4,263.4 L691.3,263.4 L692.3,263.6 L693.3,263.6 L694.2,263.6 L695.2,263.5 L696.2,263.7 L697.1,263.7 L698.1,263.7 L699.0,263.7 L700.0,263.8 L701.0,263.8 L701.9,263.8 L702.9,263.7 L703.8,263.9 L704.8,263.9 L705.8,263.8 L706.7,263.8 L707.7,263.9 L708.7,263.9 L709.6,263.9 L710.6,263.9 L711.5,264.0 L712.5,264.0 L713.5,264.0 L714.4,264.0 L715.4,264.1 L716.3,264.1 L717.3,264.1 L718.3,264.0 L719.2,264.1 L720.2,264.1 L721.2,264.1 L722.1,264.1 L723.1,264.2 L724.0,264.2 L725.0,264.2 L726.0,264.2 L726.9,264.2 L727.9,264.2 L728.8,264.2 L729.8,264.2 L730.8,264.3 L731.7,264.3 L732.7,264.3 L733.7,264.2 L734.6,264.3 L735.6,264.3 L736.5,264.3 L737.5,264.3 L738.5,264.4 L739.4,264.4 L740.4,264.3 L741.3,264.3 L742.3,264.4 L743.3,264.4 L744.2,264.4 L745.2,264.4 L746.2,264.4 L747.1,264.4 L748.1,264.4 L749.0,264.4 L750.0,264.5 L751.0,264.5 L751.9,264.4 L752.9,264.4 L753.8,264.5 L754.8,264.5 L755.8,264.5 L756.7,264.5 L757.7,264.5 L758.7,264.5 L759.6,264.5 L760.6,264.5 L761.5,264.5 L762.5,264.5 L763.5,264.5 L764.4,264.5 L765.4,264.6 L766.3,264.6 L767.3,264.5 L768.3,264.5 L769.2,264.6 L770.2,264.6 L771.2,264.6 L772.1,264.5 L773.1,264.6 L774.0,264.6 L775.0,264.6 L776.0,264.6 L776.9,264.6 L777.9,264.6 L778.8,264.6 L779.8,264.6 L780.8,264.6 L781.7,264.6 L782.7,264.6 L783.7,264.6 L784.6,264.7 L785.6,264.6 L786.5,264.6 L787.5,264.6 L788.5,264.7 L789.4,264.7 L790.4,264.6 L791.3,264.6 L792.3,264.7 L793.3,264.7 L794.2,264.7 L795.2,264.6 L796.2,264.7 L797.1,264.7 L798.1,264.7 L799.0,264.7 L800.0,264.7 L801.0,264.7 L801.9,264.7 L802.9,264.7 L803.8,264.7 L804.8,264.7 L805.8,264.7 L806.7,264.7 L807.7,264.7 L808.7,264.7 L809.6,264.7 L810.6,264.7 L811.5,264.7 L812.5,264.7 L813.5,264.7 L814.4,264.7 L815.4,264.8 L816.3,264.7 L817.3,264.7 L818.3,264.7 L819.2,264.8 L820.2,264.7 L821.2,264.7 L822.1,264.7 L823.1,264.8 L824.0,264.8 L825.0,264.7 L826.0,264.7 L826.9,264.8 L827.9,264.8 L828.8,264.7 L829.8,264.7 L830.8,264.8 L831.7,264.8 L832.7,264.8 L833.7,264.7 L834.6,264.8 L835.6,264.8 L836.5,264.8 L837.5,264.7 L838.5,264.8 L839.4,264.8 L840.4,264.8 L841.3,264.7 L842.3,264.8 L843.3,264.8 L844.2,264.8 L845.2,264.8 L846.2,264.8 L847.1,264.8 L848.1,264.8 L849.0,264.8 L850.0,264.8 L851.0,264.8 L851.9,264.8 L852.9,264.8 L853.8,264.8 L854.8,264.8 L855.8,264.8 L856.7,264.8 L857.7,264.8 L858.7,264.8 L859.6,264.8 L860.6,264.8 L861.5,264.8 L862.5,264.8 L863.5,264.8 L864.4,264.8 L865.4,264.8 L866.3,264.8 L867.3,264.8 L868.3,264.8 L869.2,264.8 L870.2,264.8 L871.2,264.8 L872.1,264.8 L873.1,264.8 L874.0,264.8 L875.0,264.8 L876.0,264.8 L876.9,264.8 L877.9,264.8 L878.8,264.8 L879.8,264.8 L880.8,264.8 L881.7,264.8 L882.7,264.8 L883.7,264.8 L884.6,264.8 L885.6,264.8 L886.5,264.8 L887.5,264.8 L888.5,264.8 L889.4,264.8 L890.4,264.8 L891.3,264.8 L892.3,264.9 L893.3,264.8 L894.2,264.8 L895.2,264.8 L896.2,264.9 L897.1,264.8 L898.1,264.8 L899.0,264.8 L900.0,264.9 L901.0,264.8 L901.9,264.8 L902.9,264.8 L903.8,264.9 L904.8,264.8 L905.8,264.8 L906.7,264.8 L907.7,264.9 L908.7,264.8 L909.6,264.8 L910.6,264.8 L911.5,264.9 L912.5,264.8 L913.5,264.8 L914.4,264.8 L915.4,264.9 L916.3,264.8 L917.3,264.8 L918.3,264.8 L919.2,264.9 L920.2,264.8 L921.2,264.8 L922.1,264.8 L923.1,264.9 L924.0,264.8 L925.0,264.8 L926.0,264.8 L926.9,264.9 L927.9,264.8 L928.8,264.8 L929.8,264.8 L930.8,264.9 L931.7,264.9 L932.7,264.8 L933.7,264.8 L934.6,264.9 L935.6,264.9 L936.5,264.8 L937.5,264.8 L938.5,264.9 L939.4,264.9 L940.4,264.8 L941.3,264.8 L942.3,264.9 L943.3,264.9 L944.2,264.8 L945.2,264.8 L946.2,264.9 L947.1,264.9 L948.1,264.8 L949.0,264.8 L950.0,264.9 L951.0,264.9 L951.9,264.8 L952.9,264.8 L953.8,264.9 L954.8,264.9 L955.8,264.8 L956.7,264.8 L957.7,264.9 L958.7,264.9 L959.6,264.8 L960.6,264.8 L961.5,264.9 L962.5,264.9 L963.5,264.8 L964.4,264.8 L965.4,264.9 L966.3,264.9 L967.3,264.8 L968.3,264.8 L969.2,264.9 L970.2,264.9 L971.2,264.8 L972.1,264.8 L973.1,264.9 L974.0,264.9 L975.0,264.8" fill="none" stroke="#64748b" stroke-width="1.7" stroke-dasharray="7 5"/>
<path d="M100.0,297.2 L101.0,297.2 L101.9,297.2 L102.9,297.2 L103.8,280.8 L104.8,280.8 L105.8,280.8 L106.7,280.8 L107.7,277.4 L108.7,277.4 L109.6,277.4 L110.6,277.4 L111.5,275.7 L112.5,275.7 L113.5,275.8 L114.4,275.8 L115.4,274.7 L116.3,274.7 L117.3,274.7 L118.3,274.7 L119.2,274.0 L120.2,274.0 L121.2,274.0 L122.1,274.0 L123.1,273.5 L124.0,273.5 L125.0,273.5 L126.0,273.5 L126.9,273.0 L127.9,273.1 L128.8,273.1 L129.8,273.1 L130.8,272.7 L131.7,272.7 L132.7,272.7 L133.7,272.7 L134.6,272.4 L135.6,272.4 L136.5,272.5 L137.5,272.5 L138.5,272.2 L139.4,272.2 L140.4,272.2 L141.3,272.2 L142.3,272.0 L143.3,272.0 L144.2,272.0 L145.2,272.0 L146.2,271.8 L147.1,271.8 L148.1,271.9 L149.0,271.9 L150.0,271.7 L151.0,271.7 L151.9,271.7 L152.9,271.7 L153.8,271.5 L154.8,271.6 L155.8,271.6 L156.7,271.6 L157.7,271.4 L158.7,271.4 L159.6,271.4 L160.6,271.5 L161.5,271.3 L162.5,271.3 L163.5,271.3 L164.4,271.4 L165.4,271.2 L166.3,271.2 L167.3,271.3 L168.3,271.3 L169.2,271.1 L170.2,271.2 L171.2,271.2 L172.1,271.2 L173.1,271.1 L174.0,271.1 L175.0,271.1 L176.0,271.1 L176.9,271.0 L177.9,271.0 L178.8,271.0 L179.8,271.0 L180.8,270.9 L181.7,270.9 L182.7,271.0 L183.7,271.0 L184.6,270.9 L185.6,270.9 L186.5,270.9 L187.5,270.9 L188.5,270.8 L189.4,270.8 L190.4,270.8 L191.3,270.9 L192.3,270.8 L193.3,270.8 L194.2,270.8 L195.2,270.8 L196.2,270.7 L197.1,270.7 L198.1,270.8 L199.0,270.8 L200.0,270.7 L201.0,270.7 L201.9,270.7 L202.9,270.7 L203.8,270.6 L204.8,270.7 L205.8,270.7 L206.7,270.7 L207.7,270.6 L208.7,270.6 L209.6,270.6 L210.6,270.7 L211.5,270.6 L212.5,270.6 L213.5,270.6 L214.4,270.6 L215.4,270.5 L216.3,270.6 L217.3,270.6 L218.3,270.6 L219.2,270.5 L220.2,270.5 L221.2,270.5 L222.1,270.6 L223.1,270.5 L224.0,270.5 L225.0,270.5 L226.0,270.5 L226.9,270.5 L227.9,270.5 L228.8,270.5 L229.8,270.5 L230.8,270.4 L231.7,270.5 L232.7,270.5 L233.7,270.5 L234.6,270.4 L235.6,270.4 L236.5,270.5 L237.5,270.5 L238.5,270.4 L239.4,270.4 L240.4,270.4 L241.3,270.5 L242.3,270.4 L243.3,270.4 L244.2,270.4 L245.2,270.4 L246.2,270.4 L247.1,270.4 L248.1,270.4 L249.0,270.4 L250.0,270.3 L251.0,270.4 L251.9,270.4 L252.9,270.4 L253.8,270.3 L254.8,270.4 L255.8,270.4 L256.7,270.4 L257.7,270.4 L258.7,270.4 L259.6,270.5 L260.6,270.5 L261.5,270.5 L262.5,270.5 L263.5,270.6 L264.4,270.6 L265.4,270.6 L266.3,270.6 L267.3,270.7 L268.3,270.7 L269.2,270.8 L270.2,270.8 L271.2,270.8 L272.1,270.9 L273.1,270.9 L274.0,271.0 L275.0,271.0 L276.0,271.1 L276.9,271.1 L277.9,271.2 L278.8,271.2 L279.8,271.3 L280.8,271.3 L281.7,271.4 L282.7,271.4 L283.7,271.5 L284.6,271.6 L285.6,271.6 L286.5,271.7 L287.5,271.8 L288.5,271.8 L289.4,271.9 L290.4,272.0 L291.3,272.0 L292.3,272.1 L293.3,272.2 L294.2,272.3 L295.2,272.4 L296.2,272.4 L297.1,272.5 L298.1,272.6 L299.0,272.7 L300.0,272.8 L301.0,272.9 L301.9,273.0 L302.9,273.1 L303.8,273.1 L304.8,273.2 L305.8,273.3 L306.7,273.4 L307.7,273.5 L308.7,273.6 L309.6,273.7 L310.6,273.8 L311.5,273.9 L312.5,274.1 L313.5,274.2 L314.4,274.3 L315.4,274.4 L316.3,274.5 L317.3,274.6 L318.3,274.7 L319.2,274.8 L320.2,275.0 L321.2,275.1 L322.1,275.2 L323.1,275.3 L324.0,275.4 L325.0,275.6 L326.0,275.7 L326.9,275.8 L327.9,275.9 L328.8,276.1 L329.8,276.2 L330.8,276.3 L331.7,276.5 L332.7,276.6 L333.7,276.7 L334.6,276.9 L335.6,277.0 L336.5,277.2 L337.5,277.3 L338.5,277.4 L339.4,277.6 L340.4,277.7 L341.3,277.9 L342.3,278.0 L343.3,278.2 L344.2,278.3 L345.2,278.5 L346.2,278.6 L347.1,278.8 L348.1,278.9 L349.0,279.1 L350.0,279.2 L351.0,279.4 L351.9,279.6 L352.9,279.7 L353.8,279.9 L354.8,280.0 L355.8,280.2 L356.7,280.4 L357.7,280.5 L358.7,280.7 L359.6,280.9 L360.6,281.0 L361.5,281.2 L362.5,281.4 L363.5,281.5 L364.4,281.7 L365.4,281.9 L366.3,282.1 L367.3,282.3 L368.3,282.4 L369.2,282.6 L370.2,282.8 L371.2,283.0 L372.1,283.2 L373.1,283.3 L374.0,283.5 L375.0,283.7 L376.0,283.9 L376.9,284.1 L377.9,284.3 L378.8,284.5 L379.8,284.7 L380.8,284.9 L381.7,285.1 L382.7,285.2 L383.7,285.4 L384.6,285.6 L385.6,285.8 L386.5,286.0 L387.5,286.2 L388.5,286.4 L389.4,286.6 L390.4,286.9 L391.3,287.1 L392.3,287.3 L393.3,287.5 L394.2,287.7 L395.2,287.9 L396.2,288.1 L397.1,288.3 L398.1,288.5 L399.0,288.7 L400.0,289.0 L401.0,289.2 L401.9,289.4 L402.9,289.6 L403.8,289.8 L404.8,290.1 L405.8,290.3 L406.7,290.5 L407.7,290.7 L408.7,291.0 L409.6,291.2 L410.6,291.4 L411.5,291.6 L412.5,291.9 L413.5,292.1 L414.4,292.3 L415.4,292.6 L416.3,292.8 L417.3,293.0 L418.3,293.3 L419.2,293.5 L420.2,293.8 L421.2,294.0 L422.1,294.2 L423.1,294.5 L424.0,294.7 L425.0,295.0 L426.0,295.2 L426.9,295.5 L427.9,295.7 L428.8,296.0 L429.8,296.2 L430.8,296.5 L431.7,296.7 L432.7,297.0 L433.7,297.2 L434.6,297.5 L435.6,297.8 L436.5,298.0 L437.5,298.3 L438.5,298.5 L439.4,298.8 L440.4,299.1 L441.3,299.3 L442.3,299.6 L443.3,299.9 L444.2,300.1 L445.2,300.4 L446.2,300.7 L447.1,300.9 L448.1,301.2 L449.0,301.5 L450.0,301.8 L451.0,302.0 L451.9,302.3 L452.9,302.6 L453.8,302.9 L454.8,303.1 L455.8,303.4 L456.7,303.7 L457.7,304.0 L458.7,304.3 L459.6,304.6 L460.6,304.8 L461.5,305.1 L462.5,305.4 L463.5,305.7 L464.4,306.0 L465.4,306.3 L466.3,306.6 L467.3,306.9 L468.3,307.2 L469.2,307.5 L470.2,307.8 L471.2,308.1 L472.1,308.4 L473.1,308.7 L474.0,309.0 L475.0,309.3 L476.0,309.6 L476.9,309.9 L477.9,310.2 L478.8,310.5 L479.8,310.8 L480.8,311.1 L481.7,311.4 L482.7,311.8 L483.7,312.1 L484.6,312.4 L485.6,312.7 L486.5,313.0 L487.5,313.3 L488.5,313.7 L489.4,314.0 L490.4,314.3 L491.3,314.6 L492.3,314.9 L493.3,315.3 L494.2,315.6 L495.2,315.9 L496.2,316.3 L497.1,316.6 L498.1,316.9 L499.0,317.2 L500.0,317.6 L501.0,317.9 L501.9,318.2 L502.9,318.6 L503.8,318.9 L504.8,319.3 L505.8,319.6 L506.7,319.9 L507.7,320.3 L508.7,320.6 L509.6,321.0 L510.6,321.3 L511.5,321.7 L512.5,322.0 L513.5,322.4 L514.4,322.7 L515.4,323.1 L516.3,323.4 L517.3,323.8 L518.3,324.1 L519.2,324.5 L520.2,324.8 L521.2,325.2 L522.1,325.5 L523.1,325.9 L524.0,326.3 L525.0,326.6 L526.0,327.0 L526.9,327.4 L527.9,327.7 L528.8,328.1 L529.8,328.5 L530.8,328.8 L531.7,329.2 L532.7,329.6 L533.7,329.9 L534.6,330.3 L535.6,330.7 L536.5,331.1 L537.5,331.4 L538.5,331.8 L539.4,332.2 L540.4,332.6 L541.3,333.0 L542.3,333.3 L543.3,333.7 L544.2,334.1 L545.2,334.5 L546.2,334.9 L547.1,335.3 L548.1,335.7 L549.0,336.1 L550.0,336.4 L551.0,336.8 L551.9,337.2 L552.9,337.6 L553.8,338.0 L554.8,338.4 L555.8,338.8 L556.7,339.2 L557.7,339.6 L558.7,340.0 L559.6,340.4 L560.6,340.8 L561.5,341.2 L562.5,341.6 L563.5,342.0 L564.4,342.5 L565.4,342.9 L566.3,343.3 L567.3,343.7 L568.3,344.1 L569.2,344.5 L570.2,344.9 L571.2,345.3 L572.1,345.8 L573.1,346.2 L574.0,346.6 L575.0,347.0 L576.0,347.4 L576.9,347.9 L577.9,348.3 L578.8,348.7 L579.8,349.1 L580.8,349.6 L581.7,350.0 L582.7,350.4 L583.7,350.9 L584.6,351.3 L585.6,351.7 L586.5,352.2 L587.5,352.6 L588.5,353.0 L589.4,353.5 L590.4,353.9 L591.3,354.4 L592.3,354.8 L593.3,355.2 L594.2,355.7 L595.2,356.1 L596.2,356.6 L597.1,357.0 L598.1,357.5 L599.0,357.9 L600.0,358.4 L601.0,358.8 L601.9,359.3 L602.9,359.7 L603.8,360.2 L604.8,360.7 L605.8,361.1 L606.7,361.6 L607.7,362.0 L608.7,362.5 L609.6,363.0 L610.6,363.4 L611.5,363.9 L612.5,364.4 L613.5,364.8 L614.4,365.3 L615.4,365.8 L616.3,366.2 L617.3,366.7 L618.3,367.2 L619.2,367.6 L620.2,368.1 L621.2,368.6 L622.1,369.1 L623.1,369.6 L624.0,370.0 L625.0,370.5 L626.0,371.0 L626.9,371.5 L627.9,372.0 L628.8,372.5 L629.8,372.9 L630.8,373.4 L631.7,373.9 L632.7,374.4 L633.7,374.9 L634.6,375.4 L635.6,375.9 L636.5,376.4 L637.5,376.9 L638.5,281.3 L639.4,281.4 L640.4,281.4 L641.3,281.4 L642.3,277.6 L643.3,277.6 L644.2,277.6 L645.2,277.6 L646.2,275.8 L647.1,275.8 L648.1,275.9 L649.0,275.9 L650.0,274.8 L651.0,274.8 L651.9,274.8 L652.9,274.8 L653.8,274.0 L654.8,274.1 L655.8,274.1 L656.7,274.1 L657.7,273.5 L658.7,273.5 L659.6,273.5 L660.6,273.5 L661.5,273.1 L662.5,273.1 L663.5,273.1 L664.4,273.1 L665.4,272.7 L666.3,272.7 L667.3,272.8 L668.3,272.8 L669.2,272.5 L670.2,272.5 L671.2,272.5 L672.1,272.5 L673.1,272.2 L674.0,272.2 L675.0,272.2 L676.0,272.2 L676.9,272.0 L677.9,272.0 L678.8,272.0 L679.8,272.0 L680.8,271.8 L681.7,271.8 L682.7,271.9 L683.7,271.9 L684.6,271.7 L685.6,271.7 L686.5,271.7 L687.5,271.7 L688.5,271.5 L689.4,271.6 L690.4,271.6 L691.3,271.6 L692.3,271.4 L693.3,271.4 L694.2,271.4 L695.2,271.5 L696.2,271.3 L697.1,271.3 L698.1,271.3 L699.0,271.3 L700.0,271.2 L701.0,271.2 L701.9,271.2 L702.9,271.3 L703.8,271.1 L704.8,271.1 L705.8,271.2 L706.7,271.2 L707.7,271.1 L708.7,271.1 L709.6,271.1 L710.6,271.1 L711.5,271.0 L712.5,271.0 L713.5,271.0 L714.4,271.0 L715.4,270.9 L716.3,270.9 L717.3,270.9 L718.3,271.0 L719.2,270.9 L720.2,270.9 L721.2,270.9 L722.1,270.9 L723.1,270.8 L724.0,270.8 L725.0,270.8 L726.0,270.8 L726.9,270.8 L727.9,270.8 L728.8,270.8 L729.8,270.8 L730.8,270.7 L731.7,270.7 L732.7,270.7 L733.7,270.8 L734.6,270.7 L735.6,270.7 L736.5,270.7 L737.5,270.7 L738.5,270.6 L739.4,270.6 L740.4,270.7 L741.3,270.7 L742.3,270.6 L743.3,270.6 L744.2,270.6 L745.2,270.6 L746.2,270.6 L747.1,270.6 L748.1,270.6 L749.0,270.6 L750.0,270.5 L751.0,270.5 L751.9,270.6 L752.9,270.6 L753.8,270.5 L754.8,270.5 L755.8,270.5 L756.7,270.5 L757.7,270.5 L758.7,270.5 L759.6,270.5 L760.6,270.5 L761.5,270.5 L762.5,270.5 L763.5,270.5 L764.4,270.5 L765.4,270.4 L766.3,270.4 L767.3,270.5 L768.3,270.5 L769.2,270.4 L770.2,270.4 L771.2,270.4 L772.1,270.5 L773.1,270.4 L774.0,270.4 L775.0,270.4 L776.0,270.4 L776.9,270.4 L777.9,270.4 L778.8,270.4 L779.8,270.4 L780.8,270.4 L781.7,270.4 L782.7,270.4 L783.7,270.4 L784.6,270.3 L785.6,270.4 L786.5,270.4 L787.5,270.4 L788.5,270.3 L789.4,270.3 L790.4,270.4 L791.3,270.4 L792.3,270.3 L793.3,270.3 L794.2,270.3 L795.2,270.4 L796.2,270.3 L797.1,270.3 L798.1,270.3 L799.0,270.3 L800.0,270.3 L801.0,270.3 L801.9,270.3 L802.9,270.3 L803.8,270.3 L804.8,270.3 L805.8,270.3 L806.7,270.3 L807.7,270.3 L808.7,270.3 L809.6,270.3 L810.6,270.3 L811.5,270.3 L812.5,270.3 L813.5,270.3 L814.4,270.3 L815.4,270.2 L816.3,270.3 L817.3,270.3 L818.3,270.3 L819.2,270.2 L820.2,270.3 L821.2,270.3 L822.1,270.3 L823.1,270.2 L824.0,270.2 L825.0,270.3 L826.0,270.3 L826.9,270.2 L827.9,270.2 L828.8,270.3 L829.8,270.3 L830.8,270.2 L831.7,270.2 L832.7,270.2 L833.7,270.3 L834.6,270.2 L835.6,270.2 L836.5,270.2 L837.5,270.3 L838.5,270.2 L839.4,270.2 L840.4,270.2 L841.3,270.3 L842.3,270.2 L843.3,270.2 L844.2,270.2 L845.2,270.2 L846.2,270.2 L847.1,270.2 L848.1,270.2 L849.0,270.2 L850.0,270.2 L851.0,270.2 L851.9,270.2 L852.9,270.2 L853.8,270.2 L854.8,270.2 L855.8,270.2 L856.7,270.2 L857.7,270.2 L858.7,270.2 L859.6,270.2 L860.6,270.2 L861.5,270.2 L862.5,270.2 L863.5,270.2 L864.4,270.2 L865.4,270.2 L866.3,270.2 L867.3,270.2 L868.3,270.2 L869.2,270.2 L870.2,270.2 L871.2,270.2 L872.1,270.2 L873.1,270.2 L874.0,270.2 L875.0,270.2 L876.0,270.2 L876.9,270.2 L877.9,270.2 L878.8,270.2 L879.8,270.2 L880.8,270.2 L881.7,270.2 L882.7,270.2 L883.7,270.2 L884.6,270.2 L885.6,270.2 L886.5,270.2 L887.5,270.2 L888.5,270.2 L889.4,270.2 L890.4,270.2 L891.3,270.2 L892.3,270.1 L893.3,270.2 L894.2,270.2 L895.2,270.2 L896.2,270.1 L897.1,270.2 L898.1,270.2 L899.0,270.2 L900.0,270.1 L901.0,270.2 L901.9,270.2 L902.9,270.2 L903.8,270.1 L904.8,270.2 L905.8,270.2 L906.7,270.2 L907.7,270.1 L908.7,270.2 L909.6,270.2 L910.6,270.2 L911.5,270.1 L912.5,270.2 L913.5,270.2 L914.4,270.2 L915.4,270.1 L916.3,270.2 L917.3,270.2 L918.3,270.2 L919.2,270.1 L920.2,270.2 L921.2,270.2 L922.1,270.2 L923.1,270.1 L924.0,270.2 L925.0,270.2 L926.0,270.2 L926.9,270.1 L927.9,270.2 L928.8,270.2 L929.8,270.2 L930.8,270.1 L931.7,270.1 L932.7,270.2 L933.7,270.2 L934.6,270.1 L935.6,270.1 L936.5,270.2 L937.5,270.2 L938.5,270.1 L939.4,270.1 L940.4,270.2 L941.3,270.2 L942.3,270.1 L943.3,270.1 L944.2,270.2 L945.2,270.2 L946.2,270.1 L947.1,270.1 L948.1,270.2 L949.0,270.2 L950.0,270.1 L951.0,270.1 L951.9,270.2 L952.9,270.2 L953.8,270.1 L954.8,270.1 L955.8,270.2 L956.7,270.2 L957.7,270.1 L958.7,270.1 L959.6,270.2 L960.6,270.2 L961.5,270.1 L962.5,270.1 L963.5,270.2 L964.4,270.2 L965.4,270.1 L966.3,270.1 L967.3,270.2 L968.3,270.2 L969.2,270.1 L970.2,270.1 L971.2,270.2 L972.1,270.2 L973.1,270.1 L974.0,270.1 L975.0,270.2" fill="none" stroke="#64748b" stroke-width="1.7" stroke-dasharray="7 5"/>
<path d="M100.0,261.0 L101.0,261.0 L101.9,261.1 L102.9,261.1 L103.8,266.3 L104.8,266.3 L105.8,266.3 L106.7,266.3 L107.7,266.3 L108.7,266.3 L109.6,266.3 L110.6,266.4 L111.5,266.5 L112.5,266.5 L113.5,266.5 L114.4,266.6 L115.4,267.3 L116.3,267.3 L117.3,267.3 L118.3,267.3 L119.2,266.4 L120.2,266.4 L121.2,266.5 L122.1,266.5 L123.1,266.7 L124.0,266.7 L125.0,266.7 L126.0,266.8 L126.9,267.7 L127.9,267.8 L128.8,267.8 L129.8,267.9 L130.8,267.5 L131.7,267.6 L132.7,267.6 L133.7,267.7 L134.6,267.8 L135.6,267.8 L136.5,267.8 L137.5,267.9 L138.5,267.8 L139.4,267.9 L140.4,267.9 L141.3,267.9 L142.3,267.4 L143.3,267.4 L144.2,267.3 L145.2,267.3 L146.2,267.8 L147.1,267.8 L148.1,267.8 L149.0,267.8 L150.0,268.1 L151.0,268.1 L151.9,268.1 L152.9,268.1 L153.8,267.9 L154.8,267.9 L155.8,267.9 L156.7,267.9 L157.7,268.3 L158.7,268.3 L159.6,268.4 L160.6,268.4 L161.5,268.5 L162.5,268.5 L163.5,268.5 L164.4,268.5 L165.4,268.7 L166.3,268.7 L167.3,268.7 L168.3,268.7 L169.2,268.6 L170.2,268.6 L171.2,268.6 L172.1,268.6 L173.1,268.5 L174.0,268.5 L175.0,268.6 L176.0,268.6 L176.9,268.6 L177.9,268.6 L178.8,268.6 L179.8,268.6 L180.8,268.9 L181.7,268.9 L182.7,268.9 L183.7,268.9 L184.6,268.3 L185.6,268.3 L186.5,268.3 L187.5,268.2 L188.5,268.0 L189.4,268.0 L190.4,268.0 L191.3,267.9 L192.3,268.1 L193.3,268.1 L194.2,268.1 L195.2,268.0 L196.2,267.3 L197.1,267.3 L198.1,267.3 L199.0,267.2 L200.0,267.1 L201.0,267.0 L201.9,267.0 L202.9,266.9 L203.8,267.1 L204.8,267.1 L205.8,267.1 L206.7,267.0 L207.7,267.0 L208.7,267.0 L209.6,267.0 L210.6,267.0 L211.5,267.3 L212.5,267.3 L213.5,267.3 L214.4,267.4 L215.4,267.4 L216.3,267.4 L217.3,267.4 L218.3,267.4 L219.2,267.7 L220.2,267.7 L221.2,267.7 L222.1,267.7 L223.1,267.4 L224.0,267.4 L225.0,267.4 L226.0,267.4 L226.9,267.3 L227.9,267.2 L228.8,267.2 L229.8,267.2 L230.8,267.1 L231.7,267.1 L232.7,267.1 L233.7,267.1 L234.6,266.9 L235.6,266.9 L236.5,266.9 L237.5,266.9 L238.5,267.1 L239.4,267.1 L240.4,267.1 L241.3,267.1 L242.3,267.0 L243.3,267.0 L244.2,267.0 L245.2,267.0 L246.2,267.0 L247.1,267.0 L248.1,267.0 L249.0,267.0 L250.0,266.9 L251.0,266.9 L251.9,266.9 L252.9,266.9 L253.8,266.7 L254.8,266.6 L255.8,266.6 L256.7,266.6 L257.7,266.6 L258.7,266.6 L259.6,266.6 L260.6,266.6 L261.5,266.5 L262.5,266.5 L263.5,266.5 L264.4,266.5 L265.4,266.5 L266.3,266.5 L267.3,266.5 L268.3,266.5 L269.2,266.5 L270.2,266.5 L271.2,266.5 L272.1,266.4 L273.1,266.4 L274.0,266.4 L275.0,266.4 L276.0,266.4 L276.9,266.4 L277.9,266.3 L278.8,266.3 L279.8,266.3 L280.8,266.3 L281.7,266.3 L282.7,266.3 L283.7,266.3 L284.6,266.2 L285.6,266.2 L286.5,266.2 L287.5,266.2 L288.5,266.2 L289.4,266.1 L290.4,266.1 L291.3,266.1 L292.3,266.0 L293.3,266.0 L294.2,266.0 L295.2,265.9 L296.2,265.9 L297.1,265.9 L298.1,265.8 L299.0,265.8 L300.0,265.7 L301.0,265.7 L301.9,265.7 L302.9,265.6 L303.8,265.6 L304.8,265.5 L305.8,265.5 L306.7,265.4 L307.7,265.4 L308.7,265.3 L309.6,265.3 L310.6,265.3 L311.5,265.2 L312.5,265.2 L313.5,265.1 L314.4,265.1 L315.4,265.0 L316.3,265.0 L317.3,264.9 L318.3,264.9 L319.2,264.8 L320.2,264.8 L321.2,264.7 L322.1,264.7 L323.1,264.7 L324.0,264.6 L325.0,264.6 L326.0,264.6 L326.9,264.5 L327.9,264.5 L328.8,264.5 L329.8,264.4 L330.8,264.4 L331.7,264.4 L332.7,264.3 L333.7,264.3 L334.6,264.3 L335.6,264.2 L336.5,264.2 L337.5,264.1 L338.5,264.1 L339.4,264.1 L340.4,264.0 L341.3,264.0 L342.3,264.0 L343.3,263.9 L344.2,263.9 L345.2,263.9 L346.2,263.8 L347.1,263.8 L348.1,263.7 L349.0,263.7 L350.0,263.7 L351.0,263.6 L351.9,263.6 L352.9,263.5 L353.8,263.5 L354.8,263.5 L355.8,263.4 L356.7,263.4 L357.7,263.3 L358.7,263.3 L359.6,263.2 L360.6,263.2 L361.5,263.1 L362.5,263.1 L363.5,263.0 L364.4,262.9 L365.4,262.9 L366.3,262.9 L367.3,262.8 L368.3,262.8 L369.2,262.7 L370.2,262.7 L371.2,262.6 L372.1,262.6 L373.1,262.5 L374.0,262.5 L375.0,262.5 L376.0,262.4 L376.9,262.4 L377.9,262.3 L378.8,262.3 L379.8,262.2 L380.8,262.2 L381.7,262.1 L382.7,262.1 L383.7,262.0 L384.6,262.0 L385.6,262.0 L386.5,261.9 L387.5,261.9 L388.5,261.8 L389.4,261.8 L390.4,261.8 L391.3,261.7 L392.3,261.7 L393.3,261.6 L394.2,261.6 L395.2,261.6 L396.2,261.5 L397.1,261.5 L398.1,261.4 L399.0,261.4 L400.0,261.4 L401.0,261.3 L401.9,261.3 L402.9,261.3 L403.8,261.2 L404.8,261.2 L405.8,261.1 L406.7,261.1 L407.7,261.1 L408.7,261.0 L409.6,261.0 L410.6,261.0 L411.5,260.9 L412.5,260.9 L413.5,260.8 L414.4,260.8 L415.4,260.8 L416.3,260.7 L417.3,260.7 L418.3,260.7 L419.2,260.7 L420.2,260.7 L421.2,260.6 L422.1,260.6 L423.1,260.6 L424.0,260.6 L425.0,260.5 L426.0,260.5 L426.9,260.5 L427.9,260.5 L428.8,260.5 L429.8,260.4 L430.8,260.4 L431.7,260.4 L432.7,260.4 L433.7,260.3 L434.6,260.3 L435.6,260.3 L436.5,260.3 L437.5,260.2 L438.5,260.2 L439.4,260.2 L440.4,260.2 L441.3,260.2 L442.3,260.1 L443.3,260.1 L444.2,260.1 L445.2,260.1 L446.2,260.1 L447.1,260.0 L448.1,260.0 L449.0,260.0 L450.0,260.0 L451.0,259.9 L451.9,259.9 L452.9,259.9 L453.8,259.9 L454.8,259.8 L455.8,259.8 L456.7,259.8 L457.7,259.7 L458.7,259.7 L459.6,259.7 L460.6,259.6 L461.5,259.6 L462.5,259.5 L463.5,259.5 L464.4,259.5 L465.4,259.4 L466.3,259.4 L467.3,259.4 L468.3,259.3 L469.2,259.3 L470.2,259.3 L471.2,259.2 L472.1,259.2 L473.1,259.2 L474.0,259.1 L475.0,259.1 L476.0,259.1 L476.9,259.0 L477.9,259.0 L478.8,258.9 L479.8,258.9 L480.8,258.9 L481.7,258.8 L482.7,258.8 L483.7,258.8 L484.6,258.7 L485.6,258.7 L486.5,258.6 L487.5,258.6 L488.5,258.6 L489.4,258.5 L490.4,258.5 L491.3,258.5 L492.3,258.4 L493.3,258.4 L494.2,258.4 L495.2,258.3 L496.2,258.3 L497.1,258.2 L498.1,258.2 L499.0,258.1 L500.0,258.1 L501.0,258.1 L501.9,258.0 L502.9,258.0 L503.8,257.9 L504.8,257.9 L505.8,257.9 L506.7,257.9 L507.7,257.8 L508.7,257.8 L509.6,257.8 L510.6,257.8 L511.5,257.7 L512.5,257.7 L513.5,257.6 L514.4,257.6 L515.4,257.6 L516.3,257.5 L517.3,257.5 L518.3,257.5 L519.2,257.5 L520.2,257.4 L521.2,257.4 L522.1,257.3 L523.1,257.3 L524.0,257.3 L525.0,257.2 L526.0,257.2 L526.9,257.2 L527.9,257.2 L528.8,257.1 L529.8,257.1 L530.8,257.1 L531.7,257.0 L532.7,257.0 L533.7,257.0 L534.6,256.9 L535.6,256.9 L536.5,256.8 L537.5,256.8 L538.5,256.8 L539.4,256.7 L540.4,256.8 L541.3,256.7 L542.3,256.6 L543.3,256.6 L544.2,256.5 L545.2,256.5 L546.2,256.4 L547.1,256.3 L548.1,256.3 L549.0,256.2 L550.0,256.2 L551.0,256.2 L551.9,256.3 L552.9,256.2 L553.8,256.2 L554.8,256.2 L555.8,256.2 L556.7,256.1 L557.7,256.2 L558.7,256.2 L559.6,256.1 L560.6,256.1 L561.5,256.1 L562.5,256.1 L563.5,256.0 L564.4,256.0 L565.4,256.0 L566.3,255.9 L567.3,255.9 L568.3,255.9 L569.2,255.9 L570.2,255.9 L571.2,255.8 L572.1,255.8 L573.1,255.8 L574.0,255.7 L575.0,255.8 L576.0,255.7 L576.9,255.8 L577.9,255.7 L578.8,255.7 L579.8,255.7 L580.8,255.6 L581.7,255.6 L582.7,255.5 L583.7,255.5 L584.6,255.5 L585.6,255.4 L586.5,255.3 L587.5,255.3 L588.5,255.3 L589.4,255.2 L590.4,255.3 L591.3,255.2 L592.3,255.2 L593.3,255.1 L594.2,255.0 L595.2,255.0 L596.2,254.9 L597.1,254.9 L598.1,254.9 L599.0,254.9 L600.0,254.8 L601.0,254.8 L601.9,254.7 L602.9,254.7 L603.8,254.6 L604.8,254.5 L605.8,254.6 L606.7,254.5 L607.7,254.4 L608.7,254.4 L609.6,254.3 L610.6,254.2 L611.5,254.2 L612.5,254.1 L613.5,254.1 L614.4,254.1 L615.4,254.0 L616.3,254.0 L617.3,253.9 L618.3,253.9 L619.2,253.9 L620.2,253.8 L621.2,253.7 L622.1,253.7 L623.1,253.7 L624.0,253.6 L625.0,253.6 L626.0,253.6 L626.9,253.6 L627.9,253.6 L628.8,253.6 L629.8,253.5 L630.8,253.5 L631.7,253.5 L632.7,253.5 L633.7,253.4 L634.6,253.3 L635.6,253.3 L636.5,253.3 L637.5,253.2 L638.5,272.7 L639.4,272.7 L640.4,272.7 L641.3,272.7 L642.3,273.7 L643.3,273.7 L644.2,273.7 L645.2,273.7 L646.2,268.9 L647.1,268.9 L648.1,268.9 L649.0,268.9 L650.0,269.8 L651.0,269.8 L651.9,269.8 L652.9,269.8 L653.8,268.8 L654.8,268.8 L655.8,268.8 L656.7,268.8 L657.7,269.8 L658.7,269.8 L659.6,269.8 L660.6,269.8 L661.5,268.1 L662.5,268.1 L663.5,268.1 L664.4,268.1 L665.4,268.3 L666.3,268.3 L667.3,268.3 L668.3,268.3 L669.2,268.6 L670.2,268.7 L671.2,268.7 L672.1,268.7 L673.1,269.0 L674.0,269.0 L675.0,269.0 L676.0,269.0 L676.9,268.4 L677.9,268.5 L678.8,268.5 L679.8,268.5 L680.8,268.4 L681.7,268.5 L682.7,268.5 L683.7,268.5 L684.6,268.5 L685.6,268.5 L686.5,268.5 L687.5,268.6 L688.5,268.5 L689.4,268.5 L690.4,268.5 L691.3,268.5 L692.3,269.5 L693.3,269.5 L694.2,269.5 L695.2,269.5 L696.2,269.7 L697.1,269.7 L698.1,269.7 L699.0,269.7 L700.0,269.4 L701.0,269.4 L701.9,269.4 L702.9,269.5 L703.8,269.5 L704.8,269.5 L705.8,269.5 L706.7,269.5 L707.7,269.4 L708.7,269.4 L709.6,269.4 L710.6,269.4 L711.5,269.4 L712.5,269.4 L713.5,269.4 L714.4,269.4 L715.4,269.1 L716.3,269.1 L717.3,269.1 L718.3,269.1 L719.2,268.6 L720.2,268.6 L721.2,268.6 L722.1,268.6 L723.1,267.9 L724.0,267.9 L725.0,267.9 L726.0,267.9 L726.9,267.7 L727.9,267.7 L728.8,267.7 L729.8,267.7 L730.8,268.0 L731.7,268.0 L732.7,268.0 L733.7,268.1 L734.6,268.1 L735.6,268.1 L736.5,268.1 L737.5,268.1 L738.5,267.9 L739.4,267.9 L740.4,267.9 L741.3,267.9 L742.3,267.5 L743.3,267.5 L744.2,267.5 L745.2,267.5 L746.2,267.5 L747.1,267.5 L748.1,267.5 L749.0,267.5 L750.0,267.5 L751.0,267.5 L751.9,267.5 L752.9,267.5 L753.8,267.4 L754.8,267.4 L755.8,267.4 L756.7,267.4 L757.7,267.2 L758.7,267.2 L759.6,267.2 L760.6,267.2 L761.5,267.4 L762.5,267.4 L763.5,267.4 L764.4,267.4 L765.4,267.6 L766.3,267.6 L767.3,267.7 L768.3,267.7 L769.2,267.8 L770.2,267.8 L771.2,267.8 L772.1,267.8 L773.1,267.4 L774.0,267.4 L775.0,267.4 L776.0,267.4 L776.9,267.1 L777.9,267.1 L778.8,267.1 L779.8,267.1 L780.8,266.7 L781.7,266.7 L782.7,266.7 L783.7,266.7 L784.6,266.9 L785.6,266.9 L786.5,266.9 L787.5,266.8 L788.5,266.7 L789.4,266.7 L790.4,266.7 L791.3,266.6 L792.3,266.9 L793.3,266.8 L794.2,266.8 L795.2,266.8 L796.2,266.7 L797.1,266.7 L798.1,266.7 L799.0,266.6 L800.0,266.4 L801.0,266.3 L801.9,266.3 L802.9,266.3 L803.8,266.3 L804.8,266.3 L805.8,266.2 L806.7,266.2 L807.7,266.5 L808.7,266.5 L809.6,266.5 L810.6,266.5 L811.5,266.3 L812.5,266.3 L813.5,266.3 L814.4,266.2 L815.4,266.6 L816.3,266.6 L817.3,266.6 L818.3,266.6 L819.2,266.7 L820.2,266.7 L821.2,266.7 L822.1,266.7 L823.1,266.7 L824.0,266.7 L825.0,266.7 L826.0,266.7 L826.9,266.8 L827.9,266.8 L828.8,266.8 L829.8,266.8 L830.8,267.0 L831.7,267.0 L832.7,267.0 L833.7,267.0 L834.6,267.1 L835.6,267.1 L836.5,267.2 L837.5,267.2 L838.5,266.9 L839.4,266.9 L840.4,266.9 L841.3,266.9 L842.3,266.9 L843.3,266.9 L844.2,266.9 L845.2,266.9 L846.2,266.9 L847.1,266.9 L848.1,266.9 L849.0,266.9 L850.0,266.6 L851.0,266.6 L851.9,266.6 L852.9,266.6 L853.8,266.4 L854.8,266.4 L855.8,266.4 L856.7,266.4 L857.7,266.4 L858.7,266.4 L859.6,266.4 L860.6,266.4 L861.5,266.6 L862.5,266.6 L863.5,266.6 L864.4,266.7 L865.4,267.0 L866.3,267.0 L867.3,267.0 L868.3,267.1 L869.2,266.8 L870.2,266.8 L871.2,266.8 L872.1,266.8 L873.1,267.0 L874.0,267.0 L875.0,267.1 L876.0,267.1 L876.9,267.1 L877.9,267.1 L878.8,267.1 L879.8,267.1 L880.8,267.2 L881.7,267.2 L882.7,267.2 L883.7,267.3 L884.6,267.2 L885.6,267.3 L886.5,267.3 L887.5,267.3 L888.5,267.3 L889.4,267.3 L890.4,267.3 L891.3,267.3 L892.3,267.3 L893.3,267.3 L894.2,267.3 L895.2,267.3 L896.2,267.3 L897.1,267.3 L898.1,267.3 L899.0,267.3 L900.0,267.2 L901.0,267.2 L901.9,267.2 L902.9,267.2 L903.8,267.3 L904.8,267.3 L905.8,267.3 L906.7,267.3 L907.7,267.4 L908.7,267.4 L909.6,267.4 L910.6,267.4 L911.5,267.8 L912.5,267.8 L913.5,267.8 L914.4,267.8 L915.4,267.8 L916.3,267.8 L917.3,267.8 L918.3,267.8 L919.2,267.5 L920.2,267.6 L921.2,267.6 L922.1,267.6 L923.1,267.7 L924.0,267.8 L925.0,267.8 L926.0,267.8 L926.9,267.7 L927.9,267.7 L928.8,267.7 L929.8,267.7 L930.8,267.6 L931.7,267.6 L932.7,267.6 L933.7,267.6 L934.6,267.4 L935.6,267.4 L936.5,267.4 L937.5,267.4 L938.5,267.0 L939.4,267.0 L940.4,267.0 L941.3,267.0 L942.3,267.0 L943.3,267.0 L944.2,267.0 L945.2,266.9 L946.2,267.0 L947.1,267.0 L948.1,267.0 L949.0,266.9 L950.0,267.1 L951.0,267.1 L951.9,267.1 L952.9,267.1 L953.8,267.4 L954.8,267.3 L955.8,267.3 L956.7,267.3 L957.7,267.6 L958.7,267.6 L959.6,267.6 L960.6,267.5 L961.5,267.7 L962.5,267.7 L963.5,267.7 L964.4,267.7 L965.4,267.9 L966.3,267.9 L967.3,267.9 L968.3,267.9 L969.2,267.7 L970.2,267.7 L971.2,267.7 L972.1,267.7 L973.1,267.2 L974.0,267.2 L975.0,267.2" fill="none" stroke="#2563eb" stroke-width="2.3"/>
<text x="265.8" y="168" font-family="Arial" font-size="13" font-weight="700" fill="#7c3aed">GPS unavailable</text>
<text x="646.5" y="168" font-family="Arial" font-size="13" fill="#059669">reacquired</text>
<text x="110" y="378" font-family="Arial" font-size="12" fill="#2563eb">horizontal error</text>
<text x="225" y="378" font-family="Arial" font-size="12" fill="#64748b">dashed: +/-3 sigma</text>
<text x="100" y="519" font-family="Arial" font-size="19" font-weight="700" fill="#0f172a">Radar-altimeter NIS after a persistent +12 m step</text>
<rect x="100" y="535" width="875" height="245" fill="#ffffff" stroke="#cbd5e1"/>
<rect x="327.0" y="535" width="648.0" height="245" fill="#fee2e2" opacity="0.55"/>
<line x1="100" y1="640.2" x2="975" y2="640.2" stroke="#dc2626" stroke-width="1.8" stroke-dasharray="7 5"/>
<path d="M100.0,706.2 L100.9,706.2 L101.9,670.9 L102.8,670.9 L103.8,744.6 L104.7,744.6 L105.7,691.0 L106.6,691.0 L107.6,693.5 L108.5,693.5 L109.5,780.0 L110.4,780.0 L111.4,706.1 L112.3,706.1 L113.2,714.0 L114.2,714.0 L115.1,689.0 L116.1,689.0 L117.0,687.0 L118.0,687.0 L118.9,683.3 L119.9,683.3 L120.8,679.9 L121.8,679.9 L122.7,746.0 L123.6,746.0 L124.6,780.0 L125.5,780.0 L126.5,674.6 L127.4,674.6 L128.4,748.8 L129.3,748.8 L130.3,695.8 L131.2,695.8 L132.2,660.4 L133.1,660.4 L134.1,670.7 L135.0,670.7 L135.9,780.0 L136.9,780.0 L137.8,661.2 L138.8,661.2 L139.7,663.3 L140.7,663.3 L141.6,672.2 L142.6,672.2 L143.5,690.2 L144.5,690.2 L145.4,697.1 L146.4,697.1 L147.3,637.2 L148.2,637.2 L149.2,666.5 L150.1,666.5 L151.1,721.4 L152.0,721.4 L153.0,663.2 L153.9,663.2 L154.9,736.8 L155.8,736.8 L156.8,677.8 L157.7,677.8 L158.6,780.0 L159.6,780.0 L160.5,689.0 L161.5,689.0 L162.4,692.5 L163.4,692.5 L164.3,720.6 L165.3,720.6 L166.2,770.9 L167.2,770.9 L168.1,709.4 L169.1,709.4 L170.0,728.2 L170.9,728.2 L171.9,672.0 L172.8,672.0 L173.8,731.9 L174.7,731.9 L175.7,687.7 L176.6,687.7 L177.6,712.5 L178.5,712.5 L179.5,726.1 L180.4,726.1 L181.4,677.3 L182.3,677.3 L183.2,668.5 L184.2,668.5 L185.1,715.5 L186.1,715.5 L187.0,780.0 L188.0,780.0 L188.9,780.0 L189.9,780.0 L190.8,656.9 L191.8,656.9 L192.7,775.9 L193.6,775.9 L194.6,690.3 L195.5,690.3 L196.5,780.0 L197.4,780.0 L198.4,757.6 L199.3,757.6 L200.3,683.3 L201.2,683.3 L202.2,680.4 L203.1,680.4 L204.1,654.4 L205.0,654.4 L205.9,646.3 L206.9,646.3 L207.8,756.3 L208.8,756.3 L209.7,780.0 L210.7,780.0 L211.6,711.8 L212.6,711.8 L213.5,767.9 L214.5,767.9 L215.4,703.4 L216.4,703.4 L217.3,653.7 L218.2,653.7 L219.2,660.2 L220.1,660.2 L221.1,713.4 L222.0,713.4 L223.0,750.1 L223.9,750.1 L224.9,710.7 L225.8,710.7 L226.8,707.1 L227.7,707.1 L228.6,657.7 L229.6,657.7 L230.5,734.2 L231.5,734.2 L232.4,745.5 L233.4,745.5 L234.3,712.4 L235.3,712.4 L236.2,740.5 L237.2,740.5 L238.1,651.9 L239.1,651.9 L240.0,776.8 L240.9,776.8 L241.9,695.2 L242.8,695.2 L243.8,652.6 L244.7,652.6 L245.7,699.1 L246.6,699.1 L247.6,700.5 L248.5,700.5 L249.5,674.6 L250.4,674.6 L251.4,660.5 L252.3,660.5 L253.2,673.1 L254.2,673.1 L255.1,704.1 L256.1,704.1 L257.0,662.0 L258.0,662.0 L258.9,780.0 L259.9,780.0 L260.8,776.6 L261.8,776.6 L262.7,763.5 L263.6,763.5 L264.6,750.9 L265.5,750.9 L266.5,698.5 L267.4,698.5 L268.4,656.9 L269.3,656.9 L270.3,714.8 L271.2,714.8 L272.2,675.6 L273.1,675.6 L274.1,659.6 L275.0,659.6 L275.9,733.9 L276.9,733.9 L277.8,697.3 L278.8,697.3 L279.7,723.2 L280.7,723.2 L281.6,707.1 L282.6,707.1 L283.5,722.3 L284.5,722.3 L285.4,759.3 L286.4,759.3 L287.3,674.6 L288.2,674.6 L289.2,697.8 L290.1,697.8 L291.1,703.9 L292.0,703.9 L293.0,753.9 L293.9,753.9 L294.9,663.4 L295.8,663.4 L296.8,751.6 L297.7,751.6 L298.6,700.1 L299.6,700.1 L300.5,764.2 L301.5,764.2 L302.4,715.9 L303.4,715.9 L304.3,665.2 L305.3,665.2 L306.2,667.1 L307.2,667.1 L308.1,695.6 L309.1,695.6 L310.0,688.5 L310.9,688.5 L311.9,666.2 L312.8,666.2 L313.8,746.4 L314.7,746.4 L315.7,780.0 L316.6,780.0 L317.6,689.5 L318.5,689.5 L319.5,692.5 L320.4,692.5 L321.4,681.4 L322.3,681.4 L323.2,698.3 L324.2,698.3 L325.1,755.8 L326.1,755.8 L327.0,540.1 L328.0,540.1 L328.9,542.6 L329.9,542.6 L330.8,539.2 L331.8,539.2 L332.7,541.9 L333.6,541.9 L334.6,543.2 L335.5,543.2 L336.5,541.3 L337.4,541.3 L338.4,541.4 L339.3,541.4 L340.3,540.3 L341.2,540.3 L342.2,543.9 L343.1,543.9 L344.1,541.8 L345.0,541.8 L345.9,540.9 L346.9,540.9 L347.8,540.8 L348.8,540.8 L349.7,539.7 L350.7,539.7 L351.6,539.1 L352.6,539.1 L353.5,543.8 L354.5,543.8 L355.4,541.8 L356.4,541.8 L357.3,542.0 L358.2,542.0 L359.2,539.7 L360.1,539.7 L361.1,542.4 L362.0,542.4 L363.0,543.7 L363.9,543.7 L364.9,541.2 L365.8,541.2 L366.8,544.5 L367.7,544.5 L368.6,541.4 L369.6,541.4 L370.5,540.1 L371.5,540.1 L372.4,543.3 L373.4,543.3 L374.3,542.2 L375.3,542.2 L376.2,542.1 L377.2,542.1 L378.1,540.8 L379.1,540.8 L380.0,542.4 L380.9,542.4 L381.9,541.6 L382.8,541.6 L383.8,541.5 L384.7,541.5 L385.7,542.2 L386.6,542.2 L387.6,542.6 L388.5,542.6 L389.5,542.6 L390.4,542.6 L391.4,543.7 L392.3,543.7 L393.2,540.3 L394.2,540.3 L395.1,542.0 L396.1,542.0 L397.0,541.9 L398.0,541.9 L398.9,542.4 L399.9,542.4 L400.8,542.3 L401.8,542.3 L402.7,543.5 L403.6,543.5 L404.6,542.1 L405.5,542.1 L406.5,544.5 L407.4,544.5 L408.4,543.1 L409.3,543.1 L410.3,543.9 L411.2,543.9 L412.2,542.7 L413.1,542.7 L414.1,543.7 L415.0,543.7 L415.9,542.2 L416.9,542.2 L417.8,542.4 L418.8,542.4 L419.7,542.6 L420.7,542.6 L421.6,544.8 L422.6,544.8 L423.5,542.2 L424.5,542.2 L425.4,541.8 L426.4,541.8 L427.3,541.5 L428.2,541.5 L429.2,543.7 L430.1,543.7 L431.1,542.3 L432.0,542.3 L433.0,544.2 L433.9,544.2 L434.9,543.5 L435.8,543.5 L436.8,545.4 L437.7,545.4 L438.6,544.5 L439.6,544.5 L440.5,543.2 L441.5,543.2 L442.4,540.7 L443.4,540.7 L444.3,540.9 L445.3,540.9 L446.2,543.1 L447.2,543.1 L448.1,543.1 L449.1,543.1 L450.0,544.7 L450.9,544.7 L451.9,544.0 L452.8,544.0 L453.8,542.4 L454.7,542.4 L455.7,542.8 L456.6,542.8 L457.6,543.3 L458.5,543.3 L459.5,542.8 L460.4,542.8 L461.4,543.6 L462.3,543.6 L463.2,541.5 L464.2,541.5 L465.1,541.7 L466.1,541.7 L467.0,543.0 L468.0,543.0 L468.9,543.1 L469.9,543.1 L470.8,542.3 L471.8,542.3 L472.7,541.8 L473.6,541.8 L474.6,542.3 L475.5,542.3 L476.5,544.8 L477.4,544.8 L478.4,542.7 L479.3,542.7 L480.3,542.8 L481.2,542.8 L482.2,542.9 L483.1,542.9 L484.1,542.6 L485.0,542.6 L485.9,543.3 L486.9,543.3 L487.8,544.7 L488.8,544.7 L489.7,543.5 L490.7,543.5 L491.6,543.3 L492.6,543.3 L493.5,543.6 L494.5,543.6 L495.4,540.9 L496.4,540.9 L497.3,542.0 L498.2,542.0 L499.2,542.9 L500.1,542.9 L501.1,542.1 L502.0,542.1 L503.0,543.5 L503.9,543.5 L504.9,542.8 L505.8,542.8 L506.8,543.3 L507.7,543.3 L508.6,543.7 L509.6,543.7 L510.5,545.2 L511.5,545.2 L512.4,541.0 L513.4,541.0 L514.3,541.3 L515.3,541.3 L516.2,543.3 L517.2,543.3 L518.1,542.2 L519.1,542.2 L520.0,541.9 L520.9,541.9 L521.9,541.3 L522.8,541.3 L523.8,541.1 L524.7,541.1 L525.7,544.0 L526.6,544.0 L527.6,540.2 L528.5,540.2 L529.5,541.0 L530.4,541.0 L531.4,541.8 L532.3,541.8 L533.2,543.4 L534.2,543.4 L535.1,543.7 L536.1,543.7 L537.0,544.8 L538.0,544.8 L538.9,543.0 L539.9,543.0 L540.8,540.7 L541.8,540.7 L542.7,543.1 L543.6,543.1 L544.6,543.2 L545.5,543.2 L546.5,542.9 L547.4,542.9 L548.4,543.2 L549.3,543.2 L550.3,544.1 L551.2,544.1 L552.2,541.8 L553.1,541.8 L554.1,543.3 L555.0,543.3 L555.9,540.7 L556.9,540.7 L557.8,544.4 L558.8,544.4 L559.7,544.5 L560.7,544.5 L561.6,541.7 L562.6,541.7 L563.5,544.2 L564.5,544.2 L565.4,542.1 L566.4,542.1 L567.3,544.2 L568.2,544.2 L569.2,544.1 L570.1,544.1 L571.1,541.1 L572.0,541.1 L573.0,542.1 L573.9,542.1 L574.9,544.6 L575.8,544.6 L576.8,543.9 L577.7,543.9 L578.6,541.7 L579.6,541.7 L580.5,543.3 L581.5,543.3 L582.4,543.0 L583.4,543.0 L584.3,543.5 L585.3,543.5 L586.2,544.3 L587.2,544.3 L588.1,544.0 L589.1,544.0 L590.0,542.3 L590.9,542.3 L591.9,545.0 L592.8,545.0 L593.8,545.6 L594.7,545.6 L595.7,543.2 L596.6,543.2 L597.6,543.1 L598.5,543.1 L599.5,542.2 L600.4,542.2 L601.4,546.4 L602.3,546.4 L603.2,544.2 L604.2,544.2 L605.1,541.5 L606.1,541.5 L607.0,543.9 L608.0,543.9 L608.9,541.1 L609.9,541.1 L610.8,542.9 L611.8,542.9 L612.7,542.8 L613.6,542.8 L614.6,544.7 L615.5,544.7 L616.5,542.7 L617.4,542.7 L618.4,543.9 L619.3,543.9 L620.3,544.3 L621.2,544.3 L622.2,542.5 L623.1,542.5 L624.1,542.3 L625.0,542.3 L625.9,544.1 L626.9,544.1 L627.8,543.6 L628.8,543.6 L629.7,544.6 L630.7,544.6 L631.6,540.8 L632.6,540.8 L633.5,542.7 L634.5,542.7 L635.4,541.9 L636.4,541.9 L637.3,543.4 L638.2,543.4 L639.2,543.3 L640.1,543.3 L641.1,544.8 L642.0,544.8 L643.0,544.2 L643.9,544.2 L644.9,545.6 L645.8,545.6 L646.8,542.1 L647.7,542.1 L648.6,541.8 L649.6,541.8 L650.5,544.4 L651.5,544.4 L652.4,544.4 L653.4,544.4 L654.3,542.0 L655.3,542.0 L656.2,540.5 L657.2,540.5 L658.1,544.2 L659.1,544.2 L660.0,542.3 L660.9,542.3 L661.9,543.6 L662.8,543.6 L663.8,542.6 L664.7,542.6 L665.7,544.6 L666.6,544.6 L667.6,540.7 L668.5,540.7 L669.5,543.8 L670.4,543.8 L671.4,544.4 L672.3,544.4 L673.2,542.5 L674.2,542.5 L675.1,542.1 L676.1,542.1 L677.0,544.0 L678.0,544.0 L678.9,542.0 L679.9,542.0 L680.8,541.9 L681.8,541.9 L682.7,540.5 L683.6,540.5 L684.6,542.0 L685.5,542.0 L686.5,542.3 L687.4,542.3 L688.4,540.5 L689.3,540.5 L690.3,544.1 L691.2,544.1 L692.2,542.8 L693.1,542.8 L694.1,540.7 L695.0,540.7 L695.9,541.2 L696.9,541.2 L697.8,544.1 L698.8,544.1 L699.7,543.1 L700.7,543.1 L701.6,544.2 L702.6,544.2 L703.5,542.3 L704.5,542.3 L705.4,542.7 L706.4,542.7 L707.3,542.1 L708.2,542.1 L709.2,545.0 L710.1,545.0 L711.1,544.8 L712.0,544.8 L713.0,543.0 L713.9,543.0 L714.9,544.1 L715.8,544.1 L716.8,542.1 L717.7,542.1 L718.6,543.1 L719.6,543.1 L720.5,544.6 L721.5,544.6 L722.4,542.4 L723.4,542.4 L724.3,541.9 L725.3,541.9 L726.2,542.4 L727.2,542.4 L728.1,542.0 L729.1,542.0 L730.0,542.8 L730.9,542.8 L731.9,543.6 L732.8,543.6 L733.8,540.5 L734.7,540.5 L735.7,541.8 L736.6,541.8 L737.6,543.1 L738.5,543.1 L739.5,541.3 L740.4,541.3 L741.4,543.0 L742.3,543.0 L743.2,542.9 L744.2,542.9 L745.1,544.2 L746.1,544.2 L747.0,541.4 L748.0,541.4 L748.9,543.4 L749.9,543.4 L750.8,541.8 L751.8,541.8 L752.7,540.8 L753.6,540.8 L754.6,545.2 L755.5,545.2 L756.5,541.8 L757.4,541.8 L758.4,542.8 L759.3,542.8 L760.3,542.5 L761.2,542.5 L762.2,540.9 L763.1,540.9 L764.1,541.9 L765.0,541.9 L765.9,543.2 L766.9,543.2 L767.8,542.3 L768.8,542.3 L769.7,543.9 L770.7,543.9 L771.6,542.8 L772.6,542.8 L773.5,542.2 L774.5,542.2 L775.4,541.0 L776.4,541.0 L777.3,540.2 L778.2,540.2 L779.2,543.0 L780.1,543.0 L781.1,542.5 L782.0,542.5 L783.0,544.1 L783.9,544.1 L784.9,544.2 L785.8,544.2 L786.8,543.1 L787.7,543.1 L788.6,540.7 L789.6,540.7 L790.5,542.8 L791.5,542.8 L792.4,541.8 L793.4,541.8 L794.3,544.5 L795.3,544.5 L796.2,543.1 L797.2,543.1 L798.1,541.6 L799.1,541.6 L800.0,540.4 L800.9,540.4 L801.9,542.3 L802.8,542.3 L803.8,542.2 L804.7,542.2 L805.7,542.1 L806.6,542.1 L807.6,543.9 L808.5,543.9 L809.5,543.0 L810.4,543.0 L811.4,541.6 L812.3,541.6 L813.2,542.1 L814.2,542.1 L815.1,542.4 L816.1,542.4 L817.0,543.2 L818.0,543.2 L818.9,542.4 L819.9,542.4 L820.8,541.5 L821.8,541.5 L822.7,542.8 L823.6,542.8 L824.6,544.2 L825.5,544.2 L826.5,541.9 L827.4,541.9 L828.4,542.1 L829.3,542.1 L830.3,543.0 L831.2,543.0 L832.2,543.6 L833.1,543.6 L834.1,543.5 L835.0,543.5 L835.9,542.6 L836.9,542.6 L837.8,542.6 L838.8,542.6 L839.7,544.6 L840.7,544.6 L841.6,542.4 L842.6,542.4 L843.5,545.1 L844.5,545.1 L845.4,543.1 L846.4,543.1 L847.3,543.6 L848.2,543.6 L849.2,540.5 L850.1,540.5 L851.1,544.2 L852.0,544.2 L853.0,542.7 L853.9,542.7 L854.9,542.0 L855.8,542.0 L856.8,541.2 L857.7,541.2 L858.6,543.2 L859.6,543.2 L860.5,544.7 L861.5,544.7 L862.4,543.0 L863.4,543.0 L864.3,542.4 L865.3,542.4 L866.2,541.8 L867.2,541.8 L868.1,541.3 L869.1,541.3 L870.0,542.8 L870.9,542.8 L871.9,544.1 L872.8,544.1 L873.8,543.5 L874.7,543.5 L875.7,543.4 L876.6,543.4 L877.6,542.4 L878.5,542.4 L879.5,543.8 L880.4,543.8 L881.4,542.4 L882.3,542.4 L883.2,542.9 L884.2,542.9 L885.1,540.6 L886.1,540.6 L887.0,544.0 L888.0,544.0 L888.9,545.0 L889.9,545.0 L890.8,543.6 L891.8,543.6 L892.7,545.0 L893.6,545.0 L894.6,542.5 L895.5,542.5 L896.5,542.6 L897.4,542.6 L898.4,542.9 L899.3,542.9 L900.3,542.6 L901.2,542.6 L902.2,543.7 L903.1,543.7 L904.1,542.2 L905.0,542.2 L905.9,542.7 L906.9,542.7 L907.8,543.9 L908.8,543.9 L909.7,541.0 L910.7,541.0 L911.6,541.7 L912.6,541.7 L913.5,543.5 L914.5,543.5 L915.4,544.3 L916.4,544.3 L917.3,541.2 L918.2,541.2 L919.2,541.7 L920.1,541.7 L921.1,542.6 L922.0,542.6 L923.0,542.7 L923.9,542.7 L924.9,542.2 L925.8,542.2 L926.8,541.0 L927.7,541.0 L928.6,540.6 L929.6,540.6 L930.5,543.4 L931.5,543.4 L932.4,542.5 L933.4,542.5 L934.3,544.1 L935.3,544.1 L936.2,543.1 L937.2,543.1 L938.1,544.8 L939.1,544.8 L940.0,542.8 L940.9,542.8 L941.9,542.7 L942.8,542.7 L943.8,543.3 L944.7,543.3 L945.7,541.6 L946.6,541.6 L947.6,543.6 L948.5,543.6 L949.5,542.8 L950.4,542.8 L951.4,542.0 L952.3,542.0 L953.2,542.2 L954.2,542.2 L955.1,542.5 L956.1,542.5 L957.0,541.4 L958.0,541.4 L958.9,542.5 L959.9,542.5 L960.8,542.9 L961.8,542.9 L962.7,542.1 L963.6,542.1 L964.6,543.1 L965.5,543.1 L966.5,543.2 L967.4,543.2 L968.4,541.4 L969.3,541.4 L970.3,544.1 L971.2,544.1 L972.2,541.1 L973.1,541.1 L974.1,541.9 L975.0,541.9" fill="none" stroke="#059669" stroke-width="2.0"/>
<line x1="327.0" y1="535" x2="327.0" y2="780" stroke="#dc2626" stroke-width="1.6"/>
<text x="337.0" y="559" font-family="Arial" font-size="13" font-weight="700" fill="#dc2626">bias injected</text>
<text x="870" y="632.2" font-family="Arial" font-size="12" fill="#dc2626">NIS gate = 9</text>
<text x="55" y="547.3" font-family="Arial" font-size="12" fill="#64748b">10^3</text>
<text x="62" y="689.3" font-family="Arial" font-size="12" fill="#64748b">1</text>
<text x="49" y="784.0" font-family="Arial" font-size="12" fill="#64748b">10^-2</text>
<text x="515.5" y="814" font-family="Arial" font-size="14" fill="#334155">time (s)</text>
<text x="1040" y="137" font-family="Arial" font-size="20" font-weight="700" fill="#0f172a">GPS dropout physics</text>
<text x="1040" y="176" font-family="Arial" font-size="14" font-weight="400" fill="#334155">Without GPS, horizontal accelerometer-bias</text>
<text x="1040" y="197" font-family="Arial" font-size="14" font-weight="400" fill="#334155">uncertainty is weakly observable. Its velocity</text>
<text x="1040" y="218" font-family="Arial" font-size="14" font-weight="400" fill="#334155">effect grows with time, and its position effect</text>
<text x="1040" y="239" font-family="Arial" font-size="14" font-weight="400" fill="#334155">grows approximately with time squared.</text>
<text x="1040" y="260" font-family="Arial" font-size="14" font-weight="400" fill="#334155"></text>
<text x="1040" y="281" font-family="Arial" font-size="14" font-weight="400" fill="#334155">1-sigma x uncertainty: 0.14 m at 8 s</text>
<text x="1040" y="302" font-family="Arial" font-size="14" font-weight="400" fill="#334155">to 0.70 m at 28 s. Four seconds</text>
<text x="1040" y="323" font-family="Arial" font-size="14" font-weight="400" fill="#334155">after reacquisition it is 0.17 m.</text>
<text x="1040" y="344" font-family="Arial" font-size="14" font-weight="400" fill="#334155"></text>
<text x="1040" y="365" font-family="Arial" font-size="14" font-weight="400" fill="#334155">Radar continues to observe altitude and the</text>
<text x="1040" y="386" font-family="Arial" font-size="14" font-weight="400" fill="#334155">attitude aid constrains gyro-bias-driven frame</text>
<text x="1040" y="407" font-family="Arial" font-size="14" font-weight="400" fill="#334155">rotation, so the outage is not full dead reckoning.</text>
<text x="1040" y="520" font-family="Arial" font-size="20" font-weight="700" fill="#0f172a">Radar fault physics</text>
<text x="1040" y="559" font-family="Arial" font-size="14" font-weight="400" fill="#334155">NIS compares the squared altitude residual</text>
<text x="1040" y="580" font-family="Arial" font-size="14" font-weight="400" fill="#334155">with the predicted innovation variance S.</text>
<text x="1040" y="601" font-family="Arial" font-size="14" font-weight="400" fill="#334155">The 12 m step is many standard deviations</text>
<text x="1040" y="622" font-family="Arial" font-size="14" font-weight="400" fill="#334155">larger than the modeled radar uncertainty,</text>
<text x="1040" y="643" font-family="Arial" font-size="14" font-weight="400" fill="#334155">so NIS rises by orders of magnitude above</text>
<text x="1040" y="664" font-family="Arial" font-size="14" font-weight="400" fill="#334155">the scalar gate and the update is omitted.</text>
<text x="1040" y="685" font-family="Arial" font-size="14" font-weight="400" fill="#334155"></text>
<text x="1040" y="706" font-family="Arial" font-size="14" font-weight="400" fill="#334155">The filter rejects 344 radar updates. GPS</text>
<text x="1040" y="727" font-family="Arial" font-size="14" font-weight="400" fill="#334155">maintains altitude observability; this is why</text>
<text x="1040" y="748" font-family="Arial" font-size="14" font-weight="400" fill="#334155">the fault remains survivable in this scenario.</text>
</svg>
