<svg xmlns="http://www.w3.org/2000/svg" width="1040" height="830" viewBox="0 0 1040 830" role="img">
<title>Navigation estimation and closed-loop robustness comparison</title>
<rect width="100%" height="100%" fill="#f8fafc"/>
<text x="52" y="42" font-family="Arial" font-size="24" font-weight="700" fill="#0f172a">Navigation Estimation in the Landing Loop</text>
<text x="52" y="67" font-family="Arial" font-size="14" fill="#475569">Alpha-beta state estimates drive corridor guidance through flight-like throttle and TVC actuators.</text>
<text x="92" y="100" font-family="Arial" font-size="16" font-weight="700" fill="#0f172a">Position estimation error</text>
<rect x="92" y="112" width="904" height="118" fill="#ffffff" stroke="#cbd5e1"/>
<line x1="92" y1="171.0" x2="996" y2="171.0" stroke="#94a3b8"/>
<text x="24" y="171.0" font-family="Arial" font-size="13" fill="#334155" transform="rotate(-90 24,171.0)">m</text>
<text x="36" y="125" font-family="Arial" font-size="12" fill="#64748b">1.48</text>
<text x="32" y="230" font-family="Arial" font-size="12" fill="#64748b">-1.48</text>
<path d="M92.0,204.4 L93.0,204.2 L94.0,174.1 L95.1,173.8 L96.1,172.7 L97.1,172.8 L98.1,161.5 L99.2,161.5 L100.2,154.2 L101.2,154.2 L102.2,168.6 L103.3,169.0 L104.3,150.0 L105.3,149.9 L106.3,155.7 L107.4,155.9 L108.4,164.9 L109.4,165.0 L110.4,163.2 L111.5,163.0 L112.5,161.0 L113.5,160.9 L114.5,162.1 L115.6,161.9 L116.6,168.1 L117.6,168.4 L118.6,170.8 L119.7,171.1 L120.7,164.3 L121.7,164.4 L122.7,168.0 L123.8,168.3 L124.8,155.8 L125.8,155.7 L126.8,167.5 L127.9,167.5 L128.9,165.7 L129.9,165.6 L130.9,156.3 L132.0,156.1 L133.0,153.4 L134.0,153.1 L135.0,164.7 L136.1,164.6 L137.1,164.5 L138.1,164.4 L139.1,171.9 L140.2,171.9 L141.2,165.4 L142.2,165.5 L143.2,159.6 L144.3,159.4 L145.3,151.0 L146.3,151.1 L147.3,153.4 L148.4,153.4 L149.4,138.3 L150.4,138.3 L151.4,172.8 L152.5,173.1 L153.5,164.9 L154.5,164.9 L155.5,170.8 L156.6,170.9 L157.6,189.1 L158.6,189.4 L159.6,184.0 L160.7,184.1 L161.7,167.3 L162.7,167.3 L163.7,163.7 L164.8,163.9 L165.8,166.4 L166.8,166.5 L167.8,184.3 L168.9,184.5 L169.9,150.1 L170.9,149.9 L171.9,184.0 L173.0,184.3 L174.0,140.4 L175.0,140.4 L176.0,178.6 L177.1,179.0 L178.1,178.5 L179.1,178.8 L180.1,203.5 L181.2,203.7 L182.2,169.9 L183.2,169.6 L184.2,175.0 L185.3,174.9 L186.3,173.2 L187.3,173.1 L188.3,189.3 L189.4,189.5 L190.4,155.8 L191.4,155.6 L192.4,124.9 L193.5,124.6 L194.5,144.0 L195.5,144.0 L196.5,161.7 L197.6,161.8 L198.6,152.9 L199.6,152.9 L200.6,160.0 L201.7,160.2 L202.7,163.4 L203.7,163.5 L204.7,160.7 L205.8,161.0 L206.8,169.3 L207.8,169.6 L208.8,171.1 L209.9,171.3 L210.9,169.9 L211.9,169.8 L212.9,167.9 L214.0,167.7 L215.0,171.6 L216.0,171.4 L217.0,170.8 L218.1,170.8 L219.1,170.8 L220.1,170.6 L221.1,181.6 L222.2,181.4 L223.2,170.8 L224.2,170.8 L225.2,174.4 L226.3,174.7 L227.3,157.6 L228.3,157.5 L229.3,159.7 L230.4,159.4 L231.4,163.1 L232.4,163.0 L233.4,182.9 L234.5,183.1 L235.5,164.0 L236.5,163.9 L237.5,157.0 L238.6,157.0 L239.6,151.5 L240.6,151.4 L241.6,141.3 L242.7,141.3 L243.7,132.8 L244.7,132.8 L245.7,149.3 L246.8,149.4 L247.8,158.1 L248.8,158.2 L249.8,167.9 L250.9,168.1 L251.9,180.3 L252.9,180.4 L253.9,171.3 L255.0,171.3 L256.0,164.1 L257.0,163.7 L258.0,172.5 L259.1,172.3 L260.1,161.9 L261.1,161.6 L262.1,163.3 L263.2,163.2 L264.2,161.2 L265.2,161.0 L266.2,133.9 L267.3,133.3 L268.3,151.5 L269.3,151.4 L270.3,164.6 L271.4,164.6 L272.4,187.6 L273.4,187.8 L274.4,200.1 L275.5,200.2 L276.5,177.6 L277.5,177.3 L278.5,162.0 L279.6,161.6 L280.6,150.2 L281.6,150.0 L282.6,149.9 L283.7,149.7 L284.7,178.0 L285.7,177.8 L286.7,155.9 L287.8,155.5 L288.8,161.9 L289.8,161.7 L290.8,176.1 L291.9,175.8 L292.9,146.4 L293.9,146.2 L294.9,169.8 L296.0,169.8 L297.0,171.6 L298.0,171.6 L299.0,171.2 L300.1,171.1 L301.1,171.7 L302.1,171.7 L303.1,168.9 L304.2,168.7 L305.2,141.5 L306.2,141.1 L307.2,174.2 L308.3,174.2 L309.3,171.0 L310.3,171.1 L311.3,178.6 L312.4,178.5 L313.4,184.6 L314.4,184.6 L315.4,172.6 L316.5,172.5 L317.5,159.4 L318.5,159.3 L319.5,169.8 L320.6,169.8 L321.6,173.4 L322.6,173.5 L323.6,154.6 L324.7,154.5 L325.7,182.7 L326.7,182.7 L327.7,177.6 L328.8,177.7 L329.8,159.3 L330.8,159.1 L331.8,180.3 L332.9,180.6 L333.9,192.2 L334.9,192.4 L335.9,191.9 L337.0,191.9 L338.0,175.0 L339.0,174.9 L340.0,172.3 L341.1,172.1 L342.1,165.6 L343.1,165.4 L344.1,153.0 L345.2,152.6 L346.2,145.9 L347.2,145.7 L348.2,138.3 L349.3,137.9 L350.3,145.4 L351.3,145.3 L352.3,157.0 L353.4,157.1 L354.4,177.0 L355.4,177.0 L356.4,166.3 L357.5,166.2 L358.5,173.7 L359.5,173.6 L360.5,158.8 L361.6,158.6 L362.6,138.2 L363.6,137.8 L364.6,137.7 L365.7,137.3 L366.7,150.8 L367.7,150.5 L368.7,126.2 L369.8,125.8 L370.8,155.9 L371.8,155.8 L372.8,141.5 L373.9,141.1 L374.9,157.3 L375.9,157.4 L376.9,170.4 L378.0,170.6 L379.0,143.0 L380.0,142.7 L381.0,171.1 L382.1,171.2 L383.1,180.2 L384.1,180.2 L385.1,181.5 L386.2,181.5 L387.2,178.3 L388.2,178.4 L389.2,164.2 L390.3,164.2 L391.3,160.6 L392.3,160.5 L393.3,160.5 L394.4,160.4 L395.4,152.7 L396.4,152.6 L397.4,173.6 L398.5,173.6 L399.5,154.8 L400.5,154.8 L401.5,162.0 L402.6,161.9 L403.6,161.0 L404.6,161.1 L405.6,175.4 L406.7,175.4 L407.7,172.1 L408.7,171.9 L409.7,190.2 L410.8,190.2 L411.8,187.5 L412.8,187.5 L413.8,183.8 L414.9,183.8 L415.9,166.2 L416.9,166.0 L417.9,144.6 L419.0,144.2 L420.0,161.8 L421.0,161.8 L422.0,201.6 L423.1,202.0 L424.1,206.6 L425.1,206.5 L426.1,175.4 L427.2,175.0 L428.2,180.1 L429.2,179.8 L430.2,143.2 L431.3,142.8 L432.3,180.3 L433.3,180.5 L434.3,156.3 L435.4,156.1 L436.4,180.7 L437.4,180.9 L438.4,173.3 L439.5,173.2 L440.5,186.7 L441.5,186.9 L442.5,160.3 L443.6,160.4 L444.6,152.3 L445.6,152.3 L446.6,161.7 L447.7,161.9 L448.7,170.2 L449.7,170.0 L450.7,165.4 L451.8,165.2 L452.8,162.5 L453.8,162.0 L454.8,147.7 L455.9,147.3 L456.9,138.5 L457.9,138.2 L458.9,161.1 L460.0,160.8 L461.0,156.1 L462.0,155.9 L463.0,148.5 L464.1,148.3 L465.1,170.8 L466.1,170.9 L467.1,176.5 L468.2,176.4 L469.2,177.2 L470.2,177.2 L471.2,191.6 L472.3,191.5 L473.3,179.3 L474.3,179.3 L475.3,166.1 L476.4,166.1 L477.4,157.9 L478.4,157.8 L479.4,155.2 L480.5,155.1 L481.5,173.2 L482.5,173.2 L483.5,171.7 L484.6,171.6 L485.6,164.6 L486.6,164.5 L487.6,136.6 L488.7,136.3 L489.7,170.9 L490.7,170.9 L491.7,159.2 L492.8,158.8 L493.8,160.4 L494.8,160.3 L495.8,147.5 L496.9,147.2 L497.9,133.8 L498.9,133.5 L499.9,158.6 L501.0,158.6 L502.0,173.6 L503.0,173.6 L504.0,162.8 L505.1,162.8 L506.1,182.7 L507.1,182.8 L508.1,193.7 L509.2,193.8 L510.2,158.8 L511.2,158.5 L512.2,178.6 L513.3,178.8 L514.3,176.8 L515.3,176.7 L516.3,187.4 L517.4,187.3 L518.4,171.9 L519.4,171.6 L520.4,137.6 L521.5,137.0 L522.5,178.0 L523.5,178.2 L524.5,163.0 L525.6,162.9 L526.6,172.5 L527.6,172.5 L528.6,176.6 L529.7,176.7 L530.7,187.5 L531.7,187.8 L532.7,170.1 L533.8,170.0 L534.8,160.1 L535.8,160.1 L536.8,154.9 L537.9,154.7 L538.9,188.4 L539.9,188.7 L540.9,194.7 L542.0,194.9 L543.0,193.4 L544.0,193.6 L545.0,190.3 L546.0,190.4 L547.1,175.4 L548.1,175.4 L549.1,161.3 L550.1,161.0 L551.2,154.1 L552.2,154.0 L553.2,164.9 L554.2,165.0 L555.3,173.2 L556.3,173.1 L557.3,177.9 L558.3,177.7 L559.4,172.6 L560.4,172.6 L561.4,153.3 L562.4,153.0 L563.5,156.3 L564.5,156.1 L565.5,158.3 L566.5,158.0 L567.6,138.1 L568.6,137.9 L569.6,157.7 L570.6,157.6 L571.7,163.4 L572.7,163.5 L573.7,151.7 L574.7,151.7 L575.8,146.5 L576.8,146.5 L577.8,189.2 L578.8,189.4 L579.9,179.3 L580.9,179.6 L581.9,162.6 L582.9,162.5 L584.0,172.6 L585.0,172.8 L586.0,183.2 L587.0,183.3 L588.1,171.8 L589.1,171.6 L590.1,172.3 L591.1,172.0 L592.2,180.8 L593.2,180.6 L594.2,150.3 L595.2,149.9 L596.3,142.5 L597.3,142.2 L598.3,174.3 L599.3,174.6 L600.4,177.6 L601.4,177.6 L602.4,183.6 L603.4,183.7 L604.5,187.2 L605.5,187.1 L606.5,194.2 L607.5,194.0 L608.6,172.8 L609.6,172.6 L610.6,154.6 L611.6,154.3 L612.7,163.5 L613.7,163.4 L614.7,164.1 L615.7,164.0 L616.8,152.9 L617.8,152.7 L618.8,167.8 L619.8,167.7 L620.9,163.8 L621.9,163.9 L622.9,173.8 L623.9,173.9 L625.0,166.9 L626.0,167.0 L627.0,181.3 L628.0,181.6 L629.1,181.5 L630.1,181.6 L631.1,167.3 L632.1,167.1 L633.2,168.6 L634.2,168.4 L635.2,158.2 L636.2,157.9 L637.3,170.8 L638.3,170.8 L639.3,196.3 L640.3,196.4 L641.4,152.9 L642.4,152.5 L643.4,168.2 L644.4,168.2 L645.5,144.5 L646.5,144.3 L647.5,148.9 L648.5,148.8 L649.6,146.1 L650.6,146.0 L651.6,178.1 L652.6,178.3 L653.7,193.5 L654.7,193.6 L655.7,176.3 L656.7,176.1 L657.8,177.0 L658.8,176.8 L659.8,162.8 L660.8,162.6 L661.9,186.1 L662.9,186.4 L663.9,179.0 L664.9,179.0 L666.0,173.8 L667.0,173.8 L668.0,153.5 L669.0,153.2 L670.1,154.4 L671.1,154.3 L672.1,155.4 L673.1,155.5 L674.2,174.4 L675.2,174.4 L676.2,157.9 L677.2,157.9 L678.3,157.0 L679.3,157.2 L680.3,148.3 L681.3,148.0 L682.4,154.3 L683.4,154.2 L684.4,157.9 L685.4,158.1 L686.5,142.4 L687.5,142.5 L688.5,164.5 L689.5,164.5 L690.6,162.7 L691.6,162.6 L692.6,182.1 L693.6,182.1 L694.7,159.3 L695.7,159.0 L696.7,172.1 L697.7,172.0 L698.8,147.2 L699.8,147.0 L700.8,138.7 L701.8,138.5 L702.9,131.6 L703.9,131.6 L704.9,155.9 L705.9,155.9 L707.0,153.4 L708.0,153.4 L709.0,166.9 L710.0,166.7 L711.1,172.1 L712.1,172.1 L713.1,171.2 L714.1,171.3 L715.2,162.7 L716.2,162.7 L717.2,154.5 L718.2,154.5 L719.3,165.4 L720.3,165.5 L721.3,184.9 L722.3,184.9 L723.4,189.2 L724.4,189.3 L725.4,161.1 L726.4,160.9 L727.5,149.5 L728.5,149.3 L729.5,159.3 L730.5,159.2 L731.6,159.8 L732.6,159.9 L733.6,163.5 L734.6,163.4 L735.7,171.0 L736.7,171.1 L737.7,198.0 L738.7,198.4 L739.8,210.7 L740.8,211.0 L741.8,157.9 L742.8,157.6 L743.9,162.5 L744.9,162.3 L745.9,182.1 L746.9,182.4 L748.0,182.2 L749.0,182.1 L750.0,141.3 L751.0,140.8 L752.1,148.4 L753.1,148.6 L754.1,135.0 L755.1,135.0 L756.2,151.0 L757.2,151.1 L758.2,178.9 L759.2,179.2 L760.3,159.4 L761.3,159.5 L762.3,153.6 L763.3,153.5 L764.4,162.6 L765.4,162.8 L766.4,178.1 L767.4,178.2 L768.5,158.0 L769.5,157.8 L770.5,161.6 L771.5,161.4 L772.6,181.4 L773.6,181.4 L774.6,183.2 L775.6,183.1 L776.7,171.8 L777.7,171.5 L778.7,189.5 L779.7,189.8 L780.8,179.6 L781.8,179.6 L782.8,167.0 L783.8,166.9 L784.9,171.7 L785.9,171.7 L786.9,168.8 L787.9,168.9 L789.0,175.9 L790.0,176.1 L791.0,132.6 L792.0,132.3 L793.1,156.2 L794.1,156.3 L795.1,174.8 L796.1,175.3 L797.2,188.4 L798.2,188.6 L799.2,192.6 L800.2,192.7 L801.3,175.5 L802.3,175.3 L803.3,164.0 L804.3,163.8 L805.4,159.9 L806.4,159.8 L807.4,156.8 L808.4,156.7 L809.5,153.8 L810.5,153.7 L811.5,177.1 L812.5,177.0 L813.6,165.7 L814.6,165.8 L815.6,178.9 L816.6,179.0 L817.7,140.7 L818.7,140.1 L819.7,155.0 L820.7,154.7 L821.8,154.7 L822.8,154.5 L823.8,153.4 L824.8,153.2 L825.9,153.0 L826.9,153.0 L827.9,168.0 L828.9,168.0 L830.0,168.9 L831.0,169.0 L832.0,156.9 L833.0,156.7 L834.1,162.6 L835.1,162.6 L836.1,131.6 L837.1,131.3 L838.2,119.8 L839.2,119.7 L840.2,164.8 L841.2,165.0 L842.3,173.7 L843.3,173.6 L844.3,175.1 L845.3,175.2 L846.4,153.4 L847.4,153.4 L848.4,165.6 L849.4,165.8 L850.5,161.4 L851.5,161.6 L852.5,140.5 L853.5,140.5 L854.6,135.4 L855.6,135.4 L856.6,193.7 L857.6,194.2 L858.7,162.3 L859.7,162.1 L860.7,175.9 L861.7,175.8 L862.8,155.8 L863.8,155.7 L864.8,166.7 L865.8,166.7 L866.9,201.0 L867.9,201.1 L868.9,192.5 L869.9,192.5 L871.0,174.5 L872.0,174.2 L873.0,150.6 L874.0,150.2 L875.1,144.2 L876.1,144.1 L877.1,148.6 L878.1,148.5 L879.2,174.2 L880.2,174.2 L881.2,159.5 L882.2,159.3 L883.3,180.8 L884.3,181.0 L885.3,163.1 L886.3,163.1 L887.4,142.8 L888.4,142.5 L889.4,163.6 L890.4,163.5 L891.5,188.7 L892.5,188.8 L893.5,169.6 L894.5,169.3 L895.6,173.9 L896.6,173.6 L897.6,154.9 L898.6,154.6 L899.7,171.8 L900.7,171.6 L901.7,175.3 L902.7,175.2 L903.8,176.6 L904.8,176.4 L905.8,159.1 L906.8,158.7 L907.9,173.0 L908.9,173.1 L909.9,165.7 L910.9,165.9 L912.0,143.0 L913.0,142.9 L914.0,166.1 L915.0,166.0 L916.1,179.4 L917.1,179.7 L918.1,172.1 L919.1,172.2 L920.2,177.8 L921.2,177.9 L922.2,161.1 L923.2,160.8 L924.3,170.7 L925.3,170.6 L926.3,138.8 L927.3,138.5 L928.4,160.7 L929.4,160.8 L930.4,151.9 L931.4,151.9 L932.5,159.6 L933.5,159.8 L934.5,188.3 L935.5,188.5 L936.6,150.7 L937.6,150.8 L938.6,137.9 L939.6,137.9 L940.7,158.9 L941.7,158.8 L942.7,166.0 L943.7,165.8 L944.8,155.7 L945.8,155.3 L946.8,148.3 L947.8,148.1 L948.9,159.7 L949.9,159.7 L950.9,158.8 L951.9,158.7 L953.0,161.9 L954.0,161.9 L955.0,161.8 L956.0,161.7 L957.1,145.7 L958.1,145.6 L959.1,179.7 L960.1,179.9 L961.2,148.7 L962.2,148.8 L963.2,160.1 L964.2,159.9 L965.3,153.1 L966.3,152.9 L967.3,186.4 L968.3,186.8 L969.4,174.4 L970.4,174.2 L971.4,164.3 L972.4,164.1 L973.5,144.0 L974.5,143.7 L975.5,152.9 L976.5,152.7 L977.6,150.7 L978.6,150.5 L979.6,148.1 L980.6,148.0 L981.7,164.7 L982.7,164.7 L983.7,184.5 L984.7,184.7 L985.8,168.0 L986.8,168.0 L987.8,143.4 L988.8,143.2 L989.9,156.6 L990.9,156.6 L991.9,145.4 L992.9,145.3 L994.0,148.2 L995.0,148.2 L996.0,162.2" fill="none" stroke="#2563eb" stroke-width="2.1"/>
<line x1="104" y1="130" x2="126" y2="130" stroke="#2563eb" stroke-width="3"/>
<text x="132" y="134" font-family="Arial" font-size="12" fill="#334155">x error</text>
<path d="M92.0,176.7 L93.0,176.0 L94.0,172.7 L95.1,171.4 L96.1,181.0 L97.1,180.0 L98.1,170.5 L99.2,169.8 L100.2,163.0 L101.2,162.9 L102.2,171.5 L103.3,172.1 L104.3,186.8 L105.3,187.9 L106.3,168.8 L107.4,169.7 L108.4,187.2 L109.4,188.5 L110.4,181.9 L111.5,183.2 L112.5,187.9 L113.5,189.4 L114.5,165.3 L115.6,166.6 L116.6,171.1 L117.6,172.2 L118.6,164.8 L119.7,166.0 L120.7,176.5 L121.7,177.5 L122.7,172.2 L123.8,172.7 L124.8,176.6 L125.8,176.8 L126.8,180.0 L127.9,179.6 L128.9,197.9 L129.9,197.2 L130.9,195.3 L132.0,194.4 L133.0,179.0 L134.0,178.3 L135.0,168.5 L136.1,168.2 L137.1,168.9 L138.1,169.1 L139.1,176.9 L140.2,177.3 L141.2,171.2 L142.2,171.8 L143.2,182.3 L144.3,183.4 L145.3,163.9 L146.3,164.8 L147.3,170.7 L148.4,171.7 L149.4,180.9 L150.4,182.1 L151.4,196.0 L152.5,197.1 L153.5,187.8 L154.5,188.6 L155.5,192.0 L156.6,192.9 L157.6,181.0 L158.6,181.7 L159.6,171.8 L160.7,172.1 L161.7,178.5 L162.7,178.6 L163.7,179.8 L164.8,179.6 L165.8,166.3 L166.8,165.6 L167.8,175.5 L168.9,175.0 L169.9,164.3 L170.9,164.0 L171.9,167.4 L173.0,167.3 L174.0,156.3 L175.0,156.4 L176.0,150.7 L177.1,151.2 L178.1,156.6 L179.1,157.1 L180.1,162.6 L181.2,163.3 L182.2,171.6 L183.2,172.7 L184.2,173.2 L185.3,174.3 L186.3,166.4 L187.3,167.3 L188.3,169.8 L189.4,170.9 L190.4,182.6 L191.4,183.7 L192.4,184.3 L193.5,185.3 L194.5,198.9 L195.5,199.9 L196.5,189.4 L197.6,189.9 L198.6,184.5 L199.6,184.8 L200.6,191.2 L201.7,191.3 L202.7,183.7 L203.7,183.2 L204.7,162.2 L205.8,161.4 L206.8,165.0 L207.8,164.8 L208.8,172.9 L209.9,173.0 L210.9,156.9 L211.9,157.0 L212.9,168.3 L214.0,168.9 L215.0,184.8 L216.0,185.5 L217.0,183.8 L218.1,184.6 L219.1,182.4 L220.1,183.4 L221.1,194.9 L222.2,196.0 L223.2,179.6 L224.2,180.3 L225.2,186.8 L226.3,187.6 L227.3,181.5 L228.3,181.9 L229.3,163.8 L230.4,164.0 L231.4,171.9 L232.4,172.2 L233.4,189.6 L234.5,189.8 L235.5,176.1 L236.5,175.7 L237.5,167.4 L238.6,167.0 L239.6,189.4 L240.6,189.5 L241.6,171.6 L242.7,171.5 L243.7,184.0 L244.7,184.2 L245.7,199.0 L246.8,199.6 L247.8,190.2 L248.8,190.8 L249.8,182.6 L250.9,183.0 L251.9,166.5 L252.9,167.3 L253.9,172.0 L255.0,172.6 L256.0,183.8 L257.0,184.7 L258.0,167.2 L259.1,167.7 L260.1,184.6 L261.1,185.3 L262.1,190.9 L263.2,191.7 L264.2,182.7 L265.2,183.0 L266.2,170.1 L267.3,170.0 L268.3,174.8 L269.3,174.5 L270.3,165.7 L271.4,164.9 L272.4,165.4 L273.4,164.7 L274.4,186.4 L275.5,186.1 L276.5,175.4 L277.5,175.2 L278.5,174.8 L279.6,174.8 L280.6,189.3 L281.6,189.9 L282.6,182.6 L283.7,183.0 L284.7,164.4 L285.7,165.1 L286.7,190.0 L287.8,191.0 L288.8,181.4 L289.8,182.3 L290.8,188.0 L291.9,189.3 L292.9,187.2 L293.9,188.1 L294.9,166.3 L296.0,166.9 L297.0,160.9 L298.0,161.4 L299.0,173.9 L300.1,174.4 L301.1,188.3 L302.1,188.3 L303.1,195.4 L304.2,195.2 L305.2,182.7 L306.2,182.5 L307.2,183.6 L308.3,183.4 L309.3,174.6 L310.3,174.7 L311.3,161.8 L312.4,161.7 L313.4,179.0 L314.4,179.4 L315.4,179.7 L316.5,180.2 L317.5,183.8 L318.5,184.5 L319.5,185.4 L320.6,186.3 L321.6,194.2 L322.6,195.0 L323.6,193.8 L324.7,194.6 L325.7,178.2 L326.7,178.9 L327.7,181.9 L328.8,182.7 L329.8,178.7 L330.8,179.5 L331.8,192.2 L332.9,192.8 L333.9,184.0 L334.9,184.1 L335.9,194.4 L337.0,194.2 L338.0,194.4 L339.0,193.8 L340.0,186.1 L341.1,185.2 L342.1,187.7 L343.1,187.2 L344.1,173.9 L345.2,173.8 L346.2,173.7 L347.2,173.8 L348.2,177.8 L349.3,178.5 L350.3,171.2 L351.3,172.0 L352.3,174.0 L353.4,175.0 L354.4,167.3 L355.4,168.1 L356.4,177.5 L357.5,178.5 L358.5,175.7 L359.5,176.7 L360.5,174.1 L361.6,175.2 L362.6,202.9 L363.6,204.0 L364.6,180.7 L365.7,181.5 L366.7,177.2 L367.7,177.9 L368.7,183.9 L369.8,184.2 L370.8,169.1 L371.8,168.8 L372.8,162.5 L373.9,161.9 L374.9,170.7 L375.9,170.0 L376.9,177.4 L378.0,177.0 L379.0,164.0 L380.0,164.0 L381.0,194.3 L382.1,195.0 L383.1,202.0 L384.1,202.6 L385.1,178.1 L386.2,178.8 L387.2,179.8 L388.2,181.1 L389.2,174.6 L390.3,175.6 L391.3,182.1 L392.3,183.2 L393.3,189.1 L394.4,190.3 L395.4,183.0 L396.4,184.0 L397.4,184.4 L398.5,185.4 L399.5,174.8 L400.5,175.4 L401.5,197.9 L402.6,198.3 L403.6,187.9 L404.6,187.5 L405.6,177.0 L406.7,176.3 L407.7,172.8 L408.7,172.0 L409.7,167.2 L410.8,166.5 L411.8,171.0 L412.8,170.8 L413.8,160.6 L414.9,160.7 L415.9,159.2 L416.9,159.7 L417.9,179.3 L419.0,180.4 L420.0,187.2 L421.0,188.9 L422.0,181.9 L423.1,183.9 L424.1,171.8 L425.1,174.3 L426.1,189.2 L427.2,192.4 L428.2,185.7 L429.2,189.4 L430.2,185.8 L431.3,189.4 L432.3,185.9 L433.3,189.6 L434.3,168.6 L435.4,172.0 L436.4,185.1 L437.4,189.0 L438.4,183.5 L439.5,187.2 L440.5,172.9 L441.5,176.1 L442.5,196.1 L443.6,198.9 L444.6,168.7 L445.6,170.6 L446.6,184.4 L447.7,185.8 L448.7,172.9 L449.7,173.2 L450.7,184.0 L451.8,183.9 L452.8,171.7 L453.8,171.0 L454.8,170.5 L455.9,169.4 L456.9,186.8 L457.9,185.6 L458.9,183.8 L460.0,182.5 L461.0,178.2 L462.0,176.8 L463.0,181.0 L464.1,179.5 L465.1,175.5 L466.1,173.8 L467.1,184.4 L468.2,182.9 L469.2,179.9 L470.2,178.8 L471.2,175.9 L472.3,175.8 L473.3,170.9 L474.3,171.2 L475.3,164.3 L476.4,164.9 L477.4,177.7 L478.4,178.8 L479.4,180.9 L480.5,182.2 L481.5,162.3 L482.5,163.2 L483.5,174.7 L484.6,175.9 L485.6,200.1 L486.6,201.2 L487.6,188.9 L488.7,189.8 L489.7,189.5 L490.7,189.7 L491.7,183.2 L492.8,183.1 L493.8,161.7 L494.8,161.0 L495.8,185.7 L496.9,185.0 L497.9,168.3 L498.9,166.9 L499.9,172.9 L501.0,171.4 L502.0,193.4 L503.0,192.1 L504.0,182.9 L505.1,182.0 L506.1,166.0 L507.1,165.5 L508.1,146.6 L509.2,146.5 L510.2,147.6 L511.2,148.4 L512.2,159.0 L513.3,160.2 L514.3,171.2 L515.3,172.6 L516.3,179.4 L517.4,181.0 L518.4,190.4 L519.4,191.7 L520.4,178.5 L521.5,179.5 L522.5,177.7 L523.5,178.3 L524.5,162.9 L525.6,162.7 L526.6,171.5 L527.6,170.9 L528.6,169.5 L529.7,168.7 L530.7,171.0 L531.7,169.9 L532.7,166.8 L533.8,165.4 L534.8,187.2 L535.8,186.6 L536.8,176.7 L537.9,176.3 L538.9,179.0 L539.9,179.1 L540.9,154.9 L542.0,155.1 L543.0,148.0 L544.0,148.6 L545.0,171.4 L546.0,172.6 L547.1,166.0 L548.1,166.8 L549.1,162.9 L550.1,163.6 L551.2,164.2 L552.2,164.9 L553.2,178.2 L554.2,178.8 L555.3,180.7 L556.3,180.5 L557.3,158.8 L558.3,157.8 L559.4,171.2 L560.4,170.2 L561.4,170.2 L562.4,169.0 L563.5,173.2 L564.5,172.0 L565.5,177.7 L566.5,176.9 L567.6,176.5 L568.6,176.2 L569.6,186.6 L570.6,186.7 L571.7,181.2 L572.7,181.8 L573.7,184.4 L574.7,185.2 L575.8,181.9 L576.8,183.2 L577.8,186.3 L578.8,187.5 L579.9,163.8 L580.9,164.7 L581.9,174.5 L582.9,175.3 L584.0,189.4 L585.0,189.9 L586.0,181.7 L587.0,181.4 L588.1,166.5 L589.1,165.4 L590.1,185.3 L591.1,184.4 L592.2,173.4 L593.2,172.4 L594.2,170.3 L595.2,169.1 L596.3,167.5 L597.3,166.5 L598.3,164.2 L599.3,163.9 L600.4,175.7 L601.4,176.1 L602.4,180.6 L603.4,181.3 L604.5,173.9 L605.5,174.7 L606.5,174.5 L607.5,175.5 L608.6,176.9 L609.6,177.8 L610.6,164.2 L611.6,165.1 L612.7,169.6 L613.7,170.4 L614.7,170.7 L615.7,170.9 L616.8,191.4 L617.8,191.1 L618.8,193.1 L619.8,192.6 L620.9,180.0 L621.9,178.8 L622.9,175.9 L623.9,174.6 L625.0,172.1 L626.0,170.8 L627.0,177.3 L628.0,176.3 L629.1,182.0 L630.1,181.8 L631.1,162.6 L632.1,162.7 L633.2,174.4 L634.2,175.0 L635.2,182.3 L636.2,183.1 L637.3,172.9 L638.3,173.6 L639.3,184.4 L640.3,185.4 L641.4,157.3 L642.4,158.0 L643.4,167.3 L644.4,167.9 L645.5,173.0 L646.5,173.4 L647.5,162.5 L648.5,162.2 L649.6,161.7 L650.6,161.1 L651.6,181.2 L652.6,180.4 L653.7,188.2 L654.7,186.9 L655.7,185.3 L656.7,184.2 L657.8,185.7 L658.8,184.8 L659.8,189.2 L660.8,188.7 L661.9,171.8 L662.9,171.6 L663.9,197.8 L664.9,198.5 L666.0,188.0 L667.0,188.9 L668.0,179.7 L669.0,180.6 L670.1,183.8 L671.1,184.6 L672.1,190.1 L673.1,191.3 L674.2,175.0 L675.2,175.8 L676.2,149.6 L677.2,149.6 L678.3,179.3 L679.3,179.2 L680.3,178.6 L681.3,178.1 L682.4,179.0 L683.4,178.0 L684.4,171.5 L685.4,170.1 L686.5,177.0 L687.5,175.8 L688.5,167.3 L689.5,166.3 L690.6,170.6 L691.6,170.2 L692.6,180.4 L693.6,180.4 L694.7,180.8 L695.7,181.3 L696.7,185.7 L697.7,186.6 L698.8,177.5 L699.8,178.5 L700.8,169.7 L701.8,170.7 L702.9,169.9 L703.9,170.8 L704.9,185.8 L705.9,186.7 L707.0,191.7 L708.0,192.0 L709.0,174.6 L710.0,174.3 L711.1,171.5 L712.1,170.7 L713.1,174.8 L714.1,173.9 L715.2,165.0 L716.2,163.9 L717.2,176.8 L718.2,175.8 L719.3,180.1 L720.3,179.6 L721.3,163.0 L722.3,162.6 L723.4,171.7 L724.4,171.8 L725.4,184.2 L726.4,184.9 L727.5,171.1 L728.5,171.8 L729.5,170.4 L730.5,171.1 L731.6,200.3 L732.6,201.7 L733.6,207.0 L734.6,208.2 L735.7,187.8 L736.7,188.6 L737.7,160.1 L738.7,160.0 L739.8,176.3 L740.8,175.9 L741.8,175.0 L742.8,174.2 L743.9,189.5 L744.9,188.3 L745.9,186.4 L746.9,185.1 L748.0,169.3 L749.0,167.9 L750.0,173.3 L751.0,172.5 L752.1,181.2 L753.1,180.7 L754.1,182.0 L755.1,182.1 L756.2,191.4 L757.2,192.0 L758.2,179.3 L759.2,180.1 L760.3,178.4 L761.3,179.5 L762.3,193.3 L763.3,194.3 L764.4,195.7 L765.4,196.8 L766.4,195.8 L767.4,196.9 L768.5,203.1 L769.5,204.0 L770.5,205.3 L771.5,205.4 L772.6,172.7 L773.6,172.4 L774.6,171.0 L775.6,170.3 L776.7,168.2 L777.7,167.2 L778.7,190.1 L779.7,189.1 L780.8,179.6 L781.8,178.2 L782.8,189.9 L783.8,189.0 L784.9,174.6 L785.9,174.0 L786.9,176.1 L787.9,176.1 L789.0,190.3 L790.0,190.8 L791.0,191.0 L792.0,191.7 L793.1,193.0 L794.1,194.0 L795.1,180.5 L796.1,181.2 L797.2,188.1 L798.2,189.3 L799.2,198.8 L800.2,199.8 L801.3,187.7 L802.3,188.0 L803.3,175.2 L804.3,174.9 L805.4,175.4 L806.4,174.6 L807.4,181.0 L808.4,180.2 L809.5,167.9 L810.5,166.5 L811.5,171.4 L812.5,170.0 L813.6,166.0 L814.6,165.3 L815.6,155.5 L816.6,155.1 L817.7,177.1 L818.7,177.4 L819.7,195.6 L820.7,196.2 L821.8,188.3 L822.8,189.0 L823.8,206.8 L824.8,208.0 L825.9,180.4 L826.9,181.4 L827.9,196.3 L828.9,197.2 L830.0,200.3 L831.0,201.1 L832.0,180.6 L833.0,180.8 L834.1,175.5 L835.1,175.1 L836.1,167.8 L837.1,167.0 L838.2,165.5 L839.2,164.4 L840.2,165.1 L841.2,163.9 L842.3,186.8 L843.3,185.9 L844.3,191.3 L845.3,190.5 L846.4,175.9 L847.4,175.6 L848.4,181.8 L849.4,182.1 L850.5,181.5 L851.5,182.1 L852.5,179.2 L853.5,180.0 L854.6,179.6 L855.6,180.5 L856.6,167.4 L857.6,168.4 L858.7,189.2 L859.7,190.1 L860.7,187.2 L861.7,187.9 L862.8,174.2 L863.8,174.4 L864.8,186.8 L865.8,186.5 L866.9,177.2 L867.9,176.5 L868.9,170.5 L869.9,169.3 L871.0,163.3 L872.0,162.0 L873.0,160.7 L874.0,159.3 L875.1,150.2 L876.1,149.3 L877.1,155.5 L878.1,155.1 L879.2,172.7 L880.2,173.0 L881.2,177.6 L882.2,178.2 L883.3,177.2 L884.3,178.1 L885.3,173.2 L886.3,174.5 L887.4,201.2 L888.4,202.4 L889.4,187.0 L890.4,187.7 L891.5,184.5 L892.5,185.1 L893.5,168.9 L894.5,169.1 L895.6,187.4 L896.6,187.2 L897.6,187.8 L898.6,187.1 L899.7,196.0 L900.7,195.0 L901.7,177.7 L902.7,176.3 L903.8,186.2 L904.8,184.8 L905.8,180.0 L906.8,178.8 L907.9,178.3 L908.9,177.4 L909.9,167.1 L910.9,167.0 L912.0,187.7 L913.0,188.0 L914.0,176.9 L915.0,177.6 L916.1,173.7 L917.1,174.6 L918.1,172.7 L919.1,173.9 L920.2,173.6 L921.2,174.9 L922.2,174.3 L923.2,175.6 L924.3,181.2 L925.3,182.0 L926.3,184.6 L927.3,184.9 L928.4,187.9 L929.4,187.9 L930.4,189.5 L931.4,188.9 L932.5,177.9 L933.5,176.8 L934.5,173.9 L935.5,172.4 L936.6,179.8 L937.6,178.3 L938.6,172.8 L939.6,171.3 L940.7,159.9 L941.7,158.8 L942.7,177.3 L943.7,177.2 L944.8,175.7 L945.8,175.8 L946.8,145.7 L947.8,146.0 L948.9,154.3 L949.9,155.0 L950.9,168.1 L951.9,169.1 L953.0,162.9 L954.0,164.0 L955.0,168.7 L956.0,169.6 L957.1,167.2 L958.1,168.2 L959.1,173.3 L960.1,174.4 L961.2,187.2 L962.2,188.4 L963.2,168.5 L964.2,169.0 L965.3,185.9 L966.3,186.4 L967.3,188.5 L968.3,188.4 L969.4,164.3 L970.4,164.1 L971.4,171.7 L972.4,171.5 L973.5,171.4 L974.5,171.2 L975.5,178.9 L976.5,178.6 L977.6,182.2 L978.6,181.8 L979.6,184.1 L980.6,183.8 L981.7,186.6 L982.7,186.4 L983.7,176.6 L984.7,176.1 L985.8,175.6 L986.8,175.4 L987.8,182.7 L988.8,182.4 L989.9,173.8 L990.9,173.5 L991.9,176.4 L992.9,176.0 L994.0,173.7 L995.0,171.5 L996.0,171.0" fill="none" stroke="#dc2626" stroke-width="2.1"/>
<line x1="232" y1="130" x2="254" y2="130" stroke="#dc2626" stroke-width="3"/>
<text x="260" y="134" font-family="Arial" font-size="12" fill="#334155">z error</text>
<text x="92" y="272" font-family="Arial" font-size="16" font-weight="700" fill="#0f172a">Velocity estimation error</text>
<rect x="92" y="284" width="904" height="118" fill="#ffffff" stroke="#cbd5e1"/>
<line x1="92" y1="343.0" x2="996" y2="343.0" stroke="#94a3b8"/>
<text x="24" y="343.0" font-family="Arial" font-size="13" fill="#334155" transform="rotate(-90 24,343.0)">m/s</text>
<text x="36" y="297" font-family="Arial" font-size="12" fill="#64748b">2.90</text>
<text x="32" y="402" font-family="Arial" font-size="12" fill="#64748b">-2.90</text>
<path d="M92.0,340.8 L93.0,340.9 L94.0,339.8 L95.1,339.9 L96.1,344.0 L97.1,344.2 L98.1,343.0 L99.2,343.2 L100.2,343.5 L101.2,343.8 L102.2,346.2 L103.3,346.5 L104.3,341.7 L105.3,342.0 L106.3,345.0 L107.4,345.4 L108.4,343.4 L109.4,343.8 L110.4,341.3 L111.5,341.7 L112.5,341.5 L113.5,341.9 L114.5,341.3 L115.6,341.7 L116.6,345.9 L117.6,346.3 L118.6,345.0 L119.7,345.4 L120.7,343.9 L121.7,344.3 L122.7,346.0 L123.8,346.3 L124.8,342.4 L125.8,342.6 L126.8,343.0 L127.9,343.1 L128.9,342.6 L129.9,342.8 L130.9,340.5 L132.0,340.7 L133.0,340.5 L134.0,340.7 L135.0,341.5 L136.1,341.8 L137.1,341.8 L138.1,342.2 L139.1,342.5 L140.2,343.0 L141.2,343.3 L142.2,343.7 L143.2,341.0 L144.3,341.5 L145.3,343.5 L146.3,344.0 L147.3,342.6 L148.4,343.1 L149.4,342.9 L150.4,343.4 L151.4,345.6 L152.5,346.1 L153.5,342.7 L154.5,343.2 L155.5,344.2 L156.6,344.6 L157.6,345.8 L158.6,346.2 L159.6,344.0 L160.7,344.3 L161.7,342.5 L162.7,342.8 L163.7,344.2 L164.8,344.4 L165.8,344.0 L166.8,344.2 L167.8,344.7 L168.9,345.0 L169.9,341.6 L170.9,342.0 L171.9,346.4 L173.0,346.8 L174.0,343.4 L175.0,343.8 L176.0,346.7 L177.1,347.2 L178.1,345.3 L179.1,345.7 L180.1,344.5 L181.2,345.0 L182.2,339.6 L183.2,340.1 L184.2,341.8 L185.3,342.3 L186.3,341.6 L187.3,342.0 L188.3,344.6 L189.4,345.0 L190.4,341.4 L191.4,341.8 L192.4,339.4 L193.5,339.8 L194.5,342.9 L195.5,343.2 L196.5,344.3 L197.6,344.6 L198.6,343.3 L199.6,343.6 L200.6,344.7 L201.7,344.8 L202.7,343.6 L203.7,343.8 L204.7,346.2 L205.8,346.4 L206.8,346.5 L207.8,346.7 L208.8,344.4 L209.9,344.7 L210.9,342.4 L211.9,342.7 L212.9,341.3 L214.0,341.6 L215.0,340.8 L216.0,341.1 L217.0,342.4 L218.1,342.7 L219.1,341.3 L220.1,341.6 L221.1,340.6 L222.2,340.9 L223.2,343.3 L224.2,343.6 L225.2,345.1 L226.3,345.3 L227.3,342.2 L228.3,342.4 L229.3,340.3 L230.4,340.5 L231.4,342.4 L232.4,342.5 L233.4,345.2 L234.5,345.3 L235.5,342.4 L236.5,342.5 L237.5,342.0 L238.6,342.1 L239.6,342.0 L240.6,342.1 L241.6,342.4 L242.7,342.6 L243.7,342.3 L244.7,342.4 L245.7,343.5 L246.8,343.6 L247.8,343.9 L248.8,344.0 L249.8,345.3 L250.9,345.4 L251.9,344.0 L252.9,344.1 L253.9,343.0 L255.0,343.1 L256.0,339.2 L257.0,339.3 L258.0,341.8 L259.1,341.8 L260.1,339.8 L261.1,339.9 L262.1,342.2 L263.2,342.2 L264.2,340.6 L265.2,340.6 L266.2,336.9 L267.3,336.9 L268.3,341.6 L269.3,341.6 L270.3,342.3 L271.4,342.3 L272.4,345.1 L273.4,345.1 L274.4,344.3 L275.5,344.3 L276.5,339.9 L277.5,339.9 L278.5,339.8 L279.6,339.7 L280.6,341.4 L281.6,341.4 L282.6,341.0 L283.7,341.0 L284.7,341.9 L285.7,341.9 L286.7,338.7 L287.8,338.6 L288.8,340.5 L289.8,340.4 L290.8,340.2 L291.9,340.1 L292.9,340.7 L293.9,340.7 L294.9,343.0 L296.0,342.9 L297.0,343.7 L298.0,343.6 L299.0,342.4 L300.1,342.3 L301.1,343.0 L302.1,342.9 L303.1,341.3 L304.2,341.2 L305.2,338.8 L306.2,338.7 L307.2,343.4 L308.3,343.3 L309.3,344.5 L310.3,344.4 L311.3,341.9 L312.4,341.7 L313.4,343.2 L314.4,343.0 L315.4,341.7 L316.5,341.5 L317.5,342.2 L318.5,342.0 L319.5,342.9 L320.6,342.7 L321.6,344.5 L322.6,344.3 L323.6,342.2 L324.7,342.0 L325.7,343.9 L326.7,343.7 L327.7,344.3 L328.8,344.1 L329.8,341.3 L330.8,341.1 L331.8,346.1 L332.9,346.0 L333.9,345.4 L334.9,345.3 L335.9,343.6 L337.0,343.5 L338.0,341.6 L339.0,341.5 L340.0,340.7 L341.1,340.7 L342.1,341.3 L343.1,341.1 L344.1,339.2 L345.2,339.1 L346.2,340.4 L347.2,340.2 L348.2,339.4 L349.3,339.2 L350.3,342.7 L351.3,342.5 L352.3,344.0 L353.4,343.7 L354.4,343.1 L355.4,342.9 L356.4,342.0 L357.5,341.8 L358.5,342.0 L359.5,341.8 L360.5,341.2 L361.6,341.0 L362.6,339.7 L363.6,339.5 L364.6,339.0 L365.7,338.8 L366.7,339.9 L367.7,339.7 L368.7,339.2 L369.8,339.1 L370.8,341.9 L371.8,341.8 L372.8,339.3 L373.9,339.3 L374.9,344.4 L375.9,344.3 L376.9,345.1 L378.0,345.1 L379.0,340.1 L380.0,339.9 L381.0,343.6 L382.1,343.5 L383.1,343.2 L384.1,343.0 L385.1,343.2 L386.2,343.0 L387.2,343.7 L388.2,343.5 L389.2,343.3 L390.3,343.2 L391.3,342.6 L392.3,342.4 L393.3,342.1 L394.4,342.0 L395.4,342.9 L396.4,342.8 L397.4,343.0 L398.5,342.8 L399.5,343.7 L400.5,343.6 L401.5,342.2 L402.6,342.2 L403.6,343.3 L404.6,343.3 L405.6,342.9 L406.7,342.9 L407.7,340.4 L408.7,340.4 L409.7,343.5 L410.8,343.5 L411.8,343.7 L412.8,343.7 L413.8,343.2 L414.9,343.2 L415.9,341.1 L416.9,341.1 L417.9,339.6 L419.0,339.5 L420.0,342.8 L421.0,342.7 L422.0,347.2 L423.1,347.1 L424.1,342.9 L425.1,342.8 L426.1,339.0 L427.2,338.8 L428.2,340.8 L429.2,340.7 L430.2,338.3 L431.3,338.2 L432.3,344.9 L433.3,344.8 L434.3,341.2 L435.4,341.1 L436.4,344.9 L437.4,344.9 L438.4,342.2 L439.5,342.2 L440.5,344.5 L441.5,344.5 L442.5,343.4 L443.6,343.4 L444.6,342.2 L445.6,342.2 L446.6,344.8 L447.7,344.8 L448.7,341.1 L449.7,341.1 L450.7,340.3 L451.8,340.3 L452.8,338.3 L453.8,338.3 L454.8,338.3 L455.9,338.3 L456.9,340.4 L457.9,340.4 L458.9,340.6 L460.0,340.6 L461.0,341.4 L462.0,341.4 L463.0,341.0 L464.1,341.0 L465.1,344.1 L466.1,344.1 L467.1,341.9 L468.2,341.9 L469.2,343.2 L470.2,343.2 L471.2,341.9 L472.3,341.9 L473.3,342.1 L474.3,342.1 L475.3,343.0 L476.4,343.1 L477.4,342.0 L478.4,342.1 L479.4,342.1 L480.5,342.1 L481.5,343.2 L482.5,343.3 L483.5,342.0 L484.6,342.0 L485.6,341.9 L486.6,341.9 L487.6,339.8 L488.7,339.8 L489.7,343.5 L490.7,343.6 L491.7,339.1 L492.8,339.2 L493.8,341.8 L494.8,341.8 L495.8,339.9 L496.9,340.0 L497.9,340.5 L498.9,340.5 L499.9,342.4 L501.0,342.4 L502.0,343.0 L503.0,343.0 L504.0,342.5 L505.1,342.5 L506.1,343.7 L507.1,343.8 L508.1,344.8 L509.2,344.9 L510.2,340.2 L511.2,340.3 L512.2,344.7 L513.3,344.8 L514.3,341.4 L515.3,341.6 L516.3,341.5 L517.4,341.6 L518.4,340.5 L519.4,340.6 L520.4,337.1 L521.5,337.2 L522.5,344.8 L523.5,344.9 L524.5,342.4 L525.6,342.4 L526.6,343.4 L527.6,343.4 L528.6,344.6 L529.7,344.6 L530.7,346.0 L531.7,346.1 L532.7,341.8 L533.8,341.8 L534.8,342.1 L535.8,342.1 L536.8,340.5 L537.9,340.6 L538.9,345.8 L539.9,345.9 L540.9,344.8 L542.0,344.9 L543.0,345.5 L544.0,345.6 L545.0,343.9 L546.0,344.1 L547.1,343.0 L548.1,343.1 L549.1,340.6 L550.1,340.7 L551.2,341.7 L552.2,341.8 L553.2,343.8 L554.2,343.9 L555.3,342.6 L556.3,342.7 L557.3,341.3 L558.3,341.4 L559.4,342.8 L560.4,342.8 L561.4,340.2 L562.4,340.2 L563.5,340.9 L564.5,341.0 L565.5,339.8 L566.5,339.8 L567.6,341.6 L568.6,341.7 L569.6,342.4 L570.6,342.5 L571.7,343.6 L572.7,343.7 L573.7,342.5 L574.7,342.7 L575.8,342.9 L576.8,343.0 L577.8,344.4 L578.8,344.5 L579.9,345.2 L580.9,345.3 L581.9,341.4 L582.9,341.5 L584.0,344.7 L585.0,344.8 L586.0,343.9 L587.0,343.9 L588.1,341.4 L589.1,341.4 L590.1,340.4 L591.1,340.5 L592.2,341.0 L593.2,341.1 L594.2,339.2 L595.2,339.2 L596.3,339.8 L597.3,339.9 L598.3,345.7 L599.3,345.8 L600.4,342.7 L601.4,342.9 L602.4,343.8 L603.4,343.9 L604.5,341.3 L605.5,341.4 L606.5,340.8 L607.5,340.9 L608.6,340.3 L609.6,340.4 L610.6,340.2 L611.6,340.3 L612.7,341.9 L613.7,341.9 L614.7,341.9 L615.7,341.9 L616.8,341.5 L617.8,341.5 L618.8,342.2 L619.8,342.2 L620.9,344.3 L621.9,344.4 L622.9,344.4 L623.9,344.4 L625.0,343.8 L626.0,343.8 L627.0,345.3 L628.0,345.3 L629.1,344.5 L630.1,344.5 L631.1,340.8 L632.1,340.9 L633.2,340.6 L634.2,340.7 L635.2,339.3 L636.2,339.4 L637.3,342.9 L638.3,343.1 L639.3,344.4 L640.3,344.6 L641.4,338.8 L642.4,338.9 L643.4,342.6 L644.4,342.7 L645.5,341.5 L646.5,341.6 L647.5,341.8 L648.5,341.9 L649.6,341.5 L650.6,341.5 L651.6,345.4 L652.6,345.4 L653.7,343.8 L654.7,343.8 L655.7,340.6 L656.7,340.6 L657.8,340.3 L658.8,340.3 L659.8,341.7 L660.8,341.8 L661.9,346.1 L662.9,346.2 L663.9,342.5 L664.9,342.6 L666.0,342.3 L667.0,342.4 L668.0,339.7 L669.0,339.8 L670.1,341.3 L671.1,341.4 L672.1,343.8 L673.1,343.9 L674.2,343.0 L675.2,343.0 L676.2,342.7 L677.2,342.8 L678.3,344.8 L679.3,344.8 L680.3,340.4 L681.3,340.4 L682.4,341.7 L683.4,341.7 L684.4,345.1 L685.4,345.1 L686.5,344.1 L687.5,344.1 L688.5,343.0 L689.5,343.1 L690.6,342.6 L691.6,342.7 L692.6,342.8 L693.6,342.9 L694.7,340.1 L695.7,340.3 L696.7,341.7 L697.7,341.8 L698.8,341.3 L699.8,341.4 L700.8,340.5 L701.8,340.7 L702.9,342.6 L703.9,342.7 L704.9,343.7 L705.9,343.8 L707.0,342.7 L708.0,342.8 L709.0,341.5 L710.0,341.6 L711.1,343.0 L712.1,343.0 L713.1,343.4 L714.1,343.4 L715.2,343.6 L716.2,343.6 L717.2,343.8 L718.2,343.9 L719.3,343.9 L720.3,343.9 L721.3,342.9 L722.3,343.0 L723.4,344.0 L724.4,344.1 L725.4,340.5 L726.4,340.7 L727.5,340.7 L728.5,340.8 L729.5,342.7 L730.5,342.8 L731.6,343.8 L732.6,343.9 L733.6,341.7 L734.6,341.8 L735.7,344.6 L736.7,344.7 L737.7,347.5 L738.7,347.5 L739.8,346.1 L740.8,346.1 L741.8,340.4 L742.8,340.4 L743.9,341.2 L744.9,341.2 L745.9,346.0 L746.9,346.0 L748.0,342.1 L749.0,342.2 L750.0,338.2 L751.0,338.3 L752.1,344.8 L753.1,344.9 L754.1,343.2 L755.1,343.3 L756.2,343.9 L757.2,344.1 L758.2,346.1 L759.2,346.2 L760.3,344.5 L761.3,344.6 L762.3,341.8 L763.3,342.0 L764.4,344.6 L765.4,344.7 L766.4,343.8 L767.4,343.9 L768.5,340.7 L769.5,340.8 L770.5,341.3 L771.5,341.4 L772.6,342.8 L773.6,342.9 L774.6,342.0 L775.6,342.1 L776.7,340.2 L777.7,340.3 L778.7,345.9 L779.7,345.9 L780.8,343.2 L781.8,343.2 L782.8,342.6 L783.8,342.7 L784.9,342.5 L785.9,342.6 L786.9,344.4 L787.9,344.5 L789.0,345.0 L790.0,345.2 L791.0,340.0 L792.0,340.1 L793.1,344.6 L794.1,344.8 L795.1,347.5 L796.1,347.7 L797.2,345.4 L798.2,345.6 L799.2,344.7 L800.2,344.8 L801.3,341.0 L802.3,341.0 L803.3,341.0 L804.3,341.1 L805.4,342.4 L806.4,342.5 L807.4,342.3 L808.4,342.3 L809.5,342.2 L810.5,342.2 L811.5,342.8 L812.5,342.8 L813.6,344.3 L814.6,344.3 L815.6,344.5 L816.6,344.6 L817.7,336.2 L818.7,336.3 L819.7,340.1 L820.7,340.2 L821.8,340.4 L822.8,340.5 L823.8,340.3 L824.8,340.4 L825.9,342.4 L826.9,342.5 L827.9,342.7 L828.9,342.8 L830.0,343.9 L831.0,343.9 L832.0,340.8 L833.0,340.9 L834.1,342.9 L835.1,343.0 L836.1,339.7 L837.1,339.8 L838.2,341.7 L839.2,341.8 L840.2,344.4 L841.2,344.4 L842.3,341.7 L843.3,341.7 L844.3,344.1 L845.3,344.2 L846.4,343.2 L847.4,343.2 L848.4,345.1 L849.4,345.1 L850.5,345.5 L851.5,345.6 L852.5,342.5 L853.5,342.6 L854.6,342.9 L855.6,342.9 L856.6,348.1 L857.6,348.2 L858.7,341.4 L859.7,341.4 L860.7,341.5 L861.7,341.6 L862.8,342.1 L863.8,342.1 L864.8,342.9 L865.8,342.9 L866.9,344.4 L867.9,344.4 L868.9,342.8 L869.9,342.9 L871.0,340.6 L872.0,340.6 L873.0,339.0 L874.0,339.0 L875.1,342.1 L876.1,342.1 L877.1,341.9 L878.1,342.0 L879.2,342.8 L880.2,342.9 L881.2,341.4 L882.2,341.4 L883.3,344.7 L884.3,344.7 L885.3,343.3 L886.3,343.3 L887.4,339.7 L888.4,339.7 L889.4,342.2 L890.4,342.3 L891.5,344.2 L892.5,344.2 L893.5,339.5 L894.5,339.5 L895.6,340.3 L896.6,340.3 L897.6,339.8 L898.6,339.8 L899.7,341.4 L900.7,341.4 L901.7,341.1 L902.7,341.1 L903.8,341.3 L904.8,341.3 L905.8,338.8 L906.8,338.8 L907.9,344.1 L908.9,344.1 L909.9,344.7 L910.9,344.7 L912.0,341.8 L913.0,341.8 L914.0,342.8 L915.0,342.9 L916.1,345.5 L917.1,345.6 L918.1,343.9 L919.1,344.0 L920.2,344.1 L921.2,344.2 L922.2,340.0 L923.2,340.1 L924.3,341.2 L925.3,341.2 L926.3,339.2 L927.3,339.2 L928.4,344.3 L929.4,344.4 L930.4,342.9 L931.4,342.9 L932.5,345.7 L933.5,345.7 L934.5,345.5 L935.5,345.5 L936.6,343.6 L937.6,343.6 L938.6,342.9 L939.6,343.0 L940.7,341.9 L941.7,341.9 L942.7,340.3 L943.7,340.3 L944.8,339.3 L945.8,339.3 L946.8,340.8 L947.8,340.8 L948.9,343.2 L949.9,343.2 L950.9,341.5 L951.9,341.6 L953.0,342.9 L954.0,342.9 L955.0,342.0 L956.0,342.0 L957.1,342.2 L958.1,342.3 L959.1,345.3 L960.1,345.3 L961.2,343.4 L962.2,343.4 L963.2,340.9 L964.2,340.9 L965.3,341.0 L966.3,341.0 L967.3,347.2 L968.3,347.2 L969.4,340.7 L970.4,340.7 L971.4,340.7 L972.4,340.7 L973.5,340.5 L974.5,340.5 L975.5,341.3 L976.5,341.3 L977.6,340.8 L978.6,340.8 L979.6,341.9 L980.6,341.9 L981.7,343.2 L982.7,343.2 L983.7,345.7 L984.7,345.7 L985.8,342.8 L986.8,342.8 L987.8,340.9 L988.8,340.9 L989.9,342.8 L990.9,342.8 L991.9,342.5 L992.9,342.5 L994.0,343.4 L995.0,343.4 L996.0,346.5" fill="none" stroke="#7c3aed" stroke-width="2.1"/>
<line x1="104" y1="302" x2="126" y2="302" stroke="#7c3aed" stroke-width="3"/>
<text x="132" y="306" font-family="Arial" font-size="12" fill="#334155">vx error</text>
<path d="M92.0,340.7 L93.0,330.9 L94.0,333.9 L95.1,326.6 L96.1,334.7 L97.1,331.5 L98.1,336.3 L99.2,336.5 L100.2,340.4 L101.2,343.2 L102.2,346.9 L103.3,351.9 L104.3,351.2 L105.3,357.7 L106.3,348.3 L107.4,356.0 L108.4,351.6 L109.4,359.7 L110.4,351.5 L111.5,359.6 L112.5,353.8 L113.5,361.6 L114.5,352.8 L115.6,359.9 L116.6,351.8 L117.6,358.2 L118.6,352.6 L119.7,358.0 L120.7,351.0 L121.7,355.6 L122.7,348.0 L123.8,349.6 L124.8,345.6 L125.8,343.4 L126.8,341.7 L127.9,337.0 L128.9,339.1 L129.9,332.7 L130.9,336.4 L132.0,331.2 L133.0,337.0 L134.0,334.8 L135.0,339.3 L136.1,339.6 L137.1,344.1 L138.1,346.5 L139.1,345.6 L140.2,349.8 L141.2,346.8 L142.2,352.2 L143.2,350.7 L144.3,357.0 L145.3,348.5 L146.3,355.2 L147.3,349.9 L148.4,356.6 L149.4,351.2 L150.4,357.6 L151.4,351.4 L152.5,357.3 L153.5,349.0 L154.5,354.4 L155.5,349.4 L156.6,354.1 L157.6,347.4 L158.6,351.4 L159.6,345.6 L160.7,346.8 L161.7,345.2 L162.7,342.8 L163.7,342.7 L164.8,337.8 L165.8,338.1 L166.8,333.7 L167.8,339.6 L168.9,337.7 L169.9,340.0 L170.9,340.2 L171.9,341.4 L173.0,343.3 L174.0,342.5 L175.0,345.7 L176.0,345.4 L177.1,349.6 L178.1,345.3 L179.1,350.2 L180.1,348.0 L181.2,353.3 L182.2,351.5 L183.2,357.0 L184.2,350.8 L185.3,356.3 L186.3,350.1 L187.3,355.4 L188.3,352.1 L189.4,357.0 L190.4,352.0 L191.4,356.5 L192.4,350.7 L193.5,354.8 L194.5,351.2 L195.5,354.8 L196.5,348.0 L197.6,349.0 L198.6,346.1 L199.6,345.2 L200.6,346.0 L201.7,342.1 L202.7,340.5 L203.7,336.8 L204.7,336.2 L205.8,334.8 L206.8,340.2 L207.8,340.4 L208.8,343.6 L209.9,345.2 L210.9,343.2 L211.9,346.0 L212.9,346.8 L214.0,350.6 L215.0,347.6 L216.0,352.1 L217.0,348.6 L218.1,353.5 L219.1,350.9 L220.1,356.0 L221.1,351.1 L222.2,356.2 L223.2,347.1 L224.2,352.1 L225.2,348.7 L226.3,353.3 L227.3,345.5 L228.3,349.7 L229.3,343.7 L230.4,345.2 L231.4,346.1 L232.4,345.6 L233.4,346.4 L234.5,342.7 L235.5,340.3 L236.5,336.9 L237.5,338.8 L238.6,337.6 L239.6,343.7 L240.6,344.3 L241.6,341.1 L242.7,343.2 L243.7,343.6 L244.7,346.9 L245.7,346.9 L246.8,351.1 L247.8,347.1 L248.8,351.9 L249.8,345.0 L250.9,350.2 L251.9,348.3 L252.9,353.5 L253.9,347.4 L255.0,352.5 L256.0,349.6 L257.0,354.3 L258.0,346.6 L259.1,351.0 L260.1,348.1 L261.1,352.1 L262.1,349.2 L263.2,352.7 L264.2,345.5 L265.2,346.4 L266.2,342.9 L267.3,342.0 L268.3,342.2 L269.3,338.4 L270.3,338.7 L271.4,332.8 L272.4,337.4 L273.4,334.4 L274.4,339.8 L275.5,339.3 L276.5,340.5 L277.5,342.0 L278.5,341.9 L279.6,345.1 L280.6,346.7 L281.6,351.1 L282.6,345.3 L283.7,350.6 L284.7,346.9 L285.7,352.8 L286.7,349.7 L287.8,355.7 L288.8,349.3 L289.8,355.3 L290.8,353.1 L291.9,358.9 L292.9,349.1 L293.9,354.5 L294.9,346.7 L296.0,351.6 L297.0,346.7 L298.0,348.7 L299.0,348.1 L300.1,348.0 L301.1,345.0 L302.1,341.6 L303.1,342.5 L304.2,339.2 L305.2,341.1 L306.2,340.0 L307.2,341.3 L308.3,342.0 L309.3,342.5 L310.3,344.6 L311.3,340.8 L312.4,344.0 L313.4,345.1 L314.4,349.1 L315.4,345.8 L316.5,350.3 L317.5,347.9 L318.5,352.8 L319.5,349.5 L320.6,354.5 L321.6,348.1 L322.6,353.1 L323.6,348.7 L324.7,353.5 L325.7,347.8 L326.7,352.3 L327.7,348.7 L328.8,352.8 L329.8,349.8 L330.8,353.5 L331.8,348.1 L332.9,349.1 L333.9,344.8 L334.9,344.0 L335.9,342.9 L337.0,339.0 L338.0,340.4 L339.0,334.5 L340.0,334.9 L341.1,332.1 L342.1,338.7 L343.1,338.2 L344.1,340.9 L345.2,342.4 L346.2,342.3 L347.2,345.5 L348.2,347.9 L349.3,352.3 L350.3,347.6 L351.3,352.9 L352.3,350.1 L353.4,356.0 L354.4,348.3 L355.4,354.4 L356.4,350.9 L357.5,357.0 L358.5,350.1 L359.5,355.9 L360.5,351.7 L361.6,357.1 L362.6,351.3 L363.6,356.2 L364.6,349.2 L365.7,353.5 L366.7,349.3 L367.7,350.8 L368.7,347.3 L369.8,345.0 L370.8,341.9 L371.8,337.0 L372.8,339.6 L373.9,333.0 L374.9,336.8 L375.9,333.5 L376.9,338.5 L378.0,337.9 L379.0,341.8 L380.0,343.4 L381.0,348.4 L382.1,351.9 L383.1,346.9 L384.1,351.8 L385.1,347.6 L386.2,353.6 L387.2,352.4 L388.2,358.9 L389.2,350.6 L390.3,357.4 L391.3,350.8 L392.3,357.8 L393.3,351.0 L394.4,357.8 L395.4,349.9 L396.4,356.2 L397.4,350.4 L398.5,356.0 L399.5,348.4 L400.5,350.8 L401.5,347.5 L402.6,347.7 L403.6,340.6 L404.6,337.5 L405.6,338.8 L406.7,333.3 L407.7,338.3 L408.7,331.4 L409.7,337.6 L410.8,334.2 L411.8,340.7 L412.8,340.4 L413.8,343.8 L414.9,346.1 L415.9,345.9 L416.9,350.3 L417.9,349.1 L419.0,359.5 L420.0,352.7 L421.0,367.4 L422.0,354.5 L423.1,372.0 L424.1,358.8 L425.1,378.3 L426.1,365.7 L427.2,386.4 L428.2,369.3 L429.2,391.0 L430.2,369.3 L431.3,391.5 L432.3,369.6 L433.3,392.3 L434.3,366.1 L435.4,389.1 L436.4,372.1 L437.4,394.3 L438.4,371.0 L439.5,391.0 L440.5,367.4 L441.5,384.2 L442.5,365.9 L443.6,378.8 L444.6,358.2 L445.6,366.3 L446.6,355.2 L447.7,357.5 L448.7,347.5 L449.7,345.6 L450.7,344.2 L451.8,339.7 L452.8,339.2 L453.8,332.8 L454.8,336.0 L455.9,328.4 L456.9,334.6 L457.9,326.2 L458.9,334.1 L460.0,325.2 L461.0,333.0 L462.0,323.7 L463.0,332.0 L464.1,322.5 L465.1,330.7 L466.1,321.1 L467.1,332.1 L468.2,324.9 L469.2,333.3 L470.2,330.3 L471.2,341.6 L472.3,342.1 L473.3,344.9 L474.3,348.2 L475.3,346.3 L476.4,351.7 L477.4,350.7 L478.4,357.5 L479.4,352.0 L480.5,359.4 L481.5,349.5 L482.5,356.8 L483.5,352.0 L484.6,358.7 L485.6,351.8 L486.6,357.4 L487.6,350.4 L488.7,352.8 L489.7,346.4 L490.7,344.6 L491.7,343.6 L492.8,339.0 L493.8,338.8 L494.8,332.4 L495.8,340.2 L496.9,332.6 L497.9,333.1 L498.9,324.7 L499.9,332.2 L501.0,323.2 L502.0,333.2 L503.0,326.7 L504.0,335.2 L505.1,332.9 L506.1,337.3 L507.1,338.4 L508.1,340.8 L509.2,344.6 L510.2,347.5 L511.2,353.2 L512.2,351.5 L513.3,358.3 L514.3,353.0 L515.3,360.5 L516.3,355.3 L517.4,362.7 L518.4,353.2 L519.4,360.0 L520.4,351.9 L521.5,355.3 L522.5,349.6 L523.5,348.5 L524.5,343.5 L525.6,339.5 L526.6,340.4 L527.6,334.3 L528.6,337.9 L529.7,330.5 L530.7,336.2 L531.7,327.9 L532.7,332.5 L533.8,326.2 L534.8,337.5 L535.8,334.9 L536.8,338.9 L537.9,339.3 L538.9,342.9 L539.9,345.7 L540.9,342.0 L542.0,346.6 L543.0,346.3 L544.0,351.9 L545.0,351.7 L546.0,357.7 L547.1,348.2 L548.1,354.3 L549.1,346.8 L550.1,352.4 L551.2,348.8 L552.2,351.2 L553.2,349.3 L554.2,347.6 L555.3,343.6 L556.3,339.2 L557.3,335.5 L558.3,329.2 L559.4,336.3 L560.4,328.7 L561.4,335.4 L562.4,327.0 L563.5,333.6 L564.5,327.4 L565.5,335.1 L566.5,332.8 L567.6,339.2 L568.6,340.1 L569.6,342.9 L570.6,346.3 L571.7,346.4 L572.7,351.6 L573.7,348.7 L574.7,355.0 L575.8,353.3 L576.8,360.1 L577.8,351.9 L578.8,358.6 L579.9,349.3 L580.9,355.5 L581.9,350.1 L582.9,353.0 L584.0,348.8 L585.0,347.4 L586.0,341.9 L587.0,337.6 L588.1,335.0 L589.1,328.8 L590.1,337.5 L591.1,330.1 L592.2,336.7 L593.2,328.4 L594.2,333.9 L595.2,327.7 L596.3,334.4 L597.3,331.9 L598.3,339.3 L599.3,339.9 L600.4,346.1 L601.4,349.1 L602.4,347.6 L603.4,352.5 L604.5,348.1 L605.5,354.2 L606.5,350.5 L607.5,357.0 L608.6,349.7 L609.6,356.1 L610.6,349.9 L611.6,355.7 L612.7,349.9 L613.7,352.5 L614.7,345.5 L615.7,343.9 L616.8,342.7 L617.8,338.3 L618.8,340.3 L619.8,334.1 L620.9,335.4 L621.9,327.9 L622.9,333.8 L623.9,325.4 L625.0,333.7 L626.0,327.4 L627.0,334.3 L628.0,331.8 L629.1,339.8 L630.1,340.4 L631.1,342.6 L632.1,345.7 L633.2,346.2 L634.2,351.2 L635.2,348.7 L636.2,354.8 L637.3,347.1 L638.3,353.7 L639.3,350.6 L640.3,357.1 L641.4,346.8 L642.4,352.7 L643.4,348.6 L644.4,351.3 L645.5,348.0 L646.5,346.4 L647.5,342.4 L648.5,338.1 L649.6,339.9 L650.6,333.7 L651.6,338.0 L652.6,330.5 L653.7,333.8 L654.7,325.5 L655.7,334.1 L656.7,327.8 L657.8,334.9 L658.8,332.5 L659.8,338.0 L660.8,338.8 L661.9,338.6 L662.9,341.8 L663.9,347.7 L664.9,352.6 L666.0,349.6 L667.0,355.6 L668.0,348.7 L669.0,355.3 L670.1,348.2 L671.1,354.7 L672.1,352.0 L673.1,357.9 L674.2,350.6 L675.2,353.3 L676.2,344.0 L677.2,342.4 L678.3,343.6 L679.3,339.3 L680.3,340.3 L681.3,334.0 L682.4,337.3 L683.4,329.8 L684.4,333.1 L685.4,324.8 L686.5,333.1 L687.5,326.8 L688.5,334.1 L689.5,331.7 L690.6,338.2 L691.6,338.9 L692.6,341.6 L693.6,344.7 L694.7,345.6 L695.7,350.6 L696.7,349.1 L697.7,355.2 L698.8,350.1 L699.8,356.7 L700.8,349.3 L701.8,355.9 L702.9,349.8 L703.9,355.8 L704.9,351.0 L705.9,353.8 L707.0,346.7 L708.0,345.2 L709.0,342.3 L710.0,338.0 L711.1,337.4 L712.1,331.1 L713.1,337.5 L714.1,330.0 L715.2,335.6 L716.2,327.2 L717.2,336.0 L718.2,329.7 L719.3,339.1 L720.3,336.8 L721.3,338.5 L722.3,339.4 L723.4,342.9 L724.4,346.3 L725.4,347.6 L726.4,352.6 L727.5,346.2 L728.5,352.4 L729.5,347.1 L730.5,353.6 L731.6,354.1 L732.6,360.4 L733.6,352.7 L734.6,358.5 L735.7,349.7 L736.7,352.3 L737.7,343.0 L738.7,341.4 L739.8,341.4 L740.8,337.0 L741.8,338.6 L742.8,332.3 L743.9,335.2 L744.9,327.7 L745.9,334.7 L746.9,326.3 L748.0,331.3 L749.0,325.0 L750.0,336.0 L751.0,333.6 L752.1,338.0 L753.1,338.6 L754.1,343.1 L755.1,346.2 L756.2,346.8 L757.2,351.8 L758.2,348.5 L759.2,354.6 L760.3,350.6 L761.3,357.2 L762.3,349.9 L763.3,356.4 L764.4,351.1 L765.4,357.4 L766.4,351.0 L767.4,356.7 L768.5,350.3 L769.5,352.9 L770.5,345.7 L771.5,344.1 L772.6,342.0 L773.6,337.6 L774.6,338.9 L775.6,332.6 L776.7,335.8 L777.7,328.2 L778.7,336.7 L779.7,328.4 L780.8,331.2 L781.8,325.0 L782.8,334.9 L783.8,332.5 L784.9,336.6 L785.9,337.3 L786.9,341.2 L787.9,344.4 L789.0,345.8 L790.0,350.7 L791.0,346.7 L792.0,352.7 L793.1,349.6 L794.1,356.1 L795.1,347.1 L796.1,353.5 L797.2,352.5 L798.2,358.3 L799.2,351.0 L800.2,353.7 L801.3,347.3 L802.3,345.7 L803.3,342.0 L804.3,337.5 L805.4,338.6 L806.4,332.3 L807.4,338.5 L808.4,331.0 L809.5,332.2 L810.5,323.9 L811.5,332.0 L812.5,325.7 L813.6,337.1 L814.6,334.6 L815.6,339.1 L816.6,339.9 L817.7,344.4 L818.7,347.7 L819.7,346.8 L820.7,352.0 L821.8,347.6 L822.8,353.9 L823.8,351.4 L824.8,358.1 L825.9,349.6 L826.9,356.3 L827.9,350.0 L828.9,356.1 L830.0,350.3 L831.0,353.1 L832.0,345.2 L833.0,343.8 L834.1,341.5 L835.1,337.1 L836.1,337.7 L837.1,331.5 L838.2,335.4 L839.2,327.9 L840.2,335.4 L841.2,327.0 L842.3,336.8 L843.3,330.5 L844.3,336.2 L845.3,333.9 L846.4,339.7 L847.4,340.5 L848.4,344.5 L849.4,347.8 L850.5,347.4 L851.5,352.4 L852.5,347.8 L853.5,353.9 L854.6,349.0 L855.6,355.5 L856.6,349.5 L857.6,355.9 L858.7,350.2 L859.7,356.0 L860.7,348.9 L861.7,351.5 L862.8,346.0 L863.8,344.4 L864.8,342.9 L865.8,338.4 L866.9,339.3 L867.9,333.0 L868.9,335.2 L869.9,327.7 L871.0,334.5 L872.0,326.2 L873.0,331.8 L874.0,325.5 L875.1,335.0 L876.1,332.5 L877.1,338.7 L878.1,339.4 L879.2,344.2 L880.2,347.3 L881.2,345.9 L882.2,350.9 L883.3,349.1 L884.3,355.3 L885.3,352.2 L886.3,358.8 L887.4,352.5 L888.4,359.1 L889.4,347.3 L890.4,353.5 L891.5,347.9 L892.5,350.8 L893.5,345.5 L894.5,344.0 L895.6,343.8 L896.6,339.5 L897.6,339.1 L898.6,332.9 L899.7,337.0 L900.7,329.5 L901.7,333.1 L902.7,324.8 L903.8,333.0 L904.8,324.2 L905.8,333.6 L906.8,327.3 L907.9,335.0 L908.9,333.2 L909.9,340.7 L910.9,342.5 L912.0,343.8 L913.0,348.3 L914.0,346.9 L915.0,353.4 L916.1,348.1 L917.1,355.7 L918.1,351.5 L919.1,359.4 L920.2,352.4 L921.2,360.0 L922.2,352.4 L923.2,359.3 L924.3,349.4 L925.3,352.8 L926.3,346.5 L927.3,345.4 L928.4,345.1 L929.4,341.0 L930.4,340.2 L931.4,334.1 L932.5,336.2 L933.5,328.8 L934.5,331.8 L935.5,323.5 L936.6,331.6 L937.6,322.8 L938.6,330.9 L939.6,324.5 L940.7,333.5 L941.7,331.3 L942.7,340.5 L943.7,341.8 L944.8,342.6 L945.8,346.6 L946.8,343.2 L947.8,349.2 L948.9,346.8 L949.9,353.9 L950.9,349.9 L951.9,357.3 L953.0,350.9 L954.0,358.1 L955.0,349.7 L956.0,356.3 L957.1,350.4 L958.1,355.9 L959.1,351.6 L960.1,355.9 L961.2,353.2 L962.2,356.2 L963.2,347.8 L964.2,349.6 L965.3,346.8 L966.3,347.5 L967.3,342.1 L968.3,341.7 L969.4,341.1 L970.4,339.9 L971.4,342.1 L972.4,340.2 L973.5,341.5 L974.5,339.2 L975.5,341.6 L976.5,339.2 L977.6,340.6 L978.6,338.3 L979.6,341.1 L980.6,339.0 L981.7,341.2 L982.7,339.5 L983.7,338.7 L984.7,337.4 L985.8,340.9 L986.8,340.0 L987.8,339.9 L988.8,339.4 L989.9,340.0 L990.9,339.8 L991.9,339.6 L992.9,339.7 L994.0,342.2 L995.0,342.4 L996.0,344.1" fill="none" stroke="#059669" stroke-width="2.1"/>
<line x1="232" y1="302" x2="254" y2="302" stroke="#059669" stroke-width="3"/>
<text x="260" y="306" font-family="Arial" font-size="12" fill="#334155">vz error</text>
<text x="92" y="444" font-family="Arial" font-size="16" font-weight="700" fill="#0f172a">Attitude estimation error</text>
<rect x="92" y="456" width="904" height="118" fill="#ffffff" stroke="#cbd5e1"/>
<line x1="92" y1="515.0" x2="996" y2="515.0" stroke="#94a3b8"/>
<text x="24" y="515.0" font-family="Arial" font-size="13" fill="#334155" transform="rotate(-90 24,515.0)">deg</text>
<text x="36" y="469" font-family="Arial" font-size="12" fill="#64748b">0.21</text>
<text x="32" y="574" font-family="Arial" font-size="12" fill="#64748b">-0.21</text>
<path d="M92.0,522.6 L93.0,522.8 L94.0,517.8 L95.1,516.5 L96.1,523.6 L97.1,522.8 L98.1,524.4 L99.2,523.9 L100.2,511.7 L101.2,513.0 L102.2,547.9 L103.3,549.0 L104.3,536.9 L105.3,537.5 L106.3,522.0 L107.4,521.7 L108.4,515.0 L109.4,515.3 L110.4,532.0 L111.5,532.0 L112.5,518.8 L113.5,517.0 L114.5,500.8 L115.6,499.3 L116.6,509.9 L117.6,508.0 L118.6,484.7 L119.7,483.1 L120.7,519.0 L121.7,517.8 L122.7,540.0 L123.8,541.4 L124.8,535.3 L125.8,537.2 L126.8,528.6 L127.9,529.3 L128.9,529.5 L129.9,529.9 L130.9,517.7 L132.0,517.9 L133.0,519.5 L134.0,519.5 L135.0,503.0 L136.1,503.1 L137.1,482.7 L138.1,480.9 L139.1,472.9 L140.2,471.9 L141.2,484.0 L142.2,482.2 L143.2,509.1 L144.3,507.5 L145.3,515.6 L146.3,514.6 L147.3,517.8 L148.4,517.3 L149.4,502.2 L150.4,501.2 L151.4,528.8 L152.5,529.1 L153.5,511.0 L154.5,511.8 L155.5,523.3 L156.6,524.4 L157.6,526.5 L158.6,528.0 L159.6,525.5 L160.7,526.1 L161.7,514.0 L162.7,514.9 L163.7,510.6 L164.8,510.7 L165.8,510.3 L166.8,510.3 L167.8,483.8 L168.9,484.0 L169.9,535.6 L170.9,534.8 L171.9,539.3 L173.0,537.8 L174.0,515.4 L175.0,512.6 L176.0,536.5 L177.1,533.9 L178.1,535.9 L179.1,533.9 L180.1,538.9 L181.2,536.3 L182.2,493.1 L183.2,493.1 L184.2,491.6 L185.3,492.7 L186.3,496.0 L187.3,498.4 L188.3,486.7 L189.4,488.0 L190.4,495.9 L191.4,497.4 L192.4,507.1 L193.5,507.9 L194.5,502.3 L195.5,502.7 L196.5,550.2 L197.6,550.4 L198.6,552.4 L199.6,551.9 L200.6,525.2 L201.7,524.6 L202.7,527.8 L203.7,528.7 L204.7,521.3 L205.8,521.0 L206.8,504.9 L207.8,504.1 L208.8,530.8 L209.9,529.2 L210.9,529.4 L211.9,528.0 L212.9,518.6 L214.0,516.2 L215.0,509.4 L216.0,507.5 L217.0,513.8 L218.1,512.4 L219.1,521.6 L220.1,520.1 L221.1,520.5 L222.2,520.0 L223.2,521.1 L224.2,521.9 L225.2,525.0 L226.3,525.7 L227.3,509.2 L228.3,509.3 L229.3,526.2 L230.4,528.3 L231.4,515.0 L232.4,516.1 L233.4,534.8 L234.5,535.3 L235.5,512.3 L236.5,512.0 L237.5,478.1 L238.6,478.2 L239.6,503.7 L240.6,504.1 L241.6,516.7 L242.7,516.3 L243.7,530.4 L244.7,529.6 L245.7,508.6 L246.8,509.0 L247.8,510.6 L248.8,510.1 L249.8,520.7 L250.9,520.9 L251.9,513.8 L252.9,514.2 L253.9,506.8 L255.0,506.3 L256.0,535.9 L257.0,536.4 L258.0,531.5 L259.1,532.0 L260.1,547.7 L261.1,547.1 L262.1,540.6 L263.2,540.4 L264.2,542.1 L265.2,542.3 L266.2,538.6 L267.3,539.0 L268.3,523.2 L269.3,522.6 L270.3,529.0 L271.4,528.1 L272.4,512.5 L273.4,512.2 L274.4,526.0 L275.5,525.4 L276.5,536.1 L277.5,536.7 L278.5,523.1 L279.6,525.6 L280.6,530.1 L281.6,532.0 L282.6,550.9 L283.7,552.2 L284.7,524.3 L285.7,524.8 L286.7,507.9 L287.8,508.5 L288.8,534.6 L289.8,534.5 L290.8,531.7 L291.9,530.2 L292.9,509.8 L293.9,508.0 L294.9,522.9 L296.0,520.6 L297.0,504.0 L298.0,501.5 L299.0,525.9 L300.1,524.9 L301.1,511.3 L302.1,510.9 L303.1,511.2 L304.2,510.8 L305.2,507.9 L306.2,507.3 L307.2,518.4 L308.3,518.6 L309.3,494.0 L310.3,492.3 L311.3,507.8 L312.4,506.7 L313.4,516.9 L314.4,517.5 L315.4,536.3 L316.5,536.8 L317.5,522.2 L318.5,524.4 L319.5,531.1 L320.6,531.4 L321.6,517.2 L322.6,517.4 L323.6,509.5 L324.7,509.7 L325.7,509.3 L326.7,508.4 L327.7,517.6 L328.8,515.5 L329.8,516.9 L330.8,514.9 L331.8,518.0 L332.9,516.9 L333.9,540.1 L334.9,539.7 L335.9,528.3 L337.0,528.1 L338.0,511.2 L339.0,511.2 L340.0,522.7 L341.1,522.3 L342.1,519.5 L343.1,519.2 L344.1,537.6 L345.2,537.2 L346.2,532.3 L347.2,532.7 L348.2,505.8 L349.3,505.1 L350.3,532.0 L351.3,531.6 L352.3,536.9 L353.4,535.7 L354.4,530.8 L355.4,531.2 L356.4,538.7 L357.5,539.2 L358.5,529.8 L359.5,530.4 L360.5,538.6 L361.6,540.8 L362.6,544.4 L363.6,545.4 L364.6,526.5 L365.7,527.4 L366.7,553.5 L367.7,553.1 L368.7,543.6 L369.8,542.8 L370.8,537.4 L371.8,536.2 L372.8,525.5 L373.9,523.4 L374.9,504.2 L375.9,501.2 L376.9,485.1 L378.0,482.9 L379.0,513.3 L380.0,511.3 L381.0,524.3 L382.1,523.0 L383.1,532.6 L384.1,530.8 L385.1,517.6 L386.2,516.1 L387.2,501.2 L388.2,500.3 L389.2,521.0 L390.3,521.2 L391.3,522.5 L392.3,524.1 L393.3,528.1 L394.4,528.5 L395.4,496.1 L396.4,496.9 L397.4,486.5 L398.5,486.0 L399.5,490.0 L400.5,490.3 L401.5,536.7 L402.6,536.4 L403.6,508.9 L404.6,507.6 L405.6,505.1 L406.7,504.2 L407.7,502.4 L408.7,502.7 L409.7,501.9 L410.8,503.1 L411.8,541.2 L412.8,540.1 L413.8,513.7 L414.9,513.3 L415.9,516.0 L416.9,513.1 L417.9,504.9 L419.0,504.0 L420.0,515.4 L421.0,515.1 L422.0,516.9 L423.1,515.7 L424.1,519.9 L425.1,518.7 L426.1,538.0 L427.2,539.0 L428.2,525.9 L429.2,527.1 L430.2,537.9 L431.3,540.9 L432.3,530.6 L433.3,532.3 L434.3,523.2 L435.4,524.7 L436.4,536.0 L437.4,534.1 L438.4,542.3 L439.5,538.3 L440.5,511.9 L441.5,507.8 L442.5,541.0 L443.6,537.1 L444.6,523.3 L445.6,520.5 L446.6,515.0 L447.7,512.9 L448.7,524.9 L449.7,524.8 L450.7,548.1 L451.8,549.7 L452.8,517.3 L453.8,518.2 L454.8,504.0 L455.9,504.7 L456.9,531.4 L457.9,533.2 L458.9,505.8 L460.0,506.0 L461.0,541.4 L462.0,541.9 L463.0,525.1 L464.1,525.6 L465.1,494.4 L466.1,493.5 L467.1,504.5 L468.2,503.6 L469.2,518.9 L470.2,518.8 L471.2,491.7 L472.3,491.4 L473.3,540.6 L474.3,539.4 L475.3,525.5 L476.4,522.5 L477.4,503.4 L478.4,501.0 L479.4,524.8 L480.5,523.4 L481.5,521.3 L482.5,520.1 L483.5,530.4 L484.6,531.1 L485.6,543.6 L486.6,544.3 L487.6,551.6 L488.7,552.3 L489.7,527.0 L490.7,527.4 L491.7,527.1 L492.8,527.1 L493.8,513.1 L494.8,513.0 L495.8,502.0 L496.9,500.9 L497.9,525.6 L498.9,524.7 L499.9,517.8 L501.0,517.9 L502.0,527.5 L503.0,527.7 L504.0,507.7 L505.1,508.2 L506.1,519.7 L507.1,519.2 L508.1,484.1 L509.2,481.6 L510.2,514.6 L511.2,512.8 L512.2,516.8 L513.3,515.2 L514.3,516.1 L515.3,515.0 L516.3,538.6 L517.4,538.3 L518.4,500.6 L519.4,500.2 L520.4,498.9 L521.5,498.9 L522.5,519.7 L523.5,519.9 L524.5,504.6 L525.6,505.0 L526.6,520.7 L527.6,521.3 L528.6,514.6 L529.7,514.7 L530.7,539.9 L531.7,540.4 L532.7,537.9 L533.8,537.4 L534.8,514.9 L535.8,513.6 L536.8,499.1 L537.9,498.2 L538.9,507.8 L539.9,508.5 L540.9,509.1 L542.0,510.4 L543.0,531.4 L544.0,531.7 L545.0,529.6 L546.0,529.1 L547.1,542.1 L548.1,541.5 L549.1,515.2 L550.1,514.6 L551.2,539.0 L552.2,538.8 L553.2,528.9 L554.2,527.7 L555.3,508.2 L556.3,506.6 L557.3,524.0 L558.3,522.8 L559.4,519.0 L560.4,518.2 L561.4,528.3 L562.4,527.8 L563.5,511.3 L564.5,511.0 L565.5,531.0 L566.5,531.1 L567.6,514.2 L568.6,513.1 L569.6,533.0 L570.6,532.6 L571.7,510.5 L572.7,508.4 L573.7,517.5 L574.7,516.1 L575.8,508.3 L576.8,507.7 L577.8,516.4 L578.8,515.8 L579.9,519.5 L580.9,519.8 L581.9,519.2 L582.9,520.5 L584.0,518.9 L585.0,519.2 L586.0,513.7 L587.0,513.8 L588.1,519.0 L589.1,519.1 L590.1,508.5 L591.1,509.2 L592.2,517.1 L593.2,517.7 L594.2,537.3 L595.2,536.8 L596.3,515.0 L597.3,513.9 L598.3,504.4 L599.3,503.7 L600.4,509.0 L601.4,508.3 L602.4,518.2 L603.4,516.3 L604.5,509.2 L605.5,508.1 L606.5,511.3 L607.5,510.6 L608.6,521.2 L609.6,520.6 L610.6,524.9 L611.6,523.9 L612.7,515.1 L613.7,515.0 L614.7,528.1 L615.7,530.0 L616.8,509.0 L617.8,508.5 L618.8,495.2 L619.8,495.1 L620.9,500.7 L621.9,500.6 L622.9,539.8 L623.9,539.4 L625.0,518.6 L626.0,518.9 L627.0,514.6 L628.0,514.3 L629.1,485.0 L630.1,482.6 L631.1,511.6 L632.1,510.4 L633.2,527.4 L634.2,526.6 L635.2,542.6 L636.2,542.0 L637.3,523.0 L638.3,521.7 L639.3,491.3 L640.3,491.0 L641.4,535.5 L642.4,535.4 L643.4,515.8 L644.4,516.4 L645.5,463.7 L646.5,465.2 L647.5,504.1 L648.5,505.2 L649.6,512.9 L650.6,512.7 L651.6,521.1 L652.6,521.2 L653.7,512.9 L654.7,511.5 L655.7,499.5 L656.7,497.4 L657.8,491.1 L658.8,489.3 L659.8,538.3 L660.8,535.9 L661.9,517.8 L662.9,516.2 L663.9,538.7 L664.9,538.2 L666.0,528.7 L667.0,527.8 L668.0,525.7 L669.0,525.7 L670.1,500.4 L671.1,500.3 L672.1,550.4 L673.1,550.1 L674.2,548.5 L675.2,548.4 L676.2,498.0 L677.2,497.2 L678.3,508.8 L679.3,508.8 L680.3,512.3 L681.3,512.5 L682.4,523.3 L683.4,522.7 L684.4,521.1 L685.4,520.4 L686.5,518.2 L687.5,516.4 L688.5,501.9 L689.5,500.8 L690.6,497.0 L691.6,496.4 L692.6,490.6 L693.6,489.6 L694.7,521.8 L695.7,520.4 L696.7,535.4 L697.7,534.6 L698.8,510.4 L699.8,509.9 L700.8,529.9 L701.8,530.2 L702.9,520.2 L703.9,520.8 L704.9,495.6 L705.9,495.3 L707.0,529.6 L708.0,530.9 L709.0,528.8 L710.0,529.5 L711.1,525.4 L712.1,525.4 L713.1,485.4 L714.1,484.6 L715.2,508.9 L716.2,508.7 L717.2,542.2 L718.2,541.5 L719.3,516.1 L720.3,515.7 L721.3,525.5 L722.3,526.6 L723.4,505.3 L724.4,506.2 L725.4,539.0 L726.4,539.8 L727.5,541.1 L728.5,541.0 L729.5,523.7 L730.5,524.2 L731.6,512.8 L732.6,512.1 L733.6,503.2 L734.6,503.5 L735.7,494.3 L736.7,493.6 L737.7,493.1 L738.7,493.5 L739.8,532.9 L740.8,533.3 L741.8,530.1 L742.8,529.5 L743.9,521.8 L744.9,521.3 L745.9,508.1 L746.9,507.7 L748.0,524.1 L749.0,524.5 L750.0,522.2 L751.0,523.5 L752.1,516.3 L753.1,516.3 L754.1,522.5 L755.1,521.9 L756.2,514.9 L757.2,514.2 L758.2,527.3 L759.2,526.8 L760.3,523.4 L761.3,523.2 L762.3,504.9 L763.3,504.2 L764.4,525.1 L765.4,524.7 L766.4,538.8 L767.4,539.2 L768.5,494.6 L769.5,495.1 L770.5,508.2 L771.5,507.8 L772.6,528.5 L773.6,529.2 L774.6,535.0 L775.6,536.6 L776.7,543.1 L777.7,544.0 L778.7,514.4 L779.7,514.2 L780.8,521.0 L781.8,521.0 L782.8,534.1 L783.8,533.9 L784.9,517.4 L785.9,516.6 L786.9,507.5 L787.9,507.2 L789.0,494.4 L790.0,494.3 L791.0,513.4 L792.0,514.2 L793.1,503.3 L794.1,502.6 L795.1,530.7 L796.1,530.4 L797.2,513.5 L798.2,513.4 L799.2,518.0 L800.2,518.0 L801.3,516.0 L802.3,515.8 L803.3,529.8 L804.3,528.6 L805.4,529.9 L806.4,528.1 L807.4,530.0 L808.4,528.9 L809.5,535.8 L810.5,536.0 L811.5,518.4 L812.5,518.6 L813.6,506.8 L814.6,507.1 L815.6,515.9 L816.6,516.5 L817.7,522.9 L818.7,522.3 L819.7,524.3 L820.7,524.3 L821.8,511.3 L822.8,509.7 L823.8,522.3 L824.8,521.5 L825.9,520.1 L826.9,519.3 L827.9,532.3 L828.9,531.3 L830.0,527.5 L831.0,527.3 L832.0,517.0 L833.0,517.8 L834.1,517.4 L835.1,517.2 L836.1,508.9 L837.1,508.3 L838.2,528.2 L839.2,528.2 L840.2,521.2 L841.2,520.6 L842.3,511.4 L843.3,511.3 L844.3,522.1 L845.3,521.6 L846.4,501.8 L847.4,501.8 L848.4,513.4 L849.4,514.4 L850.5,547.6 L851.5,547.3 L852.5,529.9 L853.5,528.3 L854.6,510.5 L855.6,510.2 L856.6,510.3 L857.6,509.8 L858.7,498.8 L859.7,497.7 L860.7,496.8 L861.7,496.3 L862.8,496.6 L863.8,495.5 L864.8,494.1 L865.8,493.1 L866.9,529.8 L867.9,528.3 L868.9,508.8 L869.9,507.6 L871.0,492.6 L872.0,492.1 L873.0,519.7 L874.0,519.0 L875.1,499.1 L876.1,499.1 L877.1,508.0 L878.1,507.8 L879.2,513.8 L880.2,514.0 L881.2,513.6 L882.2,513.0 L883.3,508.7 L884.3,508.4 L885.3,508.9 L886.3,509.3 L887.4,506.7 L888.4,506.9 L889.4,529.0 L890.4,531.1 L891.5,541.9 L892.5,542.8 L893.5,538.0 L894.5,537.6 L895.6,548.0 L896.6,547.4 L897.6,533.1 L898.6,532.3 L899.7,521.6 L900.7,521.3 L901.7,509.3 L902.7,508.8 L903.8,524.5 L904.8,526.5 L905.8,522.4 L906.8,522.6 L907.9,527.2 L908.9,527.7 L909.9,522.5 L910.9,522.8 L912.0,554.8 L913.0,555.4 L914.0,532.7 L915.0,531.8 L916.1,537.7 L917.1,535.4 L918.1,528.1 L919.1,528.0 L920.2,543.3 L921.2,543.8 L922.2,525.4 L923.2,526.3 L924.3,518.1 L925.3,518.0 L926.3,499.2 L927.3,497.9 L928.4,521.8 L929.4,521.4 L930.4,527.1 L931.4,527.3 L932.5,533.8 L933.5,533.2 L934.5,493.8 L935.5,492.3 L936.6,522.3 L937.6,521.9 L938.6,533.8 L939.6,533.1 L940.7,522.0 L941.7,520.8 L942.7,525.0 L943.7,524.3 L944.8,519.0 L945.8,518.9 L946.8,517.0 L947.8,517.2 L948.9,516.6 L949.9,516.6 L950.9,530.7 L951.9,530.7 L953.0,513.0 L954.0,511.7 L955.0,510.3 L956.0,509.2 L957.1,520.5 L958.1,520.3 L959.1,540.2 L960.1,539.8 L961.2,538.6 L962.2,537.0 L963.2,523.5 L964.2,522.7 L965.3,530.1 L966.3,529.4 L967.3,517.4 L968.3,517.2 L969.4,534.6 L970.4,534.4 L971.4,509.5 L972.4,508.4 L973.5,534.7 L974.5,534.2 L975.5,527.1 L976.5,525.9 L977.6,528.2 L978.6,527.4 L979.6,521.3 L980.6,520.8 L981.7,518.2 L982.7,518.3 L983.7,504.4 L984.7,503.2 L985.8,521.3 L986.8,520.8 L987.8,524.3 L988.8,524.7 L989.9,521.3 L990.9,521.6 L991.9,497.2 L992.9,497.9 L994.0,500.2 L995.0,501.6 L996.0,512.5" fill="none" stroke="#ea580c" stroke-width="2.1"/>
<line x1="104" y1="474" x2="126" y2="474" stroke="#ea580c" stroke-width="3"/>
<text x="132" y="478" font-family="Arial" font-size="12" fill="#334155">pitch error</text>
<text x="52" y="620" font-family="Arial" font-size="18" font-weight="700" fill="#0f172a">Closed-loop Monte Carlo consequence</text>
<text x="72" y="644" font-family="Arial" font-size="14" font-weight="700" fill="#0f172a">success rate</text>
<rect x="72" y="660" width="122.0" height="22" fill="#2563eb" opacity="0.82"/>
<text x="201.0" y="676" font-family="Arial" font-size="12" fill="#334155">truth 95.00 %</text>
<rect x="72" y="692" width="85.4" height="22" fill="#ea580c" opacity="0.84"/>
<text x="164.4" y="708" font-family="Arial" font-size="12" fill="#334155">estimated 66.50 %</text>
<text x="392" y="644" font-family="Arial" font-size="14" font-weight="700" fill="#0f172a">p95 landing error</text>
<rect x="392" y="660" width="73.1" height="22" fill="#2563eb" opacity="0.82"/>
<text x="472.1" y="676" font-family="Arial" font-size="12" fill="#334155">truth 2.96 m</text>
<rect x="392" y="692" width="122.0" height="22" fill="#ea580c" opacity="0.84"/>
<text x="521.0" y="708" font-family="Arial" font-size="12" fill="#334155">estimated 4.94 m</text>
<text x="712" y="644" font-family="Arial" font-size="14" font-weight="700" fill="#0f172a">p95 touchdown speed</text>
<rect x="712" y="660" width="54.8" height="22" fill="#2563eb" opacity="0.82"/>
<text x="773.8" y="676" font-family="Arial" font-size="12" fill="#334155">truth 0.88 m/s</text>
<rect x="712" y="692" width="122.0" height="22" fill="#ea580c" opacity="0.84"/>
<text x="841.0" y="708" font-family="Arial" font-size="12" fill="#334155">estimated 1.96 m/s</text>
<text x="52" y="800" font-family="Arial" font-size="13" fill="#475569">Nominal RMS errors: x 0.40 m, z 0.32 m, vx 0.10 m/s, vz 0.51 m/s, pitch 0.056 deg.</text>
</svg>
