<svg xmlns="http://www.w3.org/2000/svg" width="1000" height="1040" viewBox="0 0 1000 1040" role="img">
<title>Nominal autonomous landing simulation plots</title>
<rect width="100%" height="100%" fill="#f8fafc"/>
<text x="54" y="42" font-family="Arial" font-size="24" font-weight="700" fill="#0f172a">Nominal Powered Landing Simulation</text>
<text x="54" y="64" font-family="Arial" font-size="14" fill="#475569">Guidance, throttle, gimbal, and mass-state histories from simulator CSV output.</text>
<rect x="86" y="78" width="886" height="122" fill="#ffffff" stroke="#cbd5e1"/>
<text x="86" y="70" font-family="Arial" font-size="16" font-weight="700" fill="#0f172a">Altitude</text>
<text x="24" y="139.0" font-family="Arial" font-size="13" fill="#334155" transform="rotate(-90 24,139.0)">m</text>
<text x="18" y="92" font-family="Arial" font-size="12" fill="#64748b">777.6</text>
<text x="18" y="200" font-family="Arial" font-size="12" fill="#64748b">-57.6</text>
<path d="M86.0,86.4 L87.9,86.8 L89.8,87.3 L91.7,87.7 L93.7,88.1 L95.6,88.5 L97.5,88.9 L99.4,89.3 L101.3,89.8 L103.2,90.2 L105.1,90.6 L107.0,91.0 L109.0,91.4 L110.9,91.8 L112.8,92.2 L114.7,92.6 L116.6,93.0 L118.5,93.4 L120.4,93.8 L122.4,94.3 L124.3,94.7 L126.2,95.1 L128.1,95.5 L130.0,95.9 L131.9,96.3 L133.8,96.7 L135.8,97.1 L137.7,97.5 L139.6,97.8 L141.5,98.2 L143.4,98.6 L145.3,99.0 L147.2,99.4 L149.1,99.8 L151.1,100.2 L153.0,100.6 L154.9,101.0 L156.8,101.4 L158.7,101.8 L160.6,102.1 L162.5,102.5 L164.5,102.9 L166.4,103.3 L168.3,103.7 L170.2,104.1 L172.1,104.4 L174.0,104.8 L175.9,105.2 L177.9,105.6 L179.8,106.0 L181.7,106.3 L183.6,106.7 L185.5,107.1 L187.4,107.5 L189.3,107.8 L191.2,108.2 L193.2,108.6 L195.1,109.0 L197.0,109.3 L198.9,109.7 L200.8,110.1 L202.7,110.4 L204.6,110.8 L206.6,111.2 L208.5,111.5 L210.4,111.9 L212.3,112.3 L214.2,112.6 L216.1,113.0 L218.0,113.4 L220.0,113.7 L221.9,114.1 L223.8,114.4 L225.7,114.8 L227.6,115.2 L229.5,115.5 L231.4,115.9 L233.3,116.2 L235.3,116.6 L237.2,116.9 L239.1,117.3 L241.0,117.6 L242.9,118.0 L244.8,118.3 L246.7,118.7 L248.7,119.0 L250.6,119.4 L252.5,119.7 L254.4,120.1 L256.3,120.4 L258.2,120.8 L260.1,121.1 L262.1,121.5 L264.0,121.8 L265.9,122.1 L267.8,122.5 L269.7,122.8 L271.6,123.2 L273.5,123.5 L275.4,123.8 L277.4,124.2 L279.3,124.5 L281.2,124.9 L283.1,125.2 L285.0,125.5 L286.9,125.9 L288.8,126.2 L290.8,126.5 L292.7,126.8 L294.6,127.2 L296.5,127.5 L298.4,127.8 L300.3,128.2 L302.2,128.5 L304.2,128.8 L306.1,129.1 L308.0,129.5 L309.9,129.8 L311.8,130.1 L313.7,130.4 L315.6,130.7 L317.5,131.1 L319.5,131.4 L321.4,131.7 L323.3,132.0 L325.2,132.3 L327.1,132.6 L329.0,133.0 L330.9,133.3 L332.9,133.6 L334.8,133.9 L336.7,134.2 L338.6,134.5 L340.5,134.8 L342.4,135.1 L344.3,135.5 L346.3,135.8 L348.2,136.1 L350.1,136.4 L352.0,136.7 L353.9,137.0 L355.8,137.3 L357.7,137.6 L359.6,137.9 L361.6,138.2 L363.5,138.5 L365.4,138.8 L367.3,139.1 L369.2,139.4 L371.1,139.7 L373.0,140.0 L375.0,140.3 L376.9,140.6 L378.8,140.9 L380.7,141.2 L382.6,141.5 L384.5,141.8 L386.4,142.0 L388.3,142.3 L390.3,142.6 L392.2,142.9 L394.1,143.2 L396.0,143.5 L397.9,143.8 L399.8,144.1 L401.7,144.3 L403.7,144.6 L405.6,144.9 L407.5,145.2 L409.4,145.5 L411.3,145.8 L413.2,146.0 L415.1,146.3 L417.1,146.6 L419.0,146.9 L420.9,147.1 L422.8,147.4 L424.7,147.7 L426.6,148.0 L428.5,148.2 L430.4,148.5 L432.4,148.8 L434.3,149.1 L436.2,149.3 L438.1,149.6 L440.0,149.9 L441.9,150.1 L443.8,150.4 L445.8,150.7 L447.7,150.9 L449.6,151.2 L451.5,151.5 L453.4,151.7 L455.3,152.0 L457.2,152.2 L459.2,152.5 L461.1,152.8 L463.0,153.0 L464.9,153.3 L466.8,153.5 L468.7,153.8 L470.6,154.0 L472.5,154.3 L474.5,154.5 L476.4,154.8 L478.3,155.1 L480.2,155.3 L482.1,155.6 L484.0,155.8 L485.9,156.1 L487.9,156.3 L489.8,156.6 L491.7,156.8 L493.6,157.0 L495.5,157.3 L497.4,157.5 L499.3,157.8 L501.3,158.0 L503.2,158.3 L505.1,158.5 L507.0,158.7 L508.9,159.0 L510.8,159.2 L512.7,159.5 L514.6,159.7 L516.6,159.9 L518.5,160.2 L520.4,160.4 L522.3,160.6 L524.2,160.9 L526.1,161.1 L528.0,161.3 L530.0,161.5 L531.9,161.8 L533.8,162.0 L535.7,162.2 L537.6,162.5 L539.5,162.7 L541.4,162.9 L543.4,163.1 L545.3,163.4 L547.2,163.6 L549.1,163.8 L551.0,164.0 L552.9,164.2 L554.8,164.5 L556.7,164.7 L558.7,164.9 L560.6,165.1 L562.5,165.3 L564.4,165.5 L566.3,165.8 L568.2,166.0 L570.1,166.2 L572.1,166.4 L574.0,166.6 L575.9,166.8 L577.8,167.0 L579.7,167.2 L581.6,167.4 L583.5,167.6 L585.5,167.9 L587.4,168.1 L589.3,168.3 L591.2,168.5 L593.1,168.7 L595.0,168.9 L596.9,169.1 L598.8,169.3 L600.8,169.5 L602.7,169.7 L604.6,169.9 L606.5,170.1 L608.4,170.3 L610.3,170.4 L612.2,170.6 L614.2,170.8 L616.1,171.0 L618.0,171.2 L619.9,171.4 L621.8,171.6 L623.7,171.8 L625.6,172.0 L627.6,172.2 L629.5,172.3 L631.4,172.5 L633.3,172.7 L635.2,172.9 L637.1,173.1 L639.0,173.3 L640.9,173.5 L642.9,173.6 L644.8,173.8 L646.7,174.0 L648.6,174.2 L650.5,174.3 L652.4,174.5 L654.3,174.7 L656.3,174.9 L658.2,175.0 L660.1,175.2 L662.0,175.4 L663.9,175.6 L665.8,175.7 L667.7,175.9 L669.7,176.1 L671.6,176.2 L673.5,176.4 L675.4,176.6 L677.3,176.7 L679.2,176.9 L681.1,177.1 L683.0,177.2 L685.0,177.4 L686.9,177.6 L688.8,177.7 L690.7,177.9 L692.6,178.0 L694.5,178.2 L696.4,178.3 L698.4,178.5 L700.3,178.6 L702.2,178.8 L704.1,179.0 L706.0,179.1 L707.9,179.3 L709.8,179.4 L711.7,179.6 L713.7,179.7 L715.6,179.9 L717.5,180.0 L719.4,180.2 L721.3,180.3 L723.2,180.4 L725.1,180.6 L727.1,180.7 L729.0,180.9 L730.9,181.0 L732.8,181.2 L734.7,181.3 L736.6,181.4 L738.5,181.6 L740.5,181.7 L742.4,181.9 L744.3,182.0 L746.2,182.1 L748.1,182.3 L750.0,182.4 L751.9,182.5 L753.8,182.7 L755.8,182.8 L757.7,182.9 L759.6,183.0 L761.5,183.2 L763.4,183.3 L765.3,183.4 L767.2,183.5 L769.2,183.7 L771.1,183.8 L773.0,183.9 L774.9,184.0 L776.8,184.2 L778.7,184.3 L780.6,184.4 L782.6,184.5 L784.5,184.6 L786.4,184.7 L788.3,184.9 L790.2,185.0 L792.1,185.1 L794.0,185.2 L795.9,185.3 L797.9,185.4 L799.8,185.5 L801.7,185.6 L803.6,185.8 L805.5,185.9 L807.4,186.0 L809.3,186.1 L811.3,186.2 L813.2,186.3 L815.1,186.4 L817.0,186.5 L818.9,186.6 L820.8,186.7 L822.7,186.8 L824.7,186.9 L826.6,187.0 L828.5,187.1 L830.4,187.2 L832.3,187.3 L834.2,187.4 L836.1,187.5 L838.0,187.6 L840.0,187.6 L841.9,187.7 L843.8,187.8 L845.7,187.9 L847.6,188.0 L849.5,188.1 L851.4,188.2 L853.4,188.3 L855.3,188.3 L857.2,188.4 L859.1,188.5 L861.0,188.6 L862.9,188.7 L864.8,188.8 L866.8,188.8 L868.7,188.9 L870.6,189.0 L872.5,189.1 L874.4,189.1 L876.3,189.2 L878.2,189.3 L880.1,189.3 L882.1,189.4 L884.0,189.5 L885.9,189.6 L887.8,189.6 L889.7,189.7 L891.6,189.8 L893.5,189.8 L895.5,189.9 L897.4,190.0 L899.3,190.0 L901.2,190.1 L903.1,190.1 L905.0,190.2 L906.9,190.3 L908.9,190.3 L910.8,190.4 L912.7,190.4 L914.6,190.5 L916.5,190.5 L918.4,190.6 L920.3,190.6 L922.2,190.7 L924.2,190.7 L926.1,190.8 L928.0,190.8 L929.9,190.9 L931.8,190.9 L933.7,191.0 L935.6,191.0 L937.6,191.1 L939.5,191.1 L941.4,191.1 L943.3,191.2 L945.2,191.2 L947.1,191.2 L949.0,191.3 L951.0,191.3 L952.9,191.3 L954.8,191.4 L956.7,191.4 L958.6,191.4 L960.5,191.5 L962.4,191.5 L964.3,191.5 L966.3,191.5 L968.2,191.6 L970.1,191.6 L972.0,191.6" fill="none" stroke="#2563eb" stroke-width="2.5"/>
<rect x="86" y="234" width="886" height="122" fill="#ffffff" stroke="#cbd5e1"/>
<text x="86" y="226" font-family="Arial" font-size="16" font-weight="700" fill="#0f172a">Vertical velocity</text>
<text x="24" y="295.0" font-family="Arial" font-size="13" fill="#334155" transform="rotate(-90 24,295.0)">m/s</text>
<text x="18" y="248" font-family="Arial" font-size="12" fill="#64748b">2.0</text>
<text x="18" y="356" font-family="Arial" font-size="12" fill="#64748b">-62.4</text>
<path d="M86.0,347.6 L87.9,347.2 L89.8,346.9 L91.7,346.5 L93.7,346.2 L95.6,345.9 L97.5,345.6 L99.4,345.3 L101.3,345.0 L103.2,344.8 L105.1,344.5 L107.0,344.2 L109.0,344.0 L110.9,343.7 L112.8,343.5 L114.7,343.2 L116.6,343.0 L118.5,342.7 L120.4,342.5 L122.4,342.3 L124.3,342.1 L126.2,341.8 L128.1,341.6 L130.0,341.4 L131.9,341.1 L133.8,340.9 L135.8,340.7 L137.7,340.5 L139.6,340.3 L141.5,340.0 L143.4,339.8 L145.3,339.6 L147.2,339.4 L149.1,339.2 L151.1,339.0 L153.0,338.7 L154.9,338.5 L156.8,338.3 L158.7,338.1 L160.6,337.9 L162.5,337.7 L164.5,337.5 L166.4,337.3 L168.3,337.0 L170.2,336.8 L172.1,336.6 L174.0,336.4 L175.9,336.2 L177.9,336.0 L179.8,335.8 L181.7,335.6 L183.6,335.3 L185.5,335.1 L187.4,334.9 L189.3,334.7 L191.2,334.5 L193.2,334.3 L195.1,334.1 L197.0,333.9 L198.9,333.6 L200.8,333.4 L202.7,333.2 L204.6,333.0 L206.6,332.8 L208.5,332.6 L210.4,332.4 L212.3,332.2 L214.2,331.9 L216.1,331.7 L218.0,331.5 L220.0,331.3 L221.9,331.1 L223.8,330.9 L225.7,330.7 L227.6,330.5 L229.5,330.3 L231.4,330.0 L233.3,329.8 L235.3,329.6 L237.2,329.4 L239.1,329.2 L241.0,329.0 L242.9,328.8 L244.8,328.6 L246.7,328.3 L248.7,328.1 L250.6,327.9 L252.5,327.7 L254.4,327.5 L256.3,327.3 L258.2,327.1 L260.1,326.9 L262.1,326.7 L264.0,326.4 L265.9,326.2 L267.8,326.0 L269.7,325.8 L271.6,325.6 L273.5,325.4 L275.4,325.2 L277.4,325.0 L279.3,324.7 L281.2,324.5 L283.1,324.3 L285.0,324.1 L286.9,323.9 L288.8,323.7 L290.8,323.5 L292.7,323.3 L294.6,323.0 L296.5,322.8 L298.4,322.6 L300.3,322.4 L302.2,322.2 L304.2,322.0 L306.1,321.8 L308.0,321.6 L309.9,321.3 L311.8,321.1 L313.7,320.9 L315.6,320.7 L317.5,320.5 L319.5,320.3 L321.4,320.1 L323.3,319.9 L325.2,319.6 L327.1,319.4 L329.0,319.2 L330.9,319.0 L332.9,318.8 L334.8,318.6 L336.7,318.4 L338.6,318.2 L340.5,317.9 L342.4,317.7 L344.3,317.5 L346.3,317.3 L348.2,317.1 L350.1,316.9 L352.0,316.7 L353.9,316.5 L355.8,316.2 L357.7,316.0 L359.6,315.8 L361.6,315.6 L363.5,315.4 L365.4,315.2 L367.3,315.0 L369.2,314.8 L371.1,314.5 L373.0,315.5 L375.0,315.1 L376.9,314.8 L378.8,314.5 L380.7,314.2 L382.6,313.9 L384.5,313.6 L386.4,313.3 L388.3,313.1 L390.3,312.8 L392.2,312.6 L394.1,312.3 L396.0,312.1 L397.9,311.8 L399.8,311.6 L401.7,311.3 L403.7,311.1 L405.6,310.9 L407.5,310.6 L409.4,310.4 L411.3,310.2 L413.2,309.9 L415.1,309.7 L417.1,309.5 L419.0,309.3 L420.9,309.0 L422.8,308.8 L424.7,308.6 L426.6,308.4 L428.5,308.2 L430.4,307.9 L432.4,308.9 L434.3,308.5 L436.2,308.2 L438.1,307.9 L440.0,307.6 L441.9,307.3 L443.8,307.0 L445.8,306.7 L447.7,306.5 L449.6,306.2 L451.5,305.9 L453.4,305.7 L455.3,305.4 L457.2,305.2 L459.2,304.9 L461.1,304.7 L463.0,304.4 L464.9,304.2 L466.8,304.0 L468.7,303.7 L470.6,303.5 L472.5,303.3 L474.5,303.1 L476.4,302.8 L478.3,302.6 L480.2,303.5 L482.1,303.2 L484.0,302.9 L485.9,302.5 L487.9,302.2 L489.8,301.9 L491.7,301.6 L493.6,301.4 L495.5,301.1 L497.4,300.8 L499.3,300.6 L501.3,300.3 L503.2,300.0 L505.1,299.8 L507.0,299.5 L508.9,299.3 L510.8,299.1 L512.7,298.8 L514.6,298.6 L516.6,298.4 L518.5,298.1 L520.4,297.9 L522.3,297.7 L524.2,298.6 L526.1,298.2 L528.0,297.9 L530.0,297.6 L531.9,297.3 L533.8,297.0 L535.7,296.7 L537.6,296.4 L539.5,296.1 L541.4,295.9 L543.4,295.6 L545.3,295.3 L547.2,295.1 L549.1,294.8 L551.0,294.6 L552.9,294.3 L554.8,294.1 L556.7,293.8 L558.7,293.6 L560.6,293.4 L562.5,293.1 L564.4,294.1 L566.3,293.7 L568.2,293.4 L570.1,293.1 L572.1,292.7 L574.0,292.4 L575.9,292.1 L577.8,291.9 L579.7,291.6 L581.6,291.3 L583.5,291.0 L585.5,290.8 L587.4,290.5 L589.3,290.3 L591.2,290.0 L593.1,289.8 L595.0,289.5 L596.9,289.3 L598.8,289.0 L600.8,290.0 L602.7,289.6 L604.6,289.3 L606.5,288.9 L608.4,288.6 L610.3,288.3 L612.2,288.0 L614.2,287.7 L616.1,287.4 L618.0,287.2 L619.9,286.9 L621.8,286.6 L623.7,286.4 L625.6,286.1 L627.6,285.9 L629.5,285.6 L631.4,285.4 L633.3,285.1 L635.2,286.1 L637.1,285.7 L639.0,285.3 L640.9,285.0 L642.9,284.7 L644.8,284.4 L646.7,284.1 L648.6,283.8 L650.5,283.5 L652.4,283.2 L654.3,282.9 L656.3,282.7 L658.2,282.4 L660.1,282.2 L662.0,281.9 L663.9,281.7 L665.8,281.4 L667.7,281.2 L669.7,282.1 L671.6,281.7 L673.5,281.4 L675.4,281.0 L677.3,280.7 L679.2,280.4 L681.1,280.1 L683.0,279.8 L685.0,279.5 L686.9,279.2 L688.8,279.0 L690.7,278.7 L692.6,278.4 L694.5,278.2 L696.4,277.9 L698.4,277.7 L700.3,277.4 L702.2,278.4 L704.1,278.0 L706.0,277.6 L707.9,277.3 L709.8,277.0 L711.7,276.7 L713.7,276.3 L715.6,276.0 L717.5,275.8 L719.4,275.5 L721.3,275.2 L723.2,274.9 L725.1,274.7 L727.1,274.4 L729.0,274.1 L730.9,273.9 L732.8,274.8 L734.7,274.4 L736.6,274.1 L738.5,273.7 L740.5,273.4 L742.4,273.1 L744.3,272.8 L746.2,272.5 L748.1,272.2 L750.0,271.9 L751.9,271.6 L753.8,271.3 L755.8,271.1 L757.7,270.8 L759.6,270.5 L761.5,270.3 L763.4,271.2 L765.3,270.8 L767.2,270.5 L769.2,270.1 L771.1,269.8 L773.0,269.5 L774.9,269.2 L776.8,268.9 L778.7,268.6 L780.6,268.3 L782.6,268.0 L784.5,267.7 L786.4,267.4 L788.3,267.2 L790.2,266.9 L792.1,266.7 L794.0,267.6 L795.9,267.2 L797.9,266.8 L799.8,266.5 L801.7,266.2 L803.6,265.8 L805.5,265.5 L807.4,265.2 L809.3,264.9 L811.3,264.6 L813.2,264.3 L815.1,264.0 L817.0,263.8 L818.9,263.5 L820.8,263.2 L822.7,263.0 L824.7,263.9 L826.6,263.5 L828.5,263.1 L830.4,262.8 L832.3,262.5 L834.2,262.1 L836.1,261.8 L838.0,261.5 L840.0,261.2 L841.9,260.9 L843.8,260.6 L845.7,260.3 L847.6,260.0 L849.5,259.8 L851.4,259.5 L853.4,259.2 L855.3,260.1 L857.2,259.8 L859.1,259.4 L861.0,259.0 L862.9,258.7 L864.8,258.3 L866.8,258.0 L868.7,257.7 L870.6,257.4 L872.5,257.1 L874.4,256.8 L876.3,256.5 L878.2,256.2 L880.1,255.9 L882.1,255.6 L884.0,255.4 L885.9,255.1 L887.8,256.0 L889.7,255.6 L891.6,255.3 L893.5,254.9 L895.5,254.5 L897.4,254.2 L899.3,253.9 L901.2,253.5 L903.1,253.2 L905.0,252.9 L906.9,252.6 L908.9,252.3 L910.8,252.0 L912.7,251.7 L914.6,251.4 L916.5,251.1 L918.4,250.8 L920.3,250.5 L922.2,250.3 L924.2,250.0 L926.1,249.7 L928.0,250.6 L929.9,250.2 L931.8,249.8 L933.7,249.5 L935.6,249.1 L937.6,248.7 L939.5,248.4 L941.4,248.0 L943.3,247.7 L945.2,247.3 L947.1,247.0 L949.0,246.6 L951.0,246.3 L952.9,246.0 L954.8,245.6 L956.7,245.3 L958.6,245.0 L960.5,244.6 L962.4,244.3 L964.3,243.9 L966.3,243.6 L968.2,243.2 L970.1,242.8 L972.0,242.4" fill="none" stroke="#dc2626" stroke-width="2.5"/>
<rect x="86" y="390" width="886" height="122" fill="#ffffff" stroke="#cbd5e1"/>
<text x="86" y="382" font-family="Arial" font-size="16" font-weight="700" fill="#0f172a">Horizontal error</text>
<text x="24" y="451.0" font-family="Arial" font-size="13" fill="#334155" transform="rotate(-90 24,451.0)">m</text>
<text x="18" y="404" font-family="Arial" font-size="12" fill="#64748b">19.2</text>
<text x="18" y="512" font-family="Arial" font-size="12" fill="#64748b">1.4</text>
<path d="M86.0,398.4 L87.9,399.3 L89.8,400.1 L91.7,401.0 L93.7,401.8 L95.6,402.6 L97.5,403.5 L99.4,404.3 L101.3,405.1 L103.2,405.9 L105.1,406.7 L107.0,407.5 L109.0,408.3 L110.9,409.1 L112.8,409.9 L114.7,410.7 L116.6,411.5 L118.5,412.3 L120.4,413.0 L122.4,413.8 L124.3,414.5 L126.2,415.3 L128.1,416.0 L130.0,416.8 L131.9,417.5 L133.8,418.3 L135.8,419.0 L137.7,419.7 L139.6,420.4 L141.5,421.1 L143.4,421.8 L145.3,422.5 L147.2,423.2 L149.1,423.9 L151.1,424.6 L153.0,425.3 L154.9,425.9 L156.8,426.6 L158.7,427.2 L160.6,427.9 L162.5,428.5 L164.5,429.2 L166.4,429.8 L168.3,430.4 L170.2,431.0 L172.1,431.7 L174.0,432.3 L175.9,432.9 L177.9,433.5 L179.8,434.0 L181.7,434.6 L183.6,435.2 L185.5,435.8 L187.4,436.3 L189.3,436.9 L191.2,437.4 L193.2,438.0 L195.1,438.5 L197.0,439.1 L198.9,439.6 L200.8,440.1 L202.7,440.6 L204.6,441.1 L206.6,441.6 L208.5,442.1 L210.4,442.6 L212.3,443.1 L214.2,443.6 L216.1,444.0 L218.0,444.5 L220.0,445.0 L221.9,445.4 L223.8,445.9 L225.7,446.3 L227.6,446.7 L229.5,447.2 L231.4,447.6 L233.3,448.0 L235.3,448.4 L237.2,448.8 L239.1,449.2 L241.0,449.6 L242.9,450.0 L244.8,450.4 L246.7,450.7 L248.7,451.1 L250.6,451.5 L252.5,451.8 L254.4,452.2 L256.3,452.5 L258.2,452.9 L260.1,453.2 L262.1,453.6 L264.0,453.9 L265.9,454.2 L267.8,454.5 L269.7,454.8 L271.6,455.1 L273.5,455.4 L275.4,455.7 L277.4,456.0 L279.3,456.3 L281.2,456.6 L283.1,456.9 L285.0,457.1 L286.9,457.4 L288.8,457.7 L290.8,457.9 L292.7,458.2 L294.6,458.4 L296.5,458.7 L298.4,458.9 L300.3,459.2 L302.2,459.4 L304.2,459.6 L306.1,459.8 L308.0,460.1 L309.9,460.3 L311.8,460.5 L313.7,460.7 L315.6,460.9 L317.5,461.1 L319.5,461.3 L321.4,461.5 L323.3,461.7 L325.2,461.9 L327.1,462.0 L329.0,462.2 L330.9,462.4 L332.9,462.6 L334.8,462.7 L336.7,462.9 L338.6,463.1 L340.5,463.2 L342.4,463.4 L344.3,463.5 L346.3,463.7 L348.2,463.8 L350.1,464.0 L352.0,464.1 L353.9,464.3 L355.8,464.4 L357.7,464.5 L359.6,464.7 L361.6,464.8 L363.5,464.9 L365.4,465.0 L367.3,465.2 L369.2,465.3 L371.1,465.4 L373.0,465.5 L375.0,465.6 L376.9,465.8 L378.8,465.9 L380.7,466.0 L382.6,466.1 L384.5,466.2 L386.4,466.3 L388.3,466.4 L390.3,466.5 L392.2,466.6 L394.1,466.7 L396.0,466.8 L397.9,466.9 L399.8,467.0 L401.7,467.1 L403.7,467.2 L405.6,467.3 L407.5,467.4 L409.4,467.4 L411.3,467.5 L413.2,467.6 L415.1,467.7 L417.1,467.8 L419.0,467.9 L420.9,467.9 L422.8,468.0 L424.7,468.1 L426.6,468.2 L428.5,468.3 L430.4,468.4 L432.4,468.4 L434.3,468.5 L436.2,468.6 L438.1,468.7 L440.0,468.7 L441.9,468.8 L443.8,468.9 L445.8,469.0 L447.7,469.0 L449.6,469.1 L451.5,469.2 L453.4,469.3 L455.3,469.4 L457.2,469.4 L459.2,469.5 L461.1,469.6 L463.0,469.7 L464.9,469.7 L466.8,469.8 L468.7,469.9 L470.6,470.0 L472.5,470.0 L474.5,470.1 L476.4,470.2 L478.3,470.3 L480.2,470.4 L482.1,470.4 L484.0,470.5 L485.9,470.6 L487.9,470.7 L489.8,470.7 L491.7,470.8 L493.6,470.9 L495.5,471.0 L497.4,471.1 L499.3,471.2 L501.3,471.2 L503.2,471.3 L505.1,471.4 L507.0,471.5 L508.9,471.6 L510.8,471.7 L512.7,471.8 L514.6,471.8 L516.6,471.9 L518.5,472.0 L520.4,472.1 L522.3,472.2 L524.2,472.3 L526.1,472.4 L528.0,472.5 L530.0,472.6 L531.9,472.7 L533.8,472.8 L535.7,472.9 L537.6,473.0 L539.5,473.1 L541.4,473.2 L543.4,473.3 L545.3,473.4 L547.2,473.5 L549.1,473.6 L551.0,473.7 L552.9,473.8 L554.8,473.9 L556.7,474.0 L558.7,474.1 L560.6,474.2 L562.5,474.3 L564.4,474.4 L566.3,474.5 L568.2,474.7 L570.1,474.8 L572.1,474.9 L574.0,475.0 L575.9,475.1 L577.8,475.2 L579.7,475.4 L581.6,475.5 L583.5,475.6 L585.5,475.7 L587.4,475.8 L589.3,476.0 L591.2,476.1 L593.1,476.2 L595.0,476.3 L596.9,476.5 L598.8,476.6 L600.8,476.7 L602.7,476.8 L604.6,477.0 L606.5,477.1 L608.4,477.2 L610.3,477.4 L612.2,477.5 L614.2,477.6 L616.1,477.8 L618.0,477.9 L619.9,478.0 L621.8,478.2 L623.7,478.3 L625.6,478.5 L627.6,478.6 L629.5,478.7 L631.4,478.9 L633.3,479.0 L635.2,479.2 L637.1,479.3 L639.0,479.5 L640.9,479.6 L642.9,479.8 L644.8,479.9 L646.7,480.0 L648.6,480.2 L650.5,480.3 L652.4,480.5 L654.3,480.6 L656.3,480.8 L658.2,480.9 L660.1,481.1 L662.0,481.2 L663.9,481.4 L665.8,481.6 L667.7,481.7 L669.7,481.9 L671.6,482.0 L673.5,482.2 L675.4,482.3 L677.3,482.5 L679.2,482.6 L681.1,482.8 L683.0,483.0 L685.0,483.1 L686.9,483.3 L688.8,483.4 L690.7,483.6 L692.6,483.7 L694.5,483.9 L696.4,484.1 L698.4,484.2 L700.3,484.4 L702.2,484.5 L704.1,484.7 L706.0,484.9 L707.9,485.0 L709.8,485.2 L711.7,485.3 L713.7,485.5 L715.6,485.7 L717.5,485.8 L719.4,486.0 L721.3,486.2 L723.2,486.3 L725.1,486.5 L727.1,486.6 L729.0,486.8 L730.9,487.0 L732.8,487.1 L734.7,487.3 L736.6,487.4 L738.5,487.6 L740.5,487.8 L742.4,487.9 L744.3,488.1 L746.2,488.3 L748.1,488.4 L750.0,488.6 L751.9,488.7 L753.8,488.9 L755.8,489.1 L757.7,489.2 L759.6,489.4 L761.5,489.5 L763.4,489.7 L765.3,489.9 L767.2,490.0 L769.2,490.2 L771.1,490.3 L773.0,490.5 L774.9,490.7 L776.8,490.8 L778.7,491.0 L780.6,491.1 L782.6,491.3 L784.5,491.4 L786.4,491.6 L788.3,491.7 L790.2,491.9 L792.1,492.1 L794.0,492.2 L795.9,492.4 L797.9,492.5 L799.8,492.7 L801.7,492.8 L803.6,493.0 L805.5,493.1 L807.4,493.3 L809.3,493.4 L811.3,493.6 L813.2,493.7 L815.1,493.9 L817.0,494.0 L818.9,494.2 L820.8,494.3 L822.7,494.5 L824.7,494.6 L826.6,494.8 L828.5,494.9 L830.4,495.0 L832.3,495.2 L834.2,495.3 L836.1,495.5 L838.0,495.6 L840.0,495.8 L841.9,495.9 L843.8,496.0 L845.7,496.2 L847.6,496.3 L849.5,496.4 L851.4,496.6 L853.4,496.7 L855.3,496.8 L857.2,497.0 L859.1,497.1 L861.0,497.3 L862.9,497.4 L864.8,497.5 L866.8,497.6 L868.7,497.8 L870.6,497.9 L872.5,498.0 L874.4,498.2 L876.3,498.3 L878.2,498.4 L880.1,498.5 L882.1,498.7 L884.0,498.8 L885.9,498.9 L887.8,499.0 L889.7,499.1 L891.6,499.3 L893.5,499.4 L895.5,499.5 L897.4,499.6 L899.3,499.7 L901.2,499.9 L903.1,500.0 L905.0,500.1 L906.9,500.2 L908.9,500.3 L910.8,500.4 L912.7,500.5 L914.6,500.7 L916.5,500.8 L918.4,500.9 L920.3,501.0 L922.2,501.1 L924.2,501.2 L926.1,501.3 L928.0,501.4 L929.9,501.5 L931.8,501.6 L933.7,501.7 L935.6,501.8 L937.6,501.9 L939.5,502.0 L941.4,502.1 L943.3,502.2 L945.2,502.3 L947.1,502.4 L949.0,502.5 L951.0,502.6 L952.9,502.7 L954.8,502.8 L956.7,502.9 L958.6,503.0 L960.5,503.1 L962.4,503.1 L964.3,503.2 L966.3,503.3 L968.2,503.4 L970.1,503.5 L972.0,503.6" fill="none" stroke="#7c3aed" stroke-width="2.5"/>
<rect x="86" y="546" width="886" height="122" fill="#ffffff" stroke="#cbd5e1"/>
<text x="86" y="538" font-family="Arial" font-size="16" font-weight="700" fill="#0f172a">Throttle</text>
<text x="24" y="607.0" font-family="Arial" font-size="13" fill="#334155" transform="rotate(-90 24,607.0)">-</text>
<text x="18" y="560" font-family="Arial" font-size="12" fill="#64748b">0.5</text>
<text x="18" y="668" font-family="Arial" font-size="12" fill="#64748b">-0.1</text>
<path d="M86.0,562.2 L87.9,563.4 L89.8,564.4 L91.7,565.3 L93.7,566.1 L95.6,566.8 L97.5,567.5 L99.4,568.1 L101.3,568.6 L103.2,569.1 L105.1,569.5 L107.0,569.9 L109.0,570.2 L110.9,570.6 L112.8,570.8 L114.7,571.1 L116.6,571.3 L118.5,571.5 L120.4,571.7 L122.4,571.9 L124.3,572.0 L126.2,572.2 L128.1,572.3 L130.0,572.4 L131.9,572.5 L133.8,572.6 L135.8,572.7 L137.7,572.7 L139.6,572.8 L141.5,572.9 L143.4,572.9 L145.3,573.0 L147.2,573.0 L149.1,573.1 L151.1,573.1 L153.0,573.1 L154.9,573.2 L156.8,573.2 L158.7,573.2 L160.6,573.3 L162.5,573.3 L164.5,573.3 L166.4,573.3 L168.3,573.4 L170.2,573.4 L172.1,573.4 L174.0,573.4 L175.9,573.4 L177.9,573.5 L179.8,573.5 L181.7,573.5 L183.6,573.5 L185.5,573.5 L187.4,573.5 L189.3,573.5 L191.2,573.6 L193.2,573.6 L195.1,573.6 L197.0,573.6 L198.9,573.6 L200.8,573.6 L202.7,573.6 L204.6,573.6 L206.6,573.7 L208.5,573.7 L210.4,573.7 L212.3,573.7 L214.2,573.7 L216.1,573.7 L218.0,573.7 L220.0,573.7 L221.9,573.8 L223.8,573.8 L225.7,573.8 L227.6,573.8 L229.5,573.8 L231.4,573.8 L233.3,573.8 L235.3,573.8 L237.2,573.8 L239.1,573.9 L241.0,573.9 L242.9,573.9 L244.8,573.9 L246.7,573.9 L248.7,573.9 L250.6,573.9 L252.5,573.9 L254.4,573.9 L256.3,574.0 L258.2,574.0 L260.1,574.0 L262.1,574.0 L264.0,574.0 L265.9,574.0 L267.8,574.0 L269.7,574.0 L271.6,574.0 L273.5,574.1 L275.4,574.1 L277.4,574.1 L279.3,574.1 L281.2,574.1 L283.1,574.1 L285.0,574.1 L286.9,574.1 L288.8,574.2 L290.8,574.2 L292.7,574.2 L294.6,574.2 L296.5,574.2 L298.4,574.2 L300.3,574.2 L302.2,574.2 L304.2,574.2 L306.1,574.3 L308.0,574.3 L309.9,574.3 L311.8,574.3 L313.7,574.3 L315.6,574.3 L317.5,574.3 L319.5,574.3 L321.4,574.3 L323.3,574.4 L325.2,574.4 L327.1,574.4 L329.0,574.4 L330.9,574.4 L332.9,574.4 L334.8,574.4 L336.7,574.4 L338.6,574.4 L340.5,574.5 L342.4,574.5 L344.3,574.5 L346.3,574.5 L348.2,574.5 L350.1,574.5 L352.0,574.5 L353.9,574.5 L355.8,574.6 L357.7,574.6 L359.6,574.6 L361.6,574.6 L363.5,574.6 L365.4,574.6 L367.3,574.6 L369.2,574.6 L371.1,651.8 L373.0,566.5 L375.0,567.4 L376.9,568.1 L378.8,568.8 L380.7,569.4 L382.6,570.0 L384.5,570.5 L386.4,570.9 L388.3,571.3 L390.3,571.7 L392.2,572.0 L394.1,572.3 L396.0,572.6 L397.9,572.8 L399.8,573.0 L401.7,573.2 L403.7,573.4 L405.6,573.6 L407.5,573.7 L409.4,573.8 L411.3,574.0 L413.2,574.1 L415.1,574.2 L417.1,574.2 L419.0,574.3 L420.9,574.4 L422.8,574.5 L424.7,574.5 L426.6,574.6 L428.5,574.6 L430.4,651.8 L432.4,566.6 L434.3,567.5 L436.2,568.3 L438.1,569.0 L440.0,569.6 L441.9,570.2 L443.8,570.7 L445.8,571.1 L447.7,571.6 L449.6,571.9 L451.5,572.3 L453.4,572.6 L455.3,572.8 L457.2,573.1 L459.2,573.3 L461.1,573.5 L463.0,573.7 L464.9,573.9 L466.8,574.0 L468.7,574.1 L470.6,574.3 L472.5,574.4 L474.5,574.5 L476.4,574.6 L478.3,651.8 L480.2,566.6 L482.1,567.5 L484.0,568.3 L485.9,569.0 L487.9,569.7 L489.8,570.3 L491.7,570.8 L493.6,571.3 L495.5,571.7 L497.4,572.1 L499.3,572.4 L501.3,572.8 L503.2,573.0 L505.1,573.3 L507.0,573.5 L508.9,573.7 L510.8,573.9 L512.7,574.1 L514.6,574.2 L516.6,574.4 L518.5,574.5 L520.4,574.6 L522.3,651.8 L524.2,566.7 L526.1,567.6 L528.0,568.4 L530.0,569.2 L531.9,569.8 L533.8,570.4 L535.7,571.0 L537.6,571.5 L539.5,571.9 L541.4,572.3 L543.4,572.6 L545.3,573.0 L547.2,573.2 L549.1,573.5 L551.0,573.7 L552.9,574.0 L554.8,574.1 L556.7,574.3 L558.7,574.5 L560.6,574.6 L562.5,651.8 L564.4,566.7 L566.3,567.7 L568.2,568.5 L570.1,569.3 L572.1,569.9 L574.0,570.5 L575.9,571.1 L577.8,571.6 L579.7,572.0 L581.6,572.4 L583.5,572.8 L585.5,573.1 L587.4,573.4 L589.3,573.7 L591.2,573.9 L593.1,574.1 L595.0,574.3 L596.9,574.5 L598.8,651.8 L600.8,566.7 L602.7,567.6 L604.6,568.5 L606.5,569.3 L608.4,570.0 L610.3,570.6 L612.2,571.2 L614.2,571.7 L616.1,572.1 L618.0,572.5 L619.9,572.9 L621.8,573.2 L623.7,573.5 L625.6,573.8 L627.6,574.1 L629.5,574.3 L631.4,574.5 L633.3,651.8 L635.2,566.7 L637.1,567.7 L639.0,568.5 L640.9,569.3 L642.9,570.0 L644.8,570.7 L646.7,571.2 L648.6,571.8 L650.5,572.2 L652.4,572.6 L654.3,573.0 L656.3,573.4 L658.2,573.7 L660.1,573.9 L662.0,574.2 L663.9,574.4 L665.8,574.6 L667.7,651.8 L669.7,566.9 L671.6,567.8 L673.5,568.7 L675.4,569.5 L677.3,570.2 L679.2,570.8 L681.1,571.4 L683.0,571.9 L685.0,572.4 L686.9,572.8 L688.8,573.2 L690.7,573.5 L692.6,573.8 L694.5,574.1 L696.4,574.4 L698.4,574.6 L700.3,651.8 L702.2,566.8 L704.1,567.8 L706.0,568.7 L707.9,569.5 L709.8,570.2 L711.7,570.9 L713.7,571.5 L715.6,572.0 L717.5,572.4 L719.4,572.9 L721.3,573.3 L723.2,573.6 L725.1,573.9 L727.1,574.2 L729.0,574.5 L730.9,651.8 L732.8,566.8 L734.7,567.8 L736.6,568.7 L738.5,569.5 L740.5,570.2 L742.4,570.9 L744.3,571.4 L746.2,572.0 L748.1,572.5 L750.0,572.9 L751.9,573.3 L753.8,573.6 L755.8,574.0 L757.7,574.3 L759.6,574.5 L761.5,651.8 L763.4,566.8 L765.3,567.8 L767.2,568.7 L769.2,569.5 L771.1,570.3 L773.0,570.9 L774.9,571.5 L776.8,572.0 L778.7,572.5 L780.6,573.0 L782.6,573.4 L784.5,573.7 L786.4,574.0 L788.3,574.3 L790.2,574.6 L792.1,651.8 L794.0,566.9 L795.9,567.9 L797.9,568.8 L799.8,569.6 L801.7,570.3 L803.6,571.0 L805.5,571.5 L807.4,572.1 L809.3,572.6 L811.3,573.0 L813.2,573.4 L815.1,573.7 L817.0,574.1 L818.9,574.3 L820.8,574.6 L822.7,651.8 L824.7,566.9 L826.6,567.9 L828.5,568.8 L830.4,569.6 L832.3,570.3 L834.2,570.9 L836.1,571.5 L838.0,572.1 L840.0,572.5 L841.9,573.0 L843.8,573.3 L845.7,573.7 L847.6,574.0 L849.5,574.3 L851.4,574.6 L853.4,651.8 L855.3,566.9 L857.2,567.8 L859.1,568.7 L861.0,569.5 L862.9,570.2 L864.8,570.8 L866.8,571.4 L868.7,571.9 L870.6,572.4 L872.5,572.8 L874.4,573.2 L876.3,573.5 L878.2,573.8 L880.1,574.1 L882.1,574.4 L884.0,574.6 L885.9,651.8 L887.8,566.8 L889.7,567.7 L891.6,568.5 L893.5,569.3 L895.5,569.9 L897.4,570.5 L899.3,571.1 L901.2,571.6 L903.1,572.0 L905.0,572.4 L906.9,572.8 L908.9,573.1 L910.8,573.4 L912.7,573.6 L914.6,573.8 L916.5,574.0 L918.4,574.2 L920.3,574.3 L922.2,574.5 L924.2,574.6 L926.1,651.8 L928.0,566.5 L929.9,567.3 L931.8,567.9 L933.7,568.5 L935.6,569.0 L937.6,569.5 L939.5,569.9 L941.4,570.2 L943.3,570.5 L945.2,570.7 L947.1,570.9 L949.0,571.0 L951.0,571.1 L952.9,571.1 L954.8,571.1 L956.7,570.9 L958.6,570.8 L960.5,570.5 L962.4,570.0 L964.3,569.4 L966.3,568.5 L968.2,567.0 L970.1,568.9 L972.0,571.4" fill="none" stroke="#059669" stroke-width="2.5"/>
<rect x="86" y="702" width="886" height="122" fill="#ffffff" stroke="#cbd5e1"/>
<text x="86" y="694" font-family="Arial" font-size="16" font-weight="700" fill="#0f172a">Gimbal</text>
<text x="24" y="763.0" font-family="Arial" font-size="13" fill="#334155" transform="rotate(-90 24,763.0)">deg</text>
<text x="18" y="716" font-family="Arial" font-size="12" fill="#64748b">0.7</text>
<text x="18" y="824" font-family="Arial" font-size="12" fill="#64748b">-0.1</text>
<path d="M86.0,713.1 L87.9,733.9 L89.8,749.7 L91.7,761.9 L93.7,771.4 L95.6,778.9 L97.5,784.7 L99.4,789.4 L101.3,793.2 L103.2,796.2 L105.1,798.7 L107.0,800.7 L109.0,802.4 L110.9,803.9 L112.8,805.1 L114.7,806.1 L116.6,806.9 L118.5,807.7 L120.4,808.3 L122.4,808.9 L124.3,809.4 L126.2,809.8 L128.1,810.2 L130.0,810.5 L131.9,810.8 L133.8,811.1 L135.8,811.3 L137.7,811.6 L139.6,811.7 L141.5,811.9 L143.4,812.1 L145.3,812.2 L147.2,812.3 L149.1,812.4 L151.1,812.5 L153.0,812.6 L154.9,812.6 L156.8,812.7 L158.7,812.7 L160.6,812.8 L162.5,812.8 L164.5,812.8 L166.4,812.8 L168.3,812.9 L170.2,812.9 L172.1,812.9 L174.0,812.9 L175.9,812.9 L177.9,812.8 L179.8,812.8 L181.7,812.8 L183.6,812.8 L185.5,812.7 L187.4,812.7 L189.3,812.7 L191.2,812.6 L193.2,812.6 L195.1,812.5 L197.0,812.5 L198.9,812.4 L200.8,812.4 L202.7,812.3 L204.6,812.3 L206.6,812.2 L208.5,812.1 L210.4,812.1 L212.3,812.0 L214.2,811.9 L216.1,811.9 L218.0,811.8 L220.0,811.7 L221.9,811.6 L223.8,811.6 L225.7,811.5 L227.6,811.4 L229.5,811.3 L231.4,811.2 L233.3,811.1 L235.3,811.0 L237.2,810.9 L239.1,810.9 L241.0,810.8 L242.9,810.7 L244.8,810.6 L246.7,810.5 L248.7,810.4 L250.6,810.3 L252.5,810.2 L254.4,810.1 L256.3,810.0 L258.2,809.9 L260.1,809.8 L262.1,809.7 L264.0,809.5 L265.9,809.4 L267.8,809.3 L269.7,809.2 L271.6,809.1 L273.5,809.0 L275.4,808.9 L277.4,808.8 L279.3,808.7 L281.2,808.6 L283.1,808.5 L285.0,808.3 L286.9,808.2 L288.8,808.1 L290.8,808.0 L292.7,807.9 L294.6,807.8 L296.5,807.7 L298.4,807.5 L300.3,807.4 L302.2,807.3 L304.2,807.2 L306.1,807.1 L308.0,807.0 L309.9,806.9 L311.8,806.8 L313.7,806.6 L315.6,806.5 L317.5,806.4 L319.5,806.3 L321.4,806.2 L323.3,806.1 L325.2,806.0 L327.1,805.9 L329.0,805.8 L330.9,805.6 L332.9,805.5 L334.8,805.4 L336.7,805.3 L338.6,805.2 L340.5,805.1 L342.4,805.0 L344.3,804.9 L346.3,804.8 L348.2,804.7 L350.1,804.6 L352.0,804.5 L353.9,804.4 L355.8,804.3 L357.7,804.2 L359.6,804.1 L361.6,804.0 L363.5,803.9 L365.4,803.8 L367.3,803.7 L369.2,803.6 L371.1,803.5 L373.0,799.2 L375.0,800.4 L376.9,801.3 L378.8,802.0 L380.7,802.5 L382.6,802.8 L384.5,803.0 L386.4,803.2 L388.3,803.2 L390.3,803.3 L392.2,803.2 L394.1,803.2 L396.0,803.1 L397.9,803.1 L399.8,803.0 L401.7,802.9 L403.7,802.8 L405.6,802.7 L407.5,802.6 L409.4,802.5 L411.3,802.4 L413.2,802.3 L415.1,802.2 L417.1,802.1 L419.0,802.0 L420.9,801.9 L422.8,801.8 L424.7,801.7 L426.6,801.6 L428.5,801.5 L430.4,801.4 L432.4,796.2 L434.3,797.8 L436.2,799.0 L438.1,799.9 L440.0,800.5 L441.9,800.9 L443.8,801.2 L445.8,801.4 L447.7,801.6 L449.6,801.6 L451.5,801.6 L453.4,801.6 L455.3,801.6 L457.2,801.5 L459.2,801.4 L461.1,801.4 L463.0,801.3 L464.9,801.2 L466.8,801.1 L468.7,801.0 L470.6,801.0 L472.5,800.9 L474.5,800.8 L476.4,800.7 L478.3,800.7 L480.2,795.9 L482.1,797.4 L484.0,798.5 L485.9,799.3 L487.9,799.9 L489.8,800.3 L491.7,800.6 L493.6,800.8 L495.5,800.9 L497.4,801.0 L499.3,801.0 L501.3,801.0 L503.2,801.0 L505.1,800.9 L507.0,800.9 L508.9,800.8 L510.8,800.8 L512.7,800.7 L514.6,800.7 L516.6,800.6 L518.5,800.6 L520.4,800.5 L522.3,800.5 L524.2,796.8 L526.1,798.0 L528.0,798.9 L530.0,799.5 L531.9,800.0 L533.8,800.3 L535.7,800.5 L537.6,800.7 L539.5,800.8 L541.4,800.8 L543.4,800.9 L545.3,800.9 L547.2,800.9 L549.1,800.8 L551.0,800.8 L552.9,800.8 L554.8,800.8 L556.7,800.7 L558.7,800.7 L560.6,800.7 L562.5,800.7 L564.4,798.2 L566.3,799.0 L568.2,799.6 L570.1,800.1 L572.1,800.4 L574.0,800.6 L575.9,800.8 L577.8,800.9 L579.7,801.0 L581.6,801.0 L583.5,801.1 L585.5,801.1 L587.4,801.1 L589.3,801.1 L591.2,801.1 L593.1,801.1 L595.0,801.1 L596.9,801.0 L598.8,801.0 L600.8,799.8 L602.7,800.2 L604.6,800.6 L606.5,800.8 L608.4,801.0 L610.3,801.1 L612.2,801.2 L614.2,801.3 L616.1,801.3 L618.0,801.4 L619.9,801.4 L621.8,801.4 L623.7,801.4 L625.6,801.4 L627.6,801.5 L629.5,801.5 L631.4,801.5 L633.3,801.5 L635.2,801.2 L637.1,801.4 L639.0,801.5 L640.9,801.6 L642.9,801.6 L644.8,801.7 L646.7,801.7 L648.6,801.7 L650.5,801.8 L652.4,801.8 L654.3,801.8 L656.3,801.8 L658.2,801.9 L660.1,801.9 L662.0,801.9 L663.9,801.9 L665.8,801.9 L667.7,802.0 L669.7,802.6 L671.6,802.5 L673.5,802.4 L675.4,802.3 L677.3,802.3 L679.2,802.2 L681.1,802.2 L683.0,802.2 L685.0,802.2 L686.9,802.2 L688.8,802.3 L690.7,802.3 L692.6,802.3 L694.5,802.3 L696.4,802.4 L698.4,802.4 L700.3,802.4 L702.2,803.7 L704.1,803.4 L706.0,803.1 L707.9,803.0 L709.8,802.8 L711.7,802.8 L713.7,802.7 L715.6,802.7 L717.5,802.7 L719.4,802.7 L721.3,802.7 L723.2,802.7 L725.1,802.7 L727.1,802.8 L729.0,802.8 L730.9,802.8 L732.8,804.5 L734.7,804.0 L736.6,803.7 L738.5,803.5 L740.5,803.3 L742.4,803.2 L744.3,803.1 L746.2,803.0 L748.1,803.0 L750.0,803.0 L751.9,803.0 L753.8,803.0 L755.8,803.1 L757.7,803.1 L759.6,803.1 L761.5,803.2 L763.4,805.1 L765.3,804.6 L767.2,804.2 L769.2,803.9 L771.1,803.7 L773.0,803.5 L774.9,803.4 L776.8,803.4 L778.7,803.3 L780.6,803.3 L782.6,803.3 L784.5,803.4 L786.4,803.4 L788.3,803.4 L790.2,803.4 L792.1,803.5 L794.0,805.5 L795.9,804.9 L797.9,804.5 L799.8,804.2 L801.7,804.0 L803.6,803.8 L805.5,803.7 L807.4,803.6 L809.3,803.6 L811.3,803.6 L813.2,803.6 L815.1,803.6 L817.0,803.6 L818.9,803.7 L820.8,803.7 L822.7,803.7 L824.7,805.7 L826.6,805.1 L828.5,804.7 L830.4,804.4 L832.3,804.2 L834.2,804.0 L836.1,803.9 L838.0,803.8 L840.0,803.8 L841.9,803.8 L843.8,803.8 L845.7,803.8 L847.6,803.8 L849.5,803.8 L851.4,803.9 L853.4,803.9 L855.3,805.7 L857.2,805.2 L859.1,804.8 L861.0,804.5 L862.9,804.3 L864.8,804.1 L866.8,804.0 L868.7,804.0 L870.6,803.9 L872.5,803.9 L874.4,803.9 L876.3,803.9 L878.2,803.9 L880.1,803.9 L882.1,804.0 L884.0,804.0 L885.9,804.0 L887.8,805.6 L889.7,805.1 L891.6,804.8 L893.5,804.5 L895.5,804.3 L897.4,804.2 L899.3,804.1 L901.2,804.1 L903.1,804.0 L905.0,804.0 L906.9,804.0 L908.9,804.0 L910.8,804.0 L912.7,804.0 L914.6,804.0 L916.5,804.0 L918.4,804.1 L920.3,804.1 L922.2,804.1 L924.2,804.1 L926.1,804.1 L928.0,805.4 L929.9,805.0 L931.8,804.7 L933.7,804.5 L935.6,804.4 L937.6,804.2 L939.5,804.2 L941.4,804.1 L943.3,804.1 L945.2,804.1 L947.1,804.1 L949.0,804.1 L951.0,804.1 L952.9,804.1 L954.8,804.1 L956.7,804.1 L958.6,804.1 L960.5,804.2 L962.4,804.2 L964.3,804.2 L966.3,804.3 L968.2,804.4 L970.1,804.1 L972.0,803.8" fill="none" stroke="#ea580c" stroke-width="2.5"/>
<rect x="86" y="858" width="886" height="122" fill="#ffffff" stroke="#cbd5e1"/>
<text x="86" y="850" font-family="Arial" font-size="16" font-weight="700" fill="#0f172a">Propellant remaining</text>
<text x="24" y="919.0" font-family="Arial" font-size="13" fill="#334155" transform="rotate(-90 24,919.0)">kg</text>
<text x="18" y="872" font-family="Arial" font-size="12" fill="#64748b">7192.9</text>
<text x="18" y="980" font-family="Arial" font-size="12" fill="#64748b">4396.0</text>
<path d="M86.0,866.4 L87.9,866.7 L89.8,866.9 L91.7,867.2 L93.7,867.5 L95.6,867.7 L97.5,868.0 L99.4,868.2 L101.3,868.5 L103.2,868.7 L105.1,868.9 L107.0,869.2 L109.0,869.4 L110.9,869.7 L112.8,869.9 L114.7,870.1 L116.6,870.4 L118.5,870.6 L120.4,870.9 L122.4,871.1 L124.3,871.3 L126.2,871.6 L128.1,871.8 L130.0,872.0 L131.9,872.3 L133.8,872.5 L135.8,872.7 L137.7,873.0 L139.6,873.2 L141.5,873.4 L143.4,873.7 L145.3,873.9 L147.2,874.1 L149.1,874.4 L151.1,874.6 L153.0,874.8 L154.9,875.1 L156.8,875.3 L158.7,875.5 L160.6,875.8 L162.5,876.0 L164.5,876.2 L166.4,876.5 L168.3,876.7 L170.2,876.9 L172.1,877.2 L174.0,877.4 L175.9,877.6 L177.9,877.8 L179.8,878.1 L181.7,878.3 L183.6,878.5 L185.5,878.8 L187.4,879.0 L189.3,879.2 L191.2,879.5 L193.2,879.7 L195.1,879.9 L197.0,880.2 L198.9,880.4 L200.8,880.6 L202.7,880.9 L204.6,881.1 L206.6,881.3 L208.5,881.5 L210.4,881.8 L212.3,882.0 L214.2,882.2 L216.1,882.5 L218.0,882.7 L220.0,882.9 L221.9,883.2 L223.8,883.4 L225.7,883.6 L227.6,883.8 L229.5,884.1 L231.4,884.3 L233.3,884.5 L235.3,884.8 L237.2,885.0 L239.1,885.2 L241.0,885.5 L242.9,885.7 L244.8,885.9 L246.7,886.1 L248.7,886.4 L250.6,886.6 L252.5,886.8 L254.4,887.1 L256.3,887.3 L258.2,887.5 L260.1,887.8 L262.1,888.0 L264.0,888.2 L265.9,888.4 L267.8,888.7 L269.7,888.9 L271.6,889.1 L273.5,889.4 L275.4,889.6 L277.4,889.8 L279.3,890.1 L281.2,890.3 L283.1,890.5 L285.0,890.7 L286.9,891.0 L288.8,891.2 L290.8,891.4 L292.7,891.7 L294.6,891.9 L296.5,892.1 L298.4,892.3 L300.3,892.6 L302.2,892.8 L304.2,893.0 L306.1,893.3 L308.0,893.5 L309.9,893.7 L311.8,893.9 L313.7,894.2 L315.6,894.4 L317.5,894.6 L319.5,894.9 L321.4,895.1 L323.3,895.3 L325.2,895.5 L327.1,895.8 L329.0,896.0 L330.9,896.2 L332.9,896.5 L334.8,896.7 L336.7,896.9 L338.6,897.1 L340.5,897.4 L342.4,897.6 L344.3,897.8 L346.3,898.1 L348.2,898.3 L350.1,898.5 L352.0,898.7 L353.9,899.0 L355.8,899.2 L357.7,899.4 L359.6,899.7 L361.6,899.9 L363.5,900.1 L365.4,900.3 L367.3,900.6 L369.2,900.8 L371.1,901.0 L373.0,901.0 L375.0,901.3 L376.9,901.5 L378.8,901.8 L380.7,902.0 L382.6,902.3 L384.5,902.5 L386.4,902.7 L388.3,903.0 L390.3,903.2 L392.2,903.5 L394.1,903.7 L396.0,903.9 L397.9,904.2 L399.8,904.4 L401.7,904.6 L403.7,904.9 L405.6,905.1 L407.5,905.3 L409.4,905.6 L411.3,905.8 L413.2,906.0 L415.1,906.2 L417.1,906.5 L419.0,906.7 L420.9,906.9 L422.8,907.2 L424.7,907.4 L426.6,907.6 L428.5,907.8 L430.4,908.1 L432.4,908.1 L434.3,908.3 L436.2,908.6 L438.1,908.8 L440.0,909.1 L441.9,909.3 L443.8,909.5 L445.8,909.8 L447.7,910.0 L449.6,910.3 L451.5,910.5 L453.4,910.7 L455.3,911.0 L457.2,911.2 L459.2,911.4 L461.1,911.7 L463.0,911.9 L464.9,912.1 L466.8,912.4 L468.7,912.6 L470.6,912.8 L472.5,913.0 L474.5,913.3 L476.4,913.5 L478.3,913.7 L480.2,913.7 L482.1,914.0 L484.0,914.2 L485.9,914.5 L487.9,914.7 L489.8,915.0 L491.7,915.2 L493.6,915.4 L495.5,915.7 L497.4,915.9 L499.3,916.1 L501.3,916.4 L503.2,916.6 L505.1,916.8 L507.0,917.1 L508.9,917.3 L510.8,917.5 L512.7,917.8 L514.6,918.0 L516.6,918.2 L518.5,918.5 L520.4,918.7 L522.3,918.9 L524.2,918.9 L526.1,919.2 L528.0,919.4 L530.0,919.7 L531.9,919.9 L533.8,920.1 L535.7,920.4 L537.6,920.6 L539.5,920.9 L541.4,921.1 L543.4,921.3 L545.3,921.6 L547.2,921.8 L549.1,922.0 L551.0,922.3 L552.9,922.5 L554.8,922.7 L556.7,922.9 L558.7,923.2 L560.6,923.4 L562.5,923.6 L564.4,923.6 L566.3,923.9 L568.2,924.1 L570.1,924.4 L572.1,924.6 L574.0,924.9 L575.9,925.1 L577.8,925.3 L579.7,925.6 L581.6,925.8 L583.5,926.0 L585.5,926.3 L587.4,926.5 L589.3,926.7 L591.2,927.0 L593.1,927.2 L595.0,927.4 L596.9,927.7 L598.8,927.9 L600.8,927.9 L602.7,928.1 L604.6,928.4 L606.5,928.6 L608.4,928.9 L610.3,929.1 L612.2,929.4 L614.2,929.6 L616.1,929.8 L618.0,930.1 L619.9,930.3 L621.8,930.5 L623.7,930.8 L625.6,931.0 L627.6,931.2 L629.5,931.5 L631.4,931.7 L633.3,931.9 L635.2,931.9 L637.1,932.2 L639.0,932.4 L640.9,932.7 L642.9,932.9 L644.8,933.1 L646.7,933.4 L648.6,933.6 L650.5,933.9 L652.4,934.1 L654.3,934.3 L656.3,934.6 L658.2,934.8 L660.1,935.0 L662.0,935.3 L663.9,935.5 L665.8,935.7 L667.7,935.9 L669.7,935.9 L671.6,936.2 L673.5,936.4 L675.4,936.7 L677.3,936.9 L679.2,937.2 L681.1,937.4 L683.0,937.6 L685.0,937.9 L686.9,938.1 L688.8,938.3 L690.7,938.6 L692.6,938.8 L694.5,939.0 L696.4,939.3 L698.4,939.5 L700.3,939.7 L702.2,939.7 L704.1,940.0 L706.0,940.2 L707.9,940.5 L709.8,940.7 L711.7,941.0 L713.7,941.2 L715.6,941.4 L717.5,941.7 L719.4,941.9 L721.3,942.1 L723.2,942.4 L725.1,942.6 L727.1,942.8 L729.0,943.1 L730.9,943.3 L732.8,943.3 L734.7,943.5 L736.6,943.8 L738.5,944.0 L740.5,944.3 L742.4,944.5 L744.3,944.8 L746.2,945.0 L748.1,945.2 L750.0,945.5 L751.9,945.7 L753.8,945.9 L755.8,946.2 L757.7,946.4 L759.6,946.6 L761.5,946.8 L763.4,946.8 L765.3,947.1 L767.2,947.3 L769.2,947.6 L771.1,947.8 L773.0,948.1 L774.9,948.3 L776.8,948.5 L778.7,948.8 L780.6,949.0 L782.6,949.2 L784.5,949.5 L786.4,949.7 L788.3,949.9 L790.2,950.2 L792.1,950.4 L794.0,950.4 L795.9,950.6 L797.9,950.9 L799.8,951.1 L801.7,951.4 L803.6,951.6 L805.5,951.9 L807.4,952.1 L809.3,952.3 L811.3,952.6 L813.2,952.8 L815.1,953.0 L817.0,953.3 L818.9,953.5 L820.8,953.7 L822.7,953.9 L824.7,953.9 L826.6,954.2 L828.5,954.4 L830.4,954.7 L832.3,954.9 L834.2,955.2 L836.1,955.4 L838.0,955.7 L840.0,955.9 L841.9,956.1 L843.8,956.4 L845.7,956.6 L847.6,956.8 L849.5,957.0 L851.4,957.3 L853.4,957.5 L855.3,957.5 L857.2,957.8 L859.1,958.0 L861.0,958.2 L862.9,958.5 L864.8,958.7 L866.8,959.0 L868.7,959.2 L870.6,959.4 L872.5,959.7 L874.4,959.9 L876.3,960.1 L878.2,960.4 L880.1,960.6 L882.1,960.8 L884.0,961.1 L885.9,961.3 L887.8,961.3 L889.7,961.5 L891.6,961.8 L893.5,962.0 L895.5,962.3 L897.4,962.5 L899.3,962.8 L901.2,963.0 L903.1,963.2 L905.0,963.5 L906.9,963.7 L908.9,963.9 L910.8,964.2 L912.7,964.4 L914.6,964.6 L916.5,964.9 L918.4,965.1 L920.3,965.3 L922.2,965.5 L924.2,965.8 L926.1,966.0 L928.0,966.0 L929.9,966.3 L931.8,966.5 L933.7,966.8 L935.6,967.0 L937.6,967.2 L939.5,967.5 L941.4,967.7 L943.3,968.0 L945.2,968.2 L947.1,968.5 L949.0,968.7 L951.0,968.9 L952.9,969.2 L954.8,969.4 L956.7,969.6 L958.6,969.9 L960.5,970.1 L962.4,970.4 L964.3,970.6 L966.3,970.8 L968.2,971.1 L970.1,971.3 L972.0,971.6" fill="none" stroke="#0891b2" stroke-width="2.5"/>
<text x="472.0" y="1018" font-family="Arial" font-size="14" fill="#334155">time (s)</text>
</svg>
