<svg xmlns="http://www.w3.org/2000/svg" width="1500" height="1040" viewBox="0 0 1500 1040" role="img">
<title>Constrained predictive guidance compared with corridor guidance</title>
<rect width="100%" height="100%" fill="#f8fafc"/>
<text x="62" y="52" font-family="Arial" font-size="31" font-weight="700" fill="#0f172a">Constrained Powered-Descent Guidance</text>
<text x="62" y="82" font-family="Arial" font-size="16" fill="#64748b">ESKF feedback and flight-like actuators held fixed; only the high-altitude guidance architecture changes.</text>
<text x="90" y="127" font-family="Arial" font-size="20" font-weight="700" fill="#0f172a">Nominal downrange-altitude trajectory</text>
<rect x="90" y="145" width="740" height="355" fill="#ffffff" stroke="#cbd5e1"/>
<line x1="90" y1="411.2" x2="830" y2="411.2" stroke="#e2e8f0"/>
<text x="42" y="415.2" font-family="Arial" font-size="12" fill="#64748b">180</text>
<line x1="90" y1="322.5" x2="830" y2="322.5" stroke="#e2e8f0"/>
<text x="42" y="326.5" font-family="Arial" font-size="12" fill="#64748b">360</text>
<line x1="90" y1="233.8" x2="830" y2="233.8" stroke="#e2e8f0"/>
<text x="42" y="237.8" font-family="Arial" font-size="12" fill="#64748b">540</text>
<path d="M783.4,145.0 L779.5,146.4 L775.6,147.9 L771.7,149.3 L767.9,150.8 L764.0,152.3 L760.2,153.7 L756.3,155.2 L752.5,156.7 L748.7,158.2 L745.0,159.6 L741.2,161.1 L737.5,162.5 L733.8,164.0 L730.2,165.4 L726.6,166.8 L723.0,168.2 L719.4,169.6 L715.8,171.0 L712.3,172.4 L708.8,173.8 L705.4,175.2 L702.0,176.5 L698.6,177.9 L695.2,179.3 L691.9,180.6 L688.6,181.9 L685.3,183.3 L682.1,184.6 L678.9,185.9 L675.7,187.3 L672.5,188.6 L669.3,189.9 L666.2,191.2 L663.1,192.6 L660.0,193.9 L656.9,195.3 L653.9,196.6 L650.8,197.9 L647.9,199.3 L644.9,200.6 L642.0,201.9 L639.1,203.3 L636.2,204.6 L633.4,205.9 L630.6,207.2 L627.9,208.5 L625.2,209.8 L622.5,211.1 L619.9,212.4 L617.3,213.7 L614.8,214.9 L612.3,216.2 L609.8,217.5 L607.4,218.7 L605.0,220.0 L602.6,221.3 L600.3,222.5 L598.0,223.8 L595.7,225.0 L593.5,226.2 L591.3,227.5 L589.1,228.7 L587.0,229.9 L584.9,231.2 L582.9,232.4 L580.8,233.6 L578.8,234.9 L576.8,236.1 L574.8,237.4 L572.9,238.6 L571.0,239.8 L569.1,241.1 L567.2,242.3 L565.4,243.6 L563.7,244.8 L561.9,246.0 L560.2,247.2 L558.5,248.4 L556.9,249.6 L555.3,250.9 L553.8,252.1 L552.2,253.2 L550.7,254.4 L549.3,255.6 L547.9,256.8 L546.5,258.0 L545.1,259.2 L543.8,260.3 L542.5,261.5 L541.3,262.6 L540.0,263.8 L538.8,265.0 L537.7,266.1 L536.5,267.2 L535.4,268.4 L534.3,269.5 L533.3,270.7 L532.2,271.8 L531.2,273.0 L530.2,274.1 L529.2,275.3 L528.3,276.4 L527.3,277.6 L526.4,278.7 L525.5,279.9 L524.6,281.0 L523.8,282.1 L523.0,283.3 L522.2,284.4 L521.4,285.5 L520.6,286.6 L519.9,287.8 L519.2,288.9 L518.5,290.0 L517.9,291.1 L517.3,292.2 L516.6,293.3 L516.1,294.4 L515.5,295.4 L514.9,296.5 L514.4,297.6 L513.9,298.7 L513.4,299.7 L512.9,300.8 L512.5,301.8 L512.0,302.9 L511.6,304.0 L511.2,305.0 L510.8,306.1 L510.4,307.2 L510.0,308.2 L509.6,309.3 L509.2,310.4 L508.9,311.4 L508.5,312.5 L508.2,313.5 L507.9,314.6 L507.6,315.6 L507.3,316.7 L507.0,317.7 L506.7,318.8 L506.4,319.8 L506.2,320.8 L505.9,321.9 L505.7,322.9 L505.5,323.9 L505.2,324.9 L505.0,325.9 L504.8,326.9 L504.6,327.9 L504.4,328.9 L504.2,329.9 L504.0,330.9 L503.9,331.8 L503.7,332.8 L503.5,333.8 L503.3,334.8 L503.2,335.8 L503.0,336.8 L502.8,337.7 L502.7,338.7 L502.5,339.7 L502.3,340.7 L502.2,341.7 L502.0,342.7 L501.8,343.7 L501.7,344.7 L501.5,345.6 L501.3,346.6 L501.2,347.6 L501.0,348.5 L500.8,349.5 L500.6,350.4 L500.5,351.4 L500.3,352.3 L500.1,353.3 L499.9,354.2 L499.6,355.1 L499.4,356.0 L499.2,356.9 L499.0,357.8 L498.7,358.7 L498.5,359.6 L498.2,360.5 L498.0,361.4 L497.7,362.3 L497.4,363.2 L497.2,364.1 L496.9,365.0 L496.6,365.9 L496.3,366.8 L496.0,367.7 L495.7,368.6 L495.4,369.5 L495.1,370.4 L494.8,371.3 L494.4,372.2 L494.1,373.1 L493.7,374.0 L493.3,374.9 L492.9,375.7 L492.5,376.6 L492.0,377.5 L491.6,378.3 L491.1,379.2 L490.6,380.0 L490.1,380.8 L489.6,381.7 L489.1,382.5 L488.5,383.3 L488.0,384.2 L487.4,385.0 L486.8,385.8 L486.2,386.6 L485.6,387.4 L485.0,388.2 L484.4,389.1 L483.7,389.9 L483.1,390.7 L482.4,391.5 L481.8,392.4 L481.1,393.2 L480.4,394.0 L479.7,394.8 L479.0,395.7 L478.2,396.5 L477.4,397.3 L476.7,398.1 L475.9,398.9 L475.1,399.7 L474.2,400.5 L473.4,401.2 L472.5,402.0 L471.6,402.8 L470.7,403.5 L469.8,404.3 L468.9,405.0 L467.9,405.8 L467.0,406.5 L466.0,407.3 L465.0,408.0 L464.0,408.7 L463.0,409.5 L461.9,410.2 L460.9,410.9 L459.9,411.7 L458.8,412.4 L457.8,413.2 L456.7,413.9 L455.6,414.7 L454.5,415.4 L453.4,416.2 L452.3,416.9 L451.2,417.6 L450.1,418.4 L448.9,419.1 L447.7,419.8 L446.6,420.5 L445.4,421.2 L444.2,421.9 L443.0,422.6 L441.8,423.3 L440.5,424.0 L439.3,424.7 L438.0,425.3 L436.8,426.0 L435.5,426.7 L434.2,427.3 L432.9,428.0 L431.6,428.6 L430.3,429.3 L429.0,429.9 L427.7,430.6 L426.4,431.2 L425.1,431.9 L423.8,432.6 L422.4,433.2 L421.1,433.9 L419.8,434.5 L418.5,435.2 L417.1,435.9 L415.8,436.5 L414.4,437.2 L413.1,437.8 L411.7,438.4 L410.3,439.1 L409.0,439.7 L407.6,440.3 L406.2,441.0 L404.8,441.6 L403.4,442.2 L402.1,442.8 L400.7,443.4 L399.3,443.9 L397.9,444.5 L396.5,445.1 L395.1,445.7 L393.6,446.2 L392.2,446.8 L390.8,447.4 L389.4,447.9 L388.0,448.5 L386.6,449.0 L385.2,449.6 L383.7,450.2 L382.3,450.7 L380.9,451.3 L379.5,451.9 L378.0,452.4 L376.6,453.0 L375.2,453.6 L373.8,454.1 L372.3,454.7 L370.9,455.2 L369.5,455.8 L368.0,456.3 L366.6,456.8 L365.2,457.4 L363.7,457.9 L362.3,458.4 L360.8,458.9 L359.4,459.3 L358.0,459.8 L356.5,460.2 L355.1,460.6 L353.7,461.0 L352.2,461.3 L350.8,461.6 L349.3,461.9 L347.9,462.2 L346.5,462.4 L345.0,462.6 L343.6,462.8 L342.2,463.0 L340.8,463.1 L339.3,463.2 L337.9,463.3 L336.5,463.4 L335.1,463.4 L333.7,463.5 L332.3,463.5 L330.9,463.5 L329.5,463.5 L328.1,463.5 L326.7,463.5 L325.3,463.5 L323.9,463.5 L322.5,463.5 L321.1,463.5 L319.7,463.5 L318.3,463.5 L316.9,463.6 L315.5,463.6 L314.1,463.7 L312.7,463.7 L311.4,463.8 L310.0,463.9 L308.6,464.0 L307.2,464.1 L305.8,464.2 L304.4,464.3 L303.1,464.4 L301.7,464.5 L300.4,464.6 L299.0,464.7 L297.7,464.8 L296.3,464.9 L295.0,464.9 L293.6,465.0 L292.3,465.1 L291.0,465.1 L289.7,465.2 L288.4,465.2 L287.1,465.3 L285.8,465.3 L284.5,465.4 L283.2,465.4 L281.9,465.5 L280.6,465.6 L279.3,465.6 L278.1,465.7 L276.8,465.8 L275.5,465.9 L274.2,466.0 L273.0,466.1 L271.7,466.2 L270.5,466.3 L269.2,466.4 L268.0,466.5 L266.7,466.6 L265.5,466.6 L264.3,466.7 L263.1,466.8 L261.9,466.8 L260.7,466.9 L259.5,466.9 L258.4,467.0 L257.2,467.0 L256.0,467.1 L254.9,467.1 L253.7,467.2 L252.5,467.3 L251.4,467.4 L250.2,467.4 L249.1,467.5 L247.9,467.6 L246.8,467.7 L245.7,467.8 L244.6,467.9 L243.4,468.0 L242.3,468.1 L241.2,468.1 L240.1,468.2 L239.0,468.3 L238.0,468.3 L236.9,468.4 L235.8,468.4 L234.8,468.5 L233.7,468.5 L232.7,468.6 L231.6,468.6 L230.6,468.7 L229.5,468.8 L228.5,468.8 L227.5,468.9 L226.4,469.0 L225.4,469.1 L224.4,469.2 L223.4,469.3 L222.3,469.4 L221.3,469.5 L220.3,469.6 L219.3,469.7 L218.3,469.8 L217.4,469.8 L216.4,469.9 L215.4,470.0 L214.4,470.1 L213.5,470.1 L212.5,470.2 L211.6,470.2 L210.7,470.3 L209.8,470.3 L208.8,470.4 L207.9,470.4 L207.0,470.5 L206.1,470.6 L205.2,470.7 L204.3,470.8 L203.4,470.8 L202.5,470.9 L201.6,471.0 L200.7,471.1 L199.8,471.2 L199.0,471.3 L198.1,471.4 L197.3,471.5 L196.4,471.6 L195.6,471.7 L194.8,471.7 L194.0,471.8 L193.2,471.9 L192.4,471.9 L191.6,472.0 L190.8,472.0 L190.0,472.1 L189.3,472.1 L188.5,472.2 L187.7,472.3 L187.0,472.3 L186.2,472.4 L185.5,472.5 L184.7,472.6 L184.0,472.7 L183.2,472.8 L182.5,472.9 L181.8,473.0 L181.0,473.1 L180.3,473.2 L179.6,473.3 L178.9,473.4 L178.2,473.4 L177.6,473.5 L176.9,473.6 L176.2,473.6 L175.6,473.7 L174.9,473.8 L174.3,473.8 L173.7,473.9 L173.0,473.9 L172.4,474.0 L171.8,474.0 L171.2,474.1 L170.6,474.2 L170.0,474.3 L169.3,474.4 L168.7,474.5 L168.1,474.6 L167.6,474.7 L167.0,474.8 L166.4,474.9 L165.8,475.0 L165.3,475.1 L164.7,475.1 L164.2,475.2 L163.6,475.3 L163.1,475.4 L162.6,475.4 L162.0,475.5 L161.5,475.5 L161.0,475.6 L160.5,475.6 L160.0,475.7 L159.6,475.7 L159.1,475.8 L158.6,475.9 L158.1,475.9 L157.6,476.0 L157.1,476.1 L156.7,476.2 L156.2,476.3 L155.7,476.4 L155.3,476.5 L154.8,476.6 L154.4,476.7 L154.0,476.8 L153.5,476.9 L153.1,476.9 L152.7,477.0 L152.3,477.1 L151.9,477.1 L151.5,477.2 L151.1,477.2 L150.8,477.3 L150.4,477.3 L150.0,477.4 L149.7,477.5 L149.3,477.5 L148.9,477.6 L148.6,477.7 L148.2,477.8 L147.9,477.9 L147.5,478.0 L147.2,478.1 L146.8,478.2 L146.5,478.3 L146.2,478.4 L145.8,478.4 L145.5,478.5 L145.2,478.6 L144.9,478.7 L144.6,478.8 L144.3,478.8 L144.1,478.9 L143.8,478.9 L143.5,479.0 L143.2,479.0 L143.0,479.1 L142.7,479.1 L142.5,479.2 L142.2,479.3 L142.0,479.3 L141.8,479.4 L141.5,479.5 L141.3,479.6 L141.0,479.7 L140.8,479.8 L140.6,479.9 L140.4,480.0 L140.2,480.1 L140.0,480.2 L139.8,480.2 L139.6,480.3 L139.4,480.4 L139.2,480.5 L139.1,480.5 L138.9,480.6 L138.8,480.6 L138.6,480.7 L138.5,480.7 L138.4,480.8 L138.2,480.8 L138.1,480.9 L138.0,481.0 L137.9,481.0 L137.8,481.1 L137.7,481.2 L137.6,481.3 L137.5,481.4 L137.4,481.5 L137.3,481.6 L137.2,481.7 L137.1,481.8 L137.0,481.9 L137.0,481.9 L136.9,482.0 L136.9,482.1 L136.8,482.2 L136.8,482.2 L136.7,482.3 L136.7,482.3 L136.7,482.4 L136.7,482.5 L136.7,482.5 L136.7,482.6 L136.6,482.6 L136.6,482.7 L136.6,482.8 L136.6,482.9 L136.6,483.0 L136.6,483.1 L136.6,483.2 L136.7,483.3 L136.7,483.4 L136.7,483.5 L136.7,483.6 L136.8,483.7 L136.8,483.7 L136.9,483.8 L136.9,483.9 L137.0,484.0 L137.1,484.0 L137.2,484.1 L137.2,484.1 L137.3,484.2 L137.4,484.2 L137.5,484.3 L137.6,484.4 L137.7,484.4 L137.8,484.5 L137.9,484.6 L138.0,484.7 L138.2,484.8 L138.3,484.9 L138.4,485.0 L138.5,485.1 L138.7,485.2 L138.8,485.3 L138.9,485.4 L139.1,485.5 L139.2,485.6 L139.4,485.6 L139.6,485.7 L139.7,485.8 L139.9,485.8 L140.1,485.9 L140.3,485.9 L140.4,486.0 L140.6,486.1 L140.8,486.1 L141.0,486.2 L141.2,486.3 L141.4,486.4 L141.6,486.5 L141.8,486.6 L142.0,486.7 L142.2,486.8 L142.4,486.9 L142.6,487.0 L142.8,487.1 L143.0,487.2 L143.3,487.2 L143.5,487.3 L143.7,487.4 L143.9,487.5 L144.1,487.5 L144.4,487.6 L144.6,487.6 L144.8,487.7 L145.1,487.7 L145.3,487.8 L145.5,487.9 L145.8,487.9 L146.0,488.0 L146.2,488.1 L146.5,488.2 L146.7,488.2 L147.0,488.3 L147.2,488.4 L147.4,488.5 L147.7,488.5 L147.9,488.6 L148.2,488.6 L148.5,488.7 L148.7,488.7 L149.0,488.8 L149.2,488.8 L149.5,488.8 L149.8,488.9 L150.0,488.9 L150.3,489.0 L150.5,489.1 L150.8,489.1 L151.1,489.2 L151.3,489.3 L151.6,489.4 L151.9,489.5 L152.2,489.6 L152.4,489.6 L152.7,489.7 L153.0,489.8 L153.3,489.9 L153.5,489.9 L153.8,490.0 L154.1,490.0 L154.4,490.1 L154.7,490.1 L155.0,490.2 L155.3,490.2 L155.6,490.3 L155.9,490.3 L156.2,490.3 L156.5,490.4 L156.7,490.5 L157.0,490.5 L157.3,490.6 L157.6,490.7 L157.9,490.8 L158.2,490.9 L158.5,490.9 L158.8,491.0 L159.1,491.1 L159.4,491.2 L159.7,491.3 L160.0,491.3 L160.3,491.4 L160.6,491.4 L160.9,491.5 L161.3,491.5 L161.6,491.6 L161.9,491.6 L162.2,491.6 L162.5,491.7 L162.8,491.7 L163.1,491.8 L163.4,491.8 L163.7,491.9 L164.0,492.0 L164.4,492.1 L164.7,492.2 L165.0,492.2 L165.3,492.3 L165.6,492.4 L165.9,492.5 L166.3,492.6 L166.6,492.6 L166.9,492.7 L167.2,492.8 L167.6,492.8 L167.9,492.9 L168.2,492.9 L168.5,493.0 L168.9,493.0 L169.2,493.0 L169.5,493.1 L169.8,493.1 L170.2,493.2 L170.5,493.2 L170.8,493.3 L171.2,493.4 L171.5,493.5 L171.8,493.6 L172.2,493.6 L172.5,493.7 L172.8,493.8 L173.1,493.9 L173.5,494.0 L173.8,494.0 L174.1,494.1 L174.5,494.2 L174.8,494.2 L175.1,494.3 L175.4,494.3 L175.8,494.3 L176.1,494.4 L176.4,494.4 L176.8,494.5 L177.1,494.5 L177.4,494.6 L177.8,494.6 L178.1,494.7 L178.4,494.8 L178.8,494.9 L179.1,494.9 L179.4,495.0 L179.8,495.1 L180.1,495.2 L180.4,495.3 L180.8,495.4 L181.1,495.4 L181.4,495.5 L181.8,495.6 L182.1,495.6 L182.5,495.7 L182.8,495.7 L183.1,495.7 L183.5,495.8 L183.8,495.8 L184.2,495.9 L184.5,495.9 L184.8,496.0 L185.2,496.0 L185.5,496.1 L185.9,496.2 L186.2,496.3 L186.6,496.4 L186.9,496.4 L187.3,496.5 L187.6,496.6 L188.0,496.7 L188.3,496.8 L188.7,496.9 L189.0,497.0 L189.4,497.1 L189.7,497.1 L190.1,497.2 L190.4,497.2 L190.8,497.3 L191.2,497.3 L191.5,497.4 L191.9,497.4 L192.3,497.4 L192.6,497.5 L193.0,497.5 L193.3,497.6 L193.7,497.7 L194.1,497.8 L194.4,497.8 L194.8,497.9 L195.2,498.0 L195.5,498.1 L195.9,498.2 L196.2,498.3 L196.6,498.3 L197.0,498.4 L197.3,498.5 L197.7,498.5 L198.0,498.6 L198.4,498.6 L198.7,498.7 L199.1,498.7 L199.4,498.8 L199.8,498.8 L200.1,498.8 L200.4,498.8 L200.8,498.8 L201.1,498.9 L201.4,498.9 L201.8,498.9 L202.1,498.9 L202.4,498.9 L202.8,498.9 L203.1,498.9 L203.4,498.9 L203.8,498.9 L204.1,498.9 L204.4,498.9 L204.8,498.9 L205.1,498.9 L205.4,498.9 L205.7,498.9 L206.1,498.9 L206.4,499.0 L206.7,499.0 L207.0,499.0 L207.3,499.0 L207.6,499.0 L208.0,499.0 L208.3,499.0 L208.6,499.1 L208.9,499.1 L209.2,499.1 L209.5,499.1 L209.8,499.1 L210.1,499.2 L210.4,499.2 L210.7,499.2 L211.0,499.2 L211.3,499.2 L211.5,499.3 L211.8,499.3 L212.1,499.3 L212.4,499.3 L212.7,499.3 L212.9,499.3 L213.2,499.4 L213.5,499.4 L213.7,499.4 L214.0,499.4 L214.2,499.4 L214.5,499.5 L214.8,499.5 L215.0,499.5 L215.3,499.5 L215.5,499.5 L215.7,499.5 L216.0,499.6 L216.2,499.6 L216.5,499.6 L216.7,499.6 L216.9,499.6 L217.1,499.6 L217.4,499.7 L217.6,499.7 L217.8,499.7 L218.0,499.7 L218.2,499.7 L218.5,499.8 L218.7,499.8 L218.9,499.8 L219.1,499.8 L219.3,499.8 L219.5,499.8 L219.7,499.9 L219.9,499.9 L220.1,499.9 L220.3,499.9 L220.5,499.9 L220.6,500.0 L220.8,500.0 L221.0,500.0 L221.2,500.0" fill="none" stroke="#ea580c" stroke-width="3"/>
<path d="M783.4,145.0 L779.5,146.4 L775.6,147.9 L771.7,149.3 L767.9,150.8 L764.0,152.3 L760.2,153.8 L756.3,155.2 L752.5,156.7 L748.7,158.2 L744.9,159.7 L741.1,161.2 L737.4,162.6 L733.7,164.1 L729.9,165.6 L726.3,167.1 L722.6,168.5 L718.9,170.0 L715.3,171.5 L711.7,172.9 L708.1,174.4 L704.5,175.9 L700.9,177.3 L697.4,178.8 L693.9,180.2 L690.4,181.6 L686.9,183.1 L683.4,184.5 L680.0,186.0 L676.6,187.4 L673.2,188.8 L669.8,190.2 L666.5,191.6 L663.1,193.1 L659.8,194.5 L656.5,195.9 L653.3,197.3 L650.0,198.7 L646.8,200.1 L643.6,201.5 L640.4,202.9 L637.2,204.3 L634.1,205.6 L631.0,207.0 L627.9,208.4 L624.8,209.8 L621.7,211.1 L618.7,212.5 L615.7,213.9 L612.7,215.2 L609.7,216.6 L606.7,217.9 L603.8,219.3 L600.9,220.6 L598.0,221.9 L595.1,223.3 L592.3,224.6 L589.5,225.9 L586.7,227.3 L583.9,228.6 L581.1,229.9 L578.4,231.2 L575.6,232.5 L573.0,233.8 L570.3,235.1 L567.6,236.4 L565.0,237.7 L562.4,239.0 L559.8,240.3 L557.2,241.6 L554.6,242.9 L552.1,244.2 L549.6,245.4 L547.1,246.7 L544.6,248.0 L542.2,249.2 L539.7,250.5 L537.3,251.8 L534.9,253.0 L532.6,254.3 L530.2,255.5 L527.9,256.7 L525.6,258.0 L523.3,259.2 L521.0,260.4 L518.7,261.7 L516.5,262.9 L514.3,264.1 L512.1,265.3 L509.9,266.5 L507.7,267.7 L505.6,268.9 L503.4,270.1 L501.3,271.3 L499.2,272.5 L497.2,273.7 L495.1,274.9 L493.1,276.1 L491.1,277.3 L489.1,278.4 L487.1,279.6 L485.1,280.8 L483.2,281.9 L481.3,283.1 L479.4,284.3 L477.5,285.4 L475.6,286.6 L473.7,287.7 L471.9,288.9 L470.1,290.0 L468.3,291.1 L466.5,292.3 L464.7,293.4 L463.0,294.5 L461.2,295.6 L459.5,296.7 L457.8,297.9 L456.1,299.0 L454.4,300.1 L452.8,301.2 L451.1,302.3 L449.5,303.4 L447.9,304.5 L446.3,305.5 L444.7,306.6 L443.2,307.7 L441.6,308.8 L440.1,309.9 L438.6,310.9 L437.1,312.0 L435.6,313.1 L434.1,314.1 L432.7,315.2 L431.2,316.2 L429.8,317.3 L428.4,318.3 L427.0,319.4 L425.6,320.4 L424.2,321.4 L422.9,322.5 L421.5,323.5 L420.2,324.5 L418.9,325.5 L417.6,326.6 L416.3,327.6 L415.0,328.6 L413.7,329.6 L412.5,330.6 L411.3,331.6 L410.0,332.6 L408.8,333.6 L407.6,334.6 L406.5,335.6 L405.3,336.5 L404.1,337.5 L403.0,338.5 L401.9,339.5 L400.7,340.4 L399.6,341.4 L398.5,342.4 L397.4,343.3 L396.4,344.3 L395.3,345.2 L394.3,346.2 L393.2,347.1 L392.2,348.1 L391.2,349.0 L390.2,349.9 L389.2,350.9 L388.2,351.8 L387.3,352.7 L386.3,353.6 L385.4,354.6 L384.4,355.5 L383.5,356.4 L382.6,357.3 L381.7,358.2 L380.8,359.1 L379.9,360.0 L379.0,360.9 L378.1,361.8 L377.3,362.7 L376.4,363.5 L375.6,364.4 L374.8,365.3 L373.9,366.2 L373.1,367.0 L372.3,367.9 L371.5,368.8 L370.7,369.6 L370.0,370.5 L369.2,371.3 L368.4,372.2 L367.7,373.0 L366.9,373.9 L366.2,374.7 L365.5,375.6 L364.7,376.4 L364.0,377.2 L363.3,378.0 L362.6,378.9 L361.9,379.7 L361.2,380.5 L360.5,381.3 L359.8,382.1 L359.1,382.9 L358.5,383.7 L357.8,384.5 L357.1,385.3 L356.5,386.1 L355.8,386.9 L355.2,387.7 L354.6,388.5 L353.9,389.3 L353.3,390.1 L352.7,390.8 L352.0,391.6 L351.4,392.4 L350.8,393.1 L350.2,393.9 L349.6,394.7 L349.0,395.4 L348.4,396.2 L347.9,396.9 L347.3,397.7 L346.7,398.4 L346.1,399.1 L345.6,399.9 L345.0,400.6 L344.4,401.3 L343.9,402.1 L343.3,402.8 L342.8,403.5 L342.3,404.2 L341.7,404.9 L341.2,405.6 L340.7,406.4 L340.1,407.1 L339.6,407.8 L339.1,408.5 L338.6,409.2 L338.1,409.8 L337.6,410.5 L337.1,411.2 L336.5,411.9 L336.0,412.6 L335.6,413.3 L335.1,414.0 L334.6,414.7 L334.1,415.5 L333.6,416.2 L333.1,416.9 L332.6,417.6 L332.1,418.3 L331.7,419.1 L331.2,419.8 L330.7,420.5 L330.2,421.2 L329.8,421.9 L329.3,422.6 L328.8,423.3 L328.4,424.0 L327.9,424.7 L327.5,425.4 L327.0,426.1 L326.6,426.8 L326.2,427.5 L325.7,428.1 L325.3,428.8 L324.9,429.5 L324.5,430.1 L324.1,430.8 L323.7,431.4 L323.2,432.1 L322.8,432.7 L322.5,433.3 L322.1,434.0 L321.7,434.6 L321.3,435.2 L320.9,435.8 L320.5,436.5 L320.2,437.1 L319.8,437.7 L319.4,438.3 L319.1,439.0 L318.7,439.6 L318.4,440.2 L318.0,440.9 L317.7,441.5 L317.3,442.1 L317.0,442.7 L316.7,443.4 L316.3,444.0 L316.0,444.6 L315.7,445.2 L315.4,445.8 L315.1,446.4 L314.7,447.0 L314.4,447.5 L314.1,448.1 L313.9,448.7 L313.6,449.2 L313.3,449.8 L313.0,450.3 L312.7,450.9 L312.4,451.4 L312.1,452.0 L311.9,452.5 L311.6,453.0 L311.3,453.6 L311.1,454.1 L310.8,454.6 L310.5,455.2 L310.3,455.7 L310.0,456.3 L309.7,456.8 L309.5,457.4 L309.2,457.9 L309.0,458.4 L308.7,458.9 L308.5,459.4 L308.2,459.9 L308.0,460.3 L307.7,460.8 L307.5,461.2 L307.3,461.5 L307.0,461.9 L306.8,462.2 L306.6,462.5 L306.4,462.8 L306.2,463.0 L306.0,463.3 L305.8,463.4 L305.6,463.6 L305.4,463.8 L305.2,463.9 L305.1,464.0 L304.9,464.0 L304.7,464.1 L304.6,464.1 L304.4,464.1 L304.3,464.1 L304.1,464.1 L304.0,464.1 L303.8,464.1 L303.7,464.1 L303.5,464.1 L303.4,464.1 L303.2,464.1 L303.1,464.2 L302.9,464.2 L302.8,464.2 L302.6,464.3 L302.5,464.3 L302.4,464.4 L302.2,464.5 L302.1,464.6 L301.9,464.6 L301.8,464.7 L301.7,464.8 L301.5,465.0 L301.4,465.1 L301.2,465.2 L301.1,465.2 L301.0,465.3 L300.8,465.4 L300.7,465.5 L300.6,465.6 L300.4,465.6 L300.3,465.7 L300.1,465.8 L300.0,465.8 L299.9,465.9 L299.7,465.9 L299.6,466.0 L299.5,466.0 L299.3,466.1 L299.2,466.1 L299.1,466.2 L298.9,466.3 L298.8,466.4 L298.7,466.5 L298.5,466.6 L298.4,466.7 L298.3,466.8 L298.1,466.8 L298.0,466.9 L297.9,467.0 L297.7,467.1 L297.6,467.2 L297.5,467.3 L297.3,467.3 L297.2,467.4 L297.1,467.5 L296.9,467.5 L296.8,467.6 L296.7,467.6 L296.6,467.7 L296.4,467.7 L296.3,467.8 L296.2,467.8 L296.0,467.9 L295.9,468.0 L295.8,468.1 L295.6,468.2 L295.5,468.3 L295.4,468.4 L295.2,468.4 L295.1,468.5 L295.0,468.6 L294.8,468.7 L294.7,468.8 L294.6,468.8 L294.4,468.9 L294.3,469.0 L294.2,469.0 L294.0,469.1 L293.9,469.1 L293.7,469.2 L293.6,469.2 L293.4,469.3 L293.3,469.3 L293.1,469.4 L293.0,469.5 L292.8,469.6 L292.7,469.6 L292.5,469.7 L292.4,469.8 L292.2,469.9 L292.1,470.0 L291.9,470.1 L291.8,470.2 L291.6,470.3 L291.5,470.4 L291.3,470.5 L291.1,470.6 L290.9,470.6 L290.8,470.7 L290.6,470.8 L290.4,470.8 L290.2,470.9 L290.1,470.9 L289.9,471.0 L289.7,471.0 L289.5,471.1 L289.4,471.1 L289.2,471.2 L289.0,471.3 L288.8,471.4 L288.6,471.5 L288.5,471.6 L288.3,471.7 L288.1,471.8 L287.9,471.9 L287.8,472.0 L287.6,472.1 L287.4,472.2 L287.2,472.2 L287.0,472.3 L286.9,472.4 L286.7,472.4 L286.5,472.5 L286.3,472.6 L286.2,472.6 L286.0,472.7 L285.8,472.7 L285.6,472.8 L285.4,472.8 L285.3,472.9 L285.1,473.0 L284.9,473.1 L284.7,473.2 L284.6,473.2 L284.4,473.3 L284.2,473.4 L284.0,473.5 L283.8,473.6 L283.7,473.7 L283.5,473.8 L283.3,473.9 L283.1,474.0 L282.9,474.1 L282.7,474.2 L282.6,474.2 L282.4,474.3 L282.2,474.3 L282.0,474.4 L281.8,474.4 L281.6,474.5 L281.4,474.6 L281.3,474.6 L281.1,474.7 L280.9,474.8 L280.7,474.8 L280.5,474.9 L280.4,475.0 L280.2,475.1 L280.0,475.2 L279.8,475.3 L279.6,475.4 L279.4,475.5 L279.3,475.6 L279.1,475.7 L278.9,475.8 L278.7,475.9 L278.5,475.9 L278.4,476.0 L278.2,476.1 L278.0,476.1 L277.8,476.2 L277.6,476.2 L277.5,476.3 L277.3,476.3 L277.1,476.4 L276.9,476.4 L276.7,476.5 L276.5,476.6 L276.4,476.7 L276.2,476.8 L276.0,476.9 L275.8,477.0 L275.6,477.1 L275.5,477.2 L275.3,477.3 L275.1,477.3 L274.9,477.4 L274.8,477.5 L274.6,477.6 L274.4,477.7 L274.2,477.7 L274.1,477.8 L273.9,477.8 L273.7,477.9 L273.6,477.9 L273.4,478.0 L273.2,478.0 L273.0,478.1 L272.9,478.2 L272.7,478.2 L272.5,478.3 L272.3,478.4 L272.2,478.5 L272.0,478.6 L271.8,478.7 L271.7,478.8 L271.5,478.9 L271.3,479.0 L271.1,479.1 L271.0,479.2 L270.8,479.3 L270.6,479.3 L270.5,479.4 L270.3,479.5 L270.1,479.5 L269.9,479.6 L269.8,479.6 L269.6,479.7 L269.4,479.7 L269.3,479.8 L269.1,479.8 L268.9,479.9 L268.8,480.0 L268.6,480.0 L268.4,480.1 L268.3,480.2 L268.1,480.3 L268.0,480.4 L267.8,480.5 L267.6,480.6 L267.5,480.7 L267.3,480.8 L267.2,480.9 L267.0,481.0 L266.9,481.0 L266.7,481.1 L266.6,481.2 L266.4,481.2 L266.3,481.3 L266.2,481.3 L266.0,481.4 L265.9,481.4 L265.8,481.5 L265.6,481.5 L265.5,481.6 L265.4,481.7 L265.2,481.7 L265.1,481.8 L265.0,481.9 L264.8,482.0 L264.7,482.1 L264.6,482.2 L264.5,482.3 L264.4,482.4 L264.2,482.5 L264.1,482.6 L264.0,482.7 L263.9,482.7 L263.8,482.8 L263.7,482.9 L263.6,482.9 L263.5,483.0 L263.4,483.0 L263.3,483.1 L263.2,483.1 L263.1,483.2 L263.0,483.2 L262.9,483.3 L262.8,483.4 L262.7,483.5 L262.6,483.5 L262.5,483.6 L262.4,483.7 L262.3,483.8 L262.2,483.9 L262.1,484.0 L262.0,484.1 L261.9,484.2 L261.8,484.3 L261.7,484.4 L261.7,484.4 L261.6,484.5 L261.5,484.6 L261.4,484.6 L261.4,484.7 L261.3,484.7 L261.2,484.8 L261.2,484.9 L261.1,484.9 L261.0,485.0 L261.0,485.1 L260.9,485.2 L260.8,485.3 L260.8,485.3 L260.7,485.5 L260.7,485.6 L260.6,485.7 L260.6,485.8 L260.5,485.9 L260.4,485.9 L260.4,486.0 L260.3,486.1 L260.3,486.2 L260.3,486.3 L260.2,486.3 L260.2,486.4 L260.1,486.4 L260.1,486.5 L260.0,486.6 L260.0,486.6 L260.0,486.7 L259.9,486.8 L259.9,486.8 L259.8,486.9 L259.8,487.0 L259.8,487.1 L259.7,487.2 L259.7,487.3 L259.6,487.4 L259.6,487.5 L259.6,487.6 L259.5,487.7 L259.5,487.8 L259.4,487.9 L259.4,488.0 L259.4,488.0 L259.3,488.1 L259.3,488.1 L259.2,488.2 L259.2,488.2 L259.1,488.3 L259.1,488.3 L259.0,488.3 L258.9,488.4 L258.9,488.4 L258.8,488.5 L258.8,488.5 L258.7,488.6 L258.7,488.7 L258.6,488.7 L258.5,488.8 L258.5,488.9 L258.4,489.0 L258.4,489.1 L258.3,489.1 L258.3,489.2 L258.2,489.3 L258.1,489.4 L258.1,489.4 L258.0,489.5 L257.9,489.5 L257.9,489.6 L257.8,489.6 L257.7,489.6 L257.7,489.7 L257.6,489.7 L257.5,489.8 L257.5,489.8 L257.4,489.9 L257.3,489.9 L257.3,490.0 L257.2,490.1 L257.2,490.2 L257.1,490.3 L257.0,490.4 L257.0,490.4 L256.9,490.5 L256.8,490.6 L256.8,490.7 L256.7,490.7 L256.7,490.8 L256.6,490.8 L256.5,490.9 L256.5,490.9 L256.4,491.0 L256.4,491.0 L256.3,491.1 L256.2,491.1 L256.2,491.1 L256.1,491.2 L256.1,491.3 L256.0,491.3 L255.9,491.4 L255.9,491.5 L255.8,491.6 L255.8,491.7 L255.7,491.7 L255.6,491.8 L255.6,491.9 L255.5,492.0 L255.5,492.1 L255.4,492.1 L255.4,492.2 L255.3,492.2 L255.2,492.3 L255.2,492.3 L255.1,492.4 L255.1,492.4 L255.0,492.4 L254.9,492.5 L254.9,492.5 L254.8,492.6 L254.8,492.6 L254.7,492.7 L254.7,492.8 L254.6,492.9 L254.6,493.0 L254.5,493.0 L254.4,493.1 L254.4,493.2 L254.3,493.3 L254.3,493.4 L254.2,493.4 L254.2,493.5 L254.1,493.6 L254.1,493.6 L254.0,493.7 L254.0,493.7 L253.9,493.8 L253.9,493.8 L253.8,493.8 L253.8,493.9 L253.7,493.9 L253.7,494.0 L253.6,494.0 L253.5,494.1 L253.5,494.2 L253.4,494.3 L253.4,494.3 L253.3,494.4 L253.3,494.5 L253.2,494.6 L253.2,494.7 L253.1,494.8 L253.0,494.8 L253.0,494.9 L252.9,495.0 L252.9,495.0 L252.8,495.1 L252.7,495.1 L252.7,495.1 L252.6,495.2 L252.5,495.2 L252.5,495.3 L252.4,495.3 L252.4,495.4 L252.3,495.4 L252.2,495.5 L252.2,495.6 L252.1,495.7 L252.0,495.7 L252.0,495.8 L251.9,495.9 L251.8,496.0 L251.8,496.1 L251.7,496.2 L251.6,496.2 L251.6,496.3 L251.5,496.4 L251.4,496.4 L251.4,496.5 L251.3,496.5 L251.2,496.5 L251.2,496.6 L251.1,496.6 L251.0,496.7 L251.0,496.8 L250.9,496.8 L250.8,496.9 L250.8,497.0 L250.7,497.1 L250.6,497.2 L250.6,497.2 L250.5,497.3 L250.5,497.4 L250.4,497.5 L250.4,497.6 L250.3,497.7 L250.2,497.7 L250.2,497.8 L250.1,497.9 L250.1,497.9 L250.0,497.9 L250.0,498.0 L249.9,498.0 L249.9,498.1 L249.8,498.1 L249.8,498.2 L249.7,498.2 L249.7,498.3 L249.6,498.3 L249.6,498.4 L249.5,498.5 L249.5,498.6 L249.4,498.7 L249.4,498.8 L249.3,498.9 L249.3,499.0 L249.2,499.1 L249.2,499.1 L249.1,499.2 L249.1,499.3 L249.0,499.4 L248.9,499.4 L248.9,499.5 L248.8,499.5 L248.7,499.6 L248.7,499.6 L248.6,499.6 L248.5,499.6 L248.4,499.7 L248.4,499.7 L248.3,499.7 L248.2,499.7 L248.1,499.7 L248.1,499.7 L248.0,499.7 L247.9,499.7 L247.8,499.7 L247.7,499.7 L247.7,499.7 L247.6,499.7 L247.5,499.7 L247.4,499.7 L247.3,499.7 L247.2,499.7 L247.2,499.7 L247.1,499.8 L247.0,499.8 L246.9,499.8 L246.8,499.8 L246.7,499.8 L246.6,499.8 L246.5,499.8 L246.4,499.9 L246.3,499.9 L246.2,499.9 L246.1,499.9 L246.0,499.9 L245.9,499.9 L245.8,500.0 L245.7,500.0 L245.6,500.0" fill="none" stroke="#0891b2" stroke-width="3"/>
<line x1="108" y1="167" x2="137" y2="167" stroke="#ea580c" stroke-width="4"/>
<text x="146" y="172" font-family="Arial" font-size="13" fill="#334155">corridor</text>
<line x1="235" y1="167" x2="264" y2="167" stroke="#0891b2" stroke-width="4"/>
<text x="273" y="172" font-family="Arial" font-size="13" fill="#334155">predictive</text>
<text x="25" y="322.5" transform="rotate(-90 25,322.5)" font-family="Arial" font-size="14" fill="#334155">altitude z (m)</text>
<text x="405.0" y="535" font-family="Arial" font-size="14" fill="#334155">downrange x (m)</text>
<text x="77.0" y="518" font-family="Arial" font-size="11" fill="#64748b">-4</text>
<text x="447.0" y="518" font-family="Arial" font-size="11" fill="#64748b">8</text>
<text x="817.0" y="518" font-family="Arial" font-size="11" fill="#64748b">20</text>
<text x="900" y="132" font-family="Arial" font-size="21" font-weight="700" fill="#0f172a">Matched 200-case result</text>
<text x="1105" y="170" font-family="Arial" font-size="13" font-weight="700" fill="#ea580c">corridor</text>
<text x="1240" y="170" font-family="Arial" font-size="13" font-weight="700" fill="#0891b2">predictive</text>
<text x="900" y="204" font-family="Arial" font-size="14" fill="#334155">success</text>
<text x="1105" y="204" font-family="Arial" font-size="14" fill="#334155">93.0%</text>
<text x="1240" y="204" font-family="Arial" font-size="14" font-weight="700" fill="#0f172a">97.5%</text>
<text x="900" y="246" font-family="Arial" font-size="14" fill="#334155">p95 |pad error|</text>
<text x="1105" y="246" font-family="Arial" font-size="14" fill="#334155">3.18 m</text>
<text x="1240" y="246" font-family="Arial" font-size="14" font-weight="700" fill="#0f172a">2.63 m</text>
<text x="900" y="288" font-family="Arial" font-size="14" fill="#334155">p95 touchdown speed</text>
<text x="1105" y="288" font-family="Arial" font-size="14" fill="#334155">0.92 m/s</text>
<text x="1240" y="288" font-family="Arial" font-size="14" font-weight="700" fill="#0f172a">0.96 m/s</text>
<text x="900" y="330" font-family="Arial" font-size="14" fill="#334155">minimum propellant</text>
<text x="1105" y="330" font-family="Arial" font-size="14" fill="#334155">2415 kg</text>
<text x="1240" y="330" font-family="Arial" font-size="14" font-weight="700" fill="#0f172a">2449 kg</text>
<text x="900" y="390" font-family="Arial" font-size="19" font-weight="700" fill="#0f172a">Physical interpretation</text>
<text x="900" y="425" font-family="Arial" font-size="14" font-weight="400" fill="#334155">Success increases by +4.5 points</text>
<text x="900" y="446" font-family="Arial" font-size="14" font-weight="400" fill="#334155">and p95 pad error changes by -0.54 m.</text>
<text x="900" y="467" font-family="Arial" font-size="14" font-weight="400" fill="#334155">The predictive trajectory removes crossrange</text>
<text x="900" y="488" font-family="Arial" font-size="14" font-weight="400" fill="#334155">velocity earlier, while altitude and time-to-go</text>
<text x="900" y="509" font-family="Arial" font-size="14" font-weight="400" fill="#334155">are large. The 160 m terminal handoff then</text>
<text x="900" y="530" font-family="Arial" font-size="14" font-weight="400" fill="#334155">reserves the final phase for braking and</text>
<text x="900" y="551" font-family="Arial" font-size="14" font-weight="400" fill="#334155">actuator-lag accommodation.</text>
<line x1="62" y1="565" x2="1438" y2="565" stroke="#cbd5e1" stroke-width="2"/>
<text x="90" y="595" font-family="Arial" font-size="20" font-weight="700" fill="#0f172a">Deterministic lateral-reachability sweep</text>
<rect x="90" y="615" width="850" height="280" fill="#ffffff" stroke="#cbd5e1"/>
<line x1="90" y1="807.5" x2="940" y2="807.5" stroke="#dc2626" stroke-dasharray="7 5"/>
<text x="59" y="811.5" font-family="Arial" font-size="11" fill="#64748b">-3</text>
<line x1="90" y1="755.0" x2="940" y2="755.0" stroke="#94a3b8"/>
<text x="59" y="759.0" font-family="Arial" font-size="11" fill="#64748b">+0</text>
<line x1="90" y1="702.5" x2="940" y2="702.5" stroke="#dc2626" stroke-dasharray="7 5"/>
<text x="59" y="706.5" font-family="Arial" font-size="11" fill="#64748b">+3</text>
<text x="82.0" y="913" font-family="Arial" font-size="11" fill="#64748b">0</text>
<text x="324.9" y="913" font-family="Arial" font-size="11" fill="#64748b">20</text>
<text x="567.7" y="913" font-family="Arial" font-size="11" fill="#64748b">40</text>
<text x="810.6" y="913" font-family="Arial" font-size="11" fill="#64748b">60</text>
<path d="M90.0,750.6 L211.4,764.1 L332.9,763.7 L454.3,781.9 L575.7,826.1 L697.1,860.0 L818.6,815.0 L940.0,713.3" fill="none" stroke="#ea580c" stroke-width="2.5"/>
<circle cx="90.0" cy="750.6" r="6" fill="#ea580c" stroke="#ea580c" stroke-width="2"/>
<circle cx="211.4" cy="764.1" r="6" fill="#ea580c" stroke="#ea580c" stroke-width="2"/>
<circle cx="332.9" cy="763.7" r="6" fill="#ea580c" stroke="#ea580c" stroke-width="2"/>
<circle cx="454.3" cy="781.9" r="6" fill="#ea580c" stroke="#ea580c" stroke-width="2"/>
<circle cx="575.7" cy="826.1" r="6" fill="#ffffff" stroke="#ea580c" stroke-width="2"/>
<circle cx="697.1" cy="860.0" r="6" fill="#ffffff" stroke="#ea580c" stroke-width="2"/>
<circle cx="818.6" cy="815.0" r="6" fill="#ffffff" stroke="#ea580c" stroke-width="2"/>
<circle cx="940.0" cy="713.3" r="6" fill="#ffffff" stroke="#ea580c" stroke-width="2"/>
<path d="M90.0,738.3 L211.4,737.3 L332.9,744.2 L454.3,764.8 L575.7,752.6 L697.1,688.8 L818.6,654.9 L940.0,676.9" fill="none" stroke="#0891b2" stroke-width="2.5"/>
<circle cx="90.0" cy="738.3" r="6" fill="#0891b2" stroke="#0891b2" stroke-width="2"/>
<circle cx="211.4" cy="737.3" r="6" fill="#0891b2" stroke="#0891b2" stroke-width="2"/>
<circle cx="332.9" cy="744.2" r="6" fill="#0891b2" stroke="#0891b2" stroke-width="2"/>
<circle cx="454.3" cy="764.8" r="6" fill="#0891b2" stroke="#0891b2" stroke-width="2"/>
<circle cx="575.7" cy="752.6" r="6" fill="#0891b2" stroke="#0891b2" stroke-width="2"/>
<circle cx="697.1" cy="688.8" r="6" fill="#ffffff" stroke="#0891b2" stroke-width="2"/>
<circle cx="818.6" cy="654.9" r="6" fill="#ffffff" stroke="#0891b2" stroke-width="2"/>
<circle cx="940.0" cy="676.9" r="6" fill="#ffffff" stroke="#0891b2" stroke-width="2"/>
<text x="457.0" y="931" font-family="Arial" font-size="14" fill="#334155">initial offset (m)</text>
<text x="22" y="755.0" transform="rotate(-90 22,755.0)" font-family="Arial" font-size="14" fill="#334155">landing error (m)</text>
<text x="102" y="694.5" font-family="Arial" font-size="12" fill="#dc2626">+/-3 m requirement</text>
<text x="1000" y="610" font-family="Arial" font-size="20" font-weight="700" fill="#0f172a">Reachability result</text>
<text x="1000" y="650" font-family="Arial" font-size="14" font-weight="400" fill="#334155">Filled markers pass all touchdown constraints;</text>
<text x="1000" y="671" font-family="Arial" font-size="14" font-weight="400" fill="#334155">open markers fail. Corridor guidance remains</text>
<text x="1000" y="692" font-family="Arial" font-size="14" font-weight="400" fill="#334155">successful through a 30 m initial offset.</text>
<text x="1000" y="713" font-family="Arial" font-size="14" font-weight="400" fill="#334155">Predictive shaping extends that coarse sampled</text>
<text x="1000" y="734" font-family="Arial" font-size="14" font-weight="400" fill="#334155">boundary to 40 m. A separate 48 m case also</text>
<text x="1000" y="755" font-family="Arial" font-size="14" font-weight="400" fill="#334155">passes at the finer 0.05 s integration step.</text>
<text x="1000" y="776" font-family="Arial" font-size="14" font-weight="400" fill="#334155"></text>
<text x="1000" y="797" font-family="Arial" font-size="14" font-weight="400" fill="#334155">Both modes fail at 60-70 m. This retained</text>
<text x="1000" y="818" font-family="Arial" font-size="14" font-weight="400" fill="#334155">failure boundary is physical: finite time,</text>
<text x="1000" y="839" font-family="Arial" font-size="14" font-weight="400" fill="#334155">tilt, thrust, and terminal-velocity requirements</text>
<text x="1000" y="860" font-family="Arial" font-size="14" font-weight="400" fill="#334155">bound the available lateral impulse.</text>
<text x="90" y="995" font-family="Arial" font-size="13" font-weight="400" fill="#64748b">The sweep is a sampled closed-loop map, not a formal reachable set; no guarantee is made between tested offsets.</text>
</svg>
